<svg width="512" height="512" viewBox="0 0 512 512" fill="none" xmlns="http://www.w3.org/2000/svg">
<path d="M413.9 224.7C432.5 216.7 438.8 199 438.8 174.1V153.7C438.8 109.8 417.9 79.6 351.4 79.6H303.2C294.8 79.6 288.1 86.4 288.1 94.7V144.3C288.1 152.7 294.9 159.4 303.2 159.4H321.2C336.7 159.4 340.7 168.3 340.7 180.3V195.4C340.7 207.4 336.7 216.3 321.2 216.3H160.7C153 216.3 146.8 210.1 146.8 202.4L146.9 173.3C146.9 165.6 153.1 159.5 160.8 159.5H236.8C245.2 159.5 251.9 152.7 251.9 144.4V94.7C251.9 86.3 245.1 79.6 236.8 79.6H131.8C74.1001 79.6 57.6001 107.1 57.6001 157.7V204.3C57.6001 244.7 57.6001 280.3 86.6001 291.1C94.3001 294 102.5 295.5 110.8 296.2L151.3 296.3C157.7 297.5 162.6 303.2 162.6 310L162.5 339.1C162.5 346.8 156.3 352.9 148.6 352.9H72.2001C63.8001 352.9 57.1001 359.7 57.1001 368V417.7C57.1001 426.1 63.9001 432.8 72.2001 432.8H177.5C235.2 432.8 251.7 405.3 251.7 354.7C251.7 354.7 251.7 300.3 251.7 296.6L349.9 296.7C362.3 296.7 366.8 302.5 366.8 315.8V414C366.8 422.8 374 430 382.8 430H439C447.8 430 455 422.8 455 414V289C455 251.7 446.3 228.2 413.9 224.7Z" fill="url(#paint0_linear_26_2)"/>
<defs>
<linearGradient id="paint0_linear_26_2" x1="57.1911" y1="256.124" x2="455" y2="256.124" gradientUnits="userSpaceOnUse">
<stop stop-color="#F5DEB3"/>
<stop offset="0.995" stop-color="#9FD96B"/>
</linearGradient>
</defs>
</svg>
