<?xml version="1.0" standalone="no"?>
<!DOCTYPE svg PUBLIC "-//W3C//DTD SVG 20010904//EN"
 "http://www.w3.org/TR/2001/REC-SVG-20010904/DTD/svg10.dtd">
<svg version="1.0" xmlns="http://www.w3.org/2000/svg"
 width="512.000000pt" height="512.000000pt" viewBox="0 0 512.000000 512.000000"
 preserveAspectRatio="xMidYMid meet">
<metadata>
Created by potrace 1.14, written by Peter Selinger 2001-2017
</metadata>
<g transform="translate(0.000000,512.000000) scale(0.100000,-0.100000)"
fill="#000000" stroke="none">
<path d="M1257 4324 c-1 -1 -37 -4 -80 -8 -331 -25 -525 -193 -581 -503 -18
-104 -27 -635 -16 -1005 7 -246 58 -416 151 -510 55 -55 102 -80 200 -108 100
-28 139 -31 389 -34 194 -1 218 -3 244 -21 54 -36 63 -74 61 -268 -2 -196 -10
-223 -75 -258 -32 -18 -64 -19 -452 -19 -403 0 -418 -1 -452 -21 -20 -12 -43
-38 -55 -63 -20 -40 -21 -60 -21 -314 0 -309 3 -322 70 -371 l41 -30 642 3
c623 3 645 4 727 25 240 62 369 186 429 413 31 117 33 145 36 534 1 205 5 376
8 380 3 5 236 8 519 8 548 -1 546 -1 590 -50 34 -39 37 -93 37 -631 0 -584 -2
-564 61 -616 17 -15 45 -29 63 -32 18 -3 172 -5 343 -3 l311 3 35 27 c73 56
70 12 65 841 -2 408 -7 753 -9 767 -3 14 -13 54 -22 88 -43 170 -148 277 -308
312 l-58 13 38 25 c109 72 160 158 186 315 15 86 19 439 6 509 -5 24 -11 59
-14 78 -7 47 -38 136 -64 184 -101 188 -306 300 -610 332 -37 4 -206 8 -376 8
-345 2 -361 -1 -407 -65 l-24 -34 0 -300 c0 -298 0 -300 23 -333 40 -56 69
-64 226 -66 246 -4 275 -35 272 -296 -2 -129 -4 -150 -25 -188 -17 -33 -33
-49 -69 -64 -46 -21 -58 -21 -887 -21 -931 0 -894 -2 -935 65 -18 30 -20 50
-20 219 0 177 1 188 23 220 43 63 39 63 497 64 460 1 454 0 502 67 23 33 23
37 25 323 2 283 2 291 -20 330 -14 25 -37 47 -62 60 -38 18 -65 19 -608 20
-313 0 -569 -1 -570 -1z"/>
</g>
</svg>
