<svg width="62" height="62" viewBox="0 0 62 62" fill="none" xmlns="http://www.w3.org/2000/svg">
<rect width="62" height="62" fill="#FDB515"/>
<path d="M40 32.5C40.8284 32.5 41.5 31.8284 41.5 31C41.5 30.1716 40.8284 29.5 40 29.5V32.5ZM16.9393 29.9393C16.3536 30.5251 16.3536 31.4749 16.9393 32.0607L26.4853 41.6066C27.0711 42.1924 28.0208 42.1924 28.6066 41.6066C29.1924 41.0208 29.1924 40.0711 28.6066 39.4853L20.1213 31L28.6066 22.5147C29.1924 21.9289 29.1924 20.9792 28.6066 20.3934C28.0208 19.8076 27.0711 19.8076 26.4853 20.3934L16.9393 29.9393ZM40 29.5L18 29.5V32.5H40V29.5Z" fill="white"/>
</svg>
