<svg width="68" height="62" viewBox="0 0 68 62" fill="none" xmlns="http://www.w3.org/2000/svg">
<g clip-path="url(#clip0)">
<path d="M68.6761 0H0V62H68.6761V31V0Z" fill="#FDB515"/>
<path d="M17 29.5001C16.1716 29.5001 15.5 30.1717 15.5 31.0001C15.5 31.8285 16.1716 32.5001 17 32.5001V29.5001ZM40.0607 32.0608C40.6464 31.475 40.6464 30.5252 40.0607 29.9394L30.5147 20.3935C29.9289 19.8077 28.9792 19.8077 28.3934 20.3935C27.8076 20.9793 27.8076 21.929 28.3934 22.5148L36.8787 31.0001L28.3934 39.4853C27.8076 40.0711 27.8076 41.0209 28.3934 41.6067C28.9792 42.1925 29.9289 42.1925 30.5147 41.6067L40.0607 32.0608ZM17 32.5001H39V29.5001H17V32.5001Z" fill="white"/>
</g>
<defs>
<clipPath id="clip0">
<rect width="68" height="62" fill="white"/>
</clipPath>
</defs>
</svg>
