<svg width="238" height="220" viewBox="0 0 238 220" fill="none" xmlns="http://www.w3.org/2000/svg">
<path d="M123.839 148.452V157.954H116.661V148.452C112.533 147.018 109.482 143.073 109.482 138.232C109.482 132.316 114.328 127.475 120.25 127.475C126.172 127.475 131.018 132.316 131.018 138.232C131.018 142.894 127.967 146.838 123.839 148.452ZM93.3304 82.6515C93.3304 67.7702 105.354 55.7576 120.25 55.7576C135.146 55.7576 147.17 67.7702 147.17 82.6515V102.553L120.25 100.581L93.3304 102.553V82.6515ZM157.937 103.27V82.6515C157.937 61.8535 141.068 45 120.25 45C99.4321 45 82.5625 61.8535 82.5625 82.6515V103.27L70 104.167V172.298L120.25 175.884L170.5 172.298V104.167L157.937 103.27Z" fill="url(#paint0_linear)"/>
<defs>
<linearGradient id="paint0_linear" x1="76.1018" y1="56.2186" x2="213.722" y2="161.544" gradientUnits="userSpaceOnUse">
<stop stop-color="#193561"/>
<stop offset="1" stop-color="#9EB3D5"/>
</linearGradient>
</defs>
</svg>
