<svg width="76" height="68" viewBox="0 0 76 68" fill="none" xmlns="http://www.w3.org/2000/svg">
<path d="M9.62887 17.5075L1.47179 31.4792C0.562415 33.0368 0.562414 34.9635 1.47179 36.5211L9.62887 50.4929L17.4176 64.5974C18.3082 66.2102 20.0136 67.2026 21.8558 67.18L37.728 66.9856L53.6002 67.18C55.4424 67.2026 57.1478 66.2102 58.0384 64.5974L65.8271 50.4929L73.9842 36.5211C74.8936 34.9635 74.8936 33.0368 73.9842 31.4792L65.8271 17.5075L58.0384 3.40288C57.1478 1.79007 55.4424 0.797712 53.6002 0.82028L37.728 1.01474L21.8558 0.820281C20.0136 0.797713 18.3082 1.79007 17.4176 3.40288L9.62887 17.5075Z" fill="url(#paint0_linear)"/>
<mask id="mask0" mask-type="alpha" maskUnits="userSpaceOnUse" x="0" y="0" width="75" height="68">
<path d="M9.62887 17.5075L1.47179 31.4792C0.562415 33.0368 0.562414 34.9635 1.47179 36.5211L9.62887 50.4929L17.4176 64.5974C18.3082 66.2102 20.0136 67.2026 21.8558 67.18L37.728 66.9856L53.6002 67.18C55.4424 67.2026 57.1478 66.2102 58.0384 64.5974L65.8271 50.4929L73.9842 36.5211C74.8936 34.9635 74.8936 33.0368 73.9842 31.4792L65.8271 17.5075L58.0384 3.40288C57.1478 1.79007 55.4424 0.797712 53.6002 0.82028L37.728 1.01474L21.8558 0.820281C20.0136 0.797713 18.3082 1.79007 17.4176 3.40288L9.62887 17.5075Z" fill="url(#paint1_linear)"/>
</mask>
<g mask="url(#mask0)">
<path d="M17.0312 52.2773C9.20312 31.8398 5.17188 21.293 4.9375 20.6367C4.70312 19.957 4.45703 19.3359 4.19922 18.7734C3.61328 17.4609 3.08594 16.8047 2.61719 16.8047C2.3125 16.8047 1.97266 16.8398 1.59766 16.9102C1.22266 16.9805 0.917969 16.8516 0.683594 16.5234C0.449219 16.1953 0.332031 15.7852 0.332031 15.293C0.332031 14.8008 0.554688 14.2969 1 13.7812C1.46875 13.2656 2.04297 12.8203 2.72266 12.4453C4.19922 11.5781 5.37109 11.1445 6.23828 11.1445C7.10547 11.1445 7.79688 11.168 8.3125 11.2148C8.82812 11.2617 9.30859 11.4375 9.75391 11.7422C10.6914 12.3516 11.4766 13.6641 12.1094 15.6797L22.4102 46.4062C24.0508 43.1016 25.2695 40.5703 26.0664 38.8125L28.2461 33.6797C30.8711 27.2109 32.1836 22.6641 32.1836 20.0391V19.582C32.1836 18.4102 31.9141 17.4844 31.375 16.8047C30.8594 16.125 29.9336 15.7148 28.5977 15.5742C28.3633 15.1992 28.2461 14.8125 28.2461 14.4141C28.2461 13.9922 28.4688 13.582 28.9141 13.1836C29.3828 12.7617 29.9688 12.3984 30.6719 12.0938C32.125 11.4609 33.707 11.1445 35.418 11.1445C37.1523 11.1445 38.4883 11.4141 39.4258 11.9531C40.3867 12.4688 40.8672 13.5 40.8672 15.0469C40.8672 18.3281 38.6406 24.8555 34.1875 34.6289L30.9883 41.3438C28.7852 45.7969 27.1211 48.8203 25.9961 50.4141C23.9805 53.25 22.2109 54.668 20.6875 54.668C19.5859 54.668 18.6016 54.2344 17.7344 53.3672C17.4297 53.0625 17.1953 52.6992 17.0312 52.2773ZM71.4883 23.625C71.4883 20.0156 69.9883 17.625 66.9883 16.4531C66.0273 16.0781 64.9844 15.8906 63.8594 15.8906C62.7578 15.8906 61.7266 15.9844 60.7656 16.1719C59.8281 16.3594 58.9961 16.6523 58.2695 17.0508C56.6289 17.9414 55.8086 19.2188 55.8086 20.8828C55.8086 22.4766 56.4883 23.8594 57.8477 25.0312C59.3477 26.2734 62.1367 27.8086 66.2148 29.6367C70.293 31.4414 73.4336 33.4219 75.6367 35.5781C77.8633 37.7109 78.9766 40.1719 78.9766 42.9609C78.9766 46.1016 77.6875 48.75 75.1094 50.9062C72.0859 53.4141 67.9023 54.668 62.5586 54.668C56.0195 54.668 51.4961 53.2734 48.9883 50.4844C48.1211 49.5 47.6875 48.2461 47.6875 46.7227C47.6875 43.043 48.5898 40.8984 50.3945 40.2891C50.8398 40.1484 51.2617 40.0781 51.6602 40.0781C52.7617 40.0781 53.3594 40.418 53.4531 41.0977C53.9688 46.957 57.25 49.8867 63.2969 49.8867C66.9297 49.8867 69.3555 48.8672 70.5742 46.8281C70.9727 46.1719 71.1719 45.375 71.1719 44.4375C71.1719 43.5 70.8672 42.6445 70.2578 41.8711C69.6719 41.0977 68.8516 40.3828 67.7969 39.7266C66.7422 39.0469 65.4883 38.3906 64.0352 37.7578L59.3594 35.6484C52.1875 32.3672 48.6016 28.0078 48.6016 22.5703C48.6016 19.0547 50.1602 16.2422 53.2773 14.1328C56.2305 12.1406 60.0391 11.1445 64.7031 11.1445C71.0312 11.1445 74.9688 12.5156 76.5156 15.2578C76.9141 15.9609 77.1133 16.7344 77.1133 17.5781C77.1133 18.4219 77.0664 19.1836 76.9727 19.8633C76.8789 20.5195 76.7617 21.1172 76.6211 21.6562C76.3867 22.6875 76.1172 23.4141 75.8125 23.8359C75.2031 24.2812 74.3242 24.5039 73.1758 24.5039C72.0508 24.5039 71.4883 24.2109 71.4883 23.625Z" fill="black" fill-opacity="0.08"/>
</g>
<path d="M23.563 19.1049L29.3198 13.2895H32.3813V33.2992H28.8657V17.8451L25.5991 21.2436L23.563 19.1049ZM35.7358 16.2045C36.5952 15.1693 37.6792 14.3783 38.9878 13.8315C40.3061 13.2748 41.6831 12.9965 43.1186 12.9965C44.437 12.9965 45.6333 13.2309 46.7075 13.6996C47.7915 14.1586 48.6704 14.8666 49.3442 15.8236C50.0278 16.7709 50.3696 17.8842 50.3696 19.1635C50.3696 20.0619 50.1743 20.9604 49.7837 21.8588C49.393 22.7475 48.7925 23.6557 47.9819 24.5834C47.1714 25.5014 46.268 26.3998 45.2719 27.2787C44.2759 28.1479 43.0551 29.1244 41.6098 30.2084H50.5014V33.2992H35.9995V30.5453C37.4155 29.4711 38.5874 28.5727 39.5151 27.85C40.4428 27.1273 41.351 26.39 42.2397 25.6381C43.1284 24.8861 43.8266 24.2465 44.3344 23.7191C44.8423 23.1918 45.3012 22.6547 45.7114 22.1078C46.1216 21.5609 46.4048 21.0531 46.561 20.5844C46.727 20.1156 46.81 19.642 46.81 19.1635C46.81 18.1772 46.4536 17.4203 45.7407 16.893C45.0278 16.3656 44.1733 16.102 43.1772 16.102C40.98 16.102 39.1782 16.9027 37.7719 18.5043L35.7358 16.2045ZM28.6157 50.2992V40.9613H32.7173C33.6606 40.9613 34.4057 41.2439 34.9526 41.809C35.4995 42.3695 35.7729 43.0622 35.7729 43.8871C35.7729 44.712 35.4972 45.407 34.9458 45.9721C34.3989 46.5326 33.6561 46.8129 32.7173 46.8129H30.2563V50.2992H28.6157ZM30.2563 45.3705H32.4985C32.9634 45.3705 33.3439 45.2338 33.6401 44.9604C33.9409 44.6869 34.0913 44.3292 34.0913 43.8871C34.0913 43.4451 33.9409 43.0873 33.6401 42.8139C33.3439 42.5404 32.9634 42.4037 32.4985 42.4037H30.2563V45.3705ZM37.1333 50.2992V40.9613H39.4438L41.98 47.1068L44.5298 40.9613H46.8403V50.2992H45.1997V43.3676L42.3286 50.2992H41.6313L38.7739 43.3676V50.2992H37.1333Z" fill="white"/>
<defs>
<linearGradient id="paint0_linear" x1="37.728" y1="67.2167" x2="37.728" y2="0.783629" gradientUnits="userSpaceOnUse">
<stop stop-color="#6448A0"/>
<stop offset="1" stop-color="#A168D0"/>
</linearGradient>
<linearGradient id="paint1_linear" x1="37.728" y1="67.2167" x2="37.728" y2="0.783629" gradientUnits="userSpaceOnUse">
<stop stop-color="#6448A0"/>
<stop offset="1" stop-color="#A168D0"/>
</linearGradient>
</defs>
</svg>
