<svg width="76" height="67" viewBox="0 0 76 67" fill="none" xmlns="http://www.w3.org/2000/svg">
<path d="M9.62887 16.7238L1.47179 30.6956C0.562415 32.2532 0.562414 34.1799 1.47179 35.7375L9.62887 49.7092L17.4176 63.8138C18.3082 65.4266 20.0136 66.419 21.8558 66.3964L37.728 66.202L53.6002 66.3964C55.4424 66.419 57.1478 65.4266 58.0384 63.8138L65.8271 49.7092L73.9842 35.7375C74.8936 34.1799 74.8936 32.2532 73.9842 30.6956L65.8271 16.7238L58.0384 2.61924C57.1478 1.00644 55.4424 0.0140814 53.6002 0.0366492L37.728 0.231108L21.8558 0.0366506C20.0136 0.014083 18.3082 1.00644 17.4176 2.61925L9.62887 16.7238Z" fill="url(#paint0_linear)"/>
<mask id="mask0" mask-type="alpha" maskUnits="userSpaceOnUse" x="0" y="0" width="75" height="67">
<path d="M9.62887 16.7238L1.47179 30.6956C0.562415 32.2532 0.562414 34.1799 1.47179 35.7375L9.62887 49.7092L17.4176 63.8138C18.3082 65.4266 20.0136 66.419 21.8558 66.3964L37.728 66.202L53.6002 66.3964C55.4424 66.419 57.1478 65.4266 58.0384 63.8138L65.8271 49.7092L73.9842 35.7375C74.8936 34.1799 74.8936 32.2532 73.9842 30.6956L65.8271 16.7238L58.0384 2.61924C57.1478 1.00644 55.4424 0.0140814 53.6002 0.0366492L37.728 0.231108L21.8558 0.0366506C20.0136 0.014083 18.3082 1.00644 17.4176 2.61925L9.62887 16.7238Z" fill="url(#paint1_linear)"/>
</mask>
<g mask="url(#mask0)">
<path d="M17.0312 51.4937C9.20312 31.0562 5.17188 20.5093 4.9375 19.8531C4.70312 19.1734 4.45703 18.5523 4.19922 17.9898C3.61328 16.6773 3.08594 16.0211 2.61719 16.0211C2.3125 16.0211 1.97266 16.0562 1.59766 16.1265C1.22266 16.1968 0.917969 16.0679 0.683594 15.7398C0.449219 15.4117 0.332031 15.0015 0.332031 14.5093C0.332031 14.0172 0.554688 13.5132 1 12.9976C1.46875 12.482 2.04297 12.0367 2.72266 11.6617C4.19922 10.7945 5.37109 10.3609 6.23828 10.3609C7.10547 10.3609 7.79688 10.3843 8.3125 10.4312C8.82812 10.4781 9.30859 10.6539 9.75391 10.9586C10.6914 11.5679 11.4766 12.8804 12.1094 14.8961L22.4102 45.6226C24.0508 42.3179 25.2695 39.7867 26.0664 38.0289L28.2461 32.8961C30.8711 26.4273 32.1836 21.8804 32.1836 19.2554V18.7984C32.1836 17.6265 31.9141 16.7007 31.375 16.0211C30.8594 15.3414 29.9336 14.9312 28.5977 14.7906C28.3633 14.4156 28.2461 14.0289 28.2461 13.6304C28.2461 13.2086 28.4688 12.7984 28.9141 12.4C29.3828 11.9781 29.9688 11.6148 30.6719 11.3101C32.125 10.6773 33.707 10.3609 35.418 10.3609C37.1523 10.3609 38.4883 10.6304 39.4258 11.1695C40.3867 11.6851 40.8672 12.7164 40.8672 14.2632C40.8672 17.5445 38.6406 24.0718 34.1875 33.8453L30.9883 40.5601C28.7852 45.0132 27.1211 48.0367 25.9961 49.6304C23.9805 52.4664 22.2109 53.8843 20.6875 53.8843C19.5859 53.8843 18.6016 53.4507 17.7344 52.5836C17.4297 52.2789 17.1953 51.9156 17.0312 51.4937ZM71.4883 22.8414C71.4883 19.232 69.9883 16.8414 66.9883 15.6695C66.0273 15.2945 64.9844 15.107 63.8594 15.107C62.7578 15.107 61.7266 15.2007 60.7656 15.3882C59.8281 15.5757 58.9961 15.8687 58.2695 16.2672C56.6289 17.1578 55.8086 18.4351 55.8086 20.0992C55.8086 21.6929 56.4883 23.0757 57.8477 24.2476C59.3477 25.4898 62.1367 27.025 66.2148 28.8531C70.293 30.6578 73.4336 32.6382 75.6367 34.7945C77.8633 36.9273 78.9766 39.3882 78.9766 42.1773C78.9766 45.3179 77.6875 47.9664 75.1094 50.1226C72.0859 52.6304 67.9023 53.8843 62.5586 53.8843C56.0195 53.8843 51.4961 52.4898 48.9883 49.7007C48.1211 48.7164 47.6875 47.4625 47.6875 45.939C47.6875 42.2593 48.5898 40.1148 50.3945 39.5054C50.8398 39.3648 51.2617 39.2945 51.6602 39.2945C52.7617 39.2945 53.3594 39.6343 53.4531 40.314C53.9688 46.1734 57.25 49.1031 63.2969 49.1031C66.9297 49.1031 69.3555 48.0836 70.5742 46.0445C70.9727 45.3882 71.1719 44.5914 71.1719 43.6539C71.1719 42.7164 70.8672 41.8609 70.2578 41.0875C69.6719 40.314 68.8516 39.5992 67.7969 38.9429C66.7422 38.2632 65.4883 37.607 64.0352 36.9742L59.3594 34.8648C52.1875 31.5836 48.6016 27.2242 48.6016 21.7867C48.6016 18.2711 50.1602 15.4586 53.2773 13.3492C56.2305 11.357 60.0391 10.3609 64.7031 10.3609C71.0312 10.3609 74.9688 11.732 76.5156 14.4742C76.9141 15.1773 77.1133 15.9507 77.1133 16.7945C77.1133 17.6382 77.0664 18.4 76.9727 19.0797C76.8789 19.7359 76.7617 20.3336 76.6211 20.8726C76.3867 21.9039 76.1172 22.6304 75.8125 23.0523C75.2031 23.4976 74.3242 23.7203 73.1758 23.7203C72.0508 23.7203 71.4883 23.4273 71.4883 22.8414Z" fill="black" fill-opacity="0.08"/>
</g>
<path d="M30.4184 29.791L32.4253 27.3886C33.8218 28.9707 35.6235 29.7617 37.8305 29.7617C39.061 29.7617 40.0522 29.4248 40.8042 28.7509C41.5561 28.0771 41.9321 27.2422 41.9321 26.2461C41.9321 25.1621 41.5659 24.2978 40.8335 23.6533C40.1108 22.999 39.1391 22.6718 37.9184 22.6718C36.2192 22.6718 34.7593 23.2529 33.5385 24.415L31.0483 23.6972V12.5058H44.1587V15.5966H34.5493V21.3828C35.0571 20.875 35.7114 20.4599 36.5122 20.1377C37.313 19.8056 38.1723 19.6396 39.0903 19.6396C40.2231 19.6396 41.268 19.8886 42.2251 20.3867C43.1821 20.8847 43.9634 21.6318 44.5688 22.6279C45.1743 23.624 45.477 24.7812 45.477 26.0996C45.477 28.1601 44.769 29.8056 43.353 31.0361C41.9468 32.2666 40.1157 32.8818 37.8598 32.8818C34.6469 32.8818 32.1665 31.8515 30.4184 29.791ZM28.6157 49.5156V40.1777H32.7173C33.6606 40.1777 34.4057 40.4603 34.9526 41.0254C35.4995 41.5859 35.7729 42.2786 35.7729 43.1035C35.7729 43.9284 35.4972 44.6233 34.9458 45.1884C34.3989 45.749 33.6561 46.0293 32.7173 46.0293H30.2563V49.5156H28.6157ZM30.2563 44.5869H32.4985C32.9634 44.5869 33.3439 44.4502 33.6401 44.1767C33.9409 43.9033 34.0913 43.5455 34.0913 43.1035C34.0913 42.6614 33.9409 42.3037 33.6401 42.0302C33.3439 41.7568 32.9634 41.6201 32.4985 41.6201H30.2563V44.5869ZM37.1333 49.5156V40.1777H39.4438L41.98 46.3232L44.5298 40.1777H46.8403V49.5156H45.1997V42.584L42.3286 49.5156H41.6313L38.7739 42.584V49.5156H37.1333Z" fill="white"/>
<defs>
<linearGradient id="paint0_linear" x1="37.728" y1="66.4331" x2="37.728" y2="-1.42907e-06" gradientUnits="userSpaceOnUse">
<stop stop-color="#6448A0"/>
<stop offset="1" stop-color="#A168D0"/>
</linearGradient>
<linearGradient id="paint1_linear" x1="37.728" y1="66.4331" x2="37.728" y2="-1.42907e-06" gradientUnits="userSpaceOnUse">
<stop stop-color="#6448A0"/>
<stop offset="1" stop-color="#A168D0"/>
</linearGradient>
</defs>
</svg>
