<svg width="375" height="74" viewBox="0 0 375 74" fill="none" xmlns="http://www.w3.org/2000/svg">
<path d="M0 0H375V5.5L0 74V0Z" fill="#ECDDFE"/>
<path d="M375 74L0 74L-5.24534e-07 68L375 0L375 74Z" fill="#FFFCEC"/>
<path fill-rule="evenodd" clip-rule="evenodd" d="M154.291 40.0219L0.00012207 68V74L157.394 45.2494L160.188 49.9569L167.547 63.0661C168.443 64.6613 170.138 65.6401 171.967 65.6181L187 65.4369L202.033 65.6181C203.862 65.6401 205.557 64.6613 206.453 63.0661L213.812 49.9569L221.485 37.0289C222.137 35.9308 222.334 34.6454 222.076 33.4342L375 5.49999L375 0L219.295 28.2345L213.812 18.9969L206.453 5.88778C205.557 4.29253 203.862 3.31374 202.033 3.33579L187 3.51694L171.967 3.33579C170.138 3.31375 168.443 4.29253 167.547 5.88779L160.188 18.9969L152.515 31.9249C151.581 33.4982 151.581 35.4557 152.515 37.0289L154.291 40.0219Z" fill="url(#paint0_linear)"/>
<path d="M172.835 23.2826L178.592 17.4672H181.653V37.477H178.138V22.0229L174.871 25.4213L172.835 23.2826ZM185.008 20.3822C185.867 19.3471 186.951 18.5561 188.26 18.0092C189.578 17.4525 190.955 17.1742 192.391 17.1742C193.709 17.1742 194.905 17.4086 195.979 17.8773C197.063 18.3363 197.942 19.0443 198.616 20.0014C199.3 20.9486 199.642 22.0619 199.642 23.3412C199.642 24.2397 199.446 25.1381 199.056 26.0365C198.665 26.9252 198.064 27.8334 197.254 28.7611C196.443 29.6791 195.54 30.5775 194.544 31.4565C193.548 32.3256 192.327 33.3022 190.882 34.3861H199.773V37.477H185.271V34.7231C186.688 33.6488 187.859 32.7504 188.787 32.0277C189.715 31.3051 190.623 30.5678 191.512 29.8158C192.4 29.0639 193.099 28.4242 193.606 27.8969C194.114 27.3695 194.573 26.8324 194.983 26.2856C195.394 25.7387 195.677 25.2309 195.833 24.7621C195.999 24.2934 196.082 23.8197 196.082 23.3412C196.082 22.3549 195.726 21.5981 195.013 21.0707C194.3 20.5434 193.445 20.2797 192.449 20.2797C190.252 20.2797 188.45 21.0805 187.044 22.682L185.008 20.3822ZM177.888 54.477V45.1391H181.989C182.933 45.1391 183.678 45.4216 184.225 45.9867C184.771 46.5473 185.045 47.24 185.045 48.0648C185.045 48.8897 184.769 49.5847 184.218 50.1498C183.671 50.7104 182.928 50.9906 181.989 50.9906H179.528V54.477H177.888ZM179.528 49.5482H181.771C182.235 49.5482 182.616 49.4115 182.912 49.1381C183.213 48.8647 183.363 48.5069 183.363 48.0648C183.363 47.6228 183.213 47.265 182.912 46.9916C182.616 46.7182 182.235 46.5815 181.771 46.5815H179.528V49.5482ZM186.405 54.477V45.1391H188.716L191.252 51.2846L193.802 45.1391H196.112V54.477H194.472V47.5453L191.601 54.477H190.903L188.046 47.5453V54.477H186.405Z" fill="white"/>
<defs>
<linearGradient id="paint0_linear" x1="0.000120673" y1="37" x2="375" y2="37" gradientUnits="userSpaceOnUse">
<stop stop-color="#6448A0"/>
<stop offset="1" stop-color="#A168D0"/>
</linearGradient>
</defs>
</svg>
