<svg width="375" height="74" viewBox="0 0 375 74" fill="none" xmlns="http://www.w3.org/2000/svg">
<path d="M0 0H375V5.5L0 74V0Z" fill="#ECDDFE"/>
<path d="M375 74L0 74L-5.24534e-07 68L375 0L375 74Z" fill="#FFFCEC"/>
<path fill-rule="evenodd" clip-rule="evenodd" d="M154.291 40.0219L0.00012207 68V74L157.394 45.2494L160.188 49.9569L167.547 63.0661C168.443 64.6613 170.138 65.6401 171.967 65.6181L187 65.4369L202.033 65.6181C203.862 65.6401 205.557 64.6613 206.453 63.0661L213.812 49.9569L221.485 37.0289C222.137 35.9308 222.334 34.6454 222.076 33.4342L375 5.49999L375 0L219.295 28.2345L213.812 18.9969L206.453 5.88778C205.557 4.29253 203.862 3.31374 202.033 3.33579L187 3.51694L171.967 3.33579C170.138 3.31375 168.443 4.29253 167.547 5.88779L160.188 18.9969L152.515 31.9249C151.581 33.4982 151.581 35.4557 152.515 37.0289L154.291 40.0219Z" fill="url(#paint0_linear)"/>
<path d="M179.69 34.7523L181.697 32.35C183.094 33.932 184.896 34.7231 187.103 34.7231C188.333 34.7231 189.324 34.3861 190.076 33.7123C190.828 33.0385 191.204 32.2035 191.204 31.2074C191.204 30.1234 190.838 29.2592 190.105 28.6147C189.383 27.9604 188.411 27.6332 187.19 27.6332C185.491 27.6332 184.031 28.2143 182.811 29.3764L180.32 28.6586V17.4672H193.431V20.558H183.821V26.3441C184.329 25.8363 184.983 25.4213 185.784 25.099C186.585 24.767 187.444 24.601 188.362 24.601C189.495 24.601 190.54 24.85 191.497 25.3481C192.454 25.8461 193.235 26.5932 193.841 27.5893C194.446 28.5854 194.749 29.7426 194.749 31.0609C194.749 33.1215 194.041 34.767 192.625 35.9975C191.219 37.2279 189.388 37.8432 187.132 37.8432C183.919 37.8432 181.438 36.8129 179.69 34.7523ZM177.888 54.477V45.1391H181.989C182.933 45.1391 183.678 45.4216 184.225 45.9867C184.771 46.5473 185.045 47.24 185.045 48.0648C185.045 48.8897 184.769 49.5847 184.218 50.1498C183.671 50.7104 182.928 50.9906 181.989 50.9906H179.528V54.477H177.888ZM179.528 49.5482H181.771C182.235 49.5482 182.616 49.4115 182.912 49.1381C183.213 48.8647 183.363 48.5069 183.363 48.0648C183.363 47.6228 183.213 47.265 182.912 46.9916C182.616 46.7182 182.235 46.5815 181.771 46.5815H179.528V49.5482ZM186.405 54.477V45.1391H188.716L191.252 51.2846L193.802 45.1391H196.112V54.477H194.472V47.5453L191.601 54.477H190.903L188.046 47.5453V54.477H186.405Z" fill="white"/>
<defs>
<linearGradient id="paint0_linear" x1="0.000120673" y1="37" x2="375" y2="37" gradientUnits="userSpaceOnUse">
<stop stop-color="#6448A0"/>
<stop offset="1" stop-color="#A168D0"/>
</linearGradient>
</defs>
</svg>
