<svg width="78" height="214" viewBox="0 0 78 214" fill="none" xmlns="http://www.w3.org/2000/svg">
<path d="M65.5 -4.95911e-05L78 -6.10352e-05V214H7.5L65.5 -4.95911e-05Z" fill="#ECDDFE"/>
<path d="M0.5 -6.10352e-05L66.5 -6.10352e-05L7 214H0.5V-6.10352e-05Z" fill="#FFFCEC"/>
<path d="M6 214L64 1.35976e-05L67.9999 0L10 214L6 214Z" fill="url(#paint0_linear)"/>
<path d="M4.51481 109.552C3.58106 107.979 3.58106 106.021 4.51481 104.448L12.188 91.5201L19.5474 78.411C20.4429 76.8157 22.1382 75.8369 23.9676 75.859L39.0001 76.0401L54.0327 75.859C55.862 75.8369 57.5573 76.8157 58.4529 78.4109L65.8123 91.5201L73.4854 104.448C74.4192 106.021 74.4192 107.979 73.4854 109.552L65.8123 122.48L58.4529 135.589C57.5573 137.185 55.862 138.163 54.0327 138.141L39.0001 137.96L23.9676 138.141C22.1382 138.163 20.4429 137.185 19.5474 135.589L12.188 122.48L4.51481 109.552Z" fill="url(#paint1_linear)"/>
<path d="M24.8348 93.8058L30.5917 87.9903H33.6532V108H30.1376V92.546L26.871 95.9444L24.8348 93.8058ZM37.0077 90.9054C37.8671 89.8702 38.951 89.0792 40.2596 88.5323C41.578 87.9757 42.955 87.6974 44.3905 87.6974C45.7089 87.6974 46.9052 87.9317 47.9794 88.4005C49.0634 88.8595 49.9423 89.5675 50.6161 90.5245C51.2997 91.4718 51.6415 92.585 51.6415 93.8643C51.6415 94.7628 51.4462 95.6612 51.0555 96.5597C50.6649 97.4483 50.0643 98.3565 49.2538 99.2843C48.4432 100.202 47.5399 101.101 46.5438 101.98C45.5477 102.849 44.327 103.825 42.8817 104.909H51.7733V108H37.2714V105.246C38.6874 104.172 39.8593 103.274 40.787 102.551C41.7147 101.828 42.6229 101.091 43.5116 100.339C44.4003 99.587 45.0985 98.9474 45.6063 98.42C46.1141 97.8927 46.5731 97.3556 46.9833 96.8087C47.3934 96.2618 47.6766 95.754 47.8329 95.2852C47.9989 94.8165 48.0819 94.3429 48.0819 93.8643C48.0819 92.878 47.7255 92.1212 47.0126 91.5938C46.2997 91.0665 45.4452 90.8028 44.4491 90.8028C42.2518 90.8028 40.4501 91.6036 39.0438 93.2052L37.0077 90.9054ZM29.8876 125V115.662H33.9891C34.9325 115.662 35.6776 115.945 36.2245 116.51C36.7714 117.07 37.0448 117.763 37.0448 118.588C37.0448 119.413 36.7691 120.108 36.2177 120.673C35.6708 121.233 34.9279 121.514 33.9891 121.514H31.5282V125H29.8876ZM31.5282 120.071H33.7704C34.2352 120.071 34.6158 119.935 34.912 119.661C35.2128 119.388 35.3632 119.03 35.3632 118.588C35.3632 118.146 35.2128 117.788 34.912 117.515C34.6158 117.241 34.2352 117.105 33.7704 117.105H31.5282V120.071ZM38.4052 125V115.662H40.7157L43.2518 121.808L45.8016 115.662H48.1122V125H46.4716V118.068L43.6005 125H42.9032L40.0458 118.068V125H38.4052Z" fill="white"/>
<defs>
<linearGradient id="paint0_linear" x1="6" y1="107" x2="67.9999" y2="107" gradientUnits="userSpaceOnUse">
<stop stop-color="#6448A0"/>
<stop offset="1" stop-color="#A168D0"/>
</linearGradient>
<linearGradient id="paint1_linear" x1="39.0001" y1="143" x2="39.0001" y2="71.0001" gradientUnits="userSpaceOnUse">
<stop stop-color="#6448A0"/>
<stop offset="1" stop-color="#A168D0"/>
</linearGradient>
</defs>
</svg>
