<svg width="78" height="214" viewBox="0 0 78 214" fill="none" xmlns="http://www.w3.org/2000/svg">
<path d="M65.5 -4.95911e-05L78 -6.10352e-05V214H7.5L65.5 -4.95911e-05Z" fill="#ECDDFE"/>
<path d="M0.5 -6.10352e-05L66.5 -6.10352e-05L7 214H0.5V-6.10352e-05Z" fill="#FFFCEC"/>
<path d="M6 214L64 1.35976e-05L67.9999 0L10 214L6 214Z" fill="url(#paint0_linear)"/>
<path d="M4.51481 109.552C3.58106 107.979 3.58106 106.021 4.51481 104.448L12.188 91.5201L19.5474 78.411C20.4429 76.8157 22.1382 75.8369 23.9676 75.859L39.0001 76.0401L54.0327 75.859C55.862 75.8369 57.5573 76.8157 58.4529 78.4109L65.8123 91.5201L73.4854 104.448C74.4192 106.021 74.4192 107.979 73.4854 109.552L65.8123 122.48L58.4529 135.589C57.5573 137.185 55.862 138.163 54.0327 138.141L39.0001 137.96L23.9676 138.141C22.1382 138.163 20.4429 137.185 19.5474 135.589L12.188 122.48L4.51481 109.552Z" fill="url(#paint1_linear)"/>
<path d="M31.6903 105.275L33.6971 102.873C35.0936 104.455 36.8954 105.246 39.1024 105.246C40.3329 105.246 41.3241 104.909 42.076 104.235C42.828 103.562 43.204 102.727 43.204 101.731C43.204 100.647 42.8378 99.7823 42.1053 99.1378C41.3827 98.4835 40.411 98.1563 39.1903 98.1563C37.4911 98.1563 36.0311 98.7374 34.8104 99.8995L32.3202 99.1817V87.9903H45.4305V91.0811H35.8212V96.8673C36.329 96.3595 36.9833 95.9444 37.7841 95.6222C38.5848 95.2901 39.4442 95.1241 40.3622 95.1241C41.495 95.1241 42.5399 95.3731 43.4969 95.8712C44.454 96.3692 45.2352 97.1163 45.8407 98.1124C46.4462 99.1085 46.7489 100.266 46.7489 101.584C46.7489 103.645 46.0409 105.29 44.6249 106.521C43.2186 107.751 41.3876 108.366 39.1317 108.366C35.9188 108.366 33.4384 107.336 31.6903 105.275ZM29.8876 125V115.662H33.9891C34.9325 115.662 35.6776 115.945 36.2245 116.51C36.7714 117.07 37.0448 117.763 37.0448 118.588C37.0448 119.413 36.7691 120.108 36.2177 120.673C35.6708 121.233 34.9279 121.514 33.9891 121.514H31.5282V125H29.8876ZM31.5282 120.071H33.7704C34.2352 120.071 34.6158 119.935 34.912 119.661C35.2128 119.388 35.3632 119.03 35.3632 118.588C35.3632 118.146 35.2128 117.788 34.912 117.515C34.6158 117.241 34.2352 117.105 33.7704 117.105H31.5282V120.071ZM38.4052 125V115.662H40.7157L43.2518 121.808L45.8016 115.662H48.1122V125H46.4716V118.068L43.6005 125H42.9032L40.0458 118.068V125H38.4052Z" fill="white"/>
<defs>
<linearGradient id="paint0_linear" x1="6" y1="107" x2="67.9999" y2="107" gradientUnits="userSpaceOnUse">
<stop stop-color="#6448A0"/>
<stop offset="1" stop-color="#A168D0"/>
</linearGradient>
<linearGradient id="paint1_linear" x1="39.0001" y1="143" x2="39.0001" y2="71.0001" gradientUnits="userSpaceOnUse">
<stop stop-color="#6448A0"/>
<stop offset="1" stop-color="#A168D0"/>
</linearGradient>
</defs>
</svg>
