<svg width="512" height="512" viewBox="0 0 512 512" fill="none" xmlns="http://www.w3.org/2000/svg">
<g clip-path="url(#clip0)">
<path d="M497.259 310.336C534.336 143.723 388.373 -7.63749 216.96 21.4185C123.904 -36.3308 0 28.9278 0 139.648C0 165.397 7.104 189.504 19.456 210.283C-14.9973 377.28 132.16 526.464 303.424 495.424C424.491 559.445 558.272 431.765 497.259 310.336V310.336ZM334.315 410.816C289.344 429.312 215.339 429.419 170.56 405.973C106.709 371.925 95.36 295.275 150.443 295.275C191.957 295.275 178.816 343.68 220.736 363.413C239.979 372.309 281.344 373.227 305.387 357.013C329.131 341.12 326.955 316.117 314.048 304.171C279.851 272.597 181.995 285.141 137.259 229.867C117.824 205.888 114.155 163.584 138.048 132.907C179.691 79.3172 301.888 76.0532 354.432 116.523C402.944 154.069 389.845 203.904 350.699 203.904C303.616 203.904 328.363 142.293 252.352 142.293C197.248 142.293 175.573 181.483 214.379 200.555C266.987 226.688 401.045 217.963 401.045 320.085C400.939 362.581 374.891 394.261 334.315 410.816V410.816Z" fill="white"/>
</g>
<defs>
<clipPath id="clip0">
<rect width="512" height="512" fill="white"/>
</clipPath>
</defs>
</svg>
