<svg width="156" height="418" viewBox="0 0 156 418" fill="none" xmlns="http://www.w3.org/2000/svg">
<path d="M16.4164 3.90124C13.6004 -0.194711 7.99719 -1.23234 3.90124 1.58362C-0.194711 4.39959 -1.23234 10.0028 1.58362 14.0988L16.4164 3.90124ZM1.58362 403.901C-1.23234 407.997 -0.194711 413.6 3.90124 416.416C7.99719 419.232 13.6004 418.195 16.4164 414.099L1.58362 403.901ZM145.721 207.867L153.137 202.768L145.721 207.867ZM145.721 210.133L153.137 215.232L145.721 210.133ZM1.58362 14.0988L138.305 212.966L153.137 202.768L16.4164 3.90124L1.58362 14.0988ZM138.305 205.034L1.58362 403.901L16.4164 414.099L153.137 215.232L138.305 205.034ZM138.305 212.966C136.662 210.577 136.662 207.423 138.305 205.034L153.137 215.232C155.718 211.478 155.718 206.522 153.137 202.768L138.305 212.966Z" fill="#FDB515"/>
</svg>
