<svg width="238" height="220" viewBox="0 0 238 220" fill="none" xmlns="http://www.w3.org/2000/svg">
<path d="M179 108.514C179 103.611 175.023 99.6 170.162 99.6H142.175C139.818 99.6 137.903 97.6686 137.756 95.2914C137.903 92.6171 142.175 87.2686 142.175 66.9143C142.175 62.0114 138.198 58 133.337 58C128.476 58 124.499 62.0114 124.499 66.9143C124.499 89.4971 98.427 102.274 97.9851 102.571V150.114C108.443 150.114 109.18 162 128.918 162C135.547 162 155.432 162 155.432 162C160.293 162 164.27 157.989 164.27 153.086C164.27 150.709 163.386 148.629 161.913 147.143C162.208 147.143 162.502 147.143 162.797 147.143C167.658 147.143 171.635 143.131 171.635 138.229C171.635 135.851 170.751 133.623 169.131 131.989C173.108 131.097 176.054 127.531 176.054 123.371C176.054 120.846 175.023 118.469 173.255 116.834C176.643 115.646 179 112.377 179 108.514Z" fill="url(#paint0_linear)"/>
<path d="M83.2467 95.0169H61V157.593H83.2467C86.5095 157.593 89.1791 154.911 89.1791 151.634V100.977C89.1791 97.6988 86.5095 95.0169 83.2467 95.0169Z" fill="url(#paint1_linear)"/>
<defs>
<linearGradient id="paint0_linear" x1="68.1643" y1="66.9143" x2="180.599" y2="194.066" gradientUnits="userSpaceOnUse">
<stop stop-color="#193561"/>
<stop offset="1" stop-color="#9EB3D5"/>
</linearGradient>
<linearGradient id="paint1_linear" x1="68.1643" y1="66.9143" x2="180.599" y2="194.066" gradientUnits="userSpaceOnUse">
<stop stop-color="#193561"/>
<stop offset="1" stop-color="#9EB3D5"/>
</linearGradient>
</defs>
</svg>
