<svg width="512" height="512" viewBox="0 0 512 512" fill="none" xmlns="http://www.w3.org/2000/svg">
<path d="M10.6879 95.156C80.9579 154.667 204.26 259.365 240.5 292.01C245.365 296.416 250.583 298.656 256 298.656C261.406 298.656 266.615 296.437 271.469 292.052C307.74 259.375 431.042 154.667 501.313 95.156C505.688 91.458 506.355 84.958 502.813 80.437C494.625 69.99 482.417 64 469.333 64H42.6669C29.5839 64 17.3749 69.99 9.1879 80.438C5.6459 84.958 6.3129 91.458 10.6879 95.156Z" fill="white"/>
<path d="M505.813 127.406C502.032 125.646 497.584 126.26 494.438 128.948C416.51 195.01 317.052 279.688 285.76 307.885C268.197 323.739 243.822 323.739 226.218 307.864C192.864 277.812 81.176 182.864 17.562 128.947C14.395 126.259 9.937 125.666 6.187 127.405C2.417 129.156 0 132.927 0 137.083V405.333C0 428.865 19.135 448 42.667 448H469.334C492.865 448 512 428.865 512 405.333V137.083C512 132.927 509.583 129.146 505.813 127.406Z" fill="white"/>
</svg>
