<svg width="238" height="220" viewBox="0 0 238 220" fill="none" xmlns="http://www.w3.org/2000/svg">
<path d="M131.011 66.6442V68.0367C128.957 74.5488 115.43 80.9454 96.1169 80.9454C81.0043 80.9454 67.584 77.246 62.7227 71.7361C61.8023 70.6924 61.2321 69.6393 61.0002 68.5494V66.6442C61.0002 62.1643 64.8531 58.0954 71.8496 55.1811C93.1403 46.3217 131.011 52.195 131.011 66.6442Z" fill="url(#paint0_linear)"/>
<path d="M104.699 120.054V132.117C104.699 132.591 104.339 132.991 103.865 133.036C86.3374 134.707 62.9756 130.287 61.0002 120.999V112.07C61.0002 111.313 61.8679 110.872 62.476 111.326C72.269 118.636 91.1003 120.267 103.683 119.135C104.228 119.085 104.699 119.509 104.699 120.054Z" fill="url(#paint1_linear)"/>
<path d="M104.699 137.692V150.61C104.699 151.083 104.341 151.482 103.868 151.53C93.7498 152.536 81.2654 151.645 71.8496 147.727C64.8531 144.812 61.0002 140.744 61.0002 136.264V127.745C70.2199 136.231 91.0066 137.914 103.683 136.773C104.228 136.724 104.699 137.147 104.699 137.692Z" fill="url(#paint2_linear)"/>
<path d="M104.699 102.649V114.479C104.699 114.953 104.339 115.353 103.865 115.398C86.5438 117.05 62.9881 112.709 61.0002 103.361V94.6654C61.0002 93.9087 61.8677 93.4674 62.4758 93.9209C72.3392 101.281 91.266 102.847 103.683 101.73C104.228 101.681 104.699 102.104 104.699 102.649Z" fill="url(#paint3_linear)"/>
<path d="M131.011 76.6311V80.9143C131.011 81.3685 130.678 81.7525 130.228 81.8253C120.667 83.3699 105.983 87.9769 104.778 97.1668C104.722 97.5986 104.386 97.9424 103.951 97.9842C90.9297 99.2384 69.8427 97.2099 62.7225 89.1433C61.8021 88.0995 61.2295 87.0442 61 85.9542V77.2603C61 76.5036 61.8675 76.0623 62.4756 76.5158C76.704 87.1324 114.296 87.8164 129.508 75.9083C130.119 75.4307 131.011 75.8577 131.011 76.6311Z" fill="url(#paint4_linear)"/>
<path d="M110.499 145.379C109.889 144.894 108.988 145.318 108.988 146.096V153.352C108.988 167.842 146.887 173.663 168.149 164.815C175.146 161.901 178.999 157.832 178.999 153.352V146.096C178.999 145.318 178.097 144.894 177.487 145.379C163.253 156.706 125.02 156.934 110.499 145.379ZM110.5 110.753C109.889 110.267 108.988 110.691 108.988 111.469V119.006C109.25 122.101 112.331 125.378 117.345 127.853C130.869 134.531 157.089 134.545 170.641 127.853C175.656 125.378 178.737 122.101 178.999 119.006V111.469C178.999 110.69 178.097 110.267 177.487 110.753C163.117 122.193 124.846 122.174 110.5 110.753ZM178.992 101.052C178.862 96.6645 175.025 92.6834 168.149 89.8199C150.471 82.4638 121.839 85.2721 112.261 94.4823C107.097 99.4504 107.51 105.759 117.345 110.615C130.868 117.292 157.089 117.307 170.641 110.615C174.464 108.728 179.225 105.23 178.992 101.052ZM110.499 127.991C109.889 127.505 108.988 127.929 108.988 128.707V136.395C109.25 139.49 112.331 142.767 117.345 145.242C130.869 151.92 157.089 151.934 170.641 145.242C175.656 142.767 178.737 139.49 178.999 136.395V128.707C178.999 127.929 178.097 127.505 177.487 127.991C163.254 139.316 125.023 139.547 110.499 127.991Z" fill="url(#paint5_linear)"/>
<defs>
<linearGradient id="paint0_linear" x1="68.1643" y1="61.1143" x2="196.7" y2="189.229" gradientUnits="userSpaceOnUse">
<stop stop-color="#193561"/>
<stop offset="1" stop-color="#9EB3D5"/>
</linearGradient>
<linearGradient id="paint1_linear" x1="68.1643" y1="61.1143" x2="196.7" y2="189.229" gradientUnits="userSpaceOnUse">
<stop stop-color="#193561"/>
<stop offset="1" stop-color="#9EB3D5"/>
</linearGradient>
<linearGradient id="paint2_linear" x1="68.1643" y1="61.1143" x2="196.7" y2="189.229" gradientUnits="userSpaceOnUse">
<stop stop-color="#193561"/>
<stop offset="1" stop-color="#9EB3D5"/>
</linearGradient>
<linearGradient id="paint3_linear" x1="68.1643" y1="61.1143" x2="196.7" y2="189.229" gradientUnits="userSpaceOnUse">
<stop stop-color="#193561"/>
<stop offset="1" stop-color="#9EB3D5"/>
</linearGradient>
<linearGradient id="paint4_linear" x1="68.1643" y1="61.1143" x2="196.7" y2="189.229" gradientUnits="userSpaceOnUse">
<stop stop-color="#193561"/>
<stop offset="1" stop-color="#9EB3D5"/>
</linearGradient>
<linearGradient id="paint5_linear" x1="68.1643" y1="61.1143" x2="196.7" y2="189.229" gradientUnits="userSpaceOnUse">
<stop stop-color="#193561"/>
<stop offset="1" stop-color="#9EB3D5"/>
</linearGradient>
</defs>
</svg>
