<svg width="157" height="54" viewBox="0 0 157 54" fill="none" xmlns="http://www.w3.org/2000/svg">
<path d="M56.7507 42.6127H54.2936V37.2257C54.2936 36.4547 54.16 35.8995 53.8927 35.5397C53.6254 35.1902 53.2553 35.0051 52.7721 35.0051C52.5254 35.0051 52.2786 35.0565 52.0216 35.1491C51.7646 35.2519 51.5281 35.3855 51.302 35.5603C51.0758 35.7351 50.8702 35.9509 50.6851 36.1874C50.5001 36.4341 50.3664 36.7014 50.2842 36.9893V42.5922H47.8271V33.0004H50.0375V34.779C50.387 34.1724 50.901 33.6892 51.5795 33.35C52.2478 33.0107 53.0085 32.8359 53.8515 32.8359C54.4478 32.8359 54.9413 32.949 55.3114 33.1649C55.6918 33.3808 55.9796 33.6687 56.1852 34.0285C56.3908 34.378 56.5348 34.7892 56.617 35.2416C56.6993 35.6939 56.7404 36.1463 56.7404 36.6192V42.6127H56.7507Z" fill="#FDB515"/>
<path d="M63.3407 42.7977C62.5697 42.7977 61.8809 42.6641 61.2538 42.407C60.6267 42.1398 60.1024 41.7902 59.6603 41.3379C59.2182 40.8855 58.879 40.3612 58.6425 39.7649C58.4061 39.1687 58.2827 38.5416 58.2827 37.8836C58.2827 37.2051 58.3958 36.5574 58.6322 35.9509C58.8687 35.3443 59.1977 34.82 59.6397 34.3574C60.0818 33.8948 60.6164 33.5349 61.2435 33.2676C61.8706 33.0003 62.58 32.8667 63.3613 32.8667C64.1426 32.8667 64.8417 33.0003 65.4585 33.2676C66.0754 33.5349 66.5997 33.8948 67.0315 34.3471C67.4632 34.7994 67.7922 35.3237 68.0184 35.92C68.2446 36.5163 68.3577 37.1434 68.3577 37.7911C68.3577 37.9453 68.3576 38.0995 68.3474 38.2537C68.3371 38.3976 68.3268 38.521 68.3062 38.6238H60.894C60.9351 39.0042 61.0173 39.3332 61.1715 39.6313C61.3155 39.9192 61.5108 40.1762 61.737 40.3818C61.9734 40.5874 62.2304 40.7519 62.5286 40.8547C62.8267 40.9678 63.1248 41.0192 63.4435 41.0192C63.9267 41.0192 64.3894 40.8958 64.8211 40.6594C65.2529 40.4229 65.5511 40.1042 65.7053 39.7135L67.8128 40.2995C67.4632 41.0295 66.8978 41.636 66.1165 42.0986C65.3352 42.5613 64.4099 42.7977 63.3407 42.7977ZM65.8286 37.0098C65.767 36.2901 65.4997 35.7144 65.037 35.2826C64.5641 34.8508 63.9987 34.635 63.3305 34.635C63.0015 34.635 62.6931 34.6966 62.4052 34.8097C62.1174 34.9228 61.8603 35.0873 61.6444 35.2929C61.4286 35.4985 61.2435 35.7555 61.0996 36.0434C60.9557 36.3312 60.8734 36.6602 60.8529 37.0098H65.8286V37.0098Z" fill="#FDB515"/>
<path d="M75.5334 42.119C75.2044 42.263 74.8035 42.4172 74.3203 42.5611C73.8474 42.705 73.3436 42.777 72.8193 42.777C72.4801 42.777 72.1614 42.7359 71.8632 42.6536C71.5651 42.5714 71.2978 42.4274 71.0716 42.2424C70.8455 42.0573 70.6707 41.8106 70.5268 41.5125C70.3931 41.2143 70.3211 40.8545 70.3211 40.4227V34.9124H69.0566V33.031H70.3211V29.916H72.7885V33.031H74.8035V34.9124H72.7885V39.6003C72.7885 39.9396 72.881 40.1863 73.0558 40.3199C73.2305 40.4639 73.4464 40.5255 73.7034 40.5255C73.9605 40.5255 74.2072 40.4844 74.4539 40.4022C74.7007 40.3199 74.896 40.248 75.0399 40.1863L75.5334 42.119Z" fill="#FDB515"/>
<path d="M88.7128 33.021H91.0362L87.0268 42.6127H85.0118L83.3669 38.3977L81.7426 42.6127H79.7276L75.7388 33.021H78.0416L80.8996 40.3099L82.0716 37.1949L80.3856 33.0416H82.3594L83.3669 35.9921L84.395 33.0416H86.3689L84.7034 37.1949L85.8548 40.3099L88.7128 33.021Z" fill="#FDB515"/>
<path d="M96.2591 42.7977C95.4778 42.7977 94.7787 42.6641 94.1516 42.3968C93.5245 42.1295 93.0002 41.7697 92.5684 41.307C92.1367 40.8444 91.7974 40.3201 91.5712 39.7238C91.3348 39.1276 91.2217 38.5004 91.2217 37.8425C91.2217 37.1742 91.3348 36.5369 91.5712 35.9406C91.8077 35.3443 92.1367 34.8097 92.5684 34.3574C93.0002 33.8948 93.5245 33.5349 94.1516 33.2676C94.7787 33.0003 95.4778 32.8667 96.2591 32.8667C97.0405 32.8667 97.7395 33.0003 98.3564 33.2676C98.9732 33.5349 99.4975 33.8948 99.9293 34.3574C100.361 34.82 100.69 35.3443 100.927 35.9406C101.163 36.5369 101.276 37.1742 101.276 37.8425C101.276 38.5004 101.163 39.1276 100.927 39.7238C100.69 40.3201 100.361 40.8547 99.9396 41.307C99.5078 41.7697 98.9835 42.1295 98.3667 42.3968C97.7395 42.6538 97.0405 42.7977 96.2591 42.7977ZM93.7507 37.8322C93.7507 38.264 93.8124 38.6444 93.946 38.9939C94.0797 39.3434 94.2544 39.6416 94.4806 39.8986C94.7068 40.1556 94.9741 40.3509 95.2722 40.4949C95.5806 40.6388 95.9096 40.7005 96.2591 40.7005C96.6087 40.7005 96.9377 40.6285 97.2461 40.4949C97.5545 40.3509 97.8115 40.1556 98.0377 39.8986C98.2639 39.6416 98.4386 39.3332 98.5723 38.9836C98.6956 38.6341 98.7676 38.2434 98.7676 37.8116C98.7676 37.4004 98.7059 37.0098 98.5723 36.6602C98.4489 36.3107 98.2639 36.0023 98.0377 35.7453C97.8115 35.4882 97.5442 35.2929 97.2461 35.149C96.9377 35.0051 96.6087 34.9434 96.2591 34.9434C95.9096 34.9434 95.5806 35.0153 95.2722 35.1593C94.9638 35.3032 94.6965 35.5088 94.4806 35.7658C94.2544 36.0228 94.0797 36.3312 93.946 36.6808C93.8124 37.0303 93.7507 37.421 93.7507 37.8322Z" fill="#FDB515"/>
<path d="M108.626 35.1387C107.886 35.149 107.218 35.2929 106.632 35.5705C106.046 35.848 105.624 36.2593 105.367 36.8041V42.6024H102.91V33.0106H105.162V35.0564C105.336 34.7275 105.532 34.4293 105.768 34.1723C106.005 33.905 106.251 33.6788 106.519 33.4835C106.786 33.2882 107.063 33.134 107.331 33.0312C107.608 32.9284 107.865 32.877 108.122 32.877C108.256 32.877 108.359 32.877 108.421 32.877C108.492 32.877 108.554 32.8872 108.616 32.8975V35.1387H108.626Z" fill="#FDB515"/>
<path d="M116.553 42.6128L113.767 38.4594L112.451 39.7548V42.6128H110.004V29.248H112.461V37.3594L116.306 33.0416H118.927L115.36 37.1024L119.184 42.6128H116.553V42.6128Z" fill="#FDB515"/>
<path d="M123.841 42.7978C123.039 42.7978 122.248 42.6744 121.477 42.4174C120.706 42.1604 120.048 41.7903 119.503 41.3174L120.418 39.7753C121.004 40.1865 121.569 40.5052 122.124 40.7211C122.68 40.937 123.235 41.0398 123.78 41.0398C124.263 41.0398 124.653 40.9473 124.931 40.7622C125.209 40.5772 125.353 40.3202 125.353 39.9706C125.353 39.6314 125.188 39.3744 124.859 39.2202C124.53 39.066 123.996 38.8809 123.245 38.6753C122.618 38.5005 122.094 38.336 121.652 38.1818C121.21 38.0276 120.86 37.8426 120.593 37.637C120.325 37.4313 120.13 37.2052 120.007 36.9379C119.883 36.6706 119.822 36.3622 119.822 35.9921C119.822 35.5089 119.914 35.0668 120.109 34.6762C120.295 34.2855 120.562 33.9565 120.901 33.6789C121.24 33.4014 121.641 33.1958 122.104 33.0518C122.567 32.9079 123.06 32.8359 123.595 32.8359C124.314 32.8359 124.993 32.9387 125.62 33.1444C126.247 33.35 126.823 33.6892 127.347 34.1518L126.36 35.6322C125.877 35.2621 125.404 34.9949 124.941 34.8304C124.479 34.6556 124.026 34.5733 123.574 34.5733C123.163 34.5733 122.813 34.6556 122.525 34.8304C122.248 35.0051 122.104 35.2724 122.104 35.6528C122.104 35.8276 122.135 35.9612 122.207 36.0743C122.279 36.1874 122.381 36.2799 122.525 36.3622C122.669 36.4444 122.865 36.5267 123.101 36.6089C123.338 36.6911 123.636 36.7734 123.985 36.8556C124.643 37.0304 125.209 37.1949 125.682 37.3697C126.154 37.5444 126.535 37.7398 126.833 37.9557C127.131 38.1715 127.347 38.4286 127.491 38.7164C127.635 39.0043 127.697 39.3435 127.697 39.7547C127.697 40.6903 127.347 41.4408 126.648 41.9753C125.99 42.5202 125.044 42.7978 123.841 42.7978Z" fill="#FDB515"/>
<path d="M47.5153 48.3635H48.2236L48.0636 49.106C48.2464 48.8547 48.4863 48.6605 48.7719 48.512C49.0575 48.3635 49.3545 48.2949 49.663 48.2949C49.8229 48.2949 49.9485 48.3178 50.0514 48.3635C50.1542 48.4092 50.2341 48.4663 50.3027 48.5462C50.3712 48.6262 50.4169 48.7176 50.4398 48.8204C50.474 48.9232 50.4855 49.0375 50.4855 49.1631C50.4855 49.2659 50.474 49.3688 50.4626 49.4716C50.4512 49.5858 50.4283 49.6886 50.4055 49.8029L49.9257 52.0648H49.1489L49.5944 49.9856C49.6173 49.8942 49.6287 49.8143 49.6401 49.7457C49.6515 49.6772 49.6515 49.5972 49.6515 49.5401C49.6515 49.1745 49.503 48.9918 49.1946 48.9918C49.0918 48.9918 48.9775 49.0146 48.8633 49.0603C48.7491 49.106 48.6348 49.1631 48.532 49.2431C48.4178 49.3231 48.315 49.4144 48.2236 49.5173C48.1322 49.6201 48.0522 49.7457 47.9837 49.8714L47.5039 52.0762H46.7271L47.5153 48.3635Z" fill="white"/>
<path d="M52.4162 52.1447C52.1763 52.1447 51.9707 52.099 51.7879 52.0191C51.6052 51.9391 51.4566 51.8249 51.3196 51.6878C51.1939 51.5507 51.0911 51.3793 51.034 51.1851C50.9654 50.9909 50.9312 50.7853 50.9312 50.5682C50.9312 50.2598 50.9883 49.9742 51.1025 49.7C51.2167 49.4259 51.3767 49.186 51.5823 48.9803C51.7879 48.7747 52.0278 48.6034 52.3134 48.4777C52.599 48.352 52.896 48.2949 53.2273 48.2949C53.6157 48.2949 53.9128 48.3863 54.1412 48.5577C54.3697 48.729 54.4839 48.9803 54.4839 49.3231C54.4839 50.0999 53.7871 50.4883 52.4048 50.4883C52.1992 50.4883 51.9707 50.4769 51.7194 50.4654V50.5911C51.7194 50.7282 51.7308 50.8538 51.7651 50.9795C51.7994 51.0937 51.8451 51.1966 51.9136 51.2879C51.9821 51.3793 52.0621 51.4479 52.1649 51.4936C52.2677 51.5393 52.3934 51.5735 52.5305 51.5735C52.7361 51.5735 52.9303 51.5278 53.1245 51.425C53.3187 51.3222 53.4672 51.1851 53.57 51.0138L54.1869 51.208C54.0955 51.3451 53.9813 51.4821 53.8556 51.5964C53.73 51.7106 53.5815 51.8134 53.4215 51.8934C53.2616 51.9734 53.1017 52.0419 52.9303 52.0876C52.7704 52.1219 52.599 52.1447 52.4162 52.1447ZM53.1359 48.8775C52.9646 48.8775 52.8046 48.9118 52.6676 48.9689C52.5305 49.026 52.4048 49.106 52.2906 49.2088C52.1763 49.3116 52.0849 49.4259 52.0164 49.5515C51.9364 49.6772 51.8793 49.8143 51.8336 49.9628C52.0507 49.9742 52.2563 49.9856 52.4391 49.9856C52.6904 49.9856 52.896 49.9742 53.0674 49.9399C53.2387 49.9057 53.3758 49.8714 53.4786 49.8143C53.5815 49.7572 53.6614 49.6886 53.7071 49.6201C53.7528 49.5401 53.7757 49.4601 53.7757 49.3573C53.7757 49.1974 53.7185 49.0832 53.6043 49.0032C53.4901 48.9118 53.3301 48.8775 53.1359 48.8775Z" fill="white"/>
<path d="M55.9231 50.2253L55.0321 48.3633H55.8432L56.4144 49.6313L56.4486 49.757L56.5286 49.6313L57.6367 48.3633H58.4478L56.7685 50.2253L57.671 52.076H56.8599L56.2887 50.808L56.243 50.6937L56.163 50.808L55.0435 52.076H54.2324L55.9231 50.2253Z" fill="white"/>
<path d="M59.2358 52.1333C59.0302 52.1333 58.8588 52.0876 58.7217 51.9848C58.5847 51.8934 58.5161 51.7335 58.5161 51.5164C58.5161 51.4364 58.5275 51.3565 58.539 51.2879L59.0302 48.9689H58.5504L58.6875 48.3635H59.1444L59.4072 47.1411H60.184L59.9212 48.3635H60.6866L60.561 48.9689H59.807L59.3615 51.0366C59.35 51.0823 59.35 51.1166 59.35 51.1394C59.35 51.2308 59.3729 51.2994 59.43 51.345C59.4871 51.3907 59.5557 51.4136 59.6356 51.4136C59.7499 51.4136 59.8527 51.3907 59.9441 51.3565C60.0469 51.3222 60.1154 51.2879 60.1726 51.2651L60.1954 51.882C60.0812 51.9505 59.9441 52.0076 59.7613 52.0533C59.6128 52.1104 59.43 52.1333 59.2358 52.1333Z" fill="white"/>
<path d="M63.5772 53.6641C63.1888 53.6641 62.8689 53.5955 62.6404 53.4584C62.412 53.3214 62.2292 53.1272 62.1035 52.8758L62.629 52.4646C62.7204 52.6588 62.8689 52.8187 63.0517 52.9215C63.2345 53.0243 63.4515 53.0815 63.6914 53.0815C63.8399 53.0815 63.9884 53.0586 64.1369 53.0129C64.2855 52.9672 64.4111 52.8987 64.5368 52.8187C64.6624 52.7273 64.7652 52.6131 64.8566 52.476C64.948 52.3389 65.0051 52.179 65.0394 51.9848L65.1537 51.4136C64.9823 51.6421 64.7767 51.8134 64.5368 51.9391C64.2855 52.0648 64.0456 52.1219 63.8057 52.1219C63.6115 52.1219 63.4287 52.0762 63.2687 51.9962C63.1088 51.9162 62.9831 51.802 62.8803 51.6649C62.7775 51.5278 62.6976 51.3679 62.6404 51.1851C62.5833 51.0023 62.5605 50.8081 62.5605 50.6139C62.5605 50.3055 62.6176 50.0199 62.7318 49.7457C62.8461 49.4716 62.9946 49.2202 63.1888 49.0032C63.383 48.7861 63.6 48.6148 63.8514 48.4891C64.1027 48.3635 64.3768 48.2949 64.6624 48.2949C64.948 48.2949 65.1765 48.3635 65.3593 48.512C65.5421 48.6491 65.6677 48.8433 65.7705 49.0603L65.919 48.352H66.6045L65.8391 51.9619C65.782 52.2361 65.6791 52.476 65.5421 52.6816C65.405 52.8873 65.2336 53.07 65.028 53.2071C64.8338 53.3556 64.6053 53.4584 64.3654 53.5384C64.1255 53.6184 63.8513 53.6641 63.5772 53.6641ZM64.2055 51.4821C64.3197 51.4821 64.4225 51.4593 64.5368 51.425C64.651 51.3793 64.7538 51.3336 64.8452 51.2651C64.948 51.1965 65.0394 51.1166 65.1194 51.0252C65.1993 50.9338 65.2679 50.8424 65.3136 50.7396L65.5306 49.7686C65.4964 49.5287 65.3936 49.3345 65.245 49.186C65.0851 49.0375 64.9138 48.9575 64.7081 48.9575C64.5254 48.9575 64.354 49.0032 64.1941 49.0946C64.0341 49.186 63.897 49.3002 63.7714 49.4487C63.6457 49.5972 63.5543 49.7572 63.4858 49.9399C63.4172 50.1227 63.383 50.3055 63.383 50.4769C63.383 50.6139 63.4058 50.7396 63.4401 50.8653C63.4858 50.9909 63.5315 51.0937 63.6114 51.1851C63.68 51.2765 63.7714 51.3451 63.8742 51.4022C63.977 51.4593 64.0798 51.4821 64.2055 51.4821Z" fill="white"/>
<path d="M68.3406 52.1447C68.1007 52.1447 67.895 52.099 67.7122 52.0191C67.5295 51.9391 67.381 51.8249 67.2439 51.6878C67.1182 51.5507 67.0154 51.3793 66.9583 51.1851C66.8897 50.9909 66.8555 50.7853 66.8555 50.5682C66.8555 50.2598 66.9126 49.9742 67.0268 49.7C67.1411 49.4259 67.301 49.186 67.5066 48.9803C67.7123 48.7747 67.9521 48.6034 68.2377 48.4777C68.5233 48.352 68.8203 48.2949 69.1516 48.2949C69.54 48.2949 69.8371 48.3863 70.0655 48.5577C70.294 48.729 70.4082 48.9803 70.4082 49.3231C70.4082 50.0999 69.7114 50.4883 68.3291 50.4883C68.1235 50.4883 67.895 50.4769 67.6437 50.4654V50.5911C67.6437 50.7282 67.6551 50.8538 67.6894 50.9795C67.7237 51.0937 67.7694 51.1966 67.8379 51.2879C67.9064 51.3793 67.9864 51.4479 68.0892 51.4936C68.192 51.5393 68.3177 51.5735 68.4548 51.5735C68.6604 51.5735 68.8546 51.5278 69.0488 51.425C69.243 51.3222 69.3915 51.1851 69.4943 51.0138L70.1112 51.208C70.0198 51.3451 69.9056 51.4821 69.7799 51.5964C69.6543 51.7106 69.5058 51.8134 69.3458 51.8934C69.1859 51.9734 69.026 52.0419 68.8546 52.0876C68.7061 52.1219 68.5233 52.1447 68.3406 52.1447ZM69.0602 48.8775C68.8889 48.8775 68.729 48.9118 68.5919 48.9689C68.4548 49.026 68.3291 49.106 68.2149 49.2088C68.1007 49.3116 68.0093 49.4259 67.9407 49.5515C67.8608 49.6772 67.8036 49.8143 67.7579 49.9628C67.975 49.9742 68.1806 49.9856 68.3634 49.9856C68.6147 49.9856 68.8204 49.9742 68.9917 49.9399C69.1631 49.9057 69.3001 49.8714 69.403 49.8143C69.5058 49.7572 69.5857 49.6886 69.6314 49.6201C69.6771 49.5401 69.7 49.4601 69.7 49.3573C69.7 49.1974 69.6429 49.0832 69.5286 49.0032C69.4144 48.9118 69.2545 48.8775 69.0602 48.8775Z" fill="white"/>
<path d="M71.3795 48.3635H72.0878L71.9279 49.106C72.1107 48.8547 72.3506 48.6605 72.6362 48.512C72.9217 48.3635 73.2188 48.2949 73.5272 48.2949C73.6871 48.2949 73.8128 48.3178 73.9156 48.3635C74.0184 48.4092 74.0984 48.4663 74.1669 48.5462C74.2355 48.6262 74.2812 48.7176 74.304 48.8204C74.3383 48.9232 74.3497 49.0375 74.3497 49.1631C74.3497 49.2659 74.3383 49.3688 74.3269 49.4716C74.3154 49.5858 74.2926 49.6886 74.2697 49.8029L73.79 52.0648H73.0131L73.4587 49.9856C73.4815 49.8942 73.4929 49.8143 73.5044 49.7457C73.5158 49.6772 73.5158 49.5972 73.5158 49.5401C73.5158 49.1745 73.3673 48.9918 73.0588 48.9918C72.956 48.9918 72.8418 49.0146 72.7275 49.0603C72.6133 49.106 72.4991 49.1631 72.3963 49.2431C72.282 49.3231 72.1792 49.4144 72.0878 49.5173C71.9964 49.6201 71.9165 49.7457 71.8479 49.8714L71.3681 52.0762H70.5913L71.3795 48.3635Z" fill="white"/>
<path d="M76.2917 52.1447C76.0518 52.1447 75.8462 52.099 75.6634 52.0191C75.4806 51.9391 75.3321 51.8249 75.1951 51.6878C75.0694 51.5507 74.9666 51.3793 74.9095 51.1851C74.8409 50.9909 74.8066 50.7853 74.8066 50.5682C74.8066 50.2598 74.8638 49.9742 74.978 49.7C75.0922 49.4259 75.2522 49.186 75.4578 48.9803C75.6634 48.7747 75.9033 48.6034 76.1889 48.4777C76.4745 48.352 76.7715 48.2949 77.1028 48.2949C77.4912 48.2949 77.7882 48.3863 78.0167 48.5577C78.2452 48.729 78.3594 48.9803 78.3594 49.3231C78.3594 50.0999 77.6626 50.4883 76.2803 50.4883C76.0747 50.4883 75.8462 50.4769 75.5949 50.4654V50.5911C75.5949 50.7282 75.6063 50.8538 75.6406 50.9795C75.6748 51.0937 75.7205 51.1966 75.7891 51.2879C75.8576 51.3793 75.9376 51.4479 76.0404 51.4936C76.1432 51.5393 76.2689 51.5735 76.406 51.5735C76.6116 51.5735 76.8058 51.5278 77 51.425C77.1942 51.3222 77.3427 51.1851 77.4455 51.0138L78.0624 51.208C77.971 51.3451 77.8568 51.4821 77.7311 51.5964C77.6055 51.7106 77.4569 51.8134 77.297 51.8934C77.1371 51.9734 76.9771 52.0419 76.8058 52.0876C76.6459 52.1219 76.4631 52.1447 76.2917 52.1447ZM77 48.8775C76.8286 48.8775 76.6687 48.9118 76.5316 48.9689C76.3945 49.026 76.2689 49.106 76.1546 49.2088C76.0404 49.3116 75.949 49.4259 75.8805 49.5515C75.8005 49.6772 75.7434 49.8143 75.6977 49.9628C75.9147 49.9742 76.1204 49.9856 76.3032 49.9856C76.5545 49.9856 76.7601 49.9742 76.9315 49.9399C77.1028 49.9057 77.2399 49.8714 77.3427 49.8143C77.4455 49.7572 77.5255 49.6886 77.5712 49.6201C77.6169 49.5401 77.6397 49.4601 77.6397 49.3573C77.6397 49.1974 77.5826 49.0832 77.4684 49.0032C77.3541 48.9118 77.2056 48.8775 77 48.8775Z" fill="white"/>
<path d="M79.319 48.3632H80.0387L79.8559 49.1971C80.0387 48.9458 80.2443 48.7402 80.4614 48.5802C80.6898 48.4203 80.9183 48.3403 81.1354 48.3403C81.1811 48.3403 81.2153 48.3403 81.2496 48.3403C81.2725 48.3403 81.2953 48.3518 81.3296 48.3518L81.1811 49.0372C80.8955 49.0486 80.6327 49.1171 80.3814 49.2428C80.1301 49.3685 79.9359 49.5627 79.7874 49.8026L79.3076 52.0759H78.5308L79.319 48.3632Z" fill="white"/>
<path d="M82.4145 52.1444C82.2089 52.1444 82.0261 52.0987 81.8547 52.0188C81.6948 51.9388 81.5577 51.8246 81.4435 51.6875C81.3293 51.5504 81.2379 51.3905 81.1807 51.1963C81.1236 51.0135 81.0894 50.8078 81.0894 50.6022C81.0894 50.2938 81.1465 50.0082 81.2607 49.734C81.3749 49.4598 81.5235 49.2085 81.7062 48.9915C81.9004 48.7744 82.1175 48.6031 82.3574 48.4774C82.6087 48.3517 82.86 48.2832 83.1342 48.2832C83.4084 48.2832 83.6254 48.3517 83.8082 48.5003C83.991 48.6488 84.1166 48.8315 84.1966 49.0486L84.3451 48.3517H85.1334L84.5393 51.1391C84.5393 51.162 84.5279 51.1848 84.5279 51.1963C84.5279 51.2077 84.5279 51.2305 84.5279 51.242C84.5279 51.3333 84.585 51.3905 84.6878 51.3905L84.5507 52.053C84.4822 52.0645 84.4251 52.0759 84.368 52.0759C84.3108 52.0873 84.2652 52.0873 84.2309 52.0873C83.9224 52.0873 83.7739 51.9616 83.7739 51.7217C83.7739 51.6418 83.7854 51.5275 83.8196 51.379C83.6369 51.6189 83.4198 51.8017 83.1685 51.9274C82.9057 52.0873 82.6544 52.1444 82.4145 52.1444ZM82.7572 51.4818C82.8486 51.4818 82.9514 51.459 83.0542 51.4247C83.1571 51.3905 83.2599 51.3333 83.3627 51.2648C83.4655 51.1963 83.5569 51.1163 83.6483 51.0249C83.7282 50.9335 83.7968 50.8421 83.8539 50.7393L84.0481 49.7683C84.0367 49.6541 84.0024 49.5512 83.9567 49.4484C83.911 49.357 83.8425 49.2656 83.7739 49.1971C83.694 49.1286 83.614 49.0714 83.5226 49.0257C83.4312 48.9801 83.3398 48.9686 83.237 48.9686C83.0542 48.9686 82.8829 49.0143 82.7344 49.1057C82.5744 49.1971 82.4374 49.3113 82.3117 49.4484C82.186 49.5855 82.0946 49.7569 82.0261 49.9396C81.9576 50.1224 81.9233 50.3052 81.9233 50.488C81.9233 50.6251 81.9461 50.7622 81.9804 50.8764C82.0147 51.0021 82.0718 51.1049 82.1518 51.1848C82.2203 51.2762 82.3117 51.3448 82.4145 51.3905C82.5059 51.459 82.6201 51.4818 82.7572 51.4818Z" fill="white"/>
<path d="M86.3676 52.1333C86.162 52.1333 85.9907 52.0876 85.8536 51.9848C85.7165 51.8934 85.6479 51.7335 85.6479 51.5164C85.6479 51.4364 85.6594 51.3565 85.6708 51.2879L86.162 48.9689H85.6822L85.8193 48.3635H86.2763L86.539 47.1411H87.3158L87.0531 48.3635H87.8185L87.6928 48.9689H86.9388L86.4933 51.0366C86.4819 51.0823 86.4819 51.1166 86.4819 51.1394C86.4819 51.2308 86.5047 51.2994 86.5618 51.345C86.619 51.3907 86.6875 51.4136 86.7675 51.4136C86.8817 51.4136 86.9845 51.3907 87.0759 51.3565C87.1787 51.3222 87.2473 51.2879 87.3044 51.2651L87.3272 51.882C87.213 51.9505 87.0759 52.0076 86.8931 52.0533C86.756 52.1104 86.5618 52.1333 86.3676 52.1333Z" fill="white"/>
<path d="M88.6405 48.3631H89.4173L88.6176 52.0758H87.8408L88.6405 48.3631ZM88.9375 46.9009H89.7143L89.5315 47.7577H88.7547L88.9375 46.9009Z" fill="white"/>
<path d="M91.1312 52.1445C90.8913 52.1445 90.6857 52.0988 90.5029 52.0189C90.3201 51.9389 90.1716 51.8247 90.0459 51.6876C89.9203 51.5505 89.8289 51.3791 89.7603 51.1964C89.6918 51.0136 89.6689 50.808 89.6689 50.6023C89.6689 50.3053 89.7261 50.0197 89.8517 49.7455C89.966 49.4714 90.1259 49.2201 90.3315 49.0144C90.5371 48.7974 90.777 48.626 91.0512 48.5004C91.3254 48.3747 91.6224 48.3062 91.9423 48.3062C92.1822 48.3062 92.3878 48.3518 92.5706 48.4318C92.7533 48.5118 92.9019 48.626 93.0275 48.7631C93.1532 48.9002 93.2446 49.0715 93.3131 49.2543C93.3817 49.4485 93.4045 49.6427 93.4045 49.8598C93.4045 50.1568 93.3474 50.4424 93.2217 50.7166C93.1075 50.9907 92.9361 51.2306 92.7305 51.4477C92.5249 51.6647 92.285 51.8361 92.0108 51.9617C91.7481 52.0874 91.451 52.1445 91.1312 52.1445ZM91.2797 51.4819C91.4396 51.4819 91.611 51.4363 91.7709 51.3563C91.9308 51.2763 92.0679 51.1621 92.1936 51.025C92.3192 50.8879 92.4106 50.728 92.4906 50.5338C92.5706 50.351 92.6048 50.1568 92.6048 49.9397C92.6048 49.6542 92.5363 49.4257 92.3878 49.2315C92.2393 49.0487 92.0451 48.9459 91.8052 48.9459C91.6452 48.9459 91.4739 48.9916 91.3254 49.0715C91.1655 49.1515 91.0284 49.2657 90.9027 49.4028C90.777 49.5399 90.6742 49.6998 90.6057 49.8941C90.5257 50.0768 90.4914 50.271 90.4914 50.4881C90.4914 50.7737 90.56 51.0022 90.7085 51.1964C90.8456 51.3906 91.0398 51.4819 91.2797 51.4819Z" fill="white"/>
<path d="M94.4665 48.3635H95.1747L95.0148 49.106C95.1976 48.8547 95.4375 48.6605 95.7231 48.512C96.0087 48.3635 96.3057 48.2949 96.6141 48.2949C96.7741 48.2949 96.8997 48.3178 97.0025 48.3635C97.1053 48.4092 97.1853 48.4663 97.2538 48.5462C97.3224 48.6262 97.3681 48.7176 97.3909 48.8204C97.4252 48.9232 97.4366 49.0375 97.4366 49.1631C97.4366 49.2659 97.4252 49.3688 97.4138 49.4716C97.4024 49.5858 97.3795 49.6886 97.3567 49.8029L96.8769 52.0648H96.1001L96.5456 49.9856C96.5684 49.8942 96.5799 49.8143 96.5913 49.7457C96.6027 49.6772 96.6027 49.5972 96.6027 49.5401C96.6027 49.1745 96.4542 48.9918 96.1457 48.9918C96.0429 48.9918 95.9287 49.0146 95.8145 49.0603C95.7002 49.106 95.586 49.1631 95.4832 49.2431C95.3689 49.3231 95.2661 49.4144 95.1747 49.5173C95.0833 49.6201 95.0034 49.7457 94.9348 49.8714L94.455 52.0762H93.6782L94.4665 48.3635Z" fill="white"/>
<path d="M99.5845 48.3635H100.361L100.875 51.3793C100.932 51.2994 100.99 51.2194 101.058 51.128C101.127 51.0366 101.184 50.9338 101.252 50.8424C101.321 50.7396 101.378 50.6482 101.435 50.5568C101.492 50.4654 101.549 50.3741 101.595 50.3055L101.138 48.3749H101.881L102.109 49.5515C102.143 49.4716 102.189 49.3916 102.235 49.2774C102.28 49.1746 102.326 49.0717 102.372 48.9575C102.418 48.8433 102.463 48.7405 102.498 48.6376C102.532 48.5348 102.566 48.4434 102.589 48.3635H103.274C103.069 49.0146 102.772 49.6544 102.383 50.2712L102.623 51.2994C102.817 51.0366 102.989 50.7853 103.137 50.5454C103.297 50.3055 103.434 50.0656 103.56 49.8257C103.686 49.5858 103.8 49.3459 103.903 49.106C104.005 48.8661 104.097 48.6148 104.177 48.3521H104.897C104.702 48.9689 104.428 49.5858 104.074 50.2027C103.72 50.8196 103.286 51.4365 102.783 52.0533H102.086L101.846 50.9338C101.801 51.0024 101.744 51.0823 101.675 51.1851C101.606 51.288 101.538 51.3908 101.469 51.4936C101.401 51.5964 101.321 51.6992 101.252 51.802C101.184 51.9048 101.115 51.9848 101.07 52.0533H100.304L99.5845 48.3635Z" fill="white"/>
<path d="M105.582 48.3631H106.359L105.559 52.0758H104.782L105.582 48.3631ZM105.879 46.9009H106.656L106.473 47.7577H105.696L105.879 46.9009Z" fill="white"/>
<path d="M107.273 48.3632H107.993L107.81 49.1971C107.993 48.9458 108.198 48.7402 108.415 48.5802C108.644 48.4203 108.872 48.3403 109.089 48.3403C109.135 48.3403 109.169 48.3403 109.204 48.3403C109.227 48.3403 109.249 48.3518 109.284 48.3518L109.135 49.0372C108.85 49.0486 108.587 49.1171 108.336 49.2428C108.084 49.3685 107.89 49.5627 107.741 49.8026L107.262 52.0759H106.485L107.273 48.3632Z" fill="white"/>
<path d="M110.517 52.1447C110.277 52.1447 110.071 52.099 109.889 52.0191C109.706 51.9391 109.557 51.8249 109.42 51.6878C109.294 51.5507 109.192 51.3793 109.135 51.1851C109.066 50.9909 109.032 50.7853 109.032 50.5682C109.032 50.2598 109.089 49.9742 109.203 49.7C109.317 49.4259 109.477 49.186 109.683 48.9803C109.889 48.7747 110.128 48.6034 110.414 48.4777C110.7 48.352 110.997 48.2949 111.328 48.2949C111.716 48.2949 112.013 48.3863 112.242 48.5577C112.47 48.729 112.585 48.9803 112.585 49.3231C112.585 50.0999 111.888 50.4883 110.505 50.4883C110.3 50.4883 110.071 50.4769 109.82 50.4654V50.5911C109.82 50.7282 109.831 50.8538 109.866 50.9795C109.9 51.0937 109.946 51.1966 110.014 51.2879C110.083 51.3793 110.163 51.4479 110.265 51.4936C110.368 51.5393 110.494 51.5735 110.631 51.5735C110.837 51.5735 111.031 51.5278 111.225 51.425C111.419 51.3222 111.568 51.1851 111.671 51.0138L112.288 51.208C112.196 51.3451 112.082 51.4821 111.956 51.5964C111.831 51.7106 111.682 51.8134 111.522 51.8934C111.362 51.9734 111.202 52.0419 111.031 52.0876C110.871 52.1219 110.7 52.1447 110.517 52.1447ZM111.237 48.8775C111.065 48.8775 110.905 48.9118 110.768 48.9689C110.631 49.026 110.505 49.106 110.391 49.2088C110.277 49.3116 110.186 49.4259 110.117 49.5515C110.037 49.6772 109.98 49.8143 109.934 49.9628C110.151 49.9742 110.357 49.9856 110.54 49.9856C110.791 49.9856 110.997 49.9742 111.168 49.9399C111.339 49.9057 111.476 49.8714 111.579 49.8143C111.682 49.7572 111.762 49.6886 111.808 49.6201C111.853 49.5401 111.876 49.4601 111.876 49.3573C111.876 49.1974 111.819 49.0832 111.705 49.0032C111.591 48.9118 111.431 48.8775 111.237 48.8775Z" fill="white"/>
<path d="M113.59 52.1331C113.373 52.1331 113.202 52.076 113.087 51.9732C112.973 51.8704 112.916 51.7219 112.916 51.5277C112.916 51.4934 112.916 51.4477 112.927 51.4134C112.927 51.3678 112.939 51.3335 112.95 51.2878L113.876 46.8896H114.652L113.784 51.0022C113.773 51.0593 113.761 51.105 113.761 51.1393C113.761 51.2307 113.784 51.3106 113.841 51.3563C113.898 51.4134 113.967 51.4363 114.07 51.4363C114.127 51.4363 114.184 51.4249 114.253 51.402C114.321 51.3792 114.39 51.3563 114.458 51.3335L114.435 51.9389C114.31 51.9961 114.173 52.0303 114.013 52.0646C113.853 52.1217 113.704 52.1331 113.59 52.1331Z" fill="white"/>
<path d="M116.435 52.1447C116.195 52.1447 115.989 52.099 115.806 52.0191C115.624 51.9391 115.475 51.8249 115.338 51.6878C115.212 51.5507 115.11 51.3793 115.053 51.1851C114.984 50.9909 114.95 50.7853 114.95 50.5682C114.95 50.2598 115.007 49.9742 115.121 49.7C115.235 49.4259 115.395 49.186 115.601 48.9803C115.806 48.7747 116.046 48.6034 116.332 48.4777C116.618 48.352 116.915 48.2949 117.246 48.2949C117.634 48.2949 117.931 48.3863 118.16 48.5577C118.388 48.729 118.502 48.9803 118.502 49.3231C118.502 50.0999 117.806 50.4883 116.423 50.4883C116.218 50.4883 115.989 50.4769 115.738 50.4654V50.5911C115.738 50.7282 115.749 50.8538 115.784 50.9795C115.818 51.0937 115.864 51.1966 115.932 51.2879C116.001 51.3793 116.081 51.4479 116.183 51.4936C116.286 51.5393 116.412 51.5735 116.549 51.5735C116.755 51.5735 116.949 51.5278 117.143 51.425C117.337 51.3222 117.486 51.1851 117.589 51.0138L118.205 51.208C118.114 51.3451 118 51.4821 117.874 51.5964C117.749 51.7106 117.6 51.8134 117.44 51.8934C117.28 51.9734 117.12 52.0419 116.949 52.0876C116.8 52.1219 116.618 52.1447 116.435 52.1447ZM117.154 48.8775C116.983 48.8775 116.823 48.9118 116.686 48.9689C116.549 49.026 116.423 49.106 116.309 49.2088C116.195 49.3116 116.104 49.4259 116.035 49.5515C115.955 49.6772 115.898 49.8143 115.852 49.9628C116.069 49.9742 116.275 49.9856 116.458 49.9856C116.709 49.9856 116.915 49.9742 117.086 49.9399C117.257 49.9057 117.394 49.8714 117.497 49.8143C117.6 49.7572 117.68 49.6886 117.726 49.6201C117.771 49.5401 117.794 49.4601 117.794 49.3573C117.794 49.1974 117.737 49.0832 117.623 49.0032C117.509 48.9118 117.36 48.8775 117.154 48.8775Z" fill="white"/>
<path d="M119.964 52.1448C119.679 52.1448 119.404 52.0991 119.142 51.9963C118.879 51.9049 118.673 51.7564 118.502 51.5851L118.925 51.0938C119.279 51.4251 119.656 51.5851 120.067 51.5851C120.307 51.5851 120.501 51.5279 120.65 51.4251C120.798 51.3109 120.867 51.1738 120.867 50.991C120.867 50.8654 120.81 50.7625 120.684 50.7054C120.558 50.6483 120.375 50.5683 120.124 50.4998C119.941 50.4427 119.793 50.397 119.656 50.3513C119.519 50.3056 119.416 50.2485 119.324 50.1799C119.244 50.1114 119.176 50.0429 119.13 49.9629C119.085 49.8829 119.062 49.7915 119.062 49.6773C119.062 49.4717 119.107 49.2775 119.199 49.1175C119.29 48.9462 119.404 48.8091 119.564 48.6834C119.713 48.5692 119.896 48.4778 120.09 48.4093C120.284 48.3407 120.501 48.3179 120.718 48.3179C120.981 48.3179 121.221 48.3636 121.426 48.4435C121.632 48.5235 121.815 48.6492 121.963 48.8091L121.529 49.2775C121.392 49.1404 121.244 49.0376 121.084 48.969C120.924 48.9005 120.752 48.8662 120.581 48.8662C120.375 48.8662 120.193 48.9119 120.044 49.0147C119.896 49.1175 119.827 49.266 119.827 49.4717C119.827 49.5859 119.873 49.6773 119.976 49.7344C120.078 49.7915 120.238 49.8487 120.467 49.9172C120.661 49.9743 120.844 50.02 120.981 50.0771C121.129 50.1342 121.255 50.1914 121.346 50.2599C121.438 50.3284 121.518 50.4084 121.564 50.4998C121.609 50.5912 121.632 50.694 121.632 50.8082C121.632 51.0024 121.586 51.1852 121.506 51.3566C121.426 51.5165 121.312 51.665 121.164 51.7793C121.015 51.8935 120.832 51.9849 120.627 52.0534C120.444 52.1105 120.216 52.1448 119.964 52.1448Z" fill="white"/>
<path d="M123.357 52.1448C123.072 52.1448 122.797 52.0991 122.535 51.9963C122.272 51.9049 122.066 51.7564 121.895 51.5851L122.318 51.0938C122.672 51.4251 123.049 51.5851 123.46 51.5851C123.7 51.5851 123.894 51.5279 124.043 51.4251C124.191 51.3109 124.26 51.1738 124.26 50.991C124.26 50.8654 124.203 50.7625 124.077 50.7054C123.951 50.6369 123.769 50.5683 123.517 50.4998C123.334 50.4427 123.186 50.397 123.049 50.3513C122.912 50.3056 122.809 50.2485 122.718 50.1799C122.638 50.1114 122.569 50.0429 122.523 49.9629C122.478 49.8829 122.455 49.7915 122.455 49.6773C122.455 49.4717 122.5 49.2775 122.592 49.1175C122.683 48.9462 122.797 48.8091 122.957 48.6834C123.106 48.5692 123.289 48.4778 123.483 48.4093C123.677 48.3407 123.894 48.3179 124.111 48.3179C124.374 48.3179 124.614 48.3636 124.819 48.4435C125.025 48.5235 125.208 48.6492 125.356 48.8091L124.922 49.2775C124.785 49.1404 124.637 49.0376 124.477 48.969C124.317 48.9005 124.145 48.8662 123.974 48.8662C123.769 48.8662 123.586 48.9119 123.437 49.0147C123.289 49.1175 123.22 49.266 123.22 49.4717C123.22 49.5859 123.266 49.6773 123.369 49.7344C123.471 49.7915 123.631 49.8487 123.86 49.9172C124.054 49.9743 124.237 50.02 124.374 50.0771C124.522 50.1342 124.648 50.1914 124.74 50.2599C124.831 50.3284 124.911 50.4084 124.957 50.4998C125.002 50.5912 125.025 50.694 125.025 50.8082C125.025 51.0024 124.979 51.1852 124.899 51.3566C124.82 51.5165 124.705 51.665 124.557 51.7793C124.408 51.8935 124.225 51.9849 124.02 52.0534C123.826 52.1105 123.597 52.1448 123.357 52.1448Z" fill="white"/>
<path d="M127.961 48.3635H128.669L128.509 49.106C128.692 48.8547 128.932 48.6605 129.218 48.512C129.503 48.3635 129.8 48.2949 130.109 48.2949C130.269 48.2949 130.394 48.3178 130.497 48.3635C130.6 48.4092 130.68 48.4663 130.748 48.5462C130.817 48.6262 130.863 48.7176 130.886 48.8204C130.92 48.9232 130.931 49.0375 130.931 49.1631C130.931 49.2659 130.92 49.3688 130.908 49.4716C130.897 49.5858 130.874 49.6886 130.851 49.8029L130.371 52.0648H129.595L130.04 49.9856C130.063 49.8942 130.074 49.8143 130.086 49.7457C130.097 49.6772 130.097 49.5972 130.097 49.5401C130.097 49.1745 129.949 48.9918 129.64 48.9918C129.538 48.9918 129.423 49.0146 129.309 49.0603C129.195 49.106 129.081 49.1631 128.978 49.2431C128.864 49.3231 128.761 49.4144 128.669 49.5173C128.578 49.6201 128.498 49.7457 128.429 49.8714L127.95 52.0762H127.173L127.961 48.3635Z" fill="white"/>
<path d="M132.874 52.1447C132.634 52.1447 132.428 52.099 132.245 52.0191C132.063 51.9391 131.914 51.8249 131.777 51.6878C131.651 51.5507 131.549 51.3793 131.491 51.1851C131.423 50.9909 131.389 50.7853 131.389 50.5682C131.389 50.2598 131.446 49.9742 131.56 49.7C131.674 49.4259 131.834 49.186 132.04 48.9803C132.245 48.7747 132.485 48.6034 132.771 48.4777C133.057 48.352 133.354 48.2949 133.685 48.2949C134.073 48.2949 134.37 48.3863 134.599 48.5577C134.827 48.729 134.941 48.9803 134.941 49.3231C134.941 50.0999 134.245 50.4883 132.862 50.4883C132.657 50.4883 132.428 50.4769 132.177 50.4654V50.5911C132.177 50.7282 132.188 50.8538 132.223 50.9795C132.257 51.0937 132.303 51.1966 132.371 51.2879C132.44 51.3793 132.52 51.4479 132.622 51.4936C132.725 51.5393 132.851 51.5735 132.988 51.5735C133.194 51.5735 133.388 51.5278 133.582 51.425C133.776 51.3222 133.925 51.1851 134.028 51.0138L134.644 51.208C134.553 51.3451 134.439 51.4821 134.313 51.5964C134.187 51.7106 134.039 51.8134 133.879 51.8934C133.719 51.9734 133.559 52.0419 133.388 52.0876C133.228 52.1219 133.045 52.1447 132.874 52.1447ZM133.593 48.8775C133.422 48.8775 133.262 48.9118 133.125 48.9689C132.988 49.026 132.862 49.106 132.748 49.2088C132.634 49.3116 132.542 49.4259 132.474 49.5515C132.394 49.6772 132.337 49.8143 132.291 49.9628C132.508 49.9742 132.714 49.9856 132.897 49.9856C133.148 49.9856 133.354 49.9742 133.525 49.9399C133.696 49.9057 133.833 49.8714 133.936 49.8143C134.039 49.7572 134.119 49.6886 134.165 49.6201C134.21 49.5401 134.233 49.4601 134.233 49.3573C134.233 49.1974 134.176 49.0832 134.062 49.0032C133.948 48.9118 133.788 48.8775 133.593 48.8775Z" fill="white"/>
<path d="M136.129 52.1333C135.924 52.1333 135.752 52.0876 135.615 51.9848C135.478 51.8934 135.41 51.7335 135.41 51.5164C135.41 51.4364 135.421 51.3565 135.433 51.2879L135.924 48.9689H135.444L135.581 48.3635H136.038L136.301 47.1411H137.078L136.815 48.3635H137.58L137.455 48.9689H136.701L136.255 51.0366C136.244 51.0823 136.244 51.1166 136.244 51.1394C136.244 51.2308 136.266 51.2994 136.324 51.345C136.381 51.3907 136.449 51.4136 136.529 51.4136C136.643 51.4136 136.746 51.3907 136.838 51.3565C136.94 51.3222 137.009 51.2879 137.066 51.2651L137.089 51.882C136.975 51.9505 136.838 52.0076 136.655 52.0533C136.506 52.1104 136.324 52.1333 136.129 52.1333Z" fill="white"/>
<path d="M137.923 48.3635H138.7L139.214 51.3793C139.271 51.2994 139.328 51.2194 139.397 51.128C139.465 51.0366 139.522 50.9338 139.591 50.8424C139.659 50.7396 139.716 50.6482 139.773 50.5568C139.831 50.4654 139.888 50.3741 139.933 50.3055L139.476 48.3749H140.219L140.447 49.5515C140.482 49.4716 140.527 49.3916 140.573 49.2774C140.619 49.1746 140.665 49.0717 140.71 48.9575C140.756 48.8433 140.802 48.7405 140.836 48.6376C140.87 48.5348 140.904 48.4434 140.927 48.3635H141.613C141.407 49.0146 141.11 49.6544 140.722 50.2712L140.962 51.2994C141.156 51.0366 141.327 50.7853 141.476 50.5454C141.636 50.3055 141.773 50.0656 141.898 49.8257C142.024 49.5858 142.138 49.3459 142.241 49.106C142.344 48.8661 142.435 48.6148 142.515 48.3521H143.235C143.041 48.9689 142.767 49.5858 142.412 50.2027C142.058 50.8196 141.624 51.4365 141.121 52.0533H140.425L140.185 50.9338C140.139 51.0024 140.082 51.0823 140.013 51.1851C139.945 51.288 139.876 51.3908 139.808 51.4936C139.739 51.5964 139.659 51.6992 139.591 51.802C139.522 51.9048 139.454 51.9848 139.408 52.0533H138.643L137.923 48.3635Z" fill="white"/>
<path d="M144.663 52.1445C144.423 52.1445 144.217 52.0988 144.035 52.0189C143.852 51.9389 143.703 51.8247 143.578 51.6876C143.452 51.5505 143.361 51.3791 143.292 51.1964C143.224 51.0136 143.201 50.808 143.201 50.6023C143.201 50.3053 143.258 50.0197 143.383 49.7455C143.498 49.4714 143.658 49.2201 143.863 49.0144C144.069 48.7974 144.309 48.626 144.583 48.5004C144.857 48.3747 145.154 48.3062 145.474 48.3062C145.714 48.3062 145.92 48.3518 146.102 48.4318C146.285 48.5118 146.434 48.626 146.559 48.7631C146.685 48.9002 146.776 49.0715 146.845 49.2543C146.913 49.4485 146.936 49.6427 146.936 49.8598C146.936 50.1568 146.879 50.4424 146.753 50.7166C146.639 50.9907 146.468 51.2306 146.262 51.4477C146.057 51.6647 145.817 51.8361 145.543 51.9617C145.291 52.0874 144.994 52.1445 144.663 52.1445ZM144.811 51.4819C144.971 51.4819 145.143 51.4363 145.303 51.3563C145.463 51.2763 145.6 51.1621 145.725 51.025C145.851 50.8879 145.942 50.728 146.022 50.5338C146.102 50.351 146.137 50.1568 146.137 49.9397C146.137 49.6542 146.068 49.4257 145.92 49.2315C145.771 49.0487 145.577 48.9459 145.337 48.9459C145.177 48.9459 145.006 48.9916 144.857 49.0715C144.697 49.1515 144.56 49.2657 144.434 49.4028C144.309 49.5399 144.206 49.6998 144.137 49.8941C144.057 50.0768 144.023 50.271 144.023 50.4881C144.023 50.7737 144.092 51.0022 144.24 51.1964C144.377 51.3906 144.572 51.4819 144.811 51.4819Z" fill="white"/>
<path d="M147.999 48.3632H148.718L148.536 49.1971C148.718 48.9458 148.924 48.7402 149.141 48.5802C149.37 48.4203 149.598 48.3403 149.815 48.3403C149.861 48.3403 149.895 48.3403 149.929 48.3403C149.952 48.3403 149.975 48.3518 150.009 48.3518L149.861 49.0372C149.575 49.0486 149.312 49.1171 149.061 49.2428C148.81 49.3685 148.616 49.5627 148.467 49.8026L147.987 52.0759H147.21L147.999 48.3632Z" fill="white"/>
<path d="M150.911 46.9009H151.688L151.174 49.3341C151.277 49.1856 151.391 49.0485 151.517 48.9343C151.642 48.8086 151.768 48.7058 151.894 48.6144C152.031 48.523 152.168 48.4545 152.316 48.3974C152.465 48.3403 152.613 48.3174 152.773 48.3174C153.025 48.3174 153.219 48.386 153.344 48.523C153.47 48.6601 153.527 48.8543 153.527 49.0828C153.527 49.3912 153.436 49.6768 153.242 49.9282C153.047 50.1909 152.762 50.3965 152.396 50.5679L153.15 52.0758H152.316L151.517 50.328C151.939 50.2366 152.271 50.0881 152.488 49.8939C152.705 49.6997 152.819 49.4941 152.819 49.277C152.819 49.1628 152.785 49.0828 152.728 49.0371C152.67 48.9914 152.59 48.9572 152.488 48.9572C152.351 48.9572 152.202 48.9914 152.054 49.0714C151.905 49.1514 151.756 49.2542 151.619 49.3913C151.482 49.5283 151.345 49.6768 151.231 49.8596C151.117 50.0424 151.014 50.2252 150.945 50.4194L150.591 52.0758H149.814L150.911 46.9009Z" fill="white"/>
<path d="M155.001 52.1448C154.716 52.1448 154.442 52.0991 154.179 51.9963C153.916 51.9049 153.71 51.7564 153.539 51.5851L153.962 51.0938C154.316 51.4251 154.693 51.5851 155.104 51.5851C155.344 51.5851 155.538 51.5279 155.687 51.4251C155.835 51.3109 155.904 51.1738 155.904 50.991C155.904 50.8654 155.847 50.7625 155.721 50.7054C155.595 50.6483 155.413 50.5683 155.161 50.4998C154.978 50.4427 154.83 50.397 154.693 50.3513C154.556 50.3056 154.453 50.2485 154.362 50.1799C154.282 50.1114 154.213 50.0429 154.167 49.9629C154.122 49.8829 154.099 49.7915 154.099 49.6773C154.099 49.4717 154.145 49.2775 154.236 49.1175C154.327 48.9462 154.442 48.8091 154.601 48.6834C154.75 48.5692 154.933 48.4778 155.127 48.4093C155.321 48.3407 155.538 48.3179 155.755 48.3179C156.018 48.3179 156.258 48.3636 156.464 48.4435C156.669 48.5235 156.852 48.6492 157 48.8091L156.566 49.2775C156.429 49.1404 156.281 49.0376 156.121 48.969C155.961 48.9005 155.79 48.8662 155.618 48.8662C155.413 48.8662 155.23 48.9119 155.081 49.0147C154.933 49.1175 154.864 49.266 154.864 49.4717C154.864 49.5859 154.91 49.6773 155.013 49.7344C155.116 49.7915 155.275 49.8487 155.504 49.9172C155.698 49.9743 155.881 50.02 156.018 50.0771C156.167 50.1342 156.292 50.1914 156.384 50.2599C156.475 50.3284 156.555 50.4084 156.601 50.4998C156.646 50.5912 156.669 50.694 156.669 50.8082C156.669 51.0024 156.623 51.1852 156.544 51.3566C156.464 51.5165 156.349 51.665 156.201 51.7793C156.052 51.8935 155.87 51.9849 155.664 52.0534C155.47 52.1105 155.253 52.1448 155.001 52.1448Z" fill="white"/>
<path d="M56.2981 26.7602C54.6326 26.7602 53.0083 26.493 51.4148 25.9481C49.8213 25.4032 48.4746 24.6116 47.3643 23.5836L49.7185 19.4611C50.9008 20.2527 52.0419 20.8695 53.1316 21.3013C54.2317 21.7331 55.2392 21.9489 56.1541 21.9489C57.1205 21.9489 57.6037 21.6508 57.6037 21.0443C57.6037 20.705 57.4186 20.4171 57.0485 20.1807C56.6784 19.9442 55.9485 19.6667 54.8588 19.348C53.512 18.9676 52.3812 18.5872 51.4765 18.2068C50.5718 17.8367 49.8419 17.4255 49.2662 16.9937C48.7007 16.5619 48.2998 16.0788 48.0531 15.5442C47.8166 15.0096 47.6932 14.3825 47.6932 13.6628C47.6932 12.6965 47.8886 11.802 48.2689 10.9899C48.6493 10.1674 49.1942 9.45808 49.883 8.85153C50.5718 8.24498 51.3942 7.78235 52.34 7.46365C53.2961 7.13468 54.3345 6.98047 55.4653 6.98047C56.8635 6.98047 58.2 7.16552 59.4645 7.52534C60.729 7.88516 62.0038 8.62536 63.2785 9.73566L60.6776 13.8582C59.4953 13.0871 58.5084 12.5422 57.7168 12.2133C56.9252 11.8843 56.1747 11.7301 55.4756 11.7301C55.0644 11.7301 54.7251 11.8123 54.4681 11.9665C54.2008 12.1207 54.0672 12.3675 54.0672 12.7067C54.0672 13.0666 54.2625 13.3647 54.6429 13.5909C55.0233 13.817 55.784 14.074 56.9252 14.3722C58.3028 14.732 59.4542 15.1124 60.4 15.5133C61.3355 15.9143 62.0963 16.346 62.6617 16.819C63.2271 17.2919 63.6281 17.8162 63.8748 18.4124C64.1113 18.9984 64.2346 19.6872 64.2346 20.4583C64.2346 21.4452 64.0496 22.3293 63.6898 23.1004C63.3299 23.8714 62.8056 24.5396 62.1168 25.0845C61.428 25.6397 60.5953 26.0612 59.6187 26.349C58.6317 26.6163 57.5317 26.7602 56.2981 26.7602Z" fill="white"/>
<path d="M75.9342 26.7601C74.2174 26.7601 72.7267 26.4928 71.4313 25.948C70.1463 25.4031 69.0565 24.6835 68.1724 23.7788C67.2883 22.8741 66.6303 21.8255 66.1883 20.6329C65.7462 19.4404 65.52 18.1964 65.52 16.8908C65.52 15.5852 65.7462 14.3412 66.1883 13.1487C66.6303 11.9561 67.2986 10.9075 68.1724 10.0028C69.0565 9.09816 70.136 8.37852 71.4313 7.83365C72.7164 7.28878 74.2174 7.02148 75.9342 7.02148C77.6202 7.02148 79.1109 7.28878 80.4165 7.83365C81.7222 8.37852 82.8119 9.09816 83.6857 10.0028C84.5699 10.9075 85.2278 11.9561 85.6699 13.1487C86.112 14.3412 86.3381 15.5852 86.3381 16.8908C86.3381 18.1964 86.112 19.4404 85.6699 20.6329C85.2278 21.8255 84.5596 22.8741 83.6857 23.7788C82.8016 24.6835 81.7119 25.4031 80.4165 25.948C79.1109 26.4826 77.6202 26.7601 75.9342 26.7601ZM72.5725 16.8805C72.5725 18.1553 72.8809 19.1628 73.508 19.8824C74.1351 20.6021 74.937 20.9619 75.9342 20.9619C76.9211 20.9619 77.7333 20.6021 78.3604 19.8824C78.9875 19.1628 79.296 18.1553 79.296 16.8805C79.296 15.6057 78.9875 14.5982 78.3604 13.8786C77.7333 13.159 76.9211 12.7889 75.9342 12.7889C74.9473 12.7889 74.1351 13.1487 73.508 13.8786C72.8809 14.6085 72.5725 15.6057 72.5725 16.8805Z" fill="white"/>
<path d="M100.885 26.7603C98.0166 26.7603 95.9708 25.65 94.7371 23.4294V26.3902H88.7744V0H95.6418V10.1983C96.197 9.15997 96.9783 8.36837 97.9961 7.83378C99.0036 7.28891 100.206 7.02161 101.574 7.02161C102.735 7.02161 103.805 7.27863 104.812 7.78237C105.809 8.28612 106.673 8.9852 107.392 9.85905C108.112 10.7432 108.678 11.7918 109.089 13.0049C109.5 14.218 109.706 15.5442 109.706 16.9629C109.706 18.3816 109.479 19.6975 109.037 20.8901C108.595 22.0826 107.978 23.1107 107.197 23.9845C106.416 24.8481 105.48 25.5369 104.391 26.0303C103.301 26.5135 102.129 26.7603 100.885 26.7603ZM98.8905 20.9723C100.021 20.9723 100.936 20.6125 101.625 19.8929C102.314 19.1732 102.653 18.2068 102.653 17.004C102.653 16.4283 102.561 15.8834 102.386 15.3797C102.201 14.876 101.964 14.4236 101.666 14.0432C101.368 13.6628 100.998 13.3544 100.576 13.1385C100.155 12.9226 99.6924 12.8096 99.1886 12.8096C98.469 12.8096 97.7802 13.0666 97.1325 13.5909C96.4848 14.1049 95.9914 14.7937 95.6521 15.6367V19.019C96.5259 20.3246 97.6157 20.9723 98.8905 20.9723Z" fill="white"/>
<path d="M121.528 26.7602C119.863 26.7602 118.382 26.5031 117.076 25.9788C115.771 25.4648 114.681 24.7555 113.807 23.861C112.923 22.9666 112.255 21.9489 111.803 20.7872C111.34 19.6255 111.114 18.4124 111.114 17.1376C111.114 15.76 111.34 14.4646 111.782 13.231C112.224 11.9973 112.892 10.9281 113.766 10.0132C114.65 9.09818 115.73 8.36826 117.025 7.82339C118.31 7.27852 119.811 7.01123 121.528 7.01123C123.214 7.01123 124.715 7.27852 126.01 7.82339C127.316 8.36826 128.406 9.0879 129.279 9.99259C130.164 10.8973 130.822 11.9459 131.264 13.1384C131.706 14.331 131.932 15.5749 131.932 16.8806C131.932 17.2404 131.911 17.6105 131.88 17.9806C131.839 18.3507 131.798 18.6899 131.757 18.9778H118.413C118.485 19.9853 118.855 20.7152 119.534 21.1675C120.212 21.6096 120.942 21.8358 121.744 21.8358C122.494 21.8358 123.193 21.6713 123.862 21.332C124.52 20.9928 124.962 20.5199 125.178 19.9236L130.996 21.589C130.225 23.1106 129.033 24.3545 127.439 25.3106C125.836 26.277 123.862 26.7602 121.528 26.7602ZM124.561 14.8656C124.437 13.9506 124.098 13.231 123.553 12.6964C122.998 12.1618 122.289 11.9048 121.415 11.9048C120.551 11.9048 119.832 12.1721 119.287 12.6964C118.732 13.231 118.392 13.9506 118.279 14.8656H124.561Z" fill="white"/>
<path d="M133.351 28.3125C134.461 28.7238 135.396 28.9294 136.167 28.9294C137.637 28.9294 138.45 28.0864 138.594 26.4004L131.685 7.38135H138.738L142.356 20.5816L145.286 7.38135H151.691L145.255 28.6826C144.968 29.6182 144.556 30.4715 144.022 31.2322C143.487 31.993 142.86 32.6407 142.12 33.1855C141.38 33.7304 140.567 34.1416 139.683 34.4295C138.789 34.7173 137.864 34.8612 136.897 34.8612C135.664 34.8612 134.492 34.6351 133.351 34.1725V28.3125Z" fill="white"/>
<path d="M21.406 52.4617C21.3752 52.4617 21.3443 52.4617 21.3135 52.472C21.3957 52.472 21.478 52.4617 21.5499 52.4514C21.5396 52.4514 21.5294 52.4514 21.5191 52.4514C21.4882 52.4514 21.4471 52.4514 21.406 52.4617Z" fill="#FDB515"/>
<path d="M19.9361 53.0271C19.9258 53.0271 19.9156 53.0271 19.9053 53.0271C20.0081 53.0477 20.1109 53.0579 20.2137 53.0682C20.1931 53.0682 20.1623 53.0579 20.1417 53.0579C20.0698 53.0477 20.0081 53.0374 19.9361 53.0271Z" fill="#FDB515"/>
<path d="M21.8277 52.4205C21.8174 52.4205 21.8072 52.4205 21.7969 52.4308C21.8997 52.4205 22.0128 52.4 22.1156 52.3794C22.095 52.3794 22.0847 52.3897 22.0642 52.3897C21.9819 52.3897 21.91 52.4102 21.8277 52.4205Z" fill="#FDB515"/>
<path d="M22.2696 52.3385H22.2593C22.3004 52.3282 22.3312 52.3179 22.3724 52.3076C22.3518 52.3076 22.3415 52.3179 22.321 52.3179C22.3004 52.3385 22.2798 52.3385 22.2696 52.3385Z" fill="#FDB515"/>
<path d="M21.0359 52.472C21.0462 52.472 21.0667 52.472 21.077 52.472C20.9742 52.472 20.8611 52.472 20.7583 52.4617C20.8508 52.472 20.9434 52.472 21.0359 52.472Z" fill="#FDB515"/>
<path d="M39.7465 2.67285H1.8113C0.814091 2.67285 0.0019276 3.48501 0.0019276 4.48223V29.0116C-0.00835295 28.9499 0.0224887 28.878 0.0944525 28.8369L2.53094 27.6957V5.56169C2.53094 5.36636 2.69543 5.20187 2.89076 5.20187H38.6671C38.8624 5.20187 39.0269 5.36636 39.0269 5.56169V32.3528C39.0269 32.4967 40.6409 34.3369 41.3194 35.1491C41.4737 34.2341 41.5456 33.2986 41.5456 32.3528V4.48223C41.5559 3.48501 40.7437 2.67285 39.7465 2.67285Z" fill="#FDB515"/>
<path d="M23.2051 52.0609C23.2462 52.0404 23.2976 52.0301 23.3387 52.0095C23.2873 52.0301 23.2462 52.0404 23.2051 52.0609Z" fill="#FDB515"/>
<path d="M23.8628 51.7625L32.4882 47.1362L23.8628 51.7625Z" fill="#FDB515"/>
<path d="M20.5017 53.0784C20.4092 53.0784 20.3167 53.0681 20.2139 53.0579C20.3064 53.0681 20.3989 53.0784 20.5017 53.0784Z" fill="#FDB515"/>
<path d="M21.797 52.4207C21.7148 52.4309 21.6428 52.4412 21.5605 52.4412C21.6325 52.4412 21.7148 52.4309 21.797 52.4207Z" fill="#FDB515"/>
<path d="M21.3136 52.4617C21.2314 52.4617 21.1491 52.472 21.0669 52.472C21.1594 52.472 21.2314 52.472 21.3136 52.4617Z" fill="#FDB515"/>
<path d="M19.8127 53.0169C19.8436 53.0169 19.8744 53.0272 19.9053 53.0272C19.8436 53.0169 19.7819 53.0066 19.7202 52.9963C19.7511 52.9963 19.7819 53.0066 19.8127 53.0169Z" fill="#FDB515"/>
<path d="M23.8632 51.7627C23.6884 51.8552 23.5136 51.9375 23.3389 52.0094C23.5136 51.9375 23.6987 51.8552 23.8632 51.7627Z" fill="#FDB515"/>
<path d="M22.2391 52.3487C22.2494 52.3487 22.2596 52.3487 22.2596 52.3384C22.2082 52.3487 22.1671 52.3589 22.1157 52.3589C22.1568 52.3589 22.198 52.3589 22.2391 52.3487Z" fill="#FDB515"/>
<path d="M22.6604 52.2456C22.5679 52.2764 22.4651 52.297 22.3726 52.3176C22.4651 52.297 22.5576 52.2764 22.6604 52.2456Z" fill="#FDB515"/>
<path d="M23.205 52.0608C23.0302 52.1328 22.8555 52.1944 22.6704 52.2356C22.8452 52.1944 23.0302 52.1328 23.205 52.0608Z" fill="#FDB515"/>
<path d="M22.064 52.3795C22.0845 52.3795 22.1051 52.3692 22.1154 52.3692C22.1668 52.3589 22.2079 52.3486 22.2593 52.3486H22.2696C22.1976 52.3589 22.1256 52.3692 22.064 52.3795Z" fill="#FDB515"/>
<path d="M21.5298 52.4515C21.5401 52.4515 21.5503 52.4515 21.5606 52.4515C21.6429 52.4412 21.7148 52.4412 21.7971 52.4309C21.8074 52.4309 21.8176 52.4309 21.8279 52.4207C21.7251 52.4309 21.6223 52.4412 21.5298 52.4515Z" fill="#FDB515"/>
<path d="M20.1416 53.0476C20.1622 53.0476 20.193 53.0579 20.2136 53.0579C20.3061 53.0682 20.3986 53.0784 20.5014 53.0784C20.6042 53.0784 20.7173 53.0887 20.8201 53.0887C20.9024 53.0887 20.9846 53.0887 21.0669 53.0784C21.0977 53.0784 21.1285 53.0785 21.1594 53.0682C20.8201 53.099 20.4809 53.0887 20.1416 53.0476Z" fill="#FDB515"/>
<path d="M19.6997 52.9861H19.71C19.7717 52.9964 19.8334 53.0066 19.895 53.0169C19.9053 53.0169 19.9156 53.0169 19.9259 53.0169C19.8642 53.0169 19.782 53.0066 19.6997 52.9861Z" fill="#FDB515"/>
<path d="M22.3105 52.3278C22.3311 52.3278 22.3414 52.3176 22.3619 52.3176C22.4545 52.297 22.5573 52.2764 22.6498 52.2456C22.547 52.2764 22.4339 52.3073 22.3105 52.3278Z" fill="#FDB515"/>
<path d="M23.3389 52.0094C23.5136 51.9375 23.6987 51.8552 23.8632 51.7627C23.6987 51.8552 23.5136 51.9375 23.3389 52.0094Z" fill="#FDB515"/>
<path d="M22.6704 52.2458C22.8452 52.1944 23.0302 52.1327 23.205 52.071C23.0302 52.1327 22.8452 52.1944 22.6704 52.2458Z" fill="#FDB515"/>
<path d="M41.0727 34.8511C40.4868 34.1417 39.911 33.4529 39.3765 32.795C31.666 23.3883 28.4894 18.505 26.0734 17.6517C23.4827 16.7368 19.792 16.7779 18.4658 17.5695C18.4658 17.5695 17.8695 10.26 10.9199 8.92354C3.97024 7.58707 4.36091 11.4526 4.36091 11.4526C4.36091 11.4526 4.22726 14.7937 7.52731 14.4236C9.20304 14.1769 15.1555 13.046 14.8162 18.7517C14.8162 18.7517 10.6218 20.4994 7.60956 24.7761L2.18143 27.6958L0.00195312 29.0117C0.0122337 29.094 0.073917 29.1762 0.176722 29.1762C0.803836 29.1762 1.62628 29.1865 2.16087 29.1968C4.41231 29.2379 7.34226 29.4024 8.13387 29.9061C8.13387 29.9061 11.6293 30.8725 13.2433 36.8763C13.9424 39.4876 12.6779 42.2736 11.1255 46.2831C10.8788 46.9307 10.6218 47.6092 10.3545 48.3289L17.9004 52.3691C18.034 52.4411 18.1677 52.5028 18.3116 52.5645C18.3527 52.585 18.3836 52.5953 18.4247 52.6159C18.5481 52.6673 18.6611 52.7084 18.7845 52.7495C18.8051 52.7598 18.8256 52.7701 18.8565 52.7701C19.0004 52.8112 19.1341 52.8523 19.278 52.8934C19.3294 52.9037 19.3911 52.9243 19.4425 52.9346C19.5247 52.9551 19.6172 52.9757 19.6995 52.986C19.7817 52.9962 19.8537 53.0168 19.9359 53.0271C19.9976 53.0374 20.0696 53.0476 20.1313 53.0476C20.4705 53.0785 20.8098 53.0888 21.149 53.0682C21.1902 53.0682 21.2313 53.0579 21.2724 53.0579C21.3752 53.0476 21.478 53.0374 21.5808 53.0271C21.6631 53.0168 21.735 53.0065 21.8173 52.986C21.8892 52.9757 21.9612 52.9654 22.0332 52.9448C22.0537 52.9448 22.064 52.9346 22.0846 52.9346C22.1977 52.9037 22.321 52.8832 22.4341 52.8523H22.4444C22.6294 52.8009 22.8042 52.7392 22.979 52.6673C23.0201 52.6467 23.0715 52.6261 23.1126 52.6159C23.2977 52.5439 23.4724 52.4617 23.6472 52.3691L32.3754 47.6812C32.6427 47.5373 32.8997 47.3831 33.167 47.2289C33.2081 47.198 33.2492 47.1775 33.2904 47.1569C33.3006 47.1569 33.3007 47.1466 33.3109 47.1466C33.5577 46.9924 33.8044 46.8279 34.0511 46.6634C34.0923 46.6326 34.1437 46.6017 34.1848 46.5709C34.4315 46.3961 34.668 46.2214 34.9044 46.0363C34.925 46.0158 34.9455 46.0055 34.9661 45.9849C35.1923 45.7999 35.4184 45.6148 35.6343 45.4195C35.6549 45.3989 35.6857 45.3784 35.7063 45.3578C35.9325 45.1625 36.1484 44.9569 36.354 44.7512C36.3848 44.7204 36.4259 44.6896 36.4568 44.6484C36.6624 44.4325 36.868 44.2269 37.0736 44.0008C37.0942 43.9802 37.1147 43.9596 37.1353 43.9288C37.3101 43.7335 37.4746 43.5279 37.639 43.3325C37.711 43.24 37.783 43.1475 37.8549 43.055C37.9989 42.8699 38.1531 42.6746 38.2867 42.4792C38.3176 42.4484 38.3381 42.4176 38.3484 42.397C38.5232 42.1503 38.6979 41.8933 38.8624 41.6362C39.2017 41.1017 39.5101 40.5362 39.7877 39.9708C39.798 39.9502 39.8082 39.9297 39.8185 39.8988L39.8288 39.8783C39.9624 39.5904 40.0961 39.3026 40.2195 39.0044C40.2297 38.9839 40.2297 38.9736 40.24 38.953C40.4765 38.367 40.6821 37.7708 40.8569 37.1642C40.9494 36.8249 41.0419 36.496 41.1139 36.1567C41.1139 36.1464 41.1139 36.1361 41.1241 36.1259C41.1961 35.8175 41.2578 35.4988 41.3092 35.1801C41.3092 35.1698 41.3092 35.1698 41.3092 35.1595C41.2372 35.0567 41.155 34.9539 41.0727 34.8511ZM13.2741 26.9865C12.5339 26.9865 11.9377 26.3902 11.9377 25.65C11.9377 24.9098 12.5339 24.3135 13.2741 24.3135C14.0143 24.3135 14.6106 24.9098 14.6106 25.65C14.6106 26.3902 14.0143 26.9865 13.2741 26.9865Z" fill="white"/>
</svg>
