<svg width="385" height="159" viewBox="0 0 385 159" fill="none" xmlns="http://www.w3.org/2000/svg">
<rect x="36.6873" y="54.2838" width="309.502" height="103.808" rx="10" fill="#B00A0A"/>
<path d="M105.968 142.633C110.148 142.633 113.048 139.993 113.048 135.973C113.048 131.953 110.148 129.293 105.968 129.293H100.708V142.633H105.968ZM105.968 140.133H103.548V131.793H105.968C108.708 131.793 110.148 133.613 110.148 135.973C110.148 138.233 108.608 140.133 105.968 140.133Z" fill="white"/>
<path d="M123.343 142.633V136.393C123.343 133.613 121.323 132.733 119.123 132.733C117.603 132.733 116.083 133.213 114.903 134.253L115.863 135.953C116.683 135.193 117.643 134.813 118.683 134.813C119.963 134.813 120.803 135.453 120.803 136.433V137.733C120.163 136.973 119.023 136.553 117.743 136.553C116.203 136.553 114.383 137.413 114.383 139.673C114.383 141.833 116.203 142.873 117.743 142.873C119.003 142.873 120.143 142.413 120.803 141.633V142.633H123.343ZM118.763 141.153C117.763 141.153 116.943 140.633 116.943 139.733C116.943 138.793 117.763 138.273 118.763 138.273C119.583 138.273 120.383 138.553 120.803 139.113V140.313C120.383 140.873 119.583 141.153 118.763 141.153Z" fill="white"/>
<path d="M129.102 142.873C130.162 142.873 130.842 142.593 131.222 142.253L130.682 140.333C130.542 140.473 130.182 140.613 129.802 140.613C129.242 140.613 128.922 140.153 128.922 139.553V135.193H130.882V132.973H128.922V130.333H126.362V132.973H124.762V135.193H126.362V140.233C126.362 141.953 127.322 142.873 129.102 142.873Z" fill="white"/>
<path d="M140.96 142.633V136.393C140.96 133.613 138.94 132.733 136.74 132.733C135.22 132.733 133.7 133.213 132.52 134.253L133.48 135.953C134.3 135.193 135.26 134.813 136.3 134.813C137.58 134.813 138.42 135.453 138.42 136.433V137.733C137.78 136.973 136.64 136.553 135.36 136.553C133.82 136.553 132 137.413 132 139.673C132 141.833 133.82 142.873 135.36 142.873C136.62 142.873 137.76 142.413 138.42 141.633V142.633H140.96ZM136.38 141.153C135.38 141.153 134.56 140.633 134.56 139.733C134.56 138.793 135.38 138.273 136.38 138.273C137.2 138.273 138 138.553 138.42 139.113V140.313C138 140.873 137.2 141.153 136.38 141.153Z" fill="white"/>
<path d="M155.117 142.873C158.057 142.873 159.737 141.253 160.697 139.593L158.257 138.413C157.697 139.513 156.497 140.353 155.117 140.353C152.697 140.353 150.937 138.493 150.937 135.973C150.937 133.453 152.697 131.593 155.117 131.593C156.497 131.593 157.697 132.453 158.257 133.533L160.697 132.333C159.757 130.673 158.057 129.073 155.117 129.073C151.117 129.073 148.017 131.873 148.017 135.973C148.017 140.073 151.117 142.873 155.117 142.873Z" fill="white"/>
<path d="M171.407 142.633V135.773C171.407 133.893 170.387 132.733 168.267 132.733C166.687 132.733 165.487 133.493 164.867 134.233V129.293H162.327V142.633H164.867V136.133C165.307 135.553 166.087 134.993 167.067 134.993C168.167 134.993 168.867 135.413 168.867 136.753V142.633H171.407Z" fill="white"/>
<path d="M182.269 142.633V136.393C182.269 133.613 180.249 132.733 178.049 132.733C176.529 132.733 175.009 133.213 173.829 134.253L174.789 135.953C175.609 135.193 176.569 134.813 177.609 134.813C178.889 134.813 179.729 135.453 179.729 136.433V137.733C179.089 136.973 177.949 136.553 176.669 136.553C175.129 136.553 173.309 137.413 173.309 139.673C173.309 141.833 175.129 142.873 176.669 142.873C177.929 142.873 179.069 142.413 179.729 141.633V142.633H182.269ZM177.689 141.153C176.689 141.153 175.869 140.633 175.869 139.733C175.869 138.793 176.689 138.273 177.689 138.273C178.509 138.273 179.309 138.553 179.729 139.113V140.313C179.309 140.873 178.509 141.153 177.689 141.153Z" fill="white"/>
<path d="M187.328 142.633V136.253C187.748 135.633 188.868 135.153 189.708 135.153C189.988 135.153 190.228 135.173 190.408 135.213V132.733C189.208 132.733 188.008 133.433 187.328 134.293V132.973H184.788V142.633H187.328Z" fill="white"/>
<path d="M195.955 146.553C198.335 146.553 201.175 145.653 201.175 141.973V132.973H198.615V134.213C197.835 133.233 196.795 132.733 195.635 132.733C193.195 132.733 191.375 134.493 191.375 137.653C191.375 140.873 193.215 142.573 195.635 142.573C196.815 142.573 197.855 142.013 198.615 141.053V142.033C198.615 143.933 197.175 144.473 195.955 144.473C194.735 144.473 193.715 144.133 192.935 143.273L191.795 145.113C193.015 146.173 194.295 146.553 195.955 146.553ZM196.435 140.313C194.995 140.313 193.995 139.313 193.995 137.653C193.995 135.993 194.995 134.993 196.435 134.993C197.275 134.993 198.195 135.453 198.615 136.093V139.213C198.195 139.833 197.275 140.313 196.435 140.313Z" fill="white"/>
<path d="M208.234 142.873C209.734 142.873 211.254 142.413 212.214 141.533L211.094 139.893C210.474 140.493 209.334 140.853 208.514 140.853C206.874 140.853 205.894 139.833 205.734 138.613H212.914V138.053C212.914 134.893 210.954 132.733 208.074 132.733C205.134 132.733 203.074 134.993 203.074 137.793C203.074 140.893 205.294 142.873 208.234 142.873ZM210.454 136.893H205.694C205.814 135.933 206.494 134.753 208.074 134.753C209.754 134.753 210.394 135.973 210.454 136.893Z" fill="white"/>
<path d="M228.206 142.633V136.393C228.206 133.613 226.186 132.733 223.986 132.733C222.466 132.733 220.946 133.213 219.766 134.253L220.726 135.953C221.546 135.193 222.506 134.813 223.546 134.813C224.826 134.813 225.666 135.453 225.666 136.433V137.733C225.026 136.973 223.886 136.553 222.606 136.553C221.066 136.553 219.246 137.413 219.246 139.673C219.246 141.833 221.066 142.873 222.606 142.873C223.866 142.873 225.006 142.413 225.666 141.633V142.633H228.206ZM223.626 141.153C222.626 141.153 221.806 140.633 221.806 139.733C221.806 138.793 222.626 138.273 223.626 138.273C224.446 138.273 225.246 138.553 225.666 139.113V140.313C225.246 140.873 224.446 141.153 223.626 141.153Z" fill="white"/>
<path d="M236.246 142.873C238.726 142.873 240.526 141.013 240.526 137.793C240.526 134.573 238.726 132.733 236.246 132.733C235.066 132.733 234.006 133.253 233.266 134.193V132.973H230.726V146.313H233.266V141.393C234.046 142.393 235.106 142.873 236.246 142.873ZM235.446 140.613C234.626 140.613 233.686 140.113 233.266 139.513V136.093C233.686 135.473 234.626 134.993 235.446 134.993C236.906 134.993 237.886 136.133 237.886 137.793C237.886 139.473 236.906 140.613 235.446 140.613Z" fill="white"/>
<path d="M247.906 142.873C250.386 142.873 252.186 141.013 252.186 137.793C252.186 134.573 250.386 132.733 247.906 132.733C246.726 132.733 245.666 133.253 244.926 134.193V132.973H242.386V146.313H244.926V141.393C245.706 142.393 246.766 142.873 247.906 142.873ZM247.106 140.613C246.286 140.613 245.346 140.113 244.926 139.513V136.093C245.346 135.473 246.286 134.993 247.106 134.993C248.566 134.993 249.546 136.133 249.546 137.793C249.546 139.473 248.566 140.613 247.106 140.613Z" fill="white"/>
<path d="M256.586 142.633V129.293H254.046V142.633H256.586Z" fill="white"/>
<path d="M260.365 131.933C261.205 131.933 261.885 131.253 261.885 130.413C261.885 129.573 261.205 128.913 260.365 128.913C259.545 128.913 258.845 129.573 258.845 130.413C258.845 131.253 259.545 131.933 260.365 131.933ZM261.645 142.633V132.973H259.105V142.633H261.645Z" fill="white"/>
<path d="M268.703 142.873C270.203 142.873 271.723 142.413 272.683 141.533L271.563 139.893C270.943 140.493 269.803 140.853 268.983 140.853C267.343 140.853 266.363 139.833 266.203 138.613H273.383V138.053C273.383 134.893 271.423 132.733 268.543 132.733C265.603 132.733 263.543 134.993 263.543 137.793C263.543 140.893 265.763 142.873 268.703 142.873ZM270.923 136.893H266.163C266.283 135.933 266.963 134.753 268.543 134.753C270.223 134.753 270.863 135.973 270.923 136.893Z" fill="white"/>
<path d="M278.698 142.873C281.378 142.873 282.878 141.533 282.878 139.773C282.878 135.873 277.158 137.073 277.158 135.633C277.158 135.093 277.758 134.673 278.678 134.673C279.858 134.673 280.958 135.173 281.538 135.793L282.558 134.053C281.598 133.293 280.298 132.733 278.658 132.733C276.118 132.733 274.698 134.153 274.698 135.773C274.698 139.573 280.438 138.273 280.438 139.873C280.438 140.473 279.918 140.913 278.818 140.913C277.618 140.913 276.178 140.253 275.478 139.593L274.378 141.373C275.398 142.313 277.018 142.873 278.698 142.873Z" fill="white"/>
<g clip-path="url(#clip0)">
<path d="M369.154 1.87372H15.1652C7.34506 1.87372 1.00562 8.21317 1.00562 16.0333V100.991C1.00562 108.811 7.34506 115.15 15.1652 115.15H369.154C376.974 115.15 383.314 108.811 383.314 100.991V16.0333C383.314 8.21317 376.974 1.87372 369.154 1.87372Z" fill="black"/>
<path d="M369.154 4.13926C372.308 4.13927 375.334 5.3924 377.564 7.62297C379.795 9.85353 381.048 12.8788 381.048 16.0333V100.991C381.048 104.145 379.795 107.17 377.564 109.401C375.334 111.631 372.308 112.885 369.154 112.885H15.1652C13.6032 112.885 12.0566 112.577 10.6135 111.979C9.17046 111.381 7.85928 110.505 6.75481 109.401C5.65035 108.296 4.77424 106.985 4.17651 105.542C3.57878 104.099 3.27114 102.552 3.27114 100.991V16.0333C3.27114 14.4714 3.57878 12.9247 4.17651 11.4816C4.77424 10.0386 5.65035 8.7274 6.75481 7.62294C7.85928 6.51847 9.17046 5.64235 10.6135 5.04462C12.0566 4.44689 13.6032 4.13926 15.1652 4.13926H369.154ZM369.154 1.87372H15.1652C13.3057 1.87372 11.4645 2.23998 9.74654 2.95156C8.02862 3.66315 6.46768 4.70613 5.15284 6.02097C3.83801 7.33581 2.79502 8.89675 2.08344 10.6147C1.37186 12.3326 1.00561 14.1738 1.00562 16.0333V100.991C1.00561 102.85 1.37186 104.691 2.08344 106.409C2.79502 108.127 3.83801 109.688 5.15284 111.003C6.46768 112.318 8.02862 113.361 9.74654 114.072C11.4645 114.784 13.3057 115.15 15.1652 115.15H369.154C372.909 115.15 376.511 113.658 379.166 111.003C381.822 108.347 383.314 104.746 383.314 100.991V16.0333C383.314 12.278 381.822 8.67644 379.166 6.021C376.511 3.36556 372.909 1.87374 369.154 1.87372Z" fill="white"/>
<path d="M141.86 31.5842C141.905 32.5449 141.754 33.5046 141.416 34.4051C141.078 35.3056 140.561 36.1281 139.896 36.8226C139.153 37.5942 138.256 38.2006 137.263 38.6023C136.27 39.0039 135.204 39.1918 134.134 39.1537C132.51 39.141 130.926 38.6493 129.58 37.7403C128.234 36.8312 127.187 35.5452 126.569 34.0434C125.951 32.5417 125.789 30.8909 126.106 29.2979C126.422 27.705 127.201 26.2407 128.345 25.0886C129.098 24.3207 129.999 23.7152 130.995 23.3098C131.991 22.9043 133.059 22.7075 134.134 22.7314C135.241 22.7277 136.337 22.9504 137.355 23.386C138.303 23.7682 139.147 24.3696 139.817 25.1408L138.429 26.529C137.906 25.9071 137.246 25.4154 136.501 25.0927C135.755 24.7699 134.945 24.625 134.134 24.6693C133.316 24.6653 132.505 24.8266 131.751 25.1434C130.996 25.4602 130.314 25.9261 129.744 26.5131C129.174 27.1001 128.729 27.7961 128.434 28.5595C128.14 29.3228 128.003 30.1377 128.031 30.9554C128.014 32.1763 128.359 33.3749 129.022 34.4C129.685 35.4252 130.637 36.2309 131.758 36.7156C132.879 37.2003 134.118 37.3423 135.319 37.1235C136.52 36.9048 137.63 36.3352 138.508 35.4865C139.314 34.6132 139.778 33.479 139.817 32.2912H134.134V30.4053H141.756C141.825 30.7943 141.86 31.1887 141.86 31.584L141.86 31.5842Z" fill="white" stroke="white" stroke-width="0.272495" stroke-miterlimit="10"/>
<path d="M153.856 25.0364H146.784V30.0128H153.227V31.8986H146.784V36.875H153.856V38.8133H144.689V23.0981H153.856V25.0364Z" fill="white" stroke="white" stroke-width="0.272495" stroke-miterlimit="10"/>
<path d="M162.447 38.8133H160.43V25.0364H156.03V23.0981H166.952V25.0364H162.447V38.8133Z" fill="white" stroke="white" stroke-width="0.272495" stroke-miterlimit="10"/>
<path d="M174.653 38.8133V23.0981H176.669V38.8133H174.653Z" fill="white" stroke="white" stroke-width="0.272495" stroke-miterlimit="10"/>
<path d="M185.627 38.8133H183.61V25.0364H179.21V23.0981H190.001V25.0364H185.627V38.8133Z" fill="white" stroke="white" stroke-width="0.272495" stroke-miterlimit="10"/>
<path d="M210.457 36.7703C208.926 38.2929 206.854 39.1476 204.695 39.1476C202.535 39.1476 200.464 38.2929 198.932 36.7703C197.444 35.1949 196.615 33.1098 196.615 30.9426C196.615 28.7754 197.444 26.6903 198.932 25.1149C199.687 24.3547 200.585 23.7513 201.574 23.3396C202.563 22.9278 203.623 22.7158 204.695 22.7158C205.766 22.7158 206.827 22.9278 207.815 23.3396C208.804 23.7513 209.702 24.3547 210.457 25.1149C211.951 26.6873 212.784 28.7735 212.784 30.9426C212.784 33.1117 211.951 35.1979 210.457 36.7703ZM200.425 35.4606C201.559 36.5898 203.094 37.2238 204.695 37.2238C206.295 37.2238 207.83 36.5898 208.964 35.4606C210.083 34.2271 210.703 32.6212 210.703 30.9556C210.703 29.2901 210.083 27.6843 208.964 26.4507C207.83 25.3215 206.295 24.6875 204.695 24.6875C203.094 24.6875 201.559 25.3215 200.425 26.4507C199.306 27.6843 198.686 29.2901 198.686 30.9556C198.686 32.6212 199.306 34.2271 200.425 35.4606Z" fill="white" stroke="white" stroke-width="0.272495" stroke-miterlimit="10"/>
<path d="M215.616 38.8133V23.0981H218.078L225.727 35.3297V32.2915V23.0981H227.717V38.8133H225.622L217.633 26.0054V29.0437V38.8133H215.616Z" fill="white" stroke="white" stroke-width="0.272495" stroke-miterlimit="10"/>
<path d="M196.13 61.731C193.93 61.7414 191.783 62.403 189.96 63.6324C188.136 64.8618 186.718 66.6039 185.883 68.6388C185.049 70.6737 184.836 72.9103 185.271 75.0661C185.706 77.222 186.771 79.2005 188.329 80.752C189.888 82.3036 191.872 83.3586 194.03 83.7838C196.188 84.2091 198.423 83.9857 200.454 83.1416C202.485 82.2976 204.22 80.8709 205.441 79.0415C206.662 77.212 207.314 75.0619 207.314 72.8626C207.335 71.3904 207.06 69.929 206.505 68.5654C205.95 67.2018 205.126 65.9638 204.082 64.9252C203.039 63.8865 201.797 63.0685 200.431 62.5197C199.064 61.971 197.602 61.7028 196.13 61.731ZM196.13 79.6201C194.777 79.7147 193.427 79.4001 192.256 78.7174C191.084 78.0347 190.145 77.0154 189.561 75.7919C188.976 74.5685 188.774 73.1975 188.979 71.8572C189.184 70.5169 189.787 69.2692 190.711 68.2765C191.634 67.2837 192.835 66.5917 194.157 66.2904C195.479 65.9892 196.861 66.0926 198.123 66.5872C199.386 67.0819 200.47 67.9448 201.236 69.064C202.001 70.1831 202.413 71.5067 202.416 72.8626C202.458 73.7217 202.328 74.5806 202.033 75.3885C201.738 76.1965 201.284 76.9373 200.698 77.5671C200.112 78.1969 199.406 78.703 198.622 79.0556C197.837 79.4082 196.99 79.6001 196.13 79.6201ZM171.745 61.731C169.545 61.7362 167.395 62.3934 165.568 63.6197C163.741 64.846 162.318 66.5864 161.48 68.6208C160.641 70.6553 160.424 72.8926 160.857 75.0502C161.289 77.2078 162.352 79.1888 163.909 80.7429C165.467 82.2971 167.451 83.3546 169.609 83.782C171.768 84.2094 174.005 83.9875 176.037 83.1442C178.07 82.3009 179.807 80.8742 181.029 79.0442C182.251 77.2142 182.903 75.0631 182.903 72.8626C182.924 71.3904 182.649 69.929 182.094 68.5654C181.539 67.2018 180.715 65.9638 179.672 64.9252C178.628 63.8865 177.386 63.0685 176.02 62.5197C174.654 61.971 173.191 61.7028 171.719 61.731H171.745ZM171.745 79.6201C170.392 79.72 169.04 79.4102 167.865 78.731C166.69 78.0518 165.747 77.0346 165.159 75.812C164.57 74.5894 164.363 73.2178 164.565 71.876C164.767 70.5341 165.368 69.2841 166.29 68.2887C167.212 67.2932 168.413 66.5984 169.735 66.2948C171.058 65.9911 172.441 66.0927 173.705 66.5862C174.969 67.0798 176.055 67.9424 176.822 69.0618C177.589 70.1813 178.001 71.5056 178.005 72.8626C178.047 73.7217 177.917 74.5806 177.622 75.3885C177.327 76.1965 176.873 76.9373 176.287 77.5671C175.701 78.1969 174.995 78.703 174.211 79.0556C173.426 79.4082 172.579 79.6001 171.719 79.6201H171.745ZM142.698 65.1622V69.8767H154.013C153.836 72.0972 152.913 74.1925 151.394 75.8222C150.262 76.9753 148.901 77.8786 147.399 78.474C145.897 79.0695 144.287 79.3439 142.672 79.2796C139.338 79.2796 136.14 77.955 133.782 75.5973C131.425 73.2396 130.1 70.0418 130.1 66.7075C130.1 63.3732 131.425 60.1754 133.782 57.8176C136.14 55.4599 139.338 54.1354 142.672 54.1354C145.862 54.0834 148.942 55.2985 151.237 57.5142L154.563 54.1878C153.014 52.619 151.166 51.3771 149.128 50.5358C147.089 49.6945 144.903 49.2708 142.698 49.2899C140.37 49.1994 138.047 49.5797 135.869 50.4083C133.691 51.2369 131.703 52.4966 130.024 54.1119C128.344 55.7273 127.008 57.6651 126.096 59.8091C125.183 61.9532 124.713 64.2594 124.713 66.5896C124.713 68.9198 125.183 71.2261 126.096 73.3701C127.008 75.5142 128.344 77.452 130.024 79.0673C131.703 80.6827 133.691 81.9424 135.869 82.771C138.047 83.5995 140.37 83.9799 142.698 83.8893C144.94 83.9906 147.178 83.6106 149.261 82.7748C151.343 81.939 153.223 80.6668 154.773 79.0438C157.517 76.0289 158.982 72.0657 158.859 67.9909C158.867 66.9982 158.78 66.007 158.597 65.0312H142.699L142.698 65.1622ZM261.374 68.829C260.691 66.8194 259.413 65.0646 257.711 63.7971C256.008 62.5296 253.961 61.8091 251.84 61.731C250.407 61.7282 248.989 62.0193 247.673 62.5863C246.358 63.1532 245.172 63.9841 244.19 65.0274C243.208 66.0707 242.451 67.3043 241.964 68.6519C241.478 69.9996 241.273 71.4327 241.363 72.8626C241.331 74.3265 241.595 75.7817 242.138 77.1415C242.681 78.5012 243.493 79.7376 244.525 80.7766C245.556 81.8156 246.787 82.636 248.143 83.1889C249.499 83.7417 250.952 84.0155 252.416 83.994C254.248 84.0039 256.054 83.5593 257.672 82.7C259.29 81.8407 260.67 80.5934 261.688 79.07L257.89 76.4508C257.323 77.3958 256.521 78.1774 255.561 78.7191C254.602 79.2609 253.518 79.5443 252.416 79.5415C251.281 79.5848 250.16 79.2856 249.198 78.6831C248.236 78.0805 247.477 77.2023 247.02 76.1627L261.924 70.0076L261.374 68.829ZM246.182 72.5482C246.129 71.7381 246.238 70.9255 246.503 70.1581C246.768 69.3906 247.183 68.6838 247.725 68.0789C248.266 67.474 248.923 66.9831 249.657 66.6352C250.39 66.2873 251.186 66.0893 251.997 66.0527C252.842 65.997 253.684 66.1907 254.42 66.6098C255.156 67.0289 255.752 67.6548 256.135 68.4099L246.182 72.5482ZM234.082 83.3393H238.98V50.5995H234.082V83.3393ZM226.067 64.2192H225.884C225.146 63.3939 224.241 62.734 223.23 62.2826C222.219 61.8312 221.124 61.5986 220.017 61.6001C217.155 61.7389 214.455 62.9737 212.479 65.0485C210.502 67.1233 209.4 69.8791 209.4 72.7447C209.4 75.6103 210.502 78.3661 212.479 80.4409C214.455 82.5157 217.155 83.7505 220.017 83.8893C221.127 83.908 222.227 83.6831 223.241 83.2306C224.255 82.7781 225.157 82.1089 225.884 81.2701H226.041V83.0774C226.041 87.3466 223.762 89.6253 220.095 89.6253C218.874 89.5968 217.689 89.2054 216.691 88.5011C215.692 87.7968 214.926 86.8114 214.49 85.6704L210.221 87.4514C211.024 89.4062 212.394 91.0764 214.153 92.2478C215.912 93.4191 217.982 94.0381 220.095 94.0255C225.831 94.0255 230.572 90.6469 230.572 82.4226V62.3859H226.067L226.067 64.2192ZM220.462 79.6201C218.772 79.4712 217.2 78.6948 216.055 77.444C214.909 76.1932 214.274 74.5586 214.274 72.8626C214.274 71.1665 214.909 69.532 216.055 68.2812C217.2 67.0304 218.772 66.254 220.462 66.1051C221.3 66.1481 222.12 66.3582 222.875 66.7233C223.631 67.0883 224.305 67.6008 224.859 68.2305C225.413 68.8603 225.836 69.5945 226.102 70.39C226.368 71.1855 226.472 72.0262 226.408 72.8626C226.479 73.7025 226.379 74.5483 226.115 75.3486C225.85 76.1489 225.426 76.8873 224.867 77.5189C224.309 78.1506 223.629 78.6625 222.867 79.0236C222.105 79.3848 221.278 79.5877 220.436 79.6201H220.462ZM284.318 50.5995H272.61V83.3393H277.508V70.9244H284.344C285.74 71.0228 287.141 70.8327 288.461 70.3657C289.78 69.8987 290.989 69.165 292.012 68.2102C293.035 67.2554 293.851 66.1 294.408 64.8161C294.965 63.5322 295.251 62.1473 295.25 60.7478C295.248 59.3483 294.958 57.9641 294.397 56.6817C293.837 55.3993 293.018 54.246 291.993 53.2938C290.967 52.3417 289.756 51.6111 288.436 51.1475C287.115 50.684 285.713 50.4974 284.318 50.5995H284.318ZM284.318 66.3146H277.482V55.1569H284.422C285.909 55.1569 287.335 55.7474 288.386 56.7986C289.437 57.8497 290.027 59.2754 290.027 60.7619C290.027 62.2485 289.437 63.6742 288.386 64.7253C287.335 65.7765 285.909 66.367 284.422 66.367L284.318 66.3146ZM314.517 61.6001C312.734 61.4935 310.958 61.9102 309.409 62.799C307.859 63.6877 306.603 65.0098 305.795 66.6027L310.143 68.4099C310.571 67.6198 311.221 66.9714 312.011 66.5436C312.802 66.1158 313.7 65.927 314.595 66.0003C315.217 65.9277 315.847 65.9796 316.449 66.1531C317.05 66.3266 317.611 66.618 318.099 67.0106C318.586 67.4031 318.991 67.8888 319.289 68.4394C319.587 68.9899 319.772 69.5943 319.834 70.2172V70.5579C318.261 69.725 316.506 69.2932 314.726 69.3008C310.038 69.3008 305.297 71.9199 305.297 76.6606C305.344 77.6714 305.592 78.6628 306.028 79.5759C306.464 80.489 307.079 81.3055 307.836 81.977C308.593 82.6485 309.477 83.1615 310.435 83.4855C311.394 83.8095 312.408 83.938 313.417 83.8634C314.65 83.952 315.885 83.7068 316.991 83.1538C318.097 82.6008 319.034 81.7603 319.703 80.7204H319.86V83.3396H324.574V70.7413C324.574 65.0052 320.226 61.6789 314.647 61.6789L314.517 61.6001ZM313.914 79.5415C313.042 79.6636 312.155 79.4425 311.442 78.9247C310.729 78.4069 310.245 77.6328 310.09 76.7651C310.09 74.1459 312.867 73.2816 315.329 73.2816C316.885 73.2432 318.422 73.6232 319.781 74.3817C319.618 75.7997 318.947 77.1108 317.893 78.0734C316.839 79.036 315.472 79.5853 314.045 79.6201L313.914 79.5415ZM341.756 62.3859L336.151 76.5818H335.994L330.18 62.3859H324.941L333.663 82.2392L328.687 93.266H333.794L347.205 62.3859H341.783H341.756ZM297.728 83.3393H302.626V50.5995H297.728V83.3393Z" fill="white"/>
<path d="M45.003 24.5125C44.1493 25.5369 43.7185 26.8483 43.7982 28.1794V86.1157C43.7185 87.4468 44.1493 88.7581 45.003 89.7825L45.1864 89.9657L77.6381 57.5402V56.7545L45.1864 24.3292L45.003 24.5125Z" fill="url(#paint0_linear)"/>
<path d="M88.3766 68.3576L77.6379 57.5404V56.7546L88.3766 45.9374L88.6126 46.0687L101.473 53.3762C105.14 55.4454 105.14 58.8503 101.473 60.9456L88.6649 68.2269L88.3766 68.3576Z" fill="url(#paint1_linear)"/>
<path d="M88.6909 68.2004L77.638 57.1475L45.0029 89.7825C45.7503 90.4395 46.7038 90.8149 47.6985 90.8436C48.6932 90.8724 49.6668 90.5527 50.4508 89.9399L88.7171 68.2007" fill="url(#paint2_linear)"/>
<path d="M88.691 46.0945L50.4247 24.3553C49.6407 23.7425 48.6672 23.4227 47.6725 23.4514C46.6777 23.48 45.7243 23.8552 44.9768 24.5122L77.638 57.1472L88.691 46.0945Z" fill="url(#paint3_linear)"/>
<path opacity="0.2" d="M88.3766 67.9647L50.4247 89.5729C49.6685 90.1383 48.7497 90.4438 47.8055 90.4438C46.8613 90.4438 45.9425 90.1383 45.1863 89.5729L45.0029 89.7561L45.1863 89.9393C45.9408 90.5087 46.8603 90.8168 47.8055 90.8168C48.7507 90.8168 49.6702 90.5087 50.4247 89.9393L88.6909 68.2001L88.3766 67.9647Z" fill="black"/>
<path opacity="0.12" d="M45.003 89.4158C44.1493 88.3914 43.7184 87.0801 43.7982 85.749V86.1418C43.7184 87.4729 44.1493 88.7843 45.003 89.8087L45.1864 89.6254L45.003 89.4158Z" fill="black"/>
<path opacity="0.12" d="M101.473 60.5525L88.3767 67.9647L88.6127 68.2007L101.473 60.9194C102.203 60.5766 102.829 60.0474 103.289 59.3852C103.749 58.723 104.026 57.9512 104.092 57.1478C103.945 57.8778 103.632 58.5643 103.178 59.1546C102.724 59.7448 102.141 60.2231 101.473 60.5527L101.473 60.5525Z" fill="black"/>
<path opacity="0.25" d="M50.4247 24.722L101.473 53.7426C102.14 54.0722 102.724 54.5505 103.178 55.1408C103.632 55.731 103.944 56.4176 104.092 57.1475C104.025 56.3441 103.748 55.5723 103.289 54.9101C102.829 54.2479 102.202 53.7187 101.473 53.3759L50.4247 24.3554C46.7578 22.2862 43.772 24.0146 43.772 28.2056V28.5984C43.8505 24.3815 46.784 22.6528 50.4247 24.722V24.722Z" fill="white"/>
</g>
<defs>
<linearGradient id="paint0_linear" x1="74.7569" y1="27.577" x2="30.8071" y2="71.5269" gradientUnits="userSpaceOnUse">
<stop stop-color="#00A0FF"/>
<stop offset="0.01" stop-color="#00A1FF"/>
<stop offset="0.26" stop-color="#00BEFF"/>
<stop offset="0.51" stop-color="#00D2FF"/>
<stop offset="0.76" stop-color="#00DFFF"/>
<stop offset="1" stop-color="#00E3FF"/>
</linearGradient>
<linearGradient id="paint1_linear" x1="106.266" y1="57.1475" x2="42.9076" y2="57.1475" gradientUnits="userSpaceOnUse">
<stop stop-color="#FFE000"/>
<stop offset="0.41" stop-color="#FFBD00"/>
<stop offset="0.78" stop-color="#FFA500"/>
<stop offset="1" stop-color="#FF9C00"/>
</linearGradient>
<linearGradient id="paint2_linear" x1="82.693" y1="63.1716" x2="23.0804" y2="122.758" gradientUnits="userSpaceOnUse">
<stop stop-color="#FF3A44"/>
<stop offset="1" stop-color="#C31162"/>
</linearGradient>
<linearGradient id="paint3_linear" x1="36.7788" y1="5.23531" x2="63.3896" y2="31.8462" gradientUnits="userSpaceOnUse">
<stop stop-color="#32A071"/>
<stop offset="0.07" stop-color="#2DA771"/>
<stop offset="0.48" stop-color="#15CF74"/>
<stop offset="0.8" stop-color="#06E775"/>
<stop offset="1" stop-color="#00F076"/>
</linearGradient>
<clipPath id="clip0">
<rect width="384.474" height="115.342" fill="white" transform="translate(0.162354 0.457397)"/>
</clipPath>
</defs>
</svg>
