<svg width="383" height="158" viewBox="0 0 383 158" fill="none" xmlns="http://www.w3.org/2000/svg">
<rect x="35.6819" y="53.2837" width="309.502" height="103.808" rx="10" fill="#FFD600"/>
<path d="M126.29 141.633V128.293H123.45V136.673L117.27 128.293H114.35V141.633H117.19V132.933L123.55 141.633H126.29Z" fill="#5D04FF"/>
<path d="M133.34 141.873C136.54 141.873 138.46 139.553 138.46 136.793C138.46 134.053 136.54 131.733 133.34 131.733C130.16 131.733 128.24 134.053 128.24 136.793C128.24 139.553 130.16 141.873 133.34 141.873ZM133.34 139.613C131.76 139.613 130.88 138.313 130.88 136.793C130.88 135.293 131.76 133.993 133.34 133.993C134.92 133.993 135.82 135.293 135.82 136.793C135.82 138.313 134.92 139.613 133.34 139.613Z" fill="#5D04FF"/>
<path d="M150.782 141.633C154.962 141.633 157.862 138.993 157.862 134.973C157.862 130.953 154.962 128.293 150.782 128.293H145.522V141.633H150.782ZM150.782 139.133H148.362V130.793H150.782C153.522 130.793 154.962 132.613 154.962 134.973C154.962 137.233 153.422 139.133 150.782 139.133Z" fill="#5D04FF"/>
<path d="M168.157 141.633V135.393C168.157 132.613 166.137 131.733 163.937 131.733C162.417 131.733 160.897 132.213 159.717 133.253L160.677 134.953C161.497 134.193 162.457 133.813 163.497 133.813C164.777 133.813 165.617 134.453 165.617 135.433V136.733C164.977 135.973 163.837 135.553 162.557 135.553C161.017 135.553 159.197 136.413 159.197 138.673C159.197 140.833 161.017 141.873 162.557 141.873C163.817 141.873 164.957 141.413 165.617 140.633V141.633H168.157ZM163.577 140.153C162.577 140.153 161.757 139.633 161.757 138.733C161.757 137.793 162.577 137.273 163.577 137.273C164.397 137.273 165.197 137.553 165.617 138.113V139.313C165.197 139.873 164.397 140.153 163.577 140.153Z" fill="#5D04FF"/>
<path d="M173.917 141.873C174.977 141.873 175.657 141.593 176.037 141.253L175.497 139.333C175.357 139.473 174.997 139.613 174.617 139.613C174.057 139.613 173.737 139.153 173.737 138.553V134.193H175.697V131.973H173.737V129.333H171.177V131.973H169.577V134.193H171.177V139.233C171.177 140.953 172.137 141.873 173.917 141.873Z" fill="#5D04FF"/>
<path d="M185.775 141.633V135.393C185.775 132.613 183.755 131.733 181.555 131.733C180.035 131.733 178.515 132.213 177.335 133.253L178.295 134.953C179.115 134.193 180.075 133.813 181.115 133.813C182.395 133.813 183.235 134.453 183.235 135.433V136.733C182.595 135.973 181.455 135.553 180.175 135.553C178.635 135.553 176.815 136.413 176.815 138.673C176.815 140.833 178.635 141.873 180.175 141.873C181.435 141.873 182.575 141.413 183.235 140.633V141.633H185.775ZM181.195 140.153C180.195 140.153 179.375 139.633 179.375 138.733C179.375 137.793 180.195 137.273 181.195 137.273C182.015 137.273 182.815 137.553 183.235 138.113V139.313C182.815 139.873 182.015 140.153 181.195 140.153Z" fill="#5D04FF"/>
<path d="M199.931 141.873C202.871 141.873 204.551 140.253 205.511 138.593L203.071 137.413C202.511 138.513 201.311 139.353 199.931 139.353C197.511 139.353 195.751 137.493 195.751 134.973C195.751 132.453 197.511 130.593 199.931 130.593C201.311 130.593 202.511 131.453 203.071 132.533L205.511 131.333C204.571 129.673 202.871 128.073 199.931 128.073C195.931 128.073 192.831 130.873 192.831 134.973C192.831 139.073 195.931 141.873 199.931 141.873Z" fill="#5D04FF"/>
<path d="M216.222 141.633V134.773C216.222 132.893 215.202 131.733 213.082 131.733C211.502 131.733 210.302 132.493 209.682 133.233V128.293H207.142V141.633H209.682V135.133C210.122 134.553 210.902 133.993 211.882 133.993C212.982 133.993 213.682 134.413 213.682 135.753V141.633H216.222Z" fill="#5D04FF"/>
<path d="M227.083 141.633V135.393C227.083 132.613 225.063 131.733 222.863 131.733C221.343 131.733 219.823 132.213 218.643 133.253L219.603 134.953C220.423 134.193 221.383 133.813 222.423 133.813C223.703 133.813 224.543 134.453 224.543 135.433V136.733C223.903 135.973 222.763 135.553 221.483 135.553C219.943 135.553 218.123 136.413 218.123 138.673C218.123 140.833 219.943 141.873 221.483 141.873C222.743 141.873 223.883 141.413 224.543 140.633V141.633H227.083ZM222.503 140.153C221.503 140.153 220.683 139.633 220.683 138.733C220.683 137.793 221.503 137.273 222.503 137.273C223.323 137.273 224.123 137.553 224.543 138.113V139.313C224.123 139.873 223.323 140.153 222.503 140.153Z" fill="#5D04FF"/>
<path d="M232.143 141.633V135.253C232.563 134.633 233.683 134.153 234.523 134.153C234.803 134.153 235.043 134.173 235.223 134.213V131.733C234.023 131.733 232.823 132.433 232.143 133.293V131.973H229.603V141.633H232.143Z" fill="#5D04FF"/>
<path d="M240.77 145.553C243.15 145.553 245.99 144.653 245.99 140.973V131.973H243.43V133.213C242.65 132.233 241.61 131.733 240.45 131.733C238.01 131.733 236.19 133.493 236.19 136.653C236.19 139.873 238.03 141.573 240.45 141.573C241.63 141.573 242.67 141.013 243.43 140.053V141.033C243.43 142.933 241.99 143.473 240.77 143.473C239.55 143.473 238.53 143.133 237.75 142.273L236.61 144.113C237.83 145.173 239.11 145.553 240.77 145.553ZM241.25 139.313C239.81 139.313 238.81 138.313 238.81 136.653C238.81 134.993 239.81 133.993 241.25 133.993C242.09 133.993 243.01 134.453 243.43 135.093V138.213C243.01 138.833 242.09 139.313 241.25 139.313Z" fill="#5D04FF"/>
<path d="M253.049 141.873C254.549 141.873 256.069 141.413 257.029 140.533L255.909 138.893C255.289 139.493 254.149 139.853 253.329 139.853C251.689 139.853 250.709 138.833 250.549 137.613H257.729V137.053C257.729 133.893 255.769 131.733 252.889 131.733C249.949 131.733 247.889 133.993 247.889 136.793C247.889 139.893 250.109 141.873 253.049 141.873ZM255.269 135.893H250.509C250.629 134.933 251.309 133.753 252.889 133.753C254.569 133.753 255.209 134.973 255.269 135.893Z" fill="#5D04FF"/>
<path d="M263.044 141.873C265.724 141.873 267.224 140.533 267.224 138.773C267.224 134.873 261.504 136.073 261.504 134.633C261.504 134.093 262.104 133.673 263.024 133.673C264.204 133.673 265.304 134.173 265.884 134.793L266.904 133.053C265.944 132.293 264.644 131.733 263.004 131.733C260.464 131.733 259.044 133.153 259.044 134.773C259.044 138.573 264.784 137.273 264.784 138.873C264.784 139.473 264.264 139.913 263.164 139.913C261.964 139.913 260.524 139.253 259.824 138.593L258.724 140.373C259.744 141.313 261.364 141.873 263.044 141.873Z" fill="#5D04FF"/>
<path d="M368.148 0.873779H14.1596C6.33945 0.873779 0 7.21323 0 15.0333V99.9906C0 107.811 6.33945 114.15 14.1596 114.15H368.148C375.969 114.15 382.308 107.811 382.308 99.9906V15.0333C382.308 7.21323 375.969 0.873779 368.148 0.873779Z" fill="black"/>
<path d="M368.148 3.13932C371.303 3.13933 374.328 4.39246 376.559 6.62303C378.789 8.85359 380.042 11.8789 380.042 15.0334V99.9906C380.042 103.145 378.789 106.17 376.559 108.401C374.328 110.632 371.303 111.885 368.148 111.885H14.1596C12.5976 111.885 11.051 111.577 9.6079 110.979C8.16485 110.382 6.85366 109.505 5.7492 108.401C4.64474 107.296 3.76863 105.985 3.1709 104.542C2.57317 103.099 2.26552 101.553 2.26553 99.9906V15.0334C2.26552 13.4714 2.57317 11.9248 3.1709 10.4817C3.76863 9.03865 4.64474 7.72746 5.7492 6.623C6.85366 5.51853 8.16485 4.64241 9.6079 4.04468C11.051 3.44695 12.5976 3.13932 14.1596 3.13932H368.148ZM368.148 0.873779H14.1596C12.3001 0.873779 10.4588 1.24004 8.74092 1.95162C7.023 2.66321 5.46206 3.70619 4.14723 5.02103C2.83239 6.33587 1.78941 7.89681 1.07782 9.61473C0.366241 11.3327 -4.16538e-06 13.1739 0 15.0334V99.9906C-4.16538e-06 101.85 0.366241 103.691 1.07782 105.409C1.78941 107.127 2.83239 108.688 4.14723 110.003C5.46206 111.318 7.023 112.361 8.74092 113.072C10.4588 113.784 12.3001 114.15 14.1596 114.15H368.148C371.904 114.15 375.505 112.658 378.161 110.003C380.816 107.348 382.308 103.746 382.308 99.9906V15.0334C382.308 11.278 380.816 7.6765 378.161 5.02106C375.505 2.36562 371.904 0.873796 368.148 0.873779Z" fill="white"/>
<path opacity="0.2" d="M87.371 66.9647L49.419 88.5729C48.6629 89.1383 47.744 89.4438 46.7999 89.4438C45.8557 89.4438 44.9369 89.1383 44.1807 88.5729L43.9973 88.7561L44.1807 88.9393C44.9352 89.5088 45.8546 89.8168 46.7999 89.8168C47.7451 89.8168 48.6646 89.5088 49.419 88.9393L87.6853 67.2001L87.371 66.9647Z" fill="black"/>
<path opacity="0.12" d="M43.9974 88.4159C43.1437 87.3916 42.7128 86.0802 42.7926 84.7491V85.1419C42.7128 86.473 43.1437 87.7844 43.9974 88.8088L44.1808 88.6256L43.9974 88.4159Z" fill="black"/>
<path opacity="0.12" d="M100.467 59.5525L87.3711 66.9648L87.6071 67.2008L100.467 59.9195C101.197 59.5767 101.823 59.0475 102.283 58.3853C102.743 57.7231 103.02 56.9513 103.086 56.1478C102.939 56.8778 102.626 57.5644 102.172 58.1546C101.718 58.7449 101.135 59.2232 100.467 59.5528L100.467 59.5525Z" fill="black"/>
<path d="M79.1304 89.8088H36.4474C29.6663 89.8088 24.1475 84.3169 24.1475 77.5034V34.8312C24.1475 28.0471 29.637 22.5258 36.4474 22.5258H79.1304C85.9116 22.5258 91.4304 28.0177 91.4304 34.8312V77.5328C91.4011 84.3169 85.9116 89.8088 79.1304 89.8088Z" fill="url(#paint0_linear)"/>
<path d="M45.4368 49.6138H56.1983C54.6242 45.0623 50.331 41.7495 45.2937 41.7495C38.9399 41.7495 33.7595 46.9923 33.7595 53.3586V58.9759C33.7595 65.371 38.9685 70.5851 45.2937 70.5851C51.619 70.5851 56.828 65.3422 56.828 58.9759V53.3586C56.828 52.0335 56.599 50.7948 56.1983 49.6138L48.9858 53.3298V59.0048C48.9858 61.05 47.3258 62.7208 45.2937 62.7208C43.2617 62.7208 41.6016 61.05 41.6016 59.0048V53.3298C41.6016 51.2845 43.2617 49.6138 45.2937 49.6138" fill="white"/>
<path d="M70.4562 49.6138H81.189C79.6149 45.0623 75.3217 41.7495 70.2845 41.7495C63.9306 41.7495 58.7502 46.9923 58.7502 53.3586V58.9759C58.7502 65.371 63.9592 70.5851 70.2845 70.5851C76.6383 70.5851 81.8187 65.3422 81.8187 58.9759V53.3586C81.8187 52.0335 81.5897 50.7948 81.189 49.6138L73.9766 53.3298V59.0048C73.9766 61.05 72.3166 62.7208 70.2845 62.7208C68.2524 62.7208 66.5924 61.05 66.5924 59.0048V53.3298C66.5924 51.2845 68.2524 49.6138 70.2845 49.6138" fill="white"/>
<path d="M112.69 39.9872C116.29 39.9872 117.61 38.0072 117.61 36.0672C117.61 31.0872 109.71 32.8072 109.71 29.8072C109.71 28.5472 110.85 27.6872 112.45 27.6872C113.91 27.6872 115.31 28.1872 116.31 29.2872L117.31 28.0672C116.19 26.8872 114.61 26.2072 112.57 26.2072C109.95 26.2072 107.99 27.7072 107.99 29.9072C107.99 34.6672 115.89 32.7672 115.89 36.2072C115.89 37.2272 115.13 38.5072 112.75 38.5072C110.87 38.5072 109.43 37.5872 108.55 36.6072L107.57 37.8672C108.67 39.1072 110.37 39.9872 112.69 39.9872Z" fill="white"/>
<path d="M128.068 39.7472V32.9272C128.068 30.8272 127.008 29.8472 124.988 29.8472C123.528 29.8472 122.208 30.6872 121.528 31.4872V26.4072H120.028V39.7472H121.528V32.6872C122.108 31.9072 123.228 31.1872 124.388 31.1872C125.688 31.1872 126.568 31.6872 126.568 33.3872V39.7472H128.068Z" fill="white"/>
<path d="M135.283 39.9872C138.223 39.9872 140.063 37.7072 140.063 34.9072C140.063 32.1072 138.223 29.8472 135.283 29.8472C132.343 29.8472 130.503 32.1072 130.503 34.9072C130.503 37.7072 132.343 39.9872 135.283 39.9872ZM135.283 38.6472C133.223 38.6472 132.063 36.8872 132.063 34.9072C132.063 32.9472 133.223 31.1872 135.283 31.1872C137.343 31.1872 138.483 32.9472 138.483 34.9072C138.483 36.8872 137.343 38.6472 135.283 38.6472Z" fill="white"/>
<path d="M146.729 39.9872C149.669 39.9872 151.509 37.7072 151.509 34.9072C151.509 32.1072 149.669 29.8472 146.729 29.8472C143.789 29.8472 141.949 32.1072 141.949 34.9072C141.949 37.7072 143.789 39.9872 146.729 39.9872ZM146.729 38.6472C144.669 38.6472 143.509 36.8872 143.509 34.9072C143.509 32.9472 144.669 31.1872 146.729 31.1872C148.789 31.1872 149.929 32.9472 149.929 34.9072C149.929 36.8872 148.789 38.6472 146.729 38.6472Z" fill="white"/>
<path d="M155.874 39.7472V31.4072H157.834V30.0872H155.874V29.3472C155.874 28.1272 156.414 27.4472 157.394 27.4472C157.894 27.4472 158.274 27.6472 158.594 27.9272L159.214 26.9472C158.614 26.3872 157.934 26.2072 157.174 26.2072C155.454 26.2072 154.374 27.3672 154.374 29.3472V30.0872H152.774V31.4072H154.374V39.7472H155.874Z" fill="white"/>
<path d="M115.034 76.5051C120.259 76.5051 123.884 73.2051 123.884 68.1801C123.884 63.1551 120.259 59.8301 115.034 59.8301H108.459V76.5051H115.034ZM115.034 73.3801H112.009V62.9551H115.034C118.459 62.9551 120.259 65.2301 120.259 68.1801C120.259 71.0051 118.334 73.3801 115.034 73.3801Z" fill="white"/>
<path d="M131.929 76.8051C135.929 76.8051 138.329 73.9051 138.329 70.4551C138.329 67.0301 135.929 64.1301 131.929 64.1301C127.954 64.1301 125.554 67.0301 125.554 70.4551C125.554 73.9051 127.954 76.8051 131.929 76.8051ZM131.929 73.9801C129.954 73.9801 128.854 72.3551 128.854 70.4551C128.854 68.5801 129.954 66.9551 131.929 66.9551C133.904 66.9551 135.029 68.5801 135.029 70.4551C135.029 72.3551 133.904 73.9801 131.929 73.9801Z" fill="white"/>
<path d="M154.659 76.5051L158.334 64.4301H155.034L152.784 72.5551L150.134 64.4301H147.309L144.659 72.5551L142.409 64.4301H139.109L142.784 76.5051H146.184L148.734 68.2801L151.284 76.5051H154.659Z" fill="white"/>
<path d="M171.223 76.5051V67.9801C171.223 65.6301 169.948 64.1301 167.298 64.1301C165.323 64.1301 163.848 65.0801 163.073 66.0051V64.4301H159.898V76.5051H163.073V68.3801C163.598 67.6551 164.573 66.9551 165.823 66.9551C167.173 66.9551 168.048 67.5301 168.048 69.2051V76.5051H171.223Z" fill="white"/>
<path d="M177.551 76.5051V59.8301H174.376V76.5051H177.551Z" fill="white"/>
<path d="M186.299 76.8051C190.299 76.8051 192.699 73.9051 192.699 70.4551C192.699 67.0301 190.299 64.1301 186.299 64.1301C182.324 64.1301 179.924 67.0301 179.924 70.4551C179.924 73.9051 182.324 76.8051 186.299 76.8051ZM186.299 73.9801C184.324 73.9801 183.224 72.3551 183.224 70.4551C183.224 68.5801 184.324 66.9551 186.299 66.9551C188.274 66.9551 189.399 68.5801 189.399 70.4551C189.399 72.3551 188.274 73.9801 186.299 73.9801Z" fill="white"/>
<path d="M205.479 76.5051V68.7051C205.479 65.2301 202.954 64.1301 200.204 64.1301C198.304 64.1301 196.404 64.7301 194.929 66.0301L196.129 68.1551C197.154 67.2051 198.354 66.7301 199.654 66.7301C201.254 66.7301 202.304 67.5301 202.304 68.7551V70.3801C201.504 69.4301 200.079 68.9051 198.479 68.9051C196.554 68.9051 194.279 69.9801 194.279 72.8051C194.279 75.5051 196.554 76.8051 198.479 76.8051C200.054 76.8051 201.479 76.2301 202.304 75.2551V76.5051H205.479ZM199.754 74.6551C198.504 74.6551 197.479 74.0051 197.479 72.8801C197.479 71.7051 198.504 71.0551 199.754 71.0551C200.779 71.0551 201.779 71.4051 202.304 72.1051V73.6051C201.779 74.3051 200.779 74.6551 199.754 74.6551Z" fill="white"/>
<path d="M220.129 76.5051V59.8301H216.929V65.9801C215.979 64.7551 214.629 64.1301 213.204 64.1301C210.129 64.1301 207.854 66.5301 207.854 70.4801C207.854 74.5051 210.154 76.8051 213.204 76.8051C214.654 76.8051 215.979 76.1551 216.929 74.9551V76.5051H220.129ZM214.179 73.9801C212.379 73.9801 211.129 72.5551 211.129 70.4801C211.129 68.3801 212.379 66.9551 214.179 66.9551C215.254 66.9551 216.404 67.5301 216.929 68.3301V72.6051C216.404 73.4051 215.254 73.9801 214.179 73.9801Z" fill="white"/>
<path d="M240.099 76.5051V68.7051C240.099 65.2301 237.574 64.1301 234.824 64.1301C232.924 64.1301 231.024 64.7301 229.549 66.0301L230.749 68.1551C231.774 67.2051 232.974 66.7301 234.274 66.7301C235.874 66.7301 236.924 67.5301 236.924 68.7551V70.3801C236.124 69.4301 234.699 68.9051 233.099 68.9051C231.174 68.9051 228.899 69.9801 228.899 72.8051C228.899 75.5051 231.174 76.8051 233.099 76.8051C234.674 76.8051 236.099 76.2301 236.924 75.2551V76.5051H240.099ZM234.374 74.6551C233.124 74.6551 232.099 74.0051 232.099 72.8801C232.099 71.7051 233.124 71.0551 234.374 71.0551C235.399 71.0551 236.399 71.4051 236.924 72.1051V73.6051C236.399 74.3051 235.399 74.6551 234.374 74.6551Z" fill="white"/>
<path d="M250.148 76.8051C253.248 76.8051 255.498 74.4801 255.498 70.4551C255.498 66.4301 253.248 64.1301 250.148 64.1301C248.673 64.1301 247.348 64.7801 246.423 65.9551V64.4301H243.248V81.1051H246.423V74.9551C247.398 76.2051 248.723 76.8051 250.148 76.8051ZM249.148 73.9801C248.123 73.9801 246.948 73.3551 246.423 72.6051V68.3301C246.948 67.5551 248.123 66.9551 249.148 66.9551C250.973 66.9551 252.198 68.3801 252.198 70.4551C252.198 72.5551 250.973 73.9801 249.148 73.9801Z" fill="white"/>
<path d="M269.623 76.5051L264.698 69.9051L269.473 64.4301H265.573L260.998 69.8051V59.8301H257.823V76.5051H260.998V73.4051L262.448 71.8551L265.648 76.5051H269.623Z" fill="white"/>
<path d="M272.827 76.7801C273.927 76.7801 274.852 75.8551 274.852 74.7551C274.852 73.6551 273.927 72.7301 272.827 72.7301C271.727 72.7301 270.802 73.6551 270.802 74.7551C270.802 75.8551 271.727 76.7801 272.827 76.7801Z" fill="white"/>
<defs>
<linearGradient id="paint0_linear" x1="87.2608" y1="15.0401" x2="34.3404" y2="88.816" gradientUnits="userSpaceOnUse">
<stop stop-color="#C970F1"/>
<stop offset="0.1894" stop-color="#A860D8"/>
<stop offset="0.3993" stop-color="#8A53C1"/>
<stop offset="0.607" stop-color="#7549B1"/>
<stop offset="0.8093" stop-color="#6843A7"/>
<stop offset="1" stop-color="#6441A4"/>
</linearGradient>
</defs>
</svg>
