<svg width="730" height="300" viewBox="0 0 730 300" fill="none" xmlns="http://www.w3.org/2000/svg">
<path d="M46.6074 299.085C46.6074 299.085 6.64327 200.262 65.1249 141.266C140.555 65.1674 238.033 128.766 274.597 126.909C311.161 125.052 313.227 52.0398 422.501 43.3054C507.006 36.5586 645.756 36.0356 616.149 155.335C593.63 246.051 718.858 199.059 694.482 299.268L46.6074 299.085Z" fill="#FCECDB"/>
<path d="M169.141 238.781C169.141 238.781 159.621 227.694 168.566 220.633C168.566 220.633 175.078 216.684 180.388 216.998C180.388 216.998 172.855 229.629 175.288 230.884C177.72 232.139 182.663 216.213 182.663 216.213C182.663 216.213 197.493 214.775 202.279 217.076C202.279 217.076 189.594 227.458 192.262 228.06C194.93 228.687 208.635 218.488 208.635 218.488C208.635 218.488 222.444 220.842 221.712 229.263C220.98 237.683 216.22 240.272 214.127 240.063C212.035 239.827 199.795 235.173 199.533 236.872C199.271 238.598 206.621 244.195 211.773 244.456C211.773 244.456 202.044 255.178 195.558 252.092C189.097 249.006 188.548 244.09 184.494 242.233C180.466 240.403 177.014 240.403 178.688 242.286C180.362 244.168 187.659 245.999 189.96 250.078C192.262 254.158 194.328 256.904 187.633 255.91C180.937 254.89 170.057 250 169.586 244.404C169.141 238.781 169.141 238.781 169.141 238.781Z" fill="#599DAD"/>
<path d="M214.938 229.498C214.938 229.498 177.433 228.06 169.168 238.781C169.168 238.781 167.337 244.273 161.688 249.268L160.798 251.674C160.798 251.674 167.285 244.822 169.612 244.404C169.639 244.404 166.003 231.119 214.938 229.498Z" fill="#599DAD"/>
<path d="M161.687 249.268C161.687 249.268 153.632 255.23 153.083 265.847L154.547 265.978C154.547 265.978 157.11 254.995 161.766 250.68C166.395 246.391 161.687 249.268 161.687 249.268Z" fill="#599DAD"/>
<path d="M135.899 224.843C135.899 224.843 151.016 216.37 143.981 204.864C143.981 204.864 138.331 197.803 132.29 195.999C132.29 195.999 135.507 213.154 132.29 213.546C129.073 213.938 130.067 194.195 130.067 194.195C130.067 194.195 114.139 186.532 107.888 187.134C107.888 187.134 117.774 203.87 114.557 203.478C111.34 203.086 100.224 186.14 100.224 186.14C100.224 186.14 83.8777 183.107 81.2622 192.809C78.6468 202.484 82.8838 207.322 85.29 207.924C87.7224 208.525 103.232 208.316 102.84 210.356C102.447 212.369 91.9594 215.612 86.1008 213.781C86.1008 213.781 92.561 229.707 101.035 228.896C109.509 228.086 112.125 222.856 117.382 222.437C122.639 222.045 126.457 223.457 123.842 224.869C121.226 226.281 112.334 225.34 108.097 228.923C103.86 232.531 100.434 234.754 108.306 236.349C116.179 237.971 130.302 236.951 133.127 230.91C135.899 224.843 135.899 224.843 135.899 224.843Z" fill="#6BB7BF"/>
<path d="M88.6904 195.79C88.6904 195.79 131.061 209.493 135.899 224.843C135.899 224.843 135.69 231.695 139.927 239.566V242.599C139.927 242.599 135.481 232.322 133.075 230.91C133.075 230.884 142.569 217.573 88.6904 195.79Z" fill="#6BB7BF"/>
<path d="M139.927 239.566C139.927 239.566 146.466 249.477 142.726 261.559L141.052 261.114C141.052 261.114 142.673 247.803 139.273 241.135C135.847 234.414 139.927 239.566 139.927 239.566Z" fill="#6BB7BF"/>
<path d="M159.962 213.154C159.962 213.154 140.006 201.987 149.317 186.82C149.317 186.82 156.771 177.51 164.748 175.131C164.748 175.131 160.485 197.725 164.748 198.274C169.011 198.797 167.677 172.751 167.677 172.751C167.677 172.751 188.679 162.631 196.944 163.441C196.944 163.441 183.919 185.513 188.156 184.99C192.419 184.467 207.04 162.134 207.04 162.134C207.04 162.134 228.591 158.133 232.043 170.921C235.496 183.682 229.925 190.063 226.734 190.873C223.543 191.658 203.064 191.396 203.587 194.064C204.11 196.731 217.946 200.968 225.662 198.588C225.662 198.588 217.162 219.587 205.994 218.541C194.826 217.469 191.373 210.565 184.442 210.042C177.511 209.519 172.463 211.376 175.942 213.232C179.394 215.089 191.112 213.834 196.683 218.593C202.28 223.353 206.778 226.255 196.421 228.4C186.038 230.518 167.442 229.184 163.702 221.208C159.962 213.154 159.962 213.154 159.962 213.154Z" fill="#86D1CD"/>
<path d="M222.183 174.869C222.183 174.869 166.343 192.939 159.962 213.154C159.962 213.154 160.223 222.202 154.652 232.558V236.559C154.652 236.559 160.511 222.986 163.702 221.13C163.702 221.13 151.2 203.583 222.183 174.869Z" fill="#6BB7BF"/>
<path d="M154.652 232.558C154.652 232.558 146.047 245.633 150.938 261.559L153.161 260.957C153.161 260.957 151.017 243.436 155.515 234.597C160.014 225.785 154.652 232.558 154.652 232.558Z" fill="#6BB7BF"/>
<path d="M159.307 296.077C180.885 296.077 198.382 278.583 198.382 257.008H120.232C120.232 278.583 137.73 296.077 159.307 296.077Z" fill="#EFCBAB"/>
<path d="M168.906 295.764C167.311 295.973 165.689 296.051 164.041 296.051C142.464 296.051 124.966 278.557 124.966 256.982H134.696C134.696 276.935 149.63 293.384 168.906 295.764Z" fill="#FFEBDC"/>
<path d="M198.906 298.065H119.684C119.684 295.398 121.854 293.253 124.496 293.253H194.067C196.735 293.227 198.906 295.398 198.906 298.065Z" fill="#EFCBAB"/>
<path d="M199.246 257.008H118.951V258.211H199.246V257.008Z" fill="#EFCDAF"/>
<path d="M545.741 284.833C545.741 284.833 546.552 297.882 549.089 298.065C549.429 298.091 561.904 298.091 561.904 298.091L577.833 297.986C577.833 297.986 577.728 294.142 573.073 293.332C568.417 292.521 560.623 289.252 557.798 283.107C554.817 276.648 545.741 284.833 545.741 284.833Z" fill="#163560"/>
<path d="M537.241 130.439C537.241 130.439 544.773 134.702 546.866 134.702C548.958 134.702 557.223 133.107 559.524 134.283C561.826 135.46 565.985 140.194 566.769 141.736C568.182 144.508 561.094 143.279 557.772 140.926C557.275 140.586 556.674 140.455 556.098 140.586C554.372 140.952 550.763 141.606 549.036 140.978C546.709 140.115 534.416 139.147 534.416 139.147L537.241 130.439Z" fill="#E49963"/>
<path d="M480.041 72.2019C480.041 72.2019 487.835 127.589 500.755 132.558C507.137 135.016 535.279 140.56 543.596 141.109C543.596 141.109 545.636 139.461 545.139 132.714C545.139 132.714 515.637 121.888 511.452 116.004C505.227 107.244 515.323 80.204 507.503 71.9927C499.656 63.7552 486.501 60.2249 480.041 72.2019Z" fill="#ED7D2B"/>
<path d="M482.657 188.912C484.932 192.756 487.574 196.391 490.268 199.817C498.637 210.382 507.765 219.116 509.36 227.354C509.674 229.001 510.171 230.753 510.825 232.636C511.479 234.519 512.316 236.506 513.258 238.572C516.815 246.287 522.124 254.943 527.433 262.814C536.614 276.412 545.245 287.762 545.245 287.762L561.068 287.082C560.44 285.486 553.536 266.736 544.303 243.776C540.563 234.467 536.561 224.555 532.717 215.01C532.193 213.729 531.696 212.474 531.173 211.192C529.996 208.264 528.846 205.387 527.721 202.589C519.064 181.041 512.159 163.886 512.159 163.886C512.159 163.886 477.504 150.758 473.921 159.257C470.939 166.266 473.346 173.117 482.657 188.912Z" fill="#599DAD"/>
<path d="M509.098 247.542C509.098 247.542 498.087 254.603 499.159 256.904C499.29 257.218 505.384 268.096 505.384 268.096L513.231 281.956C513.231 281.956 516.526 279.995 514.957 275.523C513.388 271.051 512.446 262.657 516.448 257.191C520.685 251.464 509.098 247.542 509.098 247.542Z" fill="#163560"/>
<path d="M514.486 259.963C514.486 259.963 507.608 253.897 506.405 249.451C506.405 249.451 534.756 215.507 540.902 207.871C541.19 207.531 541.112 207.139 540.745 206.721C536.116 201.491 484.539 190.847 477.791 180.361C475.464 176.752 474.156 173.326 473.424 170.319C471.907 163.912 473.11 159.493 473.11 159.493L524.608 158.002C524.608 158.002 567.502 184.702 572.34 202.903C577.205 221.13 514.486 259.963 514.486 259.963Z" fill="#6BB7BF"/>
<path d="M540.72 206.721C536.09 201.491 484.514 190.847 477.766 180.361C475.438 176.752 474.13 173.326 473.398 170.319V163.808L495.289 160.356C495.289 160.356 501.488 179.446 519.875 186.611C537.11 193.332 540.38 205.256 540.72 206.721Z" fill="#5AA9AD"/>
<path d="M510.511 68.6977C500.102 71.3912 482.813 61.7416 482.813 61.7416C482.813 61.7416 489.509 57.2437 491.994 47.3326C492.125 46.8358 492.229 46.3128 492.334 45.7898C493.432 45.5544 495.472 45.1098 497.695 44.6653L505.647 51.8044C505.647 51.8044 505.463 54.7594 504.47 59.8588C504.286 60.7479 504.103 61.6893 503.868 62.7092C508.157 65.3504 510.511 68.6977 510.511 68.6977Z" fill="#E49963"/>
<path d="M471.776 111.899C473.267 131.956 471.305 162.5 473.005 167.782C474.47 172.333 491.104 169.639 497.774 168.096C500.232 167.521 503.214 166.736 506.3 165.769C514.879 163.101 524.242 159.31 525.236 156.512C525.262 156.407 525.314 156.302 525.34 156.198C525.445 155.779 525.419 155.413 525.314 155.021C524.974 153.583 523.693 152.04 523.536 148.483C523.379 144.508 523.379 139.827 523.248 134.806C523.248 134.231 523.222 133.63 523.17 133.054V132.845C523.17 132.741 523.17 132.636 523.17 132.531C523.013 126.935 522.725 121.025 522.385 115.194C522.176 111.532 521.914 107.898 521.627 104.393C520.868 95.3975 519.874 87.3954 518.54 82.3483C516.369 74.1109 511.557 68.7238 507.163 64.8013L503.998 62.0816C500.468 62.8661 496.283 62.3431 492.517 60.5387C488.436 58.6036 487.024 57.2176 486.292 57.7406C476.824 65.0366 470.024 87.3692 471.776 111.899Z" fill="#F99746"/>
<path d="M506.274 165.769C514.852 163.102 524.216 159.31 525.21 156.512C525.236 156.407 525.288 156.302 525.314 156.198C525.314 155.806 525.314 155.413 525.288 155.021C524.948 153.583 523.667 152.04 523.51 148.483C523.353 144.508 523.353 139.827 523.222 134.807C523.222 134.231 523.196 133.63 523.143 133.054V132.845C523.143 132.741 523.143 132.636 523.143 132.531L488.436 88.3369C488.436 88.3107 465.106 136.872 506.274 165.769Z" fill="#ED7D2B"/>
<path d="M505.672 51.8044C505.672 51.8044 505.489 54.7594 504.495 59.8588C496.727 57.3483 493.196 50.3399 492.02 47.3588C492.15 46.8619 492.255 46.3389 492.36 45.8159C493.458 45.5805 495.498 45.136 497.721 44.6914L505.672 51.8044Z" fill="#D68D5D"/>
<path d="M506.692 56.2761C506.692 56.2761 489.744 53.4519 491.679 42.9132C493.615 32.3745 492.699 24.9215 503.606 26.2814C514.512 27.6412 515.872 32.0345 516.082 35.7218C516.317 39.409 511.165 56.7469 506.692 56.2761Z" fill="#E49963"/>
<path d="M573.393 146.348L574.885 146.833L587.598 107.709L586.106 107.225L573.393 146.348Z" fill="#4A75CB"/>
<path d="M531.714 145.901L574.887 146.823L574.942 144.234L531.77 143.312L531.714 145.901Z" fill="#4A75CB"/>
<path d="M532.611 147.986C532.611 147.986 546.473 151.648 551.678 151.255C556.883 150.863 561.198 148.405 561.852 147.097C562.506 145.816 563.892 143.515 560.335 143.933C556.778 144.352 551.966 145.11 551.809 144.43C551.652 143.75 554.686 143.802 554.686 143.802C554.686 143.802 555.601 142.469 554.45 142.416C553.3 142.364 549.926 141.449 548.67 142.076C547.415 142.704 546.264 145.005 545.349 144.927C544.433 144.822 533.736 140.115 533.736 140.115L532.611 147.986Z" fill="#E49963"/>
<path d="M483.467 74.477C483.467 74.477 485.115 130.387 497.382 136.742C503.449 139.88 530.807 148.483 539.02 149.974C539.02 149.974 541.217 148.562 541.478 141.815C541.478 141.815 513.362 127.798 509.857 121.496C504.626 112.108 517.651 86.3494 510.773 77.3013C503.92 68.2532 491.209 63.2845 483.467 74.477Z" fill="#F99746"/>
<path d="M492.02 47.3327C492.02 47.3327 491.837 43.7239 494.06 41.658C494.06 41.658 493.275 38.0492 494.714 37.4477C496.152 36.8463 496.44 39.9059 497.094 39.409C497.748 38.9383 500.677 36.6632 501.932 33.3159C503.188 29.9686 514.67 34.022 516.003 34.6234C517.337 35.2249 521.627 33.0283 522.464 31.2239C522.464 31.2239 520.084 29.3149 519.011 27.8766C517.939 26.4383 510.406 16.7626 499.919 19.5084C489.404 22.2542 487.992 27.2751 488.567 31.5638C489.143 35.9048 487.704 45.8944 492.02 47.3327Z" fill="#2B478B"/>
<path d="M173.404 68.8023L182.454 67.9393C183.186 67.8608 183.866 68.2792 184.154 68.9592L190.98 85.3818C191.399 86.4016 190.719 87.5523 189.594 87.683L180.179 88.5722C179.446 88.6506 178.74 88.206 178.478 87.5261L172.018 71.0512C171.626 70.0313 172.306 68.9069 173.404 68.8023Z" fill="#233862"/>
<path d="M288.066 285.905L283.28 288.441C283.28 288.441 257.334 260.931 251.109 234.545C249.985 229.838 249.54 225.183 250.011 220.764C250.011 220.764 249.645 219.561 248.965 217.442C248.939 217.338 248.912 217.259 248.886 217.155C248.599 216.24 248.259 215.141 247.866 213.912C246.611 209.911 244.885 204.472 242.923 198.248C238.398 183.943 228.067 151.7 223.673 138.284L255.399 126.831C255.399 126.831 259.008 135.042 264.187 157.374C264.971 160.277 265.782 163.52 266.541 167.024C267.378 170.999 268.188 175.34 268.842 180.047C269.967 187.997 270.699 196.966 270.752 206.773C270.778 210.774 270.673 214.906 270.438 219.195C270.255 222.333 270.725 226.517 271.615 231.25C275.538 252.981 288.066 285.905 288.066 285.905Z" fill="#2B478B"/>
<path d="M305.433 298.065H279.775C279.775 298.065 278.808 293.985 280.508 291.187C281.998 288.729 281.423 287.317 280.325 285.277C281.475 285.748 282.992 286.192 284.64 286.088C285.922 286.009 287.282 285.434 288.459 284.754C289.557 286.009 294.291 291.37 295.756 292.416C297.456 293.645 304.91 293.201 305.433 298.065Z" fill="#233862"/>
<path d="M268.79 180.047L248.86 217.181C248.573 216.266 248.233 215.167 247.84 213.938C246.585 209.937 244.859 204.498 242.897 198.274C238.372 183.97 228.041 151.726 223.647 138.311L255.399 126.831C255.399 126.831 259.008 135.042 264.187 157.374C264.972 160.277 265.782 163.52 266.541 167.024C267.352 170.999 268.136 175.34 268.79 180.047Z" fill="#233862"/>
<path d="M182.428 98.1433C182.271 98.274 174.66 90.5073 170.606 86.2186L174.66 83.7343L196.865 97.6726L182.428 98.1433Z" fill="#FFB27D"/>
<path d="M223.151 290.037C223.151 290.037 222.549 294.404 224.223 298.065H234.842C234.842 298.065 234.92 294.901 232.226 290.926C229.506 286.925 223.151 290.037 223.151 290.037Z" fill="#233862"/>
<path d="M244.1 6.61609C244.231 5.93617 246.062 -1.3337 257.335 0.235336C257.335 0.235336 251.711 -0.078472 250.325 2.19663C250.325 2.19663 254.614 -0.156924 257.491 1.35981C260.395 2.8504 261.258 8.52509 260.97 10.3033C260.682 12.0816 257.988 17.4686 255.974 17.5994C255.216 17.6517 254.379 17.4686 253.621 17.1809C253.987 18.0701 254.353 19.0638 254.667 20.136C257.544 30.0994 251.371 38.2845 247.736 36.637C245.408 35.5648 243.996 39.6182 243.996 39.6182L223.7 16.3964C223.7 16.3441 235.495 -0.104623 244.1 6.61609Z" fill="#2C3A64"/>
<path d="M223.333 68.8807C225.975 70.7113 229.297 72.228 233.455 73.1956C249.07 76.8044 255.059 63.5983 257.308 54.5502C255.19 53.3211 253.176 53.0596 252.025 52.9288C250.9 52.7981 249.697 52.7196 248.73 52.6673C246.977 51.3337 244.362 45.8159 243.786 37.2908L243.054 37.5L230.735 40.8734C230.735 40.8734 231.311 44.796 231.572 48.4832C231.781 51.386 231.808 54.1318 231.284 54.8117C230.317 55.0209 229.741 55.1516 229.741 55.1516C229.558 55.4132 225.975 61.297 223.333 68.8807Z" fill="#FFB27D"/>
<path d="M230.735 40.8472C230.735 40.8472 231.311 44.7437 231.572 48.4571C238.556 47.751 241.773 41.1088 243.054 37.4738L230.735 40.8472Z" fill="#ED985F"/>
<path d="M228.643 44.5345C228.643 44.5345 245.199 43.6192 244.466 33.3158C243.734 23.0125 245.382 15.978 234.789 16.1087C224.197 16.2656 222.418 20.319 221.817 23.8232C221.241 27.3273 224.327 44.4822 228.643 44.5345Z" fill="#FFB27D"/>
<path d="M221.895 18.0701C224.223 14.8012 226.211 15.3242 227.361 16.1872C236.045 10.5648 242.4 17.4947 242.4 17.4947C244.048 24.7908 249.671 28.6611 249.671 28.6611C249.671 28.6611 246.794 30.727 239.706 29.4456C237.535 29.0533 235.548 27.6673 233.795 25.9675C236.934 30.4655 241.014 33.6035 241.014 33.6035C232.435 30.3609 228.277 19.0638 227.858 17.8609C226.917 18.8284 225.06 20.9466 224.589 22.9341C223.961 25.6276 223.961 31.0408 222.392 30.9623C222.418 30.9623 218.416 22.9864 221.895 18.0701Z" fill="#2C3A64"/>
<path d="M225.975 54.3148C225.975 54.3148 252.94 47.7772 264.658 57.4268L258.799 139.121L206.071 126.386C206.071 126.386 207.562 121.208 217.658 107.479C227.753 93.75 223.359 73.5617 225.975 54.3148Z" fill="#FFB27D"/>
<path d="M241.694 130.047C241.694 130.047 241.668 130.335 241.616 130.858C241.589 131.093 241.563 131.355 241.537 131.668C241.302 133.787 240.883 137.84 240.334 143.122C238.896 156.982 236.62 179.236 235.077 196.81C233.874 210.539 233.089 221.417 233.508 223.169C234.763 228.426 233.508 291.213 233.508 291.213C229.035 293.358 222.235 291.213 222.235 291.213C222.235 291.213 210.309 234.623 211.956 226.778C213.63 218.907 210.832 212.212 210.832 212.212C201.573 169.038 202.567 145.136 204.424 133.682C204.947 130.361 205.575 128.086 206.019 126.7C206.385 125.523 206.647 124.974 206.647 124.974C227.074 119.43 241.694 130.047 241.694 130.047Z" fill="#2B478B"/>
<path d="M258.799 139.121C252.522 141.763 246.245 142.913 240.308 143.122C234.868 143.305 229.742 142.678 225.086 141.684C214.964 139.487 207.275 135.408 204.398 133.63C204.921 130.309 205.549 128.033 205.993 126.647C212.218 122.228 227.597 126.464 240.177 131.145C240.622 131.302 241.067 131.485 241.511 131.642C251.136 135.356 258.799 139.121 258.799 139.121Z" fill="#233862"/>
<path d="M268.293 80.7269C266.985 90.5596 261.78 102.589 259.923 109.048C259.923 109.048 263.036 131.538 260.054 137.709C259.714 138.415 259.296 138.912 258.799 139.121C247.814 143.907 204.973 139.252 203.168 125.444C202.514 120.424 219.488 102.772 220.456 100.628C220.875 99.7384 221.293 96.8619 219.305 90.9257C216.481 99.6077 211.276 109.65 206.045 111.375C200.291 113.258 177.537 96.2866 177.537 96.2866C177.537 96.2866 177.406 94.2206 180.283 92.2855C182.14 91.0303 186.377 90.6119 186.377 90.6119L200.945 97.1234C202.776 93.9853 207.327 72.3849 212.401 62.6307C216.219 55.2824 226.419 54.2363 226.419 54.2363C226.419 54.2363 230.656 60.9571 240.935 60.0156C251.214 59.0481 253.071 52.7719 253.071 52.7719C253.071 52.7719 262.173 53.9748 264.971 56.2499C265.468 56.6422 269.993 67.8608 268.293 80.7269Z" fill="#F99746"/>
<path d="M259.924 109.074C259.924 109.074 263.036 131.564 260.055 137.735C252.051 133.708 241.59 125.026 244.781 111.48C249.384 91.7887 268.293 80.7531 268.293 80.7531C266.986 90.5596 261.781 102.589 259.924 109.074Z" fill="#ED7D2B"/>
<path d="M253.071 93.9592C253.071 93.9592 241.668 95.6067 240.753 96.4697C239.837 97.3327 236.699 102.275 237.091 103.975C237.483 105.701 237.431 107.479 238.137 107.348C238.843 107.218 241.119 102.85 241.982 102.641C242.845 102.432 243.551 101.857 243.656 102.223C243.76 102.615 241.903 104.446 242.008 104.969C242.113 105.492 243.551 104.89 244.205 103.87C244.859 102.85 246.507 102.354 246.742 101.726C246.977 101.098 248.128 99.0063 249.645 99.0847C251.188 99.2155 253.071 93.9592 253.071 93.9592Z" fill="#FFB27D"/>
<path d="M264.187 93.5146L253.071 93.9592L249.279 99.137L264.37 99.6339L264.187 93.5146Z" fill="#FFB27D"/>
<path d="M253.071 52.7719C253.071 52.7719 266.305 54.3409 269.941 60.0156C274.544 67.1809 290.812 90.9518 290.472 98.1432C290.472 98.1432 280.35 102.17 253.097 100.026C253.097 100.026 252.601 95.8943 258.328 92.5993C258.328 92.5993 272.949 90.5857 274.57 89.1736L263.716 77.6411L253.071 52.7719Z" fill="#F99746"/>
<path d="M171.443 68.9854L180.492 68.1224C181.225 68.0439 181.905 68.4623 182.192 69.1423L189.019 85.5648C189.437 86.5847 188.757 87.7353 187.632 87.8661L178.217 88.7552C177.484 88.8337 176.778 88.3891 176.517 87.7092L170.057 71.2343C169.638 70.2144 170.344 69.09 171.443 68.9854Z" fill="#2B478B"/>
<path d="M170.606 86.2186C170.606 86.2186 168.226 82.113 168.409 81.0931C168.592 80.0732 171.051 75.3661 172.332 74.8954C174.608 74.0586 177.772 73.5356 176.909 75.9414C176.334 77.5105 174.032 79.8117 174.451 80.5178C174.843 81.2239 174.686 83.7605 174.686 83.7605L170.606 86.2186Z" fill="#FFB27D"/>
<path d="M531.016 263.808C527.773 284.571 506.588 297.777 484.853 297.777H441.803L445.177 176.778C445.177 176.778 486.239 163.598 496.57 176.125C505.62 187.108 530.127 230.596 531.408 256.328C531.513 258.917 531.382 261.402 531.016 263.808Z" fill="#F9DDBF"/>
<path d="M416.747 189.592C416.747 189.592 474.81 159.963 485.821 179.315C491.654 189.592 507.739 230.596 508.916 256.328C510.067 281.328 488.411 297.777 466.101 297.777H426.503L416.747 189.592Z" fill="#C6916D"/>
<path d="M427.653 206.015C427.156 208.525 422.475 210.879 415.491 212.945C414.262 213.311 412.954 213.677 411.594 214.017C387.846 220.084 345.79 223.457 341.788 221.679C336.243 219.221 302.242 98.431 302.242 98.431C302.242 98.431 334.7 97.2019 360.462 96.6266C369.276 96.4174 377.306 96.2866 383.007 96.3128C383.687 96.3128 384.341 96.3651 384.969 96.4435C387.428 96.7835 389.258 97.8295 390.697 99.3724C394.855 103.844 395.875 112.631 399.72 122.385C403.513 132.008 408.194 144.012 412.614 155.936C413.765 158.996 414.89 162.082 415.962 165.089C416.276 165.952 416.564 166.789 416.878 167.626C423.416 185.905 428.464 201.935 427.653 206.015Z" fill="#EFCBAB"/>
<path d="M531.016 263.808C527.773 284.571 506.588 297.777 484.853 297.777H463.747C477.818 288.232 490.555 258.839 531.016 263.808Z" fill="#EAC3A0"/>
<path d="M416.877 167.626C415.805 167.443 414.419 167.207 412.824 166.946C412.484 166.606 412.222 166.266 412.091 165.926C411.463 164.54 411.882 160.513 412.614 155.91C408.194 143.985 403.539 131.982 399.72 122.359C395.875 112.631 394.855 103.818 390.697 99.3463C389.258 97.7772 387.427 96.7574 384.969 96.4174C381.543 96.4697 377.933 96.522 374.193 96.6005C372.859 99.2417 370.584 101.7 366.635 103.792C349.032 113.049 362.084 132.165 362.084 132.165C362.214 132.244 369.067 145.894 369.067 145.894C369.041 144.953 369.956 143.227 371.552 141.057C372.729 149.216 374.612 157.531 376.887 163.494C375.632 169.796 372.441 179.158 370.741 186.349C369.381 192.076 368.962 196.391 371.212 196.6C371.473 196.627 371.735 196.627 372.049 196.6C371.918 198.588 372.284 200.706 373.435 202.877C377.855 211.402 399.066 212.945 415.491 212.971C422.475 210.905 427.182 208.577 427.653 206.041C428.464 201.935 423.416 185.905 416.877 167.626Z" fill="#E0B594"/>
<path d="M497.12 279.184C488.802 290.717 476.065 298.117 461.863 297.908L400.818 297.934L371.578 297.96L404.48 189.592C404.48 189.592 487.756 181.302 498.035 192.364C502.795 197.49 505.489 220.711 506.98 244.116C507.817 257.322 503.972 269.665 497.12 279.184Z" fill="#D39E7A"/>
<path d="M497.12 279.184C488.803 290.717 476.066 298.117 461.864 297.908L400.819 297.934C408.011 291.893 430.583 274.791 454.776 275.601C473.11 276.229 487.678 275.968 497.12 279.184Z" fill="#C6916D"/>
<path d="M422.083 113.781C422.083 113.781 427.157 121.287 430.034 137.055C432.571 150.863 434.794 155.962 438.455 158.813C442.117 161.637 462.491 170.005 462.491 170.005L460.974 173.588C460.974 173.588 431.106 169.508 427.732 164.54C424.384 159.545 411.595 130.047 412.589 123.248C413.582 116.423 422.083 113.781 422.083 113.781Z" fill="#F4A269"/>
<path d="M495.237 278.556C494.975 281.459 499.029 282.165 503.711 282.401C508.392 282.636 506.98 283.604 513.414 284.754C519.848 285.931 522.437 284.153 522.908 283.29C523.327 282.505 520.319 281.302 517.128 279.942C516.736 279.759 516.317 279.603 515.925 279.419C512.342 277.85 510.328 274.634 507.529 271.627C504.888 268.802 502.351 259.754 502.351 259.754L493.589 257.898C493.589 257.898 496.047 266.056 496.911 269.535C497.407 271.574 496.675 273.876 496.021 275.601C495.681 276.543 495.341 277.51 495.237 278.556Z" fill="#FFB27D"/>
<path d="M503.711 282.401C508.418 282.636 506.98 283.604 513.414 284.754C519.848 285.931 522.437 284.153 522.908 283.29C523.327 282.505 520.319 281.302 517.128 279.942L517.076 279.995C517.076 279.995 512.551 281.538 507.32 280.099C503.057 278.949 498.951 276.386 496.021 275.575C495.655 276.517 495.315 277.484 495.21 278.53C494.975 281.459 499.029 282.165 503.711 282.401Z" fill="#C65447"/>
<path d="M408.116 174.817C408.116 174.817 466.257 170.45 477.19 177.354C488.122 184.257 505.698 264.697 505.698 264.697C505.698 264.697 504.626 265.56 502.194 265.821C499.944 266.057 494.975 264.749 494.975 264.749C494.975 264.749 469.736 228.766 467.983 219.691C466.205 210.617 466.65 202.537 462.596 202.327C458.542 202.118 408.116 208.447 400.479 195.031C392.841 181.59 399.145 168.279 399.145 168.279L408.116 174.817Z" fill="#163560"/>
<path d="M472.979 287.892C472.717 290.795 476.771 291.501 481.453 291.736C486.135 291.972 484.722 292.939 491.183 294.09C497.617 295.267 500.206 293.489 500.677 292.626C501.095 291.841 498.087 290.638 494.897 289.278C494.504 289.095 494.086 288.938 493.693 288.755C490.11 287.186 488.096 283.97 485.298 280.962C482.656 278.138 480.119 269.09 480.119 269.09L471.357 267.233C471.357 267.233 473.816 275.392 474.679 278.87C475.176 280.91 474.444 283.211 473.79 284.937C473.45 285.879 473.084 286.872 472.979 287.892Z" fill="#FFB27D"/>
<path d="M481.479 291.736C486.187 291.972 484.748 292.939 491.208 294.09C497.642 295.267 500.232 293.488 500.702 292.626C501.121 291.841 498.113 290.638 494.922 289.278L494.87 289.331C494.87 289.331 490.345 290.873 485.114 289.435C480.851 288.285 476.745 285.722 473.815 284.911C473.449 285.852 473.109 286.82 473.005 287.866C472.717 290.795 476.771 291.501 481.479 291.736Z" fill="#C65447"/>
<path d="M396.739 178.426C396.739 178.426 448.394 180.858 459.065 188.206C469.736 195.528 484.147 276.595 484.147 276.595C484.147 276.595 483.022 277.432 480.59 277.589C478.341 277.746 473.424 276.229 473.424 276.229C473.424 276.229 449.623 239.278 448.185 230.152C446.772 221.025 447.505 212.945 443.477 212.578C439.449 212.212 388.788 216.58 381.7 202.85C374.586 189.121 396.739 178.426 396.739 178.426Z" fill="#1C468A"/>
<path d="M415.125 64.7751C412.824 63.2584 409.999 62.9184 407.985 62.9184C408.534 62.4216 409.554 62.2908 409.554 62.2908C408.325 62.0293 405.474 63.0753 405.474 63.0753C388.683 55.2824 384.289 80.4655 384.263 86.3755C384.237 92.2856 383.818 99.0847 374.873 103.792C357.271 113.049 370.322 132.165 370.322 132.165C370.453 132.244 377.306 145.894 377.306 145.894C377.201 141.109 400.819 117.442 412.797 110.696C415.857 106.773 417.348 99.5816 417.453 99.0324C416.59 104.759 415.387 107.924 414.393 109.676C424.698 101.36 421.193 68.8023 415.125 64.7751Z" fill="#B5453C"/>
<path d="M394.568 105.126C394.568 105.126 399.119 105.335 403.931 105.779C407.2 106.093 410.679 106.459 412.536 107.218C417.087 109.127 416.616 117.181 407.07 115.69C397.497 114.2 393.888 107.531 394.568 105.126Z" fill="#FFB27D"/>
<path d="M412.117 111.009C412.17 111.036 413.478 117.939 407.227 117.678C403.12 117.495 394.28 112.526 395.039 109.022C395.405 107.348 398.517 103.007 399.145 93.1224L399.903 93.3316L412.457 96.705C412.457 96.705 411.908 100.68 411.647 104.472C411.411 107.61 411.411 110.617 412.117 111.009Z" fill="#FFB27D"/>
<path d="M412.458 96.6789C412.458 96.6789 411.908 100.654 411.647 104.446C404.533 103.766 401.211 97.0189 399.903 93.3055L412.458 96.6789Z" fill="#F4A269"/>
<path d="M398.674 91.8148C398.674 91.8148 395.326 85.6694 394.777 80.5701C394.385 76.9351 397.105 63.7029 410.391 66.5272C410.391 66.5272 414.262 67.181 417.767 69.9006C420.539 72.0711 424.463 76.5952 418.996 87.9184L417.505 91.7625L398.674 91.8148Z" fill="#B5453C"/>
<path d="M414.602 100.392C414.602 100.392 397.733 99.5554 398.413 89.0429C399.093 78.5303 397.393 71.365 408.194 71.4696C418.996 71.5742 420.827 75.706 421.455 79.2625C422.083 82.819 419.022 100.34 414.602 100.392Z" fill="#FFB27D"/>
<path d="M415.884 71.7311C415.884 71.7311 410.443 83.7343 403.251 85.0941C396.058 86.4539 393.103 84.3357 393.103 84.3357C393.103 84.3357 398.831 80.387 400.452 72.9341C400.452 72.9079 412.797 65.638 415.884 71.7311Z" fill="#B5453C"/>
<path d="M414.681 72.6465C414.681 72.6465 417.95 75.6276 418.604 78.3473C419.258 81.067 419.284 86.6109 420.905 86.5324C420.905 86.5324 424.933 78.3996 421.35 73.4048C417.531 68.0963 414.681 72.6465 414.681 72.6465Z" fill="#B5453C"/>
<path d="M431.498 175.706C430.138 177.327 425.875 177.85 421.298 178.583C417.715 179.184 413.948 179.916 411.254 181.485C405.16 185.068 385.283 197.123 379.477 196.574C377.227 196.365 377.646 192.05 379.006 186.323C381.151 177.301 385.675 164.749 385.675 159.283C385.675 156.302 386.669 149.268 387.977 141.213C388.081 140.56 388.186 139.906 388.317 139.252C390.932 123.588 394.568 105.126 394.568 105.126C394.568 105.126 398.622 113.938 406.494 113.938C414.367 113.938 412.536 107.218 412.536 107.218C412.536 107.218 419.728 108.054 421.429 109.885C423.129 111.716 427.444 119.613 428.281 121.784C428.281 121.784 428.464 124.529 421.664 125.837C421.664 125.837 423.312 133.29 423.521 138.258C423.678 141.919 421.01 153.4 420.252 160.539C419.99 163.075 419.938 165.063 420.356 165.952C420.879 167.103 422.579 168.253 424.515 169.378C428.333 171.6 433.12 173.745 431.498 175.706Z" fill="#1C468A"/>
<path d="M424.488 169.378C428.856 176.804 412.667 179.053 409.973 180.622C403.879 184.205 385.283 197.15 379.45 196.6C377.201 196.391 377.619 192.076 378.979 186.349C381.124 177.327 385.649 164.775 385.649 159.31C385.649 156.328 386.643 149.294 387.951 141.239L394.96 134.519C394.96 134.519 402.466 153.949 409.633 157.113C413.399 158.787 417.296 159.885 420.199 160.539C419.937 163.075 419.885 165.063 420.304 165.952C420.853 167.102 422.553 168.253 424.488 169.378Z" fill="#163560"/>
<path d="M392.397 110.931C392.397 110.931 386.407 107.296 380.601 114.2C374.795 121.104 384.734 170.476 393.312 173.013C402.859 175.837 430.426 172.568 430.426 172.568L429.903 168.253C429.903 168.253 400.557 162.631 399.328 161.062C398.099 159.493 395.457 111.742 392.397 110.931Z" fill="#FFB27D"/>
<path d="M394.567 105.126C394.567 105.126 382.249 106.224 378.666 110.277C375.082 114.331 374.036 125.288 374.036 125.288C374.036 125.288 384.89 134.048 397.941 130.649L394.567 105.126Z" fill="#1C468A"/>
<path d="M449.571 174.869H433.303V176.778H449.571V174.869Z" fill="#9E332E"/>
<path d="M446.118 176.543C446.275 175.915 461.079 152.693 461.079 152.693H493.981L477.477 175.941L446.118 176.543Z" fill="#9E332E"/>
<path d="M447.505 176.804C447.662 176.177 462.518 152.667 462.518 152.667H494.008L478.289 176.804H447.505Z" fill="#B5453C"/>
<path d="M475.255 164.827C474.941 165.769 473.895 166.527 472.953 166.527C472.011 166.527 471.514 165.769 471.828 164.827C472.142 163.886 473.188 163.128 474.13 163.128C475.072 163.101 475.568 163.886 475.255 164.827Z" fill="#9E332E"/>
<path d="M427.497 168.018C427.497 168.018 437.043 166.161 438.141 166.632C439.214 167.103 445.229 172.49 444.602 173.562C443.974 174.634 441.515 175.419 438.743 174.477C435.971 173.562 429.955 173.091 428.883 171.705C427.81 170.319 427.497 168.018 427.497 168.018Z" fill="#FFB27D"/>
<path d="M446.537 264.88C443.058 285.016 423.887 297.777 404.245 297.777H364.647L367.733 176.778C367.733 176.778 405.5 163.598 414.995 176.125C423.312 187.108 445.857 230.596 447.034 256.328C447.191 259.31 447.008 262.16 446.537 264.88Z" fill="#F9DDBF"/>
<path d="M446.537 264.88C443.058 285.016 423.887 297.777 404.245 297.777H372.572C387.401 287.735 407.383 259.963 446.537 264.88Z" fill="#EAC3A0"/>
<path d="M385.178 297.699C384.891 297.725 384.577 297.751 384.289 297.751C383.661 297.777 383.034 297.803 382.406 297.803C382.197 297.803 381.987 297.803 381.778 297.803H342.18V297.777C341.422 297.777 340.663 297.803 339.905 297.803C335.825 297.856 331.561 297.908 327.612 297.934C326.958 297.934 326.304 297.934 325.65 297.96C325.415 297.96 325.18 297.96 324.944 297.96C321.047 297.987 317.595 297.987 315.136 297.987C311.684 297.96 308.415 297.725 305.355 297.228C301.405 296.601 297.77 295.581 294.448 294.116C293.245 293.593 292.094 292.992 290.97 292.364C289.479 291.501 288.04 290.534 286.68 289.435C283.175 286.637 280.142 283.081 277.552 278.714C275.748 275.68 274.178 272.228 272.818 268.384C271.092 263.546 269.706 258.028 268.66 251.805C267.143 242.913 266.28 232.558 266.018 220.554C265.913 215.717 265.914 210.643 265.992 205.283C266.123 196.731 266.515 187.474 267.143 177.484C268.006 163.441 269.34 147.986 271.092 130.936C272.688 115.377 274.545 104.498 277.238 102.014C281.214 98.3526 289.479 96.8881 295.233 96.2867C298.816 95.9206 301.405 95.8944 301.405 95.8944C308.441 95.8944 314.692 100.941 316.941 108.447C321.544 123.719 329.731 151.02 338.283 179.576C338.335 179.707 338.362 179.864 338.414 179.995C338.911 181.642 339.408 183.29 339.879 184.937C339.957 185.199 340.035 185.434 340.114 185.696C340.585 185.486 341.082 185.251 341.605 185.042C341.631 185.042 341.631 185.016 341.657 185.016C343.697 184.1 346.025 183.107 348.51 182.113C349.817 181.59 351.151 181.067 352.537 180.518C356.434 179.027 360.671 177.537 364.935 176.255C366.818 175.68 368.753 175.157 370.636 174.686C373.069 174.085 375.501 173.562 377.855 173.196C377.933 173.17 378.012 173.17 378.064 173.17C378.352 173.117 378.613 173.091 378.901 173.039C389.075 171.548 397.889 172.594 401.525 179.027C407.357 189.331 423.442 230.466 424.619 256.276C425.665 280.047 406.206 296.104 385.178 297.699Z" fill="#D39E7A"/>
<path d="M321.675 190.507C321.675 190.507 301.353 107.741 299.888 100.785C299.234 97.6726 297.22 96.5743 295.18 96.2867C298.763 95.9206 301.353 95.8944 301.353 95.8944C308.388 95.8944 314.639 100.915 316.888 108.394C321.806 124.712 330.881 154.786 340.061 185.408C339.591 185.408 321.675 190.507 321.675 190.507Z" fill="#F9DDBF"/>
<path d="M396.529 230.309C391.089 221.313 395.666 219.639 394.829 199.503C393.992 179.367 384.629 181.041 380.732 177.144C380.026 176.438 379.424 174.974 378.849 173.013C378.561 173.065 378.3 173.091 378.012 173.143C377.96 173.143 377.881 173.169 377.803 173.169C375.449 173.562 373.016 174.059 370.584 174.66C368.675 175.131 366.765 175.654 364.882 176.229C360.619 177.51 356.382 178.975 352.485 180.492C351.099 181.015 349.765 181.564 348.457 182.087C345.083 203.217 339.878 297.83 339.878 297.83C339.931 297.882 339.957 297.908 340.009 297.96C344.272 297.934 348.849 297.882 353.217 297.83C353.845 297.83 354.447 297.803 355.074 297.803V297.83H384.943C384.995 297.803 385.021 297.777 385.074 297.751C385.1 297.725 385.126 297.725 385.152 297.699C393.181 292.73 391.377 282.741 389.494 276.491C388.735 269.796 385.78 261.951 383.347 254.681C384.106 252.458 385.152 251.203 389.677 249.529C394.698 247.673 396.006 239.775 396.006 239.775C397.34 243.305 394.28 248.196 394.202 248.326C394.411 248.091 401.917 239.2 396.529 230.309Z" fill="#C6916D"/>
<path d="M329.783 189.514C329.783 189.514 299.653 202.641 294.186 202.406C288.72 202.171 255.007 192.129 255.007 192.129L255.87 197.934C255.87 197.934 281.894 212.892 290.969 213.729C299.914 214.566 330.541 205.701 333.497 203.818C336.452 201.961 338.388 191.423 329.783 189.514Z" fill="#ED985F"/>
<path d="M334.334 141.24C334.334 141.24 345.45 139.121 350.994 143.175C361.011 150.497 361.561 175.758 365.327 179.498C369.093 183.264 378.143 181.642 378.954 201.124C379.764 220.581 375.344 222.202 380.601 230.91C385.858 239.592 378.378 248.3 378.378 248.3C378.378 248.3 381.438 243.515 380.13 240.037C380.13 240.037 378.849 247.673 374.01 249.477C369.146 251.255 368.439 252.589 367.655 255.204C367.655 255.204 326.252 233.996 326.2 218.933C326.147 203.896 318.04 188.991 322.041 182.453C322.041 182.453 320.263 185.251 320.053 188.337C320.053 188.337 317.673 183.76 321.806 179.498C325.938 175.235 316.941 166.423 318.275 156.224C319.164 149.215 324.081 141.527 334.334 141.24Z" fill="#233862"/>
<path d="M326.121 203.87C328.763 205.701 332.084 207.218 336.243 208.185C351.857 211.794 357.847 198.588 360.096 189.54C357.977 188.311 355.963 188.049 354.813 187.918C353.688 187.788 352.485 187.709 351.517 187.657C349.765 186.323 347.149 180.805 346.574 172.28L345.842 172.49L333.523 175.863C333.523 175.863 334.098 179.786 334.36 183.473C334.569 186.376 334.595 189.121 334.046 189.801C333.078 190.01 332.503 190.141 332.503 190.141C332.372 190.403 328.789 196.26 326.121 203.87Z" fill="#FFB27D"/>
<path d="M333.523 175.811C333.523 175.811 334.098 179.707 334.36 183.421C341.343 182.714 344.56 176.072 345.842 172.437L333.523 175.811Z" fill="#ED985F"/>
<path d="M331.456 179.498C331.456 179.498 348.012 178.583 347.28 168.279C346.548 157.976 348.195 150.941 337.603 151.072C327.01 151.229 325.232 155.282 324.63 158.787C324.029 162.291 327.141 179.472 331.456 179.498Z" fill="#FFB27D"/>
<path d="M324.709 153.033C327.036 149.765 329.024 150.288 330.175 151.151C338.858 145.528 345.214 152.458 345.214 152.458C346.861 159.754 352.485 163.624 352.485 163.624C352.485 163.624 349.608 165.69 342.52 164.409C340.349 164.017 338.361 162.631 336.609 160.931C339.747 165.429 343.828 168.567 343.828 168.567C335.249 165.324 331.09 154.027 330.672 152.824C329.73 153.792 327.873 155.91 327.403 157.898C326.775 160.591 324.029 164.775 322.433 164.697C322.459 164.697 321.204 157.95 324.709 153.033Z" fill="#233862"/>
<path d="M364.83 237.5C366.32 229.864 371.185 199.346 366.32 189.514C364.568 185.983 357.689 185.67 350.157 185.983C347.803 187.5 338.884 193.227 335.196 192.495C335.144 192.495 335.092 192.469 334.987 192.443C333.261 191.998 332.607 190.795 334.046 189.749C334.046 189.749 330.306 189.383 325.676 190.272C323.061 190.769 315.999 194.43 315.999 194.43C315.999 194.43 319.556 200.863 324.787 203.06C323.898 211.036 325.232 214.54 333.496 232.976C340.48 248.536 332.555 262.552 332.555 262.552C332.555 262.552 373.722 295.633 373.931 278.792C374.141 266.109 362.92 247.28 364.83 237.5Z" fill="#B5453C"/>
<path d="M330.541 298.536C328.292 298.274 326.278 297.045 325.049 295.188C324.84 294.901 324.63 294.561 324.421 294.221C319.739 287.134 317.909 265.403 307.368 242.286C304.805 236.663 295.599 235.643 293.088 229.263C293.088 229.263 286.915 208.63 304.91 208.028C322.93 207.427 353.165 265.455 353.636 271.522C354.106 277.432 365.562 302.484 330.541 298.536Z" fill="#DD6D22"/>
<path d="M258.93 298.065H284.588C284.588 298.065 285.556 293.985 283.856 291.187C282.365 288.729 282.94 287.317 284.039 285.277C282.888 285.748 281.371 286.192 279.723 286.088C278.442 286.009 277.081 285.434 275.905 284.754C274.806 286.009 270.072 291.37 268.607 292.416C266.933 293.645 259.453 293.201 258.93 298.065Z" fill="#9E332E"/>
<path d="M362.136 197.516C362.136 197.516 365.484 227.877 343.828 234.231C322.172 240.586 316.026 206.302 333.523 203.818C350.968 201.386 362.136 197.516 362.136 197.516Z" fill="#9E332E"/>
<path d="M292.486 213.991C290.943 225.575 284.901 262.108 274.283 279.916C270.856 285.67 282.914 288.886 282.992 288.86C284.614 288.442 287.308 285.853 288.563 284.728C297.194 276.935 314.744 254.916 314.744 237.239C314.744 228.635 314.901 212.16 308.624 208.002C304.727 205.439 293.114 209.388 292.486 213.991Z" fill="#ED7D2B"/>
<path d="M345.842 298.065C345.842 298.065 344.9 296.731 343.226 294.221C341.265 291.24 339.068 285.356 336.426 277.824C333.654 269.927 330.332 260.173 326.226 250.052C324.944 246.914 323.611 243.776 322.172 240.612C319.609 234.99 312.547 235.748 310.036 229.393C310.036 229.393 300.228 207.322 318.249 206.721C336.269 206.119 370.506 265.769 372.467 271.548C374.612 277.85 385.126 304.106 345.842 298.065Z" fill="#F99746"/>
<path d="M277.761 298.065H303.419C303.419 298.065 304.387 293.985 302.687 291.187C301.196 288.729 301.771 287.317 302.87 285.277C301.719 285.748 300.202 286.192 298.554 286.088C297.273 286.009 295.912 285.434 294.736 284.754C293.637 286.009 288.903 291.37 287.438 292.416C285.765 293.645 278.284 293.201 277.761 298.065Z" fill="#B5453C"/>
<path d="M336.426 277.824C333.653 269.927 330.332 260.173 326.226 250.052C327.298 242.39 329.626 235.669 333.523 232.976C333.523 232.976 343.017 262.317 336.426 277.824Z" fill="#ED7D2B"/>
<path d="M307.447 213.18C305.904 224.765 303.733 262.108 293.088 279.942C289.662 285.696 301.719 288.912 301.797 288.886C303.419 288.468 306.113 285.879 307.368 284.754C315.999 276.961 333.549 254.942 333.549 237.265C333.549 228.661 323.427 212.892 317.176 208.708C313.305 206.145 308.074 208.577 307.447 213.18Z" fill="#F99746"/>
<path d="M251.947 177.223L278.206 174.425C278.964 174.346 279.697 174.791 279.958 175.497L289.348 200.183C289.766 201.255 288.981 202.432 287.831 202.484L261.781 203.53C261.075 203.557 260.421 203.138 260.159 202.484L250.56 179.576C250.116 178.53 250.822 177.354 251.947 177.223Z" fill="#9E332E"/>
<path d="M249.671 177.458L275.93 174.686C276.689 174.608 277.421 175.052 277.683 175.758L287.072 200.445C287.491 201.517 286.706 202.694 285.555 202.746L259.505 203.792C258.799 203.818 258.145 203.4 257.884 202.746L248.285 179.786C247.84 178.766 248.547 177.589 249.671 177.458Z" fill="#B5453C"/>
<path d="M264.213 188.991C263.899 188.101 264.344 187.395 265.233 187.395C266.122 187.395 267.09 188.101 267.404 188.991C267.718 189.88 267.273 190.586 266.384 190.586C265.521 190.586 264.553 189.88 264.213 188.991Z" fill="#9E332E"/>
<path d="M250.456 179.812C250.299 179.367 250.535 179.027 250.953 179.027C251.398 179.027 251.868 179.367 252.025 179.812C252.182 180.256 251.947 180.596 251.528 180.596C251.084 180.596 250.613 180.23 250.456 179.812Z" fill="#9E332E"/>
<path d="M360.122 189.514C360.122 189.514 323.715 202.929 318.248 202.641C314.718 202.458 285.32 192.129 285.32 192.129L282.678 197.123C282.678 197.123 311.265 215.507 319.138 215.403C334.647 215.22 360.854 205.701 363.81 203.818C366.765 201.961 368.701 191.423 360.122 189.514Z" fill="#FFB27D"/>
<path d="M285.32 192.155C285.32 192.155 282.679 188.101 280.063 187.971C277.448 187.84 272.897 189.749 271.354 190.063C269.811 190.35 265.39 191.789 266.698 193.933C268.006 196.077 274.1 196.548 276.715 196.077C279.331 195.607 282.679 197.123 282.679 197.123L285.32 192.155Z" fill="#FFB27D"/>
<path d="M280.769 188.101C280.769 188.101 276.584 186.192 275.407 185.826C274.204 185.46 274.44 185.826 274.806 186.951C275.172 188.075 277.317 189.174 277.317 189.514C277.317 189.88 280.769 188.101 280.769 188.101Z" fill="#FFB27D"/>
<path d="M252.365 190.01C252.365 190.01 255.007 185.853 255.87 185.669C258.486 185.146 258.486 188.598 257.936 190.847C257.335 193.253 255.321 195.502 254.746 195.293C254.196 195.084 251.738 192.207 252.365 190.01Z" fill="#FFB27D"/>
<path d="M252.26 190.821C252.26 190.821 251.423 195.502 255.844 197.934L252.26 190.821Z" fill="#FFB27D"/>
<path d="M328.344 173.562C328.344 173.562 329.913 172.934 334.307 173.3C334.307 173.3 334.072 175.026 330.829 175.183C328.998 175.288 328.344 173.562 328.344 173.562Z" fill="white"/>
<path d="M341.369 196.13C341.369 196.13 344.612 206.433 355.806 208.787C355.806 208.787 374.272 203.112 365.065 190.534C365.065 190.507 355.963 183.761 341.369 196.13Z" fill="#B5453C"/>
<path d="M729.163 300H0.836946C0.392318 300 0 299.634 0 299.163V298.876C0 298.431 0.366164 298.039 0.836946 298.039H729.163C729.608 298.039 730 298.405 730 298.876V299.163C730 299.608 729.608 300 729.163 300Z" fill="white"/>
</svg>
