<svg width="238" height="220" viewBox="0 0 238 220" fill="none" xmlns="http://www.w3.org/2000/svg">
<path d="M179.455 131.67L174.682 136.446H64.9091L58.5455 130.077V98.2321L64.9091 91.8631H174.682L179.455 96.6398V131.67ZM49 82.3095V146H189V82.3095H49Z" fill="url(#paint0_linear)"/>
<path d="M119 130.077C126.029 130.077 131.727 122.949 131.727 114.155C131.727 105.361 126.029 98.2321 119 98.2321C111.971 98.2321 106.273 105.361 106.273 114.155C106.273 122.949 111.971 130.077 119 130.077Z" fill="url(#paint1_linear)"/>
<path d="M79.2273 118.932C81.8632 118.932 84 116.793 84 114.155C84 111.517 81.8632 109.378 79.2273 109.378C76.5914 109.378 74.4545 111.517 74.4545 114.155C74.4545 116.793 76.5914 118.932 79.2273 118.932Z" fill="url(#paint2_linear)"/>
<path d="M158.773 118.932C161.409 118.932 163.545 116.793 163.545 114.155C163.545 111.517 161.409 109.378 158.773 109.378C156.137 109.378 154 111.517 154 114.155C154 116.793 156.137 118.932 158.773 118.932Z" fill="url(#paint3_linear)"/>
<path d="M147.477 51.5789L149.863 57.6295L159.409 55.7188L152.727 39L67.1362 74.0298L116.136 64.317L147.477 51.5789Z" fill="url(#paint4_linear)"/>
<path d="M139.205 75.9405L164.341 71.0045L165.455 75.9405H175.159L171.977 59.6994L90.3636 75.9405H139.205Z" fill="url(#paint5_linear)"/>
<defs>
<linearGradient id="paint0_linear" x1="57.5" y1="48.1714" x2="170.063" y2="194.967" gradientUnits="userSpaceOnUse">
<stop stop-color="#193561"/>
<stop offset="1" stop-color="#9EB3D5"/>
</linearGradient>
<linearGradient id="paint1_linear" x1="57.5" y1="48.1714" x2="170.063" y2="194.967" gradientUnits="userSpaceOnUse">
<stop stop-color="#193561"/>
<stop offset="1" stop-color="#9EB3D5"/>
</linearGradient>
<linearGradient id="paint2_linear" x1="57.5" y1="48.1714" x2="170.063" y2="194.967" gradientUnits="userSpaceOnUse">
<stop stop-color="#193561"/>
<stop offset="1" stop-color="#9EB3D5"/>
</linearGradient>
<linearGradient id="paint3_linear" x1="57.5" y1="48.1714" x2="170.063" y2="194.967" gradientUnits="userSpaceOnUse">
<stop stop-color="#193561"/>
<stop offset="1" stop-color="#9EB3D5"/>
</linearGradient>
<linearGradient id="paint4_linear" x1="57.5" y1="48.1714" x2="170.063" y2="194.967" gradientUnits="userSpaceOnUse">
<stop stop-color="#193561"/>
<stop offset="1" stop-color="#9EB3D5"/>
</linearGradient>
<linearGradient id="paint5_linear" x1="57.5" y1="48.1714" x2="170.063" y2="194.967" gradientUnits="userSpaceOnUse">
<stop stop-color="#193561"/>
<stop offset="1" stop-color="#9EB3D5"/>
</linearGradient>
</defs>
</svg>
