<svg width="62" height="62" viewBox="0 0 62 62" fill="none" xmlns="http://www.w3.org/2000/svg">
<rect width="62" height="62" fill="#FDB515"/>
<path d="M20 29.5C19.1716 29.5 18.5 30.1716 18.5 31C18.5 31.8284 19.1716 32.5 20 32.5V29.5ZM43.0607 32.0607C43.6464 31.4749 43.6464 30.5251 43.0607 29.9393L33.5147 20.3934C32.9289 19.8076 31.9792 19.8076 31.3934 20.3934C30.8076 20.9792 30.8076 21.9289 31.3934 22.5147L39.8787 31L31.3934 39.4853C30.8076 40.0711 30.8076 41.0208 31.3934 41.6066C31.9792 42.1924 32.9289 42.1924 33.5147 41.6066L43.0607 32.0607ZM20 32.5H42V29.5H20V32.5Z" fill="white"/>
</svg>
