<svg width="58" height="45" viewBox="0 0 58 45" fill="none" xmlns="http://www.w3.org/2000/svg">
<path d="M25.52 28.75C25.6067 29.4433 25.65 30.05 25.65 30.57C25.65 31.0033 25.65 31.5667 25.65 32.26C25.65 35.9 24.5667 38.8467 22.4 41.1C20.2333 43.3533 17.2867 44.48 13.56 44.48C9.31333 44.48 6.02 43.0067 3.68 40.06C1.34 37.1133 0.17 33.3 0.17 28.62C0.17 25.76 0.603333 22.9433 1.47 20.17C2.33667 17.3967 3.55 14.7967 5.11 12.37C6.75667 9.85666 8.75 7.64666 11.09 5.73999C13.43 3.74666 16.03 2.09999 18.89 0.799996L24.35 5.73999C21.9233 7.47333 20.0167 9.46666 18.63 11.72C17.33 13.9733 16.68 16.2267 16.68 18.48C16.68 20.9067 17.4167 23.0733 18.89 24.98C20.45 26.8 22.66 28.0567 25.52 28.75ZM56.98 28.75C57.0667 29.4433 57.11 30.05 57.11 30.57C57.11 31.0033 57.11 31.5667 57.11 32.26C57.11 35.9 56.0267 38.8467 53.86 41.1C51.6933 43.3533 48.7467 44.48 45.02 44.48C40.7733 44.48 37.48 43.0067 35.14 40.06C32.8 37.1133 31.63 33.3 31.63 28.62C31.63 25.76 32.0633 22.9433 32.93 20.17C33.7967 17.3967 35.01 14.7967 36.57 12.37C38.2167 9.85666 40.21 7.64666 42.55 5.73999C44.89 3.74666 47.49 2.09999 50.35 0.799996L55.81 5.73999C53.3833 7.47333 51.4767 9.46666 50.09 11.72C48.79 13.9733 48.14 16.2267 48.14 18.48C48.14 20.9067 48.8767 23.0733 50.35 24.98C51.91 26.8 54.12 28.0567 56.98 28.75Z" fill="#E8E8E8"/>
</svg>
