<svg width="76" height="68" viewBox="0 0 76 68" fill="none" xmlns="http://www.w3.org/2000/svg">
<path d="M9.62887 17.5076L1.47179 31.4793C0.562415 33.0369 0.562414 34.9636 1.47179 36.5212L9.62887 50.493L17.4176 64.5975C18.3082 66.2104 20.0136 67.2027 21.8558 67.1801L37.728 66.9857L53.6002 67.1801C55.4424 67.2027 57.1478 66.2104 58.0384 64.5976L65.8271 50.493L73.9842 36.5212C74.8936 34.9636 74.8936 33.0369 73.9842 31.4793L65.8271 17.5076L58.0384 3.40298C57.1478 1.79017 55.4424 0.797819 53.6002 0.820386L37.728 1.01485L21.8558 0.820388C20.0136 0.79782 18.3082 1.79018 17.4176 3.40298L9.62887 17.5076Z" fill="url(#paint0_linear)"/>
<mask id="mask0" mask-type="alpha" maskUnits="userSpaceOnUse" x="0" y="0" width="75" height="68">
<path d="M9.62887 17.5076L1.47179 31.4793C0.562415 33.0369 0.562414 34.9636 1.47179 36.5212L9.62887 50.493L17.4176 64.5975C18.3082 66.2104 20.0136 67.2027 21.8558 67.1801L37.728 66.9857L53.6002 67.1801C55.4424 67.2027 57.1478 66.2104 58.0384 64.5976L65.8271 50.493L73.9842 36.5212C74.8936 34.9636 74.8936 33.0369 73.9842 31.4793L65.8271 17.5076L58.0384 3.40298C57.1478 1.79017 55.4424 0.797819 53.6002 0.820386L37.728 1.01485L21.8558 0.820388C20.0136 0.79782 18.3082 1.79018 17.4176 3.40298L9.62887 17.5076Z" fill="url(#paint1_linear)"/>
</mask>
<g mask="url(#mask0)">
<path d="M17.0312 52.2773C9.20312 31.8398 5.17188 21.293 4.9375 20.6367C4.70312 19.957 4.45703 19.3359 4.19922 18.7734C3.61328 17.4609 3.08594 16.8047 2.61719 16.8047C2.3125 16.8047 1.97266 16.8398 1.59766 16.9102C1.22266 16.9805 0.917969 16.8516 0.683594 16.5234C0.449219 16.1953 0.332031 15.7852 0.332031 15.293C0.332031 14.8008 0.554688 14.2969 1 13.7812C1.46875 13.2656 2.04297 12.8203 2.72266 12.4453C4.19922 11.5781 5.37109 11.1445 6.23828 11.1445C7.10547 11.1445 7.79688 11.168 8.3125 11.2148C8.82812 11.2617 9.30859 11.4375 9.75391 11.7422C10.6914 12.3516 11.4766 13.6641 12.1094 15.6797L22.4102 46.4062C24.0508 43.1016 25.2695 40.5703 26.0664 38.8125L28.2461 33.6797C30.8711 27.2109 32.1836 22.6641 32.1836 20.0391V19.582C32.1836 18.4102 31.9141 17.4844 31.375 16.8047C30.8594 16.125 29.9336 15.7148 28.5977 15.5742C28.3633 15.1992 28.2461 14.8125 28.2461 14.4141C28.2461 13.9922 28.4688 13.582 28.9141 13.1836C29.3828 12.7617 29.9688 12.3984 30.6719 12.0938C32.125 11.4609 33.707 11.1445 35.418 11.1445C37.1523 11.1445 38.4883 11.4141 39.4258 11.9531C40.3867 12.4688 40.8672 13.5 40.8672 15.0469C40.8672 18.3281 38.6406 24.8555 34.1875 34.6289L30.9883 41.3438C28.7852 45.7969 27.1211 48.8203 25.9961 50.4141C23.9805 53.25 22.2109 54.668 20.6875 54.668C19.5859 54.668 18.6016 54.2344 17.7344 53.3672C17.4297 53.0625 17.1953 52.6992 17.0312 52.2773ZM71.4883 23.625C71.4883 20.0156 69.9883 17.625 66.9883 16.4531C66.0273 16.0781 64.9844 15.8906 63.8594 15.8906C62.7578 15.8906 61.7266 15.9844 60.7656 16.1719C59.8281 16.3594 58.9961 16.6523 58.2695 17.0508C56.6289 17.9414 55.8086 19.2188 55.8086 20.8828C55.8086 22.4766 56.4883 23.8594 57.8477 25.0312C59.3477 26.2734 62.1367 27.8086 66.2148 29.6367C70.293 31.4414 73.4336 33.4219 75.6367 35.5781C77.8633 37.7109 78.9766 40.1719 78.9766 42.9609C78.9766 46.1016 77.6875 48.75 75.1094 50.9062C72.0859 53.4141 67.9023 54.668 62.5586 54.668C56.0195 54.668 51.4961 53.2734 48.9883 50.4844C48.1211 49.5 47.6875 48.2461 47.6875 46.7227C47.6875 43.043 48.5898 40.8984 50.3945 40.2891C50.8398 40.1484 51.2617 40.0781 51.6602 40.0781C52.7617 40.0781 53.3594 40.418 53.4531 41.0977C53.9688 46.957 57.25 49.8867 63.2969 49.8867C66.9297 49.8867 69.3555 48.8672 70.5742 46.8281C70.9727 46.1719 71.1719 45.375 71.1719 44.4375C71.1719 43.5 70.8672 42.6445 70.2578 41.8711C69.6719 41.0977 68.8516 40.3828 67.7969 39.7266C66.7422 39.0469 65.4883 38.3906 64.0352 37.7578L59.3594 35.6484C52.1875 32.3672 48.6016 28.0078 48.6016 22.5703C48.6016 19.0547 50.1602 16.2422 53.2773 14.1328C56.2305 12.1406 60.0391 11.1445 64.7031 11.1445C71.0312 11.1445 74.9688 12.5156 76.5156 15.2578C76.9141 15.9609 77.1133 16.7344 77.1133 17.5781C77.1133 18.4219 77.0664 19.1836 76.9727 19.8633C76.8789 20.5195 76.7617 21.1172 76.6211 21.6562C76.3867 22.6875 76.1172 23.4141 75.8125 23.8359C75.2031 24.2812 74.3242 24.5039 73.1758 24.5039C72.0508 24.5039 71.4883 24.2109 71.4883 23.625Z" fill="black" fill-opacity="0.08"/>
</g>
<path d="M13.8216 38.4553C15.5636 38.4553 16.6426 37.5323 17.3056 36.4923L16.0056 35.8423C15.5896 36.5573 14.7446 37.1033 13.8216 37.1033C12.1056 37.1033 10.8316 35.7773 10.8316 33.9703C10.8316 32.1373 12.1056 30.8373 13.8216 30.8373C14.7446 30.8373 15.5896 31.3703 16.0056 32.0983L17.2926 31.4223C16.6556 30.3823 15.5636 29.4853 13.8216 29.4853C11.2606 29.4853 9.27156 31.2923 9.27156 33.9703C9.27156 36.6353 11.2606 38.4553 13.8216 38.4553ZM23.6839 38.2993V34.1263C23.6839 32.4493 22.4619 31.8643 21.0579 31.8643C20.0569 31.8643 19.1469 32.1763 18.4189 32.8783L18.9909 33.8273C19.5239 33.2813 20.1479 33.0213 20.8499 33.0213C21.7079 33.0213 22.3189 33.4633 22.3189 34.1913V35.1273C21.8509 34.5943 21.1359 34.3213 20.2779 34.3213C19.2509 34.3213 18.1069 34.9193 18.1069 36.3753C18.1069 37.7533 19.2639 38.4553 20.2779 38.4553C21.1099 38.4553 21.8509 38.1563 22.3189 37.6103V38.2993H23.6839ZM20.8239 37.5193C20.0569 37.5193 19.4719 37.0773 19.4719 36.3883C19.4719 35.7123 20.0569 35.2573 20.8239 35.2573C21.4089 35.2573 21.9939 35.4783 22.3189 35.9073V36.8693C21.9939 37.2983 21.4089 37.5193 20.8239 37.5193ZM31.0693 38.2993V33.8793C31.0693 32.5923 30.3933 31.8643 29.0413 31.8643C28.0533 31.8643 27.2343 32.3713 26.8183 32.8653V32.0203H25.4533V38.2993H26.8183V33.9053C27.1433 33.4893 27.7413 33.0733 28.4303 33.0733C29.1973 33.0733 29.7043 33.3853 29.7043 34.3733V38.2993H31.0693ZM35.702 38.4553C36.937 38.4553 37.665 37.9223 38.107 37.3373L37.21 36.4923C36.859 36.9863 36.378 37.2463 35.767 37.2463C34.636 37.2463 33.869 36.3753 33.869 35.1533C33.869 33.9313 34.636 33.0733 35.767 33.0733C36.378 33.0733 36.859 33.3073 37.21 33.8013L38.107 32.9823C37.665 32.3843 36.937 31.8643 35.702 31.8643C33.804 31.8643 32.465 33.2553 32.465 35.1533C32.465 37.0513 33.804 38.4553 35.702 38.4553ZM42.2286 38.4553C43.2166 38.4553 44.1396 38.1303 44.7766 37.5323L44.1526 36.6353C43.6976 37.0903 42.9826 37.3373 42.3586 37.3373C41.1756 37.3373 40.4736 36.5443 40.3696 35.6083H45.2056V35.2703C45.2056 33.2943 44.0096 31.8643 42.1246 31.8643C40.2656 31.8643 38.9396 33.3333 38.9396 35.1533C38.9396 37.1423 40.3306 38.4553 42.2286 38.4553ZM43.8926 34.6333H40.3566C40.4086 33.8793 40.9546 32.9823 42.1116 32.9823C43.3466 32.9823 43.8536 33.8923 43.8926 34.6333ZM47.9179 38.2993V29.6283H46.5529V38.2993H47.9179ZM51.0537 38.2993V29.6283H49.6887V38.2993H51.0537ZM55.7364 38.4553C56.7244 38.4553 57.6474 38.1303 58.2844 37.5323L57.6604 36.6353C57.2054 37.0903 56.4904 37.3373 55.8664 37.3373C54.6834 37.3373 53.9814 36.5443 53.8774 35.6083H58.7134V35.2703C58.7134 33.2943 57.5174 31.8643 55.6324 31.8643C53.7734 31.8643 52.4474 33.3333 52.4474 35.1533C52.4474 37.1423 53.8384 38.4553 55.7364 38.4553ZM57.4004 34.6333H53.8644C53.9164 33.8793 54.4624 32.9823 55.6194 32.9823C56.8544 32.9823 57.3614 33.8923 57.4004 34.6333ZM65.8457 38.2993V29.6283H64.4807V32.8913C63.9867 32.2153 63.2587 31.8643 62.4657 31.8643C60.8537 31.8643 59.6837 33.1253 59.6837 35.1533C59.6837 37.2333 60.8667 38.4553 62.4657 38.4553C63.2847 38.4553 63.9997 38.0653 64.4807 37.4413V38.2993H65.8457ZM62.8687 37.2463C61.7767 37.2463 61.0877 36.3753 61.0877 35.1533C61.0877 33.9443 61.7767 33.0733 62.8687 33.0733C63.5057 33.0733 64.1817 33.4503 64.4807 33.9183V36.4013C64.1817 36.8693 63.5057 37.2463 62.8687 37.2463Z" fill="white"/>
<defs>
<linearGradient id="paint0_linear" x1="37.728" y1="67.2168" x2="37.728" y2="0.783736" gradientUnits="userSpaceOnUse">
<stop stop-color="#6448A0"/>
<stop offset="1" stop-color="#A168D0"/>
</linearGradient>
<linearGradient id="paint1_linear" x1="37.728" y1="67.2168" x2="37.728" y2="0.783736" gradientUnits="userSpaceOnUse">
<stop stop-color="#6448A0"/>
<stop offset="1" stop-color="#A168D0"/>
</linearGradient>
</defs>
</svg>
