<svg width="313" height="306" viewBox="0 0 313 306" fill="none" xmlns="http://www.w3.org/2000/svg">
<path d="M245.593 290.188C244.944 289.052 244.458 288.242 243.972 287.269C243.809 286.945 243.809 286.782 243.809 286.62C243.809 286.458 243.972 286.134 243.972 285.647C243.972 285.323 243.809 284.837 243.485 284.675C243.161 284.35 242.837 284.35 242.512 284.35L242.35 284.35L242.35 284.188C242.35 284.026 242.512 283.864 242.512 283.54C242.512 283.215 242.35 282.891 242.188 282.404C241.702 281.432 241.053 280.945 240.567 280.621C240.567 280.459 240.567 279.972 240.242 279.162C240.08 278.837 239.918 278.513 239.594 278.027C239.269 277.54 238.783 276.892 238.297 276.405C237.81 275.919 237.486 275.432 237.161 275.27C236.837 274.946 236.513 274.784 236.351 274.784C236.189 274.621 236.026 274.621 235.864 274.459C235.864 274.459 235.702 274.297 235.54 273.973C235.378 273.811 235.378 273.649 235.054 273.324C234.729 273.162 234.405 273 234.243 273L233.919 273C233.594 273 233.27 273.162 232.946 273.324C232.621 273.486 232.459 273.973 232.459 274.297C232.459 274.784 232.621 274.946 232.784 275.27C232.946 275.594 233.27 275.756 233.594 275.919C233.756 276.081 233.919 276.081 234.081 276.243C233.919 276.405 233.756 276.567 233.594 276.729C233.432 276.892 233.432 277.216 233.432 277.54C233.432 277.864 233.594 278.189 233.756 278.351L233.756 278.513C233.756 278.675 233.756 278.999 233.594 279.324L233.432 279.162C233.108 278.675 232.621 278.513 232.135 278.513C231.973 278.513 231.811 278.513 231.486 278.675C231.324 278.837 231 279.162 231 279.486C231 279.81 231.162 279.972 231.162 280.134L231.486 280.459C231.649 280.621 232.135 280.945 232.297 281.269C232.459 281.432 232.621 281.594 232.621 281.756L232.784 281.918C232.946 282.08 232.946 282.242 232.946 282.567L232.946 282.891C232.946 283.053 232.784 283.377 232.459 283.864C232.297 284.35 231.973 284.999 231.811 285.647C231.811 285.972 231.649 286.134 231.649 286.458C231.649 286.62 231.649 286.945 231.811 287.107L231.973 287.431L231.973 287.593C231.973 287.593 231.973 287.593 231.973 287.755C231.973 287.917 231.973 288.242 231.811 288.566C231.649 288.89 231.649 289.377 231.649 289.863C231.649 290.188 231.649 290.674 231.973 290.998C231.973 291.16 232.135 291.647 232.297 292.133C232.459 292.944 232.621 293.755 232.784 294.565C232.946 295.376 232.946 296.025 232.946 296.187C232.946 296.511 232.946 296.673 233.108 297.16C233.27 297.646 233.27 298.295 233.432 298.781C233.594 299.268 233.594 299.754 233.594 299.916C233.594 300.241 233.756 300.565 233.756 300.889C234.081 302.024 234.567 303.484 235.216 304.456C235.378 304.781 235.864 305.105 236.189 305.267C236.675 305.591 237.161 305.429 237.486 305.591C237.648 305.591 237.81 305.591 237.81 305.591C237.972 305.754 238.297 305.754 238.459 305.754C238.783 305.754 239.107 305.591 239.269 305.591C240.08 305.267 241.215 304.294 242.35 303.484C242.837 303.159 243.323 302.673 243.809 302.348C244.134 302.024 244.458 301.862 244.62 301.7C244.782 301.538 245.269 301.051 245.431 300.727C245.593 300.565 245.755 300.403 245.917 300.241C246.08 300.078 246.242 299.916 246.242 299.592C246.404 299.106 246.728 298.133 246.89 296.998C246.89 296.349 246.89 295.7 246.89 295.214C246.89 294.241 246.728 293.43 246.566 292.62C246.566 291.809 246.08 291.16 245.593 290.188Z" fill="#8468B6"/>
<path d="M18.6999 0.5C18.6999 0.5 18.7999 0.5 18.7999 0.6C19.0999 0.8 19.3999 0.8 19.7999 0.9C19.9999 1.1 20.0999 1.1 20.0999 1.2C20.4999 2 20.9999 2.8 21.5999 3.7C21.7999 3.9 21.7999 4 21.8999 4.2C22.0999 4.5 22.3999 4.8 22.4999 5.2C22.7999 5.5 22.9999 5.8 23.2999 6.2C23.4999 6.5 23.5999 6.8 23.5999 7.2V7.5C23.5999 7.8 23.5999 8 23.5999 8.3C23.5999 8.5 23.5999 8.6 23.5999 8.8V9V9.6L24.1999 9.8H24.4999H24.9999C25.2999 9.8 25.5999 9.8 25.7999 9.8C25.9999 9.8 26.0999 9.8 26.2999 9.8C26.5999 9.8 26.5999 10 26.8999 10.3C27.0999 10.6 27.1999 10.9 27.4999 11.4C27.6999 11.6 27.7999 11.7 27.9999 11.9C28.1999 12.1 28.4999 12.1 28.7999 12.1H28.9999C29.2999 12.1 29.5999 11.9 29.7999 11.9H29.9999H30.1999L30.3999 12.1V12.3L30.5999 12.5H30.8999C30.8999 12.5 31.0999 12.5 31.1999 12.5H31.4999H31.6999C31.8999 12.5 31.9999 12.5 32.1999 12.5C32.3999 12.5 32.4999 12.5 32.6999 12.5C32.8999 12.5 32.9999 12.7 33.1999 13C33.3999 13.3 33.4999 14 33.4999 14.6V14.8C33.4999 15.6 33.2999 16.3 33.1999 16.6C32.9999 16.9 32.8999 17.2 32.8999 17.6C32.8999 18.1 33.0999 18.4 33.0999 18.7C33.2999 19 33.2999 19.2 33.2999 19.3L32.9999 19.5L33.4999 20.3V20.6H33.6999C33.8999 20.9 33.9999 21.1 34.1999 21.4C34.3999 21.6 34.3999 21.7 34.4999 22C34.6999 22.3 34.7999 22.8 35.2999 23.3C35.5999 23.6 35.7999 23.9 35.7999 24.3C35.9999 24.6 35.9999 25.3 36.2999 25.9C36.5999 26.4 36.7999 26.7 36.8999 27C37.0999 27.3 37.1999 27.5 37.1999 28C37.1999 28.3 37.1999 28.5 37.3999 28.8V29.1V29.3V29.5L36.9999 29.4L36.7999 29.7C36.5999 30 36.5999 30.7 36.5999 31.3V31.5C36.5999 32.1 36.7999 32.6 36.8999 33.3C37.3999 34.3 37.6999 34.8 37.8999 35.1L38.0999 35.4L38.2999 35.6L38.5999 35.9L39.0999 35.7L39.3999 35.5L39.5999 35.2V34.9C39.5999 34.7 39.5999 34.7 39.5999 34.6C39.8999 34.9 40.1999 35.1 40.5999 35.1C40.8999 35.1 41.1999 34.9 41.3999 34.8L41.1999 35L40.9999 35.5V35.7L41.1999 36.2V36.4L41.4999 36.9L41.6999 37.1L42.2999 37.4C42.2999 37.4 42.1999 37.4 42.0999 37.4C41.8999 37.4 41.5999 37.4 41.4999 37.4H41.1999C40.9999 37.4 40.6999 37.4 40.3999 37.6H40.1999L39.9999 37.8L39.6999 38.1V38.6V38.8V39.1V39L39.8999 39.2L40.0999 39.4V39.6V39.9V40.2C40.0999 40.2 39.8999 40.2 39.8999 40.4L39.5999 40.7C39.5999 40.9 39.3999 41 39.2999 41.2C39.0999 41.4 38.9999 41.7 38.9999 42C38.9999 42.3 39.1999 42.5 39.2999 42.8C39.4999 43 39.4999 43.1 39.4999 43.1C39.4999 43.1 39.4999 43.3 39.6999 43.4C39.6999 43.6 39.8999 43.7 39.8999 43.9C39.8999 44.1 40.0999 44.2 40.0999 44.4C40.0999 44.4 40.0999 44.6 40.2999 44.7C40.2999 44.9 40.4999 45 40.5999 45C40.7999 45.2 40.8999 45.2 41.0999 45.2C41.0999 45.2 41.0999 45.2 41.3999 45.2C41.5999 45.2 41.6999 45.2 41.8999 45L42.1999 44.7V44.4C42.1999 44.1 42.1999 43.9 41.9999 43.9V43.7C41.7999 43.4 41.7999 43.1 41.6999 42.7C41.6999 42.7 41.6999 42.7 41.6999 42.5C41.6999 42.3 41.6999 42.2 41.6999 41.9C41.6999 41.7 41.6999 41.4 41.4999 41.3C41.4999 41.1 41.4999 41 41.2999 40.8L41.4999 40.6L41.6999 40.4C41.8999 40.2 41.8999 40.1 41.8999 39.9H42.0999L42.3999 40.2C42.6999 40.5 42.8999 40.7 42.9999 40.8C43.1999 41 43.2999 41.1 43.5999 41.3C43.7999 41.5 44.0999 41.6 44.3999 41.9C44.6999 42.1 44.8999 42.4 45.1999 42.5L45.4999 42.8V43C45.2999 43.3 45.1999 44.1 45.1999 45.3V46C45.1999 46.3 45.1999 46.5 45.1999 46.6V46.8V47C45.1999 47.2 45.1999 47.3 45.1999 47.5C45.1999 47.7 45.3999 47.8 45.3999 48C45.5999 48.3 45.5999 48.5 45.5999 48.5V48.7V49C45.5999 49.2 45.5999 49.3 45.5999 49.5C45.5999 49.8 45.5999 50 45.5999 50.3C45.5999 50.8 45.5999 51.3 45.8999 51.8C46.0999 52 46.1999 52.4 46.1999 52.9C46.3999 53.5 46.4999 54.2 46.4999 54.5C46.4999 54.7 46.4999 55 46.6999 55.1L46.8999 55.4L47.1999 55.6V55.9C47.3999 56.2 47.3999 56.5 47.6999 56.9C47.8999 57.1 47.8999 57.2 47.9999 57.4C48.1999 57.9 48.2999 57.7 48.2999 58.4C48.2999 58.6 48.2999 58.7 48.2999 58.9V59.2C48.0999 59.2 47.9999 59 47.7999 59C47.4999 58.8 47.2999 58.7 47.1999 58.5C46.9999 58.3 46.8999 58.2 46.6999 58.2C46.3999 58 46.0999 58 45.8999 58C45.5999 58 45.2999 58.2 44.7999 58.2H44.5999C43.4999 58.5 42.4999 58.8 41.4999 59.2L41.1999 59.7C40.9999 59.7 40.8999 59.9 40.6999 59.9C39.8999 60.2 39.3999 60.4 37.7999 60.7C37.2999 60.7 36.9999 60.9 36.7999 60.9C36.5999 60.9 36.5999 60.9 36.2999 60.7C36.0999 60.7 35.6999 60.5 34.7999 60.4C33.9999 60.4 33.2999 60.2 32.8999 60.2C32.3999 60 32.0999 60 31.5999 59.7C31.3999 59.5 31.0999 59.4 30.7999 59.4C30.1999 59.1 29.4999 58.8 28.9999 58.6C28.4999 58.4 28.1999 58.1 28.1999 58.1C27.9999 57.9 27.8999 57.8 27.6999 57.6C27.0999 57.1 26.1999 56.3 26.0999 55.8C25.9999 55.5 25.9999 55.4 25.9999 55.2C25.7999 55 25.7999 54.7 25.4999 54.4C25.1999 54.1 24.8999 53.9 24.4999 53.9C23.9999 53.7 23.4999 53.7 22.9999 53.7C22.6999 53.7 22.4999 53.7 22.1999 53.7C21.8999 53.7 21.6999 53.7 21.3999 53.7C20.7999 53.7 20.2999 53.7 19.7999 53.5C19.2999 53.3 18.7999 52.9 18.2999 52.2C17.9999 51.7 17.4999 51.1 17.1999 50.1C16.6999 48.8 16.6999 48.2 16.5999 47.5V47.2H16.7999L16.4999 46.2C16.2999 45.7 16.1999 45.1 15.9999 44.6C15.7999 44.1 15.6999 43.8 15.6999 43.5V43.3V43.1C15.9999 42.9 15.9999 42.6 15.9999 42.5C15.9999 42.4 15.9999 42.2 15.9999 42C15.9999 41.8 15.9999 41.7 15.9999 41.5C16.1999 41.5 16.2999 41.7 16.5999 41.7H16.7999C16.9999 41.7 17.0999 41.7 17.2999 41.5C17.4999 41.3 17.5999 41.2 17.5999 41C17.5999 40.8 17.5999 40.7 17.5999 40.5C17.5999 40.3 17.5999 40.2 17.5999 40H17.7999C17.9999 39.8 18.0999 39.7 18.0999 39.5L18.2999 39.2L18.5999 38.4V38.2L18.3999 38C18.1999 37.8 18.1999 37.8 18.1999 37.5V37.3C18.1999 37.3 18.1999 37.3 18.1999 37.1C18.1999 36.9 18.3999 36.5 18.3999 35.8C18.3999 34.5 18.3999 34.5 18.6999 33.2C18.6999 32.9 18.8999 32.7 18.9999 32.6C19.1999 32.4 19.2999 32.4 19.5999 32.3C19.8999 32.1 20.0999 32.1 20.3999 32C20.5999 31.8 20.6999 31.8 20.6999 31.8H20.9999H21.1999C21.3999 31.8 21.4999 32 21.7999 32.1L22.0999 32.3C22.2999 32.5 22.3999 32.5 22.5999 32.6C22.7999 32.6 22.8999 32.8 23.0999 32.8H23.2999L23.4999 32.6L24.0999 32.4V31.6C23.8999 31.1 23.7999 30.8 23.4999 30.5C22.9999 29.9 22.4999 29.5 21.8999 29.4C21.0999 29.1 20.2999 28.9 19.5999 28.9C19.0999 28.9 18.7999 28.9 18.7999 28.9L18.5999 28.7C18.2999 28.4 17.9999 28.1 17.5999 27.7C17.3999 27.4 17.0999 27.2 16.7999 26.9C16.4999 26.6 16.1999 25.9 15.7999 25.4C15.4999 24.8 15.1999 24.1 14.9999 23.8C14.7999 23.3 14.6999 23.2 14.3999 22.8C14.0999 22.5 13.7999 22.2 13.5999 21.8C12.9999 21.2 12.2999 20.5 12.0999 20.2V20L11.8999 19.8L11.6999 20L11.3999 19.8H11.1999H10.9999L10.1999 19L9.89993 19.8C9.69993 20.1 9.59993 20.6 9.29993 21.1C8.99993 21.6 8.69993 21.9 8.29993 22.1C7.99993 22.4 7.69993 22.4 7.49993 22.7L7.19993 23L6.99993 23.4C6.99993 23.6 6.99993 23.6 6.79993 23.7C6.79993 23.9 6.59993 24 6.59993 24C6.59993 24 6.39993 24 6.29993 24H6.19993C5.89993 24 5.69993 23.8 5.39993 23.8C5.19993 23.6 4.89993 23.5 4.29993 23.2C3.49993 22.6 1.89993 21.3 1.49993 20.9C1.19993 20.4 0.99993 20.1 0.89993 19.8C0.69993 19.6 0.69993 19.5 0.59993 19.5V252.3C0.79993 252.4 0.99993 252.4 1.09993 252.5H1.39993C1.69993 252.5 1.99993 252.5 2.39993 252.2L2.59993 252H2.89993C3.19993 252 3.39993 252 3.69993 251.8C4.49993 251.5 4.79993 251.2 5.19993 250.8C5.39993 250.8 5.49993 250.8 5.69993 250.8H5.99993H6.19993H6.49993C6.79993 250.8 7.09993 250.6 7.49993 250.5C7.69993 250.5 7.79993 250.3 7.99993 250.3C8.19993 250.1 8.29993 250.1 8.49993 250L8.69993 249.7C8.89993 249.4 8.89993 249.4 8.99993 249.2C9.19993 249 9.29993 249 9.49993 248.9C9.99993 248.6 10.4999 248.3 11.0999 247.8C11.3999 247.5 11.6999 247.3 11.8999 247C12.1999 246.7 12.4999 246.5 12.6999 246.4C12.6999 246.4 12.9999 246.2 13.1999 246.2C13.3999 246.2 13.6999 246.2 13.7999 246.2H14.0999C14.2999 246.2 14.3999 246.2 14.5999 246.2C15.0999 246.2 15.8999 246.2 16.6999 246C16.9999 246 17.2999 246 17.6999 245.8C17.9999 245.8 18.1999 245.6 18.4999 245.6C18.7999 245.4 19.2999 245.3 19.9999 245C20.9999 244.5 22.2999 244 22.5999 243.9C22.8999 243.7 23.0999 243.6 23.3999 243.4C23.6999 243.2 23.8999 242.9 24.1999 242.8C24.4999 242.5 24.9999 242.2 25.2999 241.8C25.5999 241.5 25.8999 241.3 26.0999 241.2H26.2999L26.5999 241.4C27.0999 241.7 27.3999 241.7 27.8999 241.7H28.1999C28.7999 241.7 29.6999 241.5 30.0999 241.4C30.5999 241.2 30.6999 240.9 31.0999 240.6C31.3999 240.3 31.6999 240 32.0999 239.6C32.2999 239.4 32.3999 239.3 32.5999 239.1L32.7999 238.9C32.9999 238.7 33.2999 238.6 33.2999 238.4C33.4999 238.2 33.4999 237.9 33.5999 237.8C33.5999 237.6 33.7999 237.6 33.7999 237.5C33.9999 237.3 34.2999 237 34.7999 236.7C35.2999 236.4 35.7999 236.1 36.0999 235.9C36.3999 235.7 36.6999 235.6 36.8999 235.4C37.0999 235.4 37.4999 235.2 37.9999 235.2C38.2999 235.2 38.4999 235.2 38.7999 235C38.7999 235 38.9999 235 39.0999 235C39.3999 235 39.6999 234.8 40.0999 234.8C40.2999 234.8 40.3999 234.6 40.5999 234.6C40.7999 234.4 40.8999 234.4 41.0999 234.1C41.0999 234.1 41.3999 233.9 41.5999 233.8C41.8999 233.6 42.0999 233.5 42.3999 233.2C42.3999 233.2 42.5999 233 42.8999 233C43.0999 233 43.3999 233 43.6999 232.8C43.9999 232.8 44.2999 232.8 44.6999 232.6C44.6999 232.6 44.9999 232.6 45.1999 232.4C45.7999 232.2 46.6999 232.2 47.4999 231.6L47.7999 231.4C48.2999 231.1 49.0999 230.6 49.6999 230.3C50.2999 230 50.9999 229.7 51.2999 229.5C51.7999 229.3 52.0999 229 52.3999 228.7C52.5999 228.5 52.6999 228.2 52.8999 228.1C53.0999 227.9 53.0999 227.8 53.0999 227.5C53.0999 227.3 53.0999 227.2 53.0999 226.9C53.0999 226.6 53.0999 226.4 52.8999 226.1V226L52.6999 225.7C52.6999 225.5 52.6999 225.2 52.8999 224.9C53.0999 224.3 53.3999 223.8 53.6999 223.3C54.1999 222.7 54.7999 222.2 55.2999 222C55.5999 221.8 56.2999 221.7 56.8999 221.5C57.0999 221.5 57.3999 221.3 57.4999 221.3V221.5L57.9999 221.2L58.4999 221V220.8C58.6999 220.6 58.7999 220.6 59.0999 220.5C59.3999 220.3 59.6999 220.2 59.8999 220C59.8999 220 60.0999 220 60.3999 219.8C60.5999 219.8 60.8999 219.8 61.1999 219.6C61.6999 219.4 61.9999 219.1 62.1999 219L62.3999 218.8H62.5999L62.8999 218.6C63.1999 218.4 63.4999 218.4 63.9999 218.1C64.1999 218.1 64.4999 217.9 64.9999 217.8C65.2999 217.6 65.5999 217.6 65.9999 217.5C66.3999 217.4 66.5999 217.3 66.5999 217.3C66.5999 217.3 66.8999 217.3 67.0999 217.5C67.3999 217.7 67.8999 217.8 68.0999 217.8C68.3999 218 68.6999 218 68.8999 218H69.1999C69.6999 218 69.9999 217.8 70.4999 217.7C70.7999 217.5 70.7999 217.4 70.9999 217.2C71.1999 217 71.2999 216.9 71.4999 216.6C71.7999 216.1 72.0999 215.6 72.2999 215.1C72.2999 214.9 72.4999 214.8 72.4999 214.5C72.4999 214.3 72.4999 214 72.2999 214C72.2999 213.8 72.0999 213.8 72.0999 213.7C71.8999 213.5 71.8999 213.5 71.8999 213.4C71.8999 213.2 71.6999 213.1 71.6999 212.9V212.6C71.8999 212.3 71.9999 212 72.4999 211.5C72.9999 211.2 73.5999 211 74.2999 210.9C74.8999 210.7 75.7999 210.7 76.1999 210.7H76.4999C76.9999 210.7 77.4999 210.5 77.9999 210.4C78.4999 210.2 78.9999 209.9 79.2999 209.4C79.5999 208.9 79.5999 208.6 79.7999 208.1C79.7999 207.6 79.9999 207.1 79.9999 206.6C79.9999 206 80.1999 205.3 80.1999 205C80.3999 204.5 80.4999 204.4 80.6999 204.2C80.8999 204 81.1999 203.7 81.6999 203.6L81.9999 203.4C82.1999 203.2 82.7999 203.1 83.4999 202.9C84.4999 202.7 85.3999 202.6 85.8999 202.6H86.0999H86.3999C86.5999 202.6 86.6999 202.6 86.8999 202.6C87.0999 202.6 87.3999 202.4 87.4999 202.3C87.6999 202.1 87.6999 202 87.7999 201.8C87.7999 201.6 87.7999 201.5 87.7999 201.3C87.7999 201.1 87.7999 200.8 87.7999 200.7C87.5999 199.9 87.2999 198.4 86.9999 197.5C86.9999 197.3 86.7999 197.2 86.7999 197V196.8V196.6C86.7999 196.4 86.5999 196 86.5999 195.6V195.3C86.5999 195 86.7999 194.7 86.7999 194.2C86.7999 193.9 86.9999 193.4 86.9999 193.1V192.8C86.9999 192.5 86.9999 192.3 86.9999 192.2L87.1999 191.9C87.3999 191.6 87.4999 191.4 87.6999 191.1C87.8999 190.8 87.8999 190.5 87.9999 190.1C87.9999 189.9 88.1999 189.8 88.1999 189.6C88.1999 189.8 88.1999 189.9 88.1999 190.1C88.1999 190.4 88.4999 190.9 88.7999 190.9H88.9999L89.2999 191.1H89.4999H89.9999C90.1999 191.1 90.1999 191.1 90.2999 190.9C90.2999 191.1 90.2999 191.1 90.2999 191.2C90.2999 191.5 90.2999 192 90.4999 192.3C90.4999 192.5 90.6999 192.6 90.7999 192.8C90.9999 193 91.2999 193.3 91.5999 193.3C91.7999 193.3 92.0999 193.3 92.1999 193.1C92.3999 192.9 92.4999 192.9 92.4999 192.8C92.7999 192.3 92.9999 192 93.0999 191.5C93.2999 191.2 93.3999 190.9 94.0999 189.9C94.2999 189.6 94.3999 189.3 94.3999 188.9C94.3999 188.7 94.3999 188.4 94.1999 188.3C93.9999 188.1 93.9999 188 93.9999 188C93.9999 187.7 93.7999 187.4 93.6999 187C93.4999 186.7 93.1999 186.4 92.6999 186.4C92.4999 186.4 92.3999 186.4 92.1999 186.6C92.1999 186.6 92.1999 186.4 92.3999 186.1C92.5999 185.6 92.9999 184.8 93.4999 184.2C93.9999 183.6 94.4999 183.1 94.7999 182.9C95.0999 182.7 95.3999 182.4 95.7999 182.1C95.9999 181.8 96.0999 181.5 96.0999 181.3C96.0999 181 96.2999 180.8 96.3999 180.5C96.8999 179.9 97.4999 178.2 98.1999 176.6C98.4999 175.8 98.6999 175 98.6999 174.2C98.6999 174 98.6999 173.9 98.6999 173.7C98.6999 173.4 98.4999 173.1 98.3999 172.9C98.1999 172.6 97.7999 172.3 97.3999 172.3C97.0999 172.1 96.7999 172.3 96.5999 172.1C96.0999 172.1 95.9999 172.1 95.7999 171.9L95.4999 171.6C95.1999 171.1 94.4999 170.3 93.8999 169.3C92.7999 167.7 91.5999 165.7 91.0999 164.9C90.5999 164.1 89.9999 163.6 89.2999 163.3C88.6999 163.1 87.9999 163.1 87.3999 163.1C87.0999 163.1 86.7999 163.1 86.5999 163.1C85.9999 163.1 84.4999 162.6 82.9999 162.1C82.3999 161.8 81.4999 161.5 81.0999 161.1C80.4999 160.8 79.9999 160.5 79.7999 160.3C79.2999 160 78.6999 159.2 77.9999 158.2C77.1999 157.1 76.1999 155.8 75.8999 155.3C75.5999 154.8 75.3999 154.5 75.3999 154.2V153.9V153.7V153.1V152.9C75.3999 152.3 75.3999 151.6 75.1999 151C74.9999 150.4 74.9999 149.7 74.6999 149.2C74.4999 148.9 74.4999 148.7 74.3999 148.4V148.1C74.3999 147.9 74.3999 147.8 74.3999 147.6C74.3999 147.4 74.3999 147.3 74.3999 147.1C74.3999 146.8 74.5999 146.8 74.6999 146.6C74.8999 146.4 74.8999 146.3 74.9999 146C75.1999 145.7 75.1999 145.4 75.2999 144.9C75.2999 144.4 75.4999 143.9 75.4999 143.6C75.4999 143.4 75.4999 143.3 75.4999 143.1C75.4999 142.9 75.2999 142.8 75.1999 142.5C74.9999 142.3 74.6999 142.2 74.5999 142.2C74.2999 142.2 74.0999 142.2 73.9999 142.4C73.6999 142.6 73.3999 142.7 72.9999 143L72.6999 141.3C72.7999 141.3 72.7999 141.3 72.8999 141.2C73.1999 141 73.1999 140.9 73.3999 140.6C73.5999 140.4 73.5999 140.1 73.6999 140L73.9999 139.8C74.1999 139.6 74.2999 139.6 74.4999 139.5L74.7999 139.2C74.9999 139 74.9999 138.9 74.9999 138.6V138.3C74.7999 138 74.6999 137.8 74.4999 137.8C74.2999 137.6 74.1999 137.6 73.9999 137.6C74.1999 137.6 74.2999 137.6 74.4999 137.6H74.6999C74.9999 137.8 75.4999 137.9 75.6999 137.9H75.8999H76.0999H76.2999C76.5999 137.9 76.7999 138.1 77.0999 138.2C77.2999 138.4 77.3999 138.4 77.5999 138.5C77.7999 138.8 78.0999 139.1 78.3999 139.8C78.5999 140.3 78.8999 140.6 78.9999 141.3C79.2999 142.3 79.4999 142.9 79.4999 143.7C79.4999 143.9 79.4999 144 79.6999 144.3C79.6999 144.6 79.8999 144.8 79.8999 144.9C80.0999 145.1 80.1999 145.2 80.1999 145.2C80.1999 145.2 80.1999 145.2 80.3999 145.5C80.3999 145.8 80.5999 146 80.5999 146.3C80.7999 146.8 80.7999 147.3 81.0999 147.9C81.3999 148.4 81.6999 148.7 82.0999 148.7C82.5999 148.9 82.8999 148.9 83.1999 148.9H83.4999C83.4999 148.9 83.7999 148.9 83.9999 149.1V149.3L84.1999 149.5L84.4999 149.7H84.6999H84.8999L85.3999 149.5H85.5999L85.7999 149.3C85.9999 149.5 86.0999 149.6 86.2999 149.8C86.4999 150 86.7999 150.1 87.2999 150.3H87.4999C87.9999 150.3 88.2999 150.1 88.4999 150H88.6999H88.8999H89.0999C89.2999 150 89.5999 150 89.6999 150.2C89.9999 150.2 90.2999 150.4 90.2999 150.4C90.5999 150.6 90.8999 150.6 91.0999 150.6H91.3999L91.8999 150.8H92.0999L92.2999 151C92.4999 151.2 92.7999 151.5 93.0999 151.6C93.2999 151.8 93.5999 151.8 93.8999 151.8C94.0999 151.8 94.1999 151.8 94.4999 151.6L94.6999 151.3L94.8999 151.1C95.0999 150.9 95.3999 150.9 95.3999 150.9C95.5999 151.1 95.8999 151.2 96.1999 151.4C96.3999 151.6 96.6999 151.7 96.9999 151.7H97.1999L97.6999 151.5C97.8999 151.7 97.9999 151.8 98.1999 152C98.4999 152.2 98.7999 152.3 98.9999 152.3C99.2999 152.3 99.5999 152.1 99.9999 152.1C100.2 152.1 100.3 151.9 100.5 151.9H100.7C100.9 151.9 101 151.9 101.2 151.9C101.4 151.9 101.5 151.9 101.7 151.7C101.9 151.7 102 151.5 102.2 151.4V151.2C102.4 151.5 102.5 152 103 152.3C103.3 152.6 103.8 152.6 104.1 152.8C104.4 152.8 104.7 153 105.1 153H105.4C105.6 153 105.9 153 106 153H106.2L106.4 153.2C106.6 153.4 106.9 153.8 107.5 154C107.7 154 107.8 154 108 154C108.2 154 108.5 154 108.8 153.7C109 153.5 109 153.4 109 153.4H109.2H109.4H109.6H109.9V153.6V154.2L110.9 154.4H111.2L111.5 154.2C111.8 154 111.8 153.9 112 153.6L112.2 153.4C112.2 153.4 112.4 153.2 112.5 153.2H112.8H113C113.2 153.4 113.5 153.5 114 153.5C114.3 153.5 114.6 153.3 114.8 153.2L115.1 152.9H115.3C115.5 152.9 115.8 152.9 115.9 152.9H116.2H116.5H116.7C116.9 153.1 117 153.1 117.2 153.1C117.4 153.1 117.5 153.1 117.7 153.1H117.9C118.1 153.1 118.4 153.1 118.5 153.1C118.7 153.1 118.8 153.1 119.1 152.9H119.3H119.5H119.8C120 153.1 120.3 153.1 120.4 153.1C120.5 153.1 120.9 153.1 121 152.9C121.3 152.7 121.6 152.4 121.8 152.1L122 151.8V151C122 151 122.2 151 122.3 151C122.6 151 122.8 151 123.1 151C123.3 151 123.3 151 123.6 151C123.8 151 123.8 151 123.9 151C124.1 151 124.2 150.8 124.4 150.7C124.4 150.9 124.6 151 124.7 151.2C124.9 151.5 125.2 151.7 125.5 151.8C126 152.1 126.5 152.1 126.8 152.1C127 152.1 127.1 152.1 127.1 152.1L127.4 152.4L127.6 152.6L127.9 153.1L128.4 152.9H128.7L128.9 152.7C129.1 152.4 129.1 152.2 129.1 152.1V151.8C129.1 151.8 129.1 151.8 129.3 151.8C129.5 151.8 129.6 151.8 129.9 151.8H130.2L130.4 152L130.6 152.2L130.9 152.4H131.1L131.6 152.2H131.9L132.2 151.6V151.4V151.2L132.4 151.4C132.6 151.6 132.7 151.6 132.9 151.6C133.1 151.6 133.2 151.6 133.2 151.6C133.4 151.6 133.7 151.6 133.8 151.6C134 151.6 134.1 151.6 134.3 151.6H134.5C134.7 151.6 134.7 151.6 134.8 151.4L135.1 151.2L135.4 150.9C135.4 150.9 135.6 150.7 135.7 150.7C135.8 150.7 136 150.5 136.2 150.5C136.5 150.5 136.7 150.3 137 150.2C137.2 150 137.2 149.9 137.3 149.9L137.5 149.7C137.7 149.5 137.8 149.5 138 149.4C138.2 149.4 138.3 149.2 138.3 149.2H138.6C138.6 149.4 138.8 149.7 138.9 149.8C139.1 150 139.1 150 139.2 150.1C139.2 150.4 139.2 150.7 139.4 151.1C139.6 151.4 139.7 151.7 140.2 151.9H140.4C140.4 152.2 140.4 153 140.6 153.8C140.6 154 140.6 154.1 140.8 154.3L141 154.6L141.2 154.8C141.2 155 141.4 155.1 141.7 155.1H141.9C142.1 155.1 142.2 155.1 142.4 155.1L142.7 154.9C143 154.7 143.5 154.7 143.8 154.7H144L144.5 155C144.3 155.2 144.3 155.5 144.3 156C144.3 156.2 144.3 156.5 144.6 156.8C144.6 157 144.6 157.1 144.6 157.1C144.6 157.3 144.6 157.4 144.6 157.6C144.6 157.8 144.8 157.9 144.8 158.1L145 158.4L145.2 158.6L145.4 158.8C145.4 159 145.4 159.1 145.4 159.1V159.4V159.7C145.4 160 145.6 160.3 145.7 160.5C145.9 160.8 146.2 161 146.3 161.1C146.5 161.3 146.6 161.3 146.8 161.3C146.8 161.3 146.8 161.5 146.8 161.6C146.8 161.8 146.8 161.9 146.8 162.1C146.8 162.3 147 162.4 147 162.6L147.2 162.8C147.4 162.8 147.5 163 147.8 163H148C148.2 163.2 148.3 163.2 148.5 163.2H148.8H149.1H149.4L149.6 163L149.9 163.2C150.1 163.2 150.1 163.4 150.4 163.4H150.6L150.8 163.9L150.6 164.2L150.8 164.4L151.3 166.7L151.6 164.9C151.8 164.9 151.9 165.1 152.2 165.1C152.4 165.1 152.5 165.1 152.7 164.9C152.7 165.1 152.7 165.2 152.9 165.4C153.1 165.7 153.2 166.2 153.5 166.7C153.7 167 154 167.3 154.3 167.7C154.6 168 154.9 168.5 155.6 168.8C156.1 169.3 156.7 169.8 157.4 170.1C157.6 170.1 157.7 170.3 158 170.4C158.5 170.6 159.1 170.9 159.8 171.2C160.4 171.4 160.9 171.7 161.6 171.7C161.9 171.7 162.2 171.7 162.6 171.4C162.9 171.1 163.1 170.9 163.4 170.8C163.7 170.6 163.9 170.5 164 170.5C164.3 170.3 164.6 170.2 164.6 170L164.8 169.8H165.1H165.3H165.5H165.7C165.5 170 165.5 170 165.4 170.1C165.2 170.4 165.1 170.7 164.9 171.2C164.7 171.7 164.6 171.8 164.4 172V172.2C164.2 172.2 164.1 172.2 163.9 172.2C163.6 172.2 163.3 172.4 162.9 172.7C162.7 172.9 162.6 173 162.6 173.2H162.4H162.1L161.8 172.9L161.6 172.7H161.3H161.1H160.8L160.3 172.9L160.1 173.5V173.7V173.9C160.1 174.1 160.1 174.2 160.1 174.2C160.1 174.2 160.1 174.2 159.9 174.2H159.7C159.7 174 159.5 174 159.5 173.9L159.3 173.6C159.3 173.4 159.1 173.3 159 173.1C158.8 172.9 158.7 172.8 158.5 172.8C158.3 172.8 158.2 172.6 158 172.6H157.7H157L156.7 172.8L156.4 173L156.1 173.5V173.7V173.9C156.1 174.1 156.1 174.2 156.1 174.4C156.1 174.6 156.1 174.9 156.1 175C156.3 175.5 156.6 176 157.1 176.3H157.3C157.6 176.5 157.8 176.6 157.9 176.8C158.1 177 158.2 177.1 158.5 177.4C158.8 177.6 159.1 177.9 159.5 178.2C159.8 178.5 160.3 178.8 160.6 179.2C160.9 179.5 161.2 179.8 161.2 179.8C161.4 180.1 161.8 180.6 162.3 181.3C163.4 182.6 164.9 184.2 165.4 185.2C165.9 186 166.7 186.7 167.3 187C168.3 187.5 169.2 187.8 170.1 187.8C170.7 187.8 171.4 187.6 171.9 187.5C172.4 187.3 173 187 173.5 186.7C173.8 186.5 174 186.4 174.3 186.2C174.8 185.9 175.3 185.6 175.9 185.1L176.2 184.9C176.7 184.6 177 184.4 177.3 184.1C177.5 183.9 177.6 183.8 177.8 183.6C178 183.4 178.1 183.1 178.1 182.8C178.1 182.5 178.3 182.3 178.3 182C178.3 181.8 178.5 181.7 178.6 181.5L178.8 181.3C179 181 179.1 180.7 179.1 180.3V180.1C179.1 179.8 178.9 179.5 178.6 179.1L178.4 178.9C177.9 178.6 177.6 178.6 177.3 178.4H177.5V177.8C177.5 177.8 177.5 177.8 177.7 177.8H177.9C178.2 177.8 178.4 177.6 178.5 177.5C178.7 177.3 178.8 177.2 178.8 177C179 176.7 179 176.4 179 176V175.8C179 175.6 179 175.6 179 175.5C179.2 175.5 179.2 175.5 179.3 175.5C179.1 175.7 179.1 176 179.1 176.1V176.4C179.1 176.6 179.1 176.7 179.3 177L179.5 177.3L179.8 177.6C179.6 177.8 179.6 177.9 179.6 178.1V178.4V178.7V178.9L179.8 179.2L180 179.4L180.3 179.6H180.5H181C181 179.8 180.8 179.8 180.8 179.9V180.1C180.8 180.3 180.8 180.4 180.8 180.4L180.6 180.6L180.3 181.1V181.3V181.5V181.7C180.3 182 180.3 182.2 180.5 182.3L180.7 182.6C180.9 182.9 181 183.1 181.2 183.2C181.4 183.4 181.5 183.4 181.7 183.5C181.9 183.7 182 183.7 182 183.8C182 183.8 182 184 182 184.1C182 184.2 182 184.6 182 184.7C182 185 182.2 185.3 182.5 185.7C182.5 185.7 182.5 185.9 182.7 186C182.7 186.2 182.9 186.5 182.9 186.6V186.8C182.9 187.3 182.7 187.6 182.7 187.8C182.4 188.1 182.2 188.6 182.2 189.1C182 189.6 182 189.9 181.9 190.4C181.9 190.6 181.9 190.7 181.7 190.9L181.5 191.2C181.3 191.5 181.3 192 181.3 192.7C181.3 193.2 181.5 193.7 181.6 194.2C181.8 194.7 181.9 195 182.1 195.2V195.4V195.6C182.1 195.8 182.3 195.9 182.3 196.1C182.5 196.3 182.5 196.3 182.6 196.4C182.6 196.6 182.4 196.7 182.4 196.9V197.1V197.3C182.4 197.3 182.4 197.5 182.6 197.6L182.9 197.9C182.9 197.9 182.9 197.9 183.1 197.9L182.9 198.2L182.7 198.4V198.9V199.1V199.3C182.7 199.6 182.9 199.9 183 200.1C183.2 200.3 183.3 200.4 183.3 200.6L183.6 200.9C183.8 201.2 183.9 201.4 184.1 201.4L184.3 201.6C184.3 201.8 184.3 201.8 184.3 201.8C184.1 201.8 184 202 183.8 202.1C183.5 202.4 183.5 202.7 183.5 202.9V203.1C183.5 203.6 183.7 203.9 183.8 204.1C183.8 204.3 184 204.3 184 204.4L183.8 204.6V205.1C183.8 205.3 183.8 205.6 184 205.7C184.2 206 184.5 206.3 184.8 206.5C184.8 206.7 184.6 206.8 184.6 207V207.2C184.6 207.4 184.6 207.7 184.6 207.8C184.6 208.1 184.9 208.8 185.1 209.6C185.4 210.7 185.9 212 186.1 212.5C186.3 213 186.6 214 186.7 214.8C186.9 215.4 187 216.1 187.2 216.6C187.2 216.9 187.4 217.2 187.4 217.6C187.7 218.6 187.9 219.7 187.9 220.5C187.9 221 188.1 221.3 188.2 221.8C188.7 223.1 189.5 224.7 190.1 225.9C190.3 226.1 190.3 226.2 190.4 226.4C190.7 227 191 227.4 191.2 227.7C191.5 228 191.5 228.2 191.8 228.8C192 229.1 192 229.4 192 229.9C192 230.2 192 230.7 192.2 231.2C192.4 231.7 192.5 232.2 193 232.7C193.3 233 193.5 233.2 193.8 233.3C194 233.5 194.3 233.5 194.4 233.5V233.8C194.4 234.1 194.6 234.3 194.6 234.4C194.8 234.6 194.8 234.7 194.9 234.9L195.2 235.2C195.5 235.7 195.8 236.3 196 236.8L196.2 237.1L196.4 237.4L196.6 237.6C196.6 237.6 196.6 237.8 196.4 237.8C196.2 238 196.2 238.1 196.2 238.4V238.9C196.2 239.1 196.4 239.4 196.5 239.5C196.8 240.3 197.5 241.3 197.8 241.9L198 242.2L198.2 242.4C198.2 242.6 198.2 242.7 198.2 242.9C198.2 243.4 198.2 244 198.4 244.8C198.4 245.3 198.6 245.9 198.7 246.4C198.9 247 199 247.5 199.2 247.9C199.2 248.1 199.4 248.2 199.5 248.4C199.5 248.6 199.7 248.6 199.8 248.6C199.8 248.8 199.6 248.9 199.6 249.1C199.6 249.3 199.6 249.4 199.8 249.6C200 249.9 200.1 250.4 200.3 251.1C200.6 251.7 200.9 252.4 201.3 253.2C201.5 253.7 201.8 254.2 201.9 254.5C202.1 254.7 202.1 254.8 202.2 255C202.3 255.2 202.4 255.3 202.5 255.3C202.8 255.6 203 255.8 203.1 255.8C203.4 256 203.4 256 203.4 256.3C203.6 256.5 203.6 256.8 203.7 256.9C203.9 257.2 204 257.5 204.3 257.9C204.9 258.9 205.6 260 205.8 260.7C206.3 261.8 206.8 263.6 207.4 265.4V265.6C207.7 266.4 208 267.2 208.4 267.9C208.9 268.9 209.2 269.7 209.5 270.2C209.7 270.4 209.8 270.5 209.8 270.7C209.8 270.9 209.8 271 210 271.5C210 271.8 210.2 272.1 210.2 272.5C210.2 272.8 210.2 273.1 210.4 273.5C210.4 273.8 210.6 274.1 210.7 274.5C210.9 274.7 211 274.8 211 275C210.8 275 210.7 275.2 210.5 275.3C210.3 275.5 210.2 275.8 210.2 276.1V276.3C210.2 276.8 210.4 277.1 210.5 277.6C210.7 278.1 210.8 278.4 211 278.7C211.2 279 211.3 279.2 211.3 279.3C211.3 279.5 211.5 279.8 211.8 279.9C212 279.9 212 280.1 212.1 280.1C212.1 280.3 212.1 280.3 212.1 280.4C212.1 280.7 212.3 280.9 212.3 281.2C212.5 281.4 212.5 281.5 212.6 281.8C213.1 282.4 213.9 283.4 214.5 284.2C214.7 284.4 214.8 284.7 215 284.8C215.5 285.4 216.1 286.1 216.9 286.6C217.4 286.9 218 287.1 218.7 287.2H219C219.8 287.2 220.5 286.9 221.1 286.4C221.7 285.9 222.2 285.4 222.6 284.8C223.1 283.8 223.1 283.2 223.2 282.5C223.2 282.3 223.2 282.2 223.2 282C223.2 281.8 223.2 281.5 223.4 281.4C223.4 281.1 223.4 280.9 223.6 280.6C223.8 280.3 224.2 279.8 224.7 279.3C225 279 225.5 278.7 225.7 278.7C226.2 278.5 226.7 278.4 227 278.2C227.3 278 227.6 278 227.8 278H228.1C228.3 278 228.4 278 228.6 278H228.8C229 278.2 229.3 278.3 229.4 278.5L229.7 278.8L230.2 279.1L230.4 279.3H230.7H230.9H231.1L231.4 279.1L231.6 278.8V278.5C231.6 278.2 231.4 278.2 231.4 278C231.2 277.7 231.1 277.7 230.9 277.5L230.7 277.3V277V276.8L230.4 276.3L230.2 276L229.9 275.8H230C229.5 275.8 229.4 276 229.2 276.1H228.9H228.6L228.3 275.9L228.1 275.7V275.5V275.3C228.3 274.7 228.6 274.2 228.9 273.8C229.1 273.6 229.2 273.3 229.4 273.2L229.6 272.9C229.9 272.4 230.4 271.6 230.4 270.6V270.1V269.9V269.7L230.6 269.5L230.8 269.3C231 269.3 231 269.3 231.1 269.5C231.4 269.7 231.7 269.7 232.2 269.8C232.4 269.8 232.5 269.8 232.7 269.8C233 269.8 233.3 269.8 233.7 269.5C233.9 269.3 234 269 234.2 268.9C234.4 268.6 234.4 268.4 234.4 268.1V267.8C234.4 267.3 234.2 266.7 234.2 266C234 265 234 264.1 234 263.6C234 263.4 234 263.3 234 263.3V263C234 262.7 234.2 262.4 234.2 261.9C234.2 261.4 234 260.9 233.9 260.3C233.9 260.1 233.7 260 233.6 259.8C233.3 259.2 233.1 258.7 233.1 258C233.1 257.5 233.3 256.7 233.6 255.9C233.8 255.4 233.9 255.1 234.2 254.6C234.7 253.6 235 252.8 235.3 252C235.6 251.2 235.8 250.4 235.8 249.6V249.1C235.8 248.3 235.8 247.5 235.8 246.7C235.8 246.2 235.8 245.7 235.8 245.4C235.8 245.2 235.8 245.1 235.8 244.9C235.8 244.7 235.8 244.6 235.6 244.4C235.4 244.1 235.3 243.8 235 243.8C234.8 243.6 234.7 243.6 234.5 243.6C234.3 243.6 234.3 243.6 234.2 243.6V243.4V243.2V242.9V243C234.4 242.8 234.5 242.7 234.5 242.7C234.7 242.5 234.7 242.4 234.7 242.2V241.9C234.7 241.6 234.7 241.1 234.5 240.8C234.5 240.6 234.3 240.5 234.3 240.2C234.1 239.7 233.8 239.4 233.7 239.1C233.5 238.9 233.5 238.8 233.5 238.6L233.7 238.3C233.9 238 233.9 237.5 233.9 237.2C233.9 236.7 233.9 236.2 233.7 235.7C233.7 235.4 233.5 235.1 233.4 234.7C233.1 233.7 232.8 232.3 232.8 231.1C232.8 230.9 232.8 230.8 232.8 230.6C232.8 230.4 232.8 230.3 232.8 230.3V230C232.8 229.8 233 229.7 233.1 229.5C233.3 229.3 233.3 229 233.4 228.7C233.6 228.1 233.6 227.7 233.7 227.6C233.9 227.4 233.9 227.3 234 227.1C234.2 226.9 234.2 226.8 234.3 226.6C234.5 226.3 234.8 226 235.1 225.8H235.3L235.6 226C235.8 226 235.9 226.2 236.1 226.2H236.3C236.5 226.2 236.6 226.2 236.8 226C237 226 237 225.8 237 225.8L237.3 226H237.5C237.8 226 238 225.8 238.1 225.8C238.3 225.6 238.4 225.6 238.6 225.5C238.9 225.2 239.2 224.9 239.2 224.4C239.2 224.2 239.2 224.1 239.4 223.9C239.4 223.4 239.6 222.6 239.7 222.3C239.7 222.3 239.9 222.1 240 222.1H240.3H240.5C240.7 222.3 241.1 222.4 241.6 222.4H241.8C242.3 222.4 242.8 222.2 243.3 221.9L243.6 221.7C244.1 221.4 244.6 221.1 245.2 220.6C245.5 220.4 245.7 220.1 245.8 220C246 219.8 246.1 219.5 246.3 219C246.3 218.8 246.3 218.7 246.3 218.5C246.3 218.3 246.3 218.2 246.3 217.9C246.3 217.6 246.1 217.1 245.8 216.9C245.8 216.9 245.8 216.9 245.6 216.6C245.6 216.4 245.6 216.3 245.8 216C245.8 216 246 215.8 246.1 215.7C246.6 215.2 247.6 214.6 248.5 213.9C249.1 213.4 250 212.9 250.4 212.4C250.7 212.2 250.9 211.9 251.2 211.8C251.4 211.6 251.7 211.5 251.8 211.2C252.1 210.7 252.3 210.2 252.3 209.9C252.3 209.7 252.3 209.7 252.3 209.6C252.3 209.5 252.5 209.3 252.6 209.1C252.8 208.8 253.4 208.5 254.2 208.1C254.5 207.9 254.8 207.8 255 207.8C255.3 207.6 255.5 207.5 255.8 207.2C256.1 206.7 256.8 205.9 257.4 204.8C257.9 204.2 258.2 203.3 258.5 202.7C258.7 202.2 259.3 201.2 260 200.1C260.5 199.5 260.8 198.6 261.1 198C261.3 197.7 261.4 197.4 261.6 197.2H261.8C262 197.2 262.1 197 262.1 197L262.4 196.8C262.9 196.5 263.2 196.2 263.5 196H263.7C263.9 195.8 264.2 195.7 264.5 195.7C264.8 195.5 265.1 195.4 265.6 195.4C266.6 195.1 267.7 194.4 268.2 194.1H268.4L268.6 193.9L268.8 193.7L269 193.4C269.3 193.2 269.6 192.9 269.6 192.8C269.8 192.5 269.8 192.3 269.9 192.2C269.9 192 270.1 191.9 270.1 191.7C270.1 191.5 270.4 191.4 270.7 191.2L271.2 191C271.4 190.8 271.4 190.8 271.5 190.7C271.6 190.6 271.7 190.4 271.7 190.2C271.7 189.9 271.5 189.7 271.5 189.6V189.4C271.7 189.2 271.8 189.1 272 188.9L272.3 188.7C272.5 188.7 272.5 188.5 272.8 188.4C273 188.2 273 188.2 273.1 188.1C273.1 187.9 273.3 187.8 273.3 187.6C273.3 187.3 273.3 187.1 273.1 187C272.9 186.5 272.8 186.2 272.5 185.9C272.3 185.7 272.3 185.6 272.2 185.4C272 185.1 271.9 184.9 271.7 184.8L271.5 184.5C271.5 184.5 271.3 184.3 271.3 184V183.8C271.3 183.3 271.5 182.8 271.6 182.5C271.8 182 272.2 181.9 272.2 181.9C272.5 181.7 272.8 181.6 273.3 181.4C273.9 181.2 274.6 180.9 274.9 180.8C275.2 180.6 275.5 180.5 276 180.2C276.3 180 276.5 179.7 276.8 179.6V179.8V180.1L277.3 180.6L277.8 180.9L278.1 180.7L278.3 181.7L279.6 180.6V180.8V181.1L279.8 181.4L280 181.7C280.2 181.9 280.3 181.9 280.5 181.9C280.8 181.9 281 181.7 281.1 181.6L281.3 181.4L281.5 180.9H281.7L281.9 181.1L282.1 181.3L282.3 181.5H282.5H283.1L283.3 181H283.5L283.8 181.2L284.1 181.4L284.4 181.6L284.6 181.8L284.8 181.6L286.4 182.2L285.8 181.1C286.1 180.8 286 180.6 286 180.5C286 180.2 286 180.2 286 180.2L286.2 180L286.4 179.8L286.6 179.2V178.9L286.9 178.7L287.2 178.5L287.5 178.2V178.4C287.5 178.6 287.5 178.7 287.5 178.9V179.2C287.5 179.4 287.5 179.4 287.8 179.7C288 179.9 288.1 179.9 288.3 179.9C288.5 179.9 288.6 179.9 288.8 179.7C289.1 179.5 289.1 179.4 289.3 179.2L289.5 178.9C289.5 178.7 289.7 178.7 289.7 178.6C289.9 178.4 289.9 178.1 289.9 178C289.9 177.8 289.9 177.7 289.9 177.5H290.1H290.3H290.5C290.5 177.7 290.3 178 290.3 178.3V178.8V179L290.5 179.2V179.5L291.1 179.7C291.3 179.7 291.4 179.7 291.6 179.7C291.8 179.7 292.1 179.7 292.2 179.5C292.3 179.3 292.7 179.2 292.7 179C292.9 178.8 292.9 178.5 292.9 178.4V178.1C292.9 177.8 292.9 177.5 292.9 177.1L293.2 177.3L293.5 177.1C293.5 177.1 293.5 177.1 293.5 177.3C293.7 177.6 293.8 177.8 293.8 177.9V178.1H294C294.2 178.3 294.5 178.3 294.6 178.3C295.1 178.3 295.4 178 295.6 177.8C295.8 177.5 295.9 177.3 295.9 177C295.9 177 295.9 177.2 295.9 177.3C295.9 177.4 296.1 177.6 296.2 177.8C296.4 178 296.5 178 296.7 178C296.9 178 297 178 297.2 177.8C297.4 177.8 297.5 177.6 297.7 177.5L297.9 177.3C297.9 177.1 298.1 177.1 298.1 176.8V176.5C298.1 176.2 297.9 175.7 297.8 175.5C297.8 175.3 297.8 175.3 297.8 175.2C297.8 175 297.8 174.9 297.8 174.9V174.6C298 174.8 298.1 175.1 298.3 175.1L298.5 175.3C298.7 175.5 298.7 175.6 298.8 175.8L299.1 176.1C299.3 176.1 299.4 176.3 299.7 176.3C299.9 176.3 300.2 176.1 300.3 176C300.3 175.8 300.5 175.8 300.5 175.7C300.5 175.7 300.7 175.9 300.7 176C300.7 176 300.9 176.3 301 176.6C301.2 176.9 301.3 177.2 301.5 177.6C301.7 177.9 301.7 178.1 301.8 178.4C301.8 178.6 302 178.9 302 178.9C302 179.1 302 179.2 301.8 179.5C301.8 179.7 301.6 179.8 301.6 180.1C301.6 180.3 301.6 180.6 301.8 180.9L302.1 181.2H302.3C302.3 181.4 302.3 181.5 302.3 181.7C302.3 182 302.3 182.2 302.3 182.5C302.3 182.8 302.3 183 302.3 183.1C302.3 183.3 302.3 183.3 302.5 183.4C302.7 183.7 302.8 184.2 303.1 184.7C303.4 185.2 303.7 185.8 303.9 186.2L304.2 186.8L304.4 187C304.6 187.2 304.7 187.5 304.7 187.5V187.7L305.2 188.7V188.4C305.4 188.6 305.5 188.7 305.7 188.9C306.5 189.7 307.5 190.7 307.6 191L307.9 191.2L308.2 191.4H308.5C308.3 191.6 308.3 191.7 308.3 191.9V192.2C308.3 192.4 308.5 192.5 308.5 192.7C308.7 192.9 308.8 193 309 193H309.2L309.4 193.2L309.6 193.4C309.8 193.4 309.8 193.6 310.2 193.6H310.4V193.8L310.6 194.1L310.9 194.3C311.1 194.3 311.2 194.5 311.4 194.5C311.6 194.5 311.7 194.5 311.9 194.3C312 194.2 312.2 194.2 312.4 194.1V0.5H18.6999ZM47.1999 26.8H46.9999C46.7999 26.8 46.6999 26.8 46.6999 26.8C46.4999 26.5 46.1999 26.2 45.6999 26.2H45.4999H45.2999H44.9999V26.7V26.9V27V27.3C44.9999 27.6 45.1999 27.8 45.1999 27.9C44.9999 27.9 44.8999 27.9 44.6999 28.1C44.3999 28.3 44.1999 28.4 44.0999 28.7C43.8999 28.7 43.7999 28.7 43.5999 28.7C43.3999 28.7 43.2999 28.7 43.0999 28.7C43.0999 28.5 42.8999 28.4 42.8999 28.2C42.8999 28 42.8999 27.9 42.6999 27.7V27.5L42.3999 27H42.1999L41.9999 26.8H41.7999H41.4999H41.2999L41.0999 27L40.8999 27.2H40.6999L40.0999 27H39.7999L39.2999 27.3H39.0999H38.9999V27.1C38.7999 26.8 38.7999 26.6 38.4999 26.3C38.4999 26.1 38.2999 26 38.2999 25.8C38.0999 25.5 37.9999 25.3 37.9999 25C37.7999 24.7 37.6999 24.5 37.6999 24.4C37.4999 23.9 37.1999 23.4 37.1999 23.3C37.1999 23.1 36.9999 22.8 36.9999 22.7C36.7999 22.7 36.7999 22.4 36.7999 22.4C36.7999 22.2 36.9999 22.1 36.9999 21.9C36.9999 21.7 36.9999 21.4 36.7999 21.3C36.5999 21.1 36.5999 21 36.4999 21L36.1999 20.8L35.9999 20.5L35.7999 20.3V20.1V20C35.7999 19.7 35.7999 19.5 35.9999 19.5C35.9999 19.3 36.1999 19.3 36.1999 19.2L36.3999 19C36.3999 19 36.5999 18.8 36.8999 18.7C37.0999 18.5 37.3999 18.4 37.4999 18.4C37.6999 18.4 37.7999 18.6 38.0999 18.6C38.2999 18.6 38.3999 18.6 38.5999 18.6C38.7999 18.6 38.8999 18.4 39.0999 18.4L39.3999 18.2L39.5999 18C39.7999 18 40.0999 17.8 40.1999 17.8H40.3999C40.5999 17.8 40.5999 17.8 40.5999 18C40.7999 18.2 40.8999 18.3 40.8999 18.5L41.0999 18.7V18.9C41.2999 19.1 41.3999 19.5 41.5999 20C41.7999 20.3 41.7999 20.5 41.8999 20.6C41.9999 20.8 41.9999 21 41.9999 21.2C42.1999 21.4 42.5999 22.5 43.4999 23.3C43.9999 23.8 44.2999 24.3 44.7999 24.6C44.9999 24.8 45.0999 24.8 45.2999 24.9C45.7999 25.2 46.3999 25.5 46.7999 25.7C46.9999 25.9 47.0999 26 47.2999 26H47.4999C47.3999 26.5 47.3999 26.8 47.1999 26.8ZM68.9999 137.9C68.9999 137.7 69.1999 137.7 69.1999 137.7C68.9999 137.9 68.9999 137.9 68.9999 137.9L68.7999 138.2L68.5999 138C68.5999 138.1 68.5999 138.1 68.9999 137.9ZM44.7999 157.5L44.8999 157.4C44.8999 157.4 44.8999 157.4 44.7999 157.5ZM71.8999 143.9L71.6999 144.4C71.6999 144.9 71.6999 145 71.4999 145.2C71.4999 145.4 71.2999 145.5 71.1999 146L70.9999 146.3C70.7999 146.8 70.4999 147.1 70.1999 147.4C69.8999 147.7 69.3999 148 68.8999 148.4C68.0999 148.9 67.7999 149.7 67.5999 150.2C67.3999 150.4 67.3999 150.7 67.2999 150.8C67.0999 151.1 66.7999 151.4 66.4999 151.9C66.1999 152.2 65.6999 152.7 65.1999 153C64.6999 153.3 64.3999 153.8 64.0999 154.1C63.7999 154.6 63.5999 154.9 63.2999 155.6C63.0999 156.1 63.0999 156.6 62.9999 156.9C62.7999 157.5 62.7999 158 62.6999 158.2C62.4999 158.5 62.0999 158.7 61.3999 159C61.1999 159 61.1999 159 61.0999 159.2C60.8999 159 60.8999 159 60.7999 158.9C60.5999 158.7 60.4999 158.7 60.2999 158.7H59.9999C59.9999 158.5 59.7999 158.4 59.6999 158.4C59.4999 158.2 59.1999 158.2 59.0999 158.2C58.7999 158.2 58.7999 158.2 58.5999 158.2C58.2999 158.2 58.0999 158.4 57.9999 158.5C57.7999 158.7 57.4999 158.8 57.3999 159L57.1999 159.2V159.5C56.9999 159.5 56.8999 159.5 56.6999 159.3C56.8999 159 56.8999 158.8 56.8999 158.7V158.5C56.8999 158.2 56.8999 158 56.6999 157.7C56.4999 157.5 56.1999 157.2 55.6999 157.2C55.4999 157.2 55.1999 157.2 55.0999 157.4C55.0999 157.4 55.0999 157.4 54.8999 157.4C54.6999 157.4 54.6999 157.4 54.3999 157.6C54.1999 157.6 53.8999 157.9 53.8999 158.1C53.6999 158.3 53.6999 158.4 53.6999 158.7C53.6999 158.9 53.6999 159 53.8999 159.2C53.5999 159.2 53.2999 159.2 52.8999 159.2C52.6999 159.2 52.3999 159.2 52.3999 159H52.1999C51.8999 158.8 51.5999 158.5 51.1999 158.5C50.7999 158.5 50.6999 158.7 50.3999 158.7C50.1999 158.9 50.0999 159 50.0999 159L49.8999 159.2C49.8999 159.2 49.5999 159.5 49.2999 159.7C48.9999 159.9 48.6999 160.2 48.2999 160.3H48.0999L47.7999 160.1L47.5999 159.9C47.3999 159.4 47.2999 158.9 46.9999 158.6C46.7999 158.4 46.7999 158.1 46.6999 158C46.4999 157.8 46.4999 157.5 46.3999 157.4C46.1999 157.2 46.0999 157.1 45.7999 156.9H45.5999C45.2999 156.9 45.0999 157.1 44.9999 157.2L44.7999 156.7V156.5L44.4999 156.2H44.2999C44.0999 156 43.7999 156 43.6999 156C43.4999 156 43.3999 156 43.1999 156.2C42.6999 156.4 42.3999 156.7 42.3999 156.7C42.3999 156.7 42.0999 156.5 41.8999 156.2C41.6999 155.9 41.3999 155.4 41.2999 155.1C41.0999 154.8 40.9999 154.5 40.7999 154.1C40.4999 153.6 40.1999 153 39.7999 152.5C39.5999 152.2 39.4999 152 39.4999 151.7C39.2999 151.5 39.2999 151.4 39.2999 151.4V151.2V151V150.7C39.2999 150.4 39.0999 149.9 38.7999 149.6C38.5999 149.3 38.2999 149.1 38.1999 149C37.8999 148.8 37.6999 148.7 37.5999 148.5C37.3999 148.3 37.2999 148.2 37.2999 148C37.2999 147.7 37.2999 147.7 37.2999 147.5C37.2999 147.3 37.2999 147.2 37.0999 146.9C36.8999 146.6 36.7999 146.4 36.5999 146.3C36.2999 146 35.9999 145.5 35.7999 145C36.0999 145 36.2999 144.8 36.2999 144.7L36.5999 144.4C36.5999 144.6 36.5999 144.7 36.5999 144.9C36.5999 145.5 36.7999 146 37.0999 146.7C37.2999 147 37.3999 147.3 37.5999 147.5C37.7999 147.7 37.7999 147.7 37.7999 148L37.9999 148.5H38.4999H38.6999C38.8999 148.5 38.9999 148.5 39.2999 148.3C39.5999 148.1 39.8999 147.8 39.8999 147.5V147C39.8999 146.4 39.6999 146 39.5999 145.9C39.5999 145.6 39.5999 144.9 39.2999 144C39.2999 143.8 39.0999 143.5 38.9999 143.4C38.8999 143.3 38.4999 143.1 38.1999 143.1C37.6999 143.1 37.3999 143.4 37.0999 143.6C36.8999 143.8 36.7999 144.1 36.5999 144.2C36.7999 143.9 36.7999 143.6 36.7999 143.1V142.9C36.7999 142.4 36.4999 142.1 36.2999 141.9C35.9999 141.7 35.7999 141.6 35.6999 141.4C35.4999 141.4 35.3999 141.2 35.3999 141.2V140.9V140.7V140.5C35.3999 140.3 35.3999 139.9 35.1999 139.5C34.9999 139.2 34.6999 139 34.5999 138.7C34.2999 138.5 34.0999 138.2 33.7999 138.1C33.2999 137.8 32.7999 137.3 32.4999 137C31.9999 136.5 31.3999 136 30.6999 135.5C30.4999 135.3 30.3999 135.3 30.1999 135.2H29.9999V134.4V134L29.6999 133.7C29.4999 133.5 29.1999 133.4 29.0999 133.4L28.7999 133.2C28.2999 133 27.9999 132.9 27.7999 132.9C27.5999 132.7 27.4999 132.6 27.2999 132.6C27.0999 132.4 26.9999 132.4 26.9999 132.3C26.9999 132.2 27.1999 132 27.1999 131.7V131.4C27.1999 131.1 26.9999 130.9 26.8999 130.9L26.5999 130.6C26.2999 130.3 25.9999 130 25.9999 129.6C25.9999 129.1 25.7999 128.6 25.4999 128.1C25.1999 127.5 24.9999 127 24.8999 126.6L24.6999 126.3L24.4999 126L24.2999 125.8L24.0999 125.6C23.8999 125.4 23.8999 125.3 23.8999 125.3C23.8999 125 23.6999 124.8 23.6999 124.5C23.4999 124.2 23.4999 124 23.3999 123.7C23.1999 123.4 22.8999 122.9 22.5999 122.4C22.0999 121.6 21.5999 120.8 21.2999 120.5C20.9999 120.2 20.6999 120 20.4999 119.9C20.1999 119.7 19.8999 119.7 19.6999 119.7C19.1999 119.5 18.8999 119.5 18.6999 119.4C18.6999 119.4 18.8999 119.2 18.9999 119.2C19.1999 119 19.2999 119 19.4999 118.9C19.6999 118.7 19.7999 118.6 19.9999 118.6L20.1999 118.4L20.3999 118.2C20.3999 118.2 20.3999 118 20.5999 118C20.7999 118.2 20.8999 118.2 21.0999 118.2C21.2999 118.2 21.3999 118.2 21.5999 118.2C21.7999 118.2 22.0999 118.2 22.3999 117.9L22.5999 117.7L22.7999 117.5C22.9999 117.3 22.9999 117.2 22.9999 117C22.9999 116.8 22.9999 116.8 22.9999 116.7V116.5L22.7999 116V115.8L22.5999 115.6L22.3999 115.4C22.6999 115.4 22.8999 115.2 23.1999 115.1L23.4999 114.9C23.6999 114.9 23.7999 114.9 23.9999 114.9C24.2999 114.9 24.7999 114.9 25.0999 114.9C25.2999 114.9 25.3999 114.9 25.5999 114.7L25.8999 114.5C26.0999 114.3 26.1999 114.2 26.1999 113.9C26.1999 113.7 26.1999 113.4 25.9999 113.3C25.9999 113.1 25.9999 113.1 25.7999 113.1H26.0999L26.3999 113.3H26.5999H26.7999L26.9999 113.5C27.1999 113.7 27.2999 113.8 27.5999 114L28.0999 114.2H28.2999H28.4999L28.6999 114.5L28.8999 114.7L29.3999 114.9H29.5999H30.0999C30.2999 114.9 30.3999 114.9 30.5999 114.9C30.7999 114.9 30.8999 114.7 31.1999 114.4L31.3999 114.1C31.5999 113.9 31.5999 113.8 31.5999 113.8C31.5999 113.8 31.7999 113.6 31.8999 113.5L32.0999 113.3C32.2999 113.5 32.2999 113.8 32.2999 113.9C32.4999 114.4 32.5999 115 33.0999 115.5C33.3999 116 34.0999 116.5 34.5999 117.1C34.8999 117.4 35.1999 117.9 35.5999 118.1C35.8999 118.4 36.0999 118.7 36.0999 118.7L36.2999 119L36.4999 119.2C36.4999 119.2 36.4999 119.4 36.4999 119.5C36.4999 119.8 36.2999 120.1 36.2999 120.5V120.7C36.2999 120.9 36.2999 121.2 36.4999 121.3C36.6999 121.5 36.7999 121.6 37.0999 121.8C37.3999 122 37.5999 122 37.6999 122H37.8999C37.8999 122 37.8999 122 37.6999 122.2C37.4999 122.4 37.4999 122.5 37.4999 122.8C37.4999 123 37.4999 123.3 37.6999 123.4C37.8999 123.7 37.9999 123.9 38.1999 123.9C38.3999 124.1 38.4999 124.1 38.6999 124.2C38.8999 124.4 38.9999 124.4 38.9999 124.4L39.1999 124.6C39.3999 124.9 39.3999 125.2 39.4999 125.4V125.7V125.9V126.1C39.4999 126.4 39.6999 126.7 39.6999 126.9C39.8999 127.1 39.9999 127.4 40.1999 127.5C40.3999 127.7 40.4999 127.8 40.6999 128.1C40.9999 128.6 41.1999 128.9 41.2999 129.1C41.4999 129.3 41.4999 129.4 41.5999 129.7C41.7999 130 41.7999 130.5 42.1999 130.8C42.4999 131.1 42.9999 131.4 43.6999 131.6C44.1999 131.8 44.6999 131.8 44.9999 131.8C45.1999 131.8 45.4999 131.8 45.5999 131.8H45.8999H46.0999C46.2999 131.8 46.5999 132 46.6999 132C46.8999 132.2 46.9999 132.3 47.1999 132.3C47.4999 132.6 47.6999 132.6 47.9999 132.8C48.2999 133 48.4999 133 48.7999 133.1C48.9999 133.1 49.0999 133.3 49.2999 133.3C49.4999 133.3 49.7999 133.6 49.8999 133.8L50.1999 134.1V134.3C50.3999 134.5 50.3999 134.8 50.6999 135.3C50.9999 135.9 51.4999 136.3 51.7999 136.4C51.9999 136.6 52.0999 136.6 52.0999 136.6C52.3999 136.9 52.8999 137.2 53.5999 137.6C54.0999 137.9 54.5999 138.1 55.0999 138.2H54.9999C55.4999 138.4 55.7999 138.5 56.0999 138.7C56.3999 138.9 56.3999 139 56.5999 139C56.7999 139.5 57.1999 139.8 57.5999 140C58.0999 140.3 58.5999 140.3 59.0999 140.3C59.2999 140.3 59.3999 140.3 59.5999 140.3C59.7999 140.3 60.0999 140.3 60.3999 140.3C60.6999 140.3 60.9999 140.3 61.3999 140.3L61.6999 140.5C61.8999 140.7 61.9999 141 62.1999 141.1L62.6999 141.3H62.9999C63.1999 141.3 63.1999 141.3 63.2999 141.3C63.4999 141.3 63.5999 141.5 63.7999 141.6C63.9999 141.6 63.9999 141.8 64.0999 141.8C64.2999 141.8 64.3999 142 64.6999 142C64.9999 142 65.1999 142 65.2999 141.8C65.5999 141.6 65.8999 141.5 66.2999 141.2C66.5999 141 66.7999 140.7 67.0999 140.4L67.2999 140.2H67.4999C67.4999 140.4 67.4999 140.5 67.4999 140.7C67.4999 140.9 67.4999 141.2 67.6999 141.5C67.6999 141.7 67.8999 141.8 67.9999 141.8C68.1999 142 68.2999 142 68.5999 142H68.9999L69.1999 141.8C69.3999 141.6 69.4999 141.6 69.4999 141.6H69.6999C69.8999 141.6 69.9999 141.6 70.2999 141.4C70.5999 141.2 70.7999 141.2 70.8999 141.1C71.0999 140.9 71.1999 140.9 71.1999 140.8H71.4999H71.7999C71.9999 140.8 72.0999 140.8 72.2999 140.8C72.3999 140.8 72.3999 140.8 72.4999 140.8L71.8999 143.9ZM272.3 139.7C271.7 139.2 271.7 139.5 271.5 139.7L271.3 140C271.1 140.3 271.1 140.6 271.1 141C271.1 141.2 271.1 141.3 271.1 141.6C270.9 141.4 270.8 141.3 270.6 141.1C270.4 141.1 270.3 140.9 270 140.9C269.8 140.9 269.7 140.9 269.5 141.1C269.3 141.1 269.3 141.1 269 141.4L268.8 141.7V141.9L268.6 141.7L268.1 140.7L267.3 141.5C267.1 141.7 267 141.8 266.8 142V142.2C266.6 142 266.5 141.9 266.2 141.9C266 141.9 266 141.7 265.9 141.6C265.7 141.4 265.7 141.3 265.7 141L265.5 140L264.5 140.3C264.3 140.5 264.2 140.5 264 140.6H263.7L263.4 140.9L263.2 141.1C263 140.9 262.9 140.9 262.6 140.8C262.3 140.6 261.8 140.3 261.5 140.2C260.7 139.7 260.5 139.7 260.4 139.7H260.1C259.9 139.7 259.5 139.5 259 139.5C258.7 139.5 258 139.7 257.7 140L257.5 140.2L257.3 140C257.1 139.8 257 139.2 256.8 138.9V138.7C256.6 138.5 256.6 138.4 256.5 138.2C256.3 138 256.2 138 256 138H255.8C255.5 138 255.2 138.2 255 138.2C254.8 138.4 254.7 138.4 254.5 138.5L254.2 138.7L254 138.5L253.7 138.3C253.4 138.1 252.2 137.7 251.6 137.2C251.3 136.9 251 136.7 251 136.7V136.5C250.8 136 250.7 135.2 250 134.6C249.8 134.4 249.7 134.3 249.5 134.3C249.3 134.1 249 134.1 248.9 134.1H248.6H248.4H248.2C248.2 134.1 247.9 133.9 247.7 133.8C247.5 133.7 247.4 133.6 247.2 133.5C247 133.3 246.7 133.2 246.4 133.2H246.2C245.9 133.2 245.6 133.2 245.2 133.4C244.9 133.6 244.6 133.7 244.2 133.9C244.2 133.9 244 133.7 243.7 133.6C243.4 133.4 242.9 133.1 242.2 133.1H241.9C241.7 133.1 241.6 133.1 241.4 133.3L240.9 133.5V134C240.9 134 240.9 134 240.9 134.2C240.7 134.2 240.3 134 239.6 133.6C238.8 133.1 238 132.5 237.7 132.1L237.5 131.9C237.5 131.7 237.3 131.7 237.2 131.7C237.1 131.7 236.9 131.5 236.7 131.5C236.4 131.5 236.2 131.7 236.1 131.7C235.8 131.9 235.6 131.9 235.5 131.9C235.5 131.9 235.2 131.9 234.9 131.6C234.6 131.3 234.3 131 233.9 130.6L233.6 130.3L233.4 130.1C233.2 130.1 233.1 129.9 232.9 129.9C232.6 129.9 232.4 130.1 232.3 130.1L232.1 130.3L231.9 130.5C231.7 130.5 231.4 130.3 230.9 130.2C230.4 130 229.9 129.7 229.8 129.6C229 129.1 228.7 128.8 228.5 128.6L228.3 128.4C228.1 128.2 228.1 128.1 228 127.9C227.7 127.6 227 127.1 226.4 126.8C225.8 126.3 225.1 126 224.6 125.7C224.3 125.4 224 125.2 223.6 125.1C223.4 124.9 223.3 124.8 223.3 124.8L223 124.6L221.9 123.6L221.7 124.7C221.5 124.7 221.4 124.5 221.2 124.4C220.6 124.1 219.7 123.6 219.4 123.1C219.2 122.9 219.1 122.6 219.1 122.5C219.1 122.2 219.3 122 219.4 121.7C219.9 121.2 220 120.7 220.2 120.4V120.2L220.4 120V119.5C220.4 119.2 220.2 119 220.1 118.9L219.9 118.7L219.7 118.4C219.7 118.4 219.9 118.2 220 118.1C220.2 117.9 220.3 117.9 220.5 117.8C220.7 117.7 220.8 117.5 220.8 117.2C220.8 116.9 220.6 116.7 220.6 116.7L220.4 116.4L220.2 116.1C220.2 116.1 220.4 115.8 220.7 115.6C221 115.3 221.5 114.8 221.8 114.3C222.1 113.8 222.4 113.3 222.6 113C222.9 113.5 223.2 114 223.7 114.3C223.9 114.5 224.2 114.6 224.3 114.6L224.9 114.8L225.2 114V113.8V113.6C225.4 113 225.4 112.5 225.4 112.1C225.4 111.9 225.4 111.8 225.4 111.6L225.9 112.7L226.7 111.2L226.9 111.5H227.5H227.8H228C228.2 111.5 228.3 111.5 228.5 111.5H228.8V111.8C228.8 112 228.8 112.3 229.1 112.6C229.3 112.9 229.6 113.2 229.9 113.6C230.5 114.1 230.9 114.4 231.2 114.4C231.4 114.6 231.5 114.6 232 114.9C232.5 115.2 232.8 115.5 233.1 115.9C233.4 116.2 233.7 116.4 234.1 116.7C234.4 117 234.7 117.2 235.1 117.2C235.4 117.4 235.7 117.4 235.9 117.4C236.1 117.4 236.2 117.4 236.4 117.4C236.6 117.4 236.7 117.4 236.9 117.4H237.1C237.1 117.4 237.3 117.6 237.6 117.9C237.8 118.1 238.1 118.5 238.2 119C238.4 119.3 238.7 119.6 238.8 120.1C239 120.3 239.1 120.4 239.1 120.6L239.3 120.8C239.5 120.8 239.5 121 239.8 121H240L240.2 120.8C240.7 120.6 240.8 120.3 241 120.2C241.2 120 241.3 119.9 241.5 119.9H241.7C241.9 119.9 241.9 119.9 242.2 120.1C242.5 120.3 242.8 120.6 243 120.9L243.2 121.2C243.4 121.7 243.4 121.8 243.5 122C243.5 122 243.5 122.2 243.7 122.5L243.9 122.8L244.1 123L244.3 123.2C245.9 124.5 247.1 125.1 247.7 125.6C248 125.8 248.3 125.9 248.5 126.1C248.7 126.3 248.8 126.3 249.1 126.3H249.3H249.5L249.7 126.1C249.9 125.9 250 125.9 250.2 125.8C250.4 125.6 250.5 125.6 250.5 125.6V125.8V126V126.3C250.5 126.6 250.3 126.8 250.3 127.1V127.4C250.3 127.4 250.5 127.7 250.6 128C250.9 128.2 251.1 128.3 251.4 128.3C251.7 128.3 252 128.3 252.2 128.3H252.5C252.7 128.3 252.8 128.3 253 128.3C253.3 128.3 253.6 128.3 254 128.3C254.2 128.3 254.3 128.3 254.5 128.3H254.7C254.7 128.3 254.7 128.3 254.9 128.5C254.9 128.5 255.1 128.8 255.2 129.1C255.4 129.3 255.5 129.7 255.7 130.1C255.9 130.4 256.2 130.7 256.3 131.1L257.4 132.6L257.7 130.8C257.7 130.6 257.7 130.5 257.9 130.3C257.9 130.5 257.9 130.5 258.1 130.6C258.4 130.9 258.6 131.4 259.2 131.6H259.5H259.7H260H260.3L260.6 131.1C260.8 130.8 260.8 130.5 260.9 130.3C260.9 130.1 260.9 130.1 260.9 130.1C261.1 130.3 261.2 130.3 261.4 130.4C261.6 130.6 261.7 130.7 261.9 130.9C262.1 131.1 262.4 131.2 262.5 131.2C262.6 131.2 262.8 131.4 263 131.4C263.3 131.4 263.5 131.6 263.6 131.6C263.8 131.6 263.8 131.8 263.9 131.8C264.1 132 264.1 132.1 264.2 132.3L264.5 132.5H264.7L265 132.7C265.2 132.9 265.5 132.9 265.8 132.9H266.1C266.7 132.9 267.6 132.7 267.9 132.7L268.2 132.5C268.4 132.3 268.5 132.2 268.5 132.2L268.7 131.9L268.9 132.1H269.2H269.5L269.8 131.9C269.8 132.1 270 132.1 270 132.2V132.4V132.7V132.9V133.2C270 133.4 269.8 133.5 269.8 133.7C269.8 133.9 269.6 134 269.6 134.3V134.6C269.6 134.9 269.8 135.1 269.8 135.2C270 135.4 270 135.5 270 135.7V135.9C270 136.1 270 136.1 270 136.2C270 136.4 269.8 136.5 269.8 136.7C269.8 137 270 137.3 270.3 138C270.8 138.8 271.4 139.6 271.8 139.9V139.7H272.3ZM279.4 177.8L279.6 177.6C279.6 177.9 279.6 177.9 279.6 178.1L279.4 177.8ZM292.1 170.5C291.9 170.5 291.8 170.5 291.5 170.5C291.3 170.5 291.2 170.5 291 170.7L291.2 170.5L291.4 170.2V170C291.4 169.8 291.4 169.7 291.2 169.4C291.2 169.2 291 169.1 291 168.9V168.7L291.2 168.5C291.4 168.8 291.5 169 291.7 169.1L291.9 169.3V169.5L292.1 169.8C292.1 170 292.3 170.1 292.3 170.1C292.3 170.1 292.5 170.1 292.5 170.3L292.1 170.5ZM296 171.5C295.8 171.7 295.7 172 295.7 172.3L294.2 173.6C294.2 173.3 294 173.1 293.9 172.8C293.9 172.8 293.9 172.8 294.1 172.8C294.3 172.8 294.4 172.8 294.6 172.6L294.9 172.3C295.1 172.1 295.1 172 295.1 171.8C295.1 171.6 295.1 171.5 294.9 171.3C294.9 171.1 294.7 171.1 294.7 171H294.9C295.1 171 295.4 171 295.5 170.8C295.8 170.6 296.1 170.5 296.3 170.5C296.3 170.5 296.5 170.5 296.5 170.3C296.5 170.5 296.5 170.6 296.7 170.8C296.3 171.1 296.1 171.3 296 171.5Z" fill="#8468B6"/>
</svg>
