<svg width="375" height="74" viewBox="0 0 375 74" fill="none" xmlns="http://www.w3.org/2000/svg">
<path d="M0 0H375V5.5L0 74V0Z" fill="#ECDDFE"/>
<path d="M375 74H5.24534e-07L0 68L375 0V74Z" fill="#FFFCEC"/>
<path fill-rule="evenodd" clip-rule="evenodd" d="M154.291 40.0219L0 68V74L157.394 45.2494L160.188 49.9569L167.547 63.0661C168.443 64.6613 170.138 65.6401 171.967 65.6181L187 65.4369L202.033 65.6181C203.862 65.6401 205.557 64.6613 206.453 63.0661L213.812 49.9569L221.485 37.0289C222.137 35.9308 222.334 34.6454 222.076 33.4342L375 5.49999V0L219.295 28.2345L213.812 18.9969L206.453 5.88778C205.557 4.29253 203.862 3.31374 202.033 3.33579L187 3.51694L171.967 3.33579C170.138 3.31375 168.443 4.29253 167.547 5.88779L160.188 18.9969L152.515 31.9249C151.581 33.4982 151.581 35.4557 152.515 37.0289L154.291 40.0219Z" fill="url(#paint0_linear)"/>
<path d="M160.276 18.8426L152.534 32.1068C151.671 33.5855 151.671 35.4146 152.534 36.8933L160.276 50.1575L167.668 63.5478C168.513 65.079 170.132 66.0211 171.88 65.9996L186.944 65.815L202.007 65.9996C203.756 66.0211 205.374 65.079 206.219 63.5478L213.611 50.1575L221.353 36.8933C222.216 35.4146 222.216 33.5855 221.353 32.1068L213.611 18.8426L206.219 5.45227C205.374 3.92113 203.756 2.97903 202.007 3.00046L186.944 3.18507L171.88 3.00046C170.132 2.97903 168.513 3.92114 167.668 5.45227L160.276 18.8426Z" fill="url(#paint1_linear)"/>
<mask id="mask0" mask-type="alpha" maskUnits="userSpaceOnUse" x="151" y="3" width="71" height="63">
<path d="M160.276 18.8424L152.534 32.1067C151.671 33.5854 151.671 35.4145 152.534 36.8932L160.276 50.1574L167.668 63.5477C168.513 65.0788 170.132 66.0209 171.88 65.9995L186.944 65.8149L202.007 65.9995C203.756 66.0209 205.374 65.0788 206.219 63.5477L213.611 50.1574L221.353 36.8932C222.216 35.4145 222.216 33.5854 221.353 32.1067L213.611 18.8424L206.219 5.45214C205.374 3.92101 203.756 2.97891 202.007 3.00034L186.944 3.18495L171.88 3.00034C170.132 2.97891 168.513 3.92101 167.668 5.45215L160.276 18.8424Z" fill="url(#paint2_linear)"/>
</mask>
<g mask="url(#mask0)">
<path d="M166.838 51.518C159.353 31.955 155.499 21.8594 155.274 21.2312C155.05 20.5806 154.815 19.9861 154.569 19.4476C154.008 18.1913 153.504 17.5631 153.056 17.5631C152.765 17.5631 152.44 17.5968 152.081 17.6641C151.723 17.7314 151.431 17.608 151.207 17.2939C150.983 16.9798 150.871 16.5872 150.871 16.1161C150.871 15.645 151.084 15.1626 151.51 14.669C151.958 14.1755 152.507 13.7492 153.157 13.3903C154.569 12.5602 155.689 12.1451 156.518 12.1451C157.347 12.1451 158.008 12.1676 158.501 12.2124C158.994 12.2573 159.454 12.4256 159.88 12.7172C160.776 13.3005 161.527 14.5569 162.132 16.4863L171.98 45.8981C173.549 42.7348 174.714 40.3119 175.476 38.6293L177.56 33.7161C180.07 27.5241 181.325 23.1718 181.325 20.6591V20.2216C181.325 19.0999 181.067 18.2137 180.552 17.5631C180.059 16.9125 179.174 16.5199 177.896 16.3853C177.672 16.0263 177.56 15.6562 177.56 15.2748C177.56 14.871 177.773 14.4783 178.199 14.097C178.647 13.6931 179.207 13.3454 179.88 13.0537C181.269 12.448 182.782 12.1451 184.417 12.1451C186.076 12.1451 187.353 12.4031 188.249 12.9191C189.168 13.4127 189.627 14.3998 189.627 15.8805C189.627 19.0214 187.499 25.2694 183.241 34.6247L180.182 41.0522C178.076 45.3148 176.485 48.2089 175.409 49.7345C173.482 52.4491 171.79 53.8064 170.333 53.8064C169.28 53.8064 168.339 53.3913 167.51 52.5612C167.218 52.2696 166.994 51.9219 166.838 51.518Z" fill="black" fill-opacity="0.08"/>
<path d="M218.905 24.0916C218.905 20.6367 217.471 18.3483 214.602 17.2266C213.684 16.8676 212.686 16.6882 211.611 16.6882C210.557 16.6882 209.571 16.7779 208.653 16.9574C207.756 17.1369 206.961 17.4173 206.266 17.7987C204.698 18.6512 203.913 19.8739 203.913 21.4668C203.913 22.9923 204.563 24.316 205.863 25.4377C207.297 26.6267 209.964 28.0962 213.863 29.8461C217.762 31.5736 220.765 33.4693 222.871 35.5333C225 37.5749 226.065 39.9305 226.065 42.6002C226.065 45.6065 224.832 48.1416 222.367 50.2056C219.476 52.6061 215.476 53.8064 210.367 53.8064C204.115 53.8064 199.79 52.4715 197.392 49.8018C196.563 48.8595 196.149 47.6593 196.149 46.201C196.149 42.6788 197.011 40.626 198.737 40.0427C199.163 39.9081 199.566 39.8408 199.947 39.8408C201 39.8408 201.571 40.1661 201.661 40.8167C202.154 46.4254 205.291 49.2297 211.073 49.2297C214.546 49.2297 216.866 48.2538 218.031 46.302C218.412 45.6738 218.602 44.911 218.602 44.0136C218.602 43.1162 218.311 42.2974 217.728 41.557C217.168 40.8167 216.384 40.1324 215.375 39.5043C214.367 38.8536 213.168 38.2255 211.779 37.6197L207.308 35.6006C200.451 32.4598 197.022 28.2869 197.022 23.0821C197.022 19.7169 198.513 17.0247 201.493 15.0056C204.317 13.0986 207.958 12.1451 212.417 12.1451C218.468 12.1451 222.233 13.4576 223.712 16.0824C224.093 16.7555 224.283 17.4958 224.283 18.3035C224.283 19.1111 224.238 19.8402 224.149 20.4908C224.059 21.119 223.947 21.6911 223.812 22.2071C223.588 23.1942 223.331 23.8897 223.039 24.2935C222.457 24.7198 221.616 24.9329 220.518 24.9329C219.443 24.9329 218.905 24.6525 218.905 24.0916Z" fill="black" fill-opacity="0.08"/>
</g>
<path d="M180.418 34.2754L182.425 31.873C183.822 33.4551 185.624 34.2461 187.831 34.2461C189.061 34.2461 190.052 33.9092 190.804 33.2354C191.556 32.5615 191.932 31.7266 191.932 30.7305C191.932 29.6465 191.566 28.7822 190.833 28.1377C190.111 27.4834 189.139 27.1562 187.918 27.1562C186.219 27.1562 184.759 27.7373 183.539 28.8994L181.048 28.1816V16.9902H194.159V20.0811H184.549V25.8672C185.057 25.3594 185.711 24.9443 186.512 24.6221C187.313 24.29 188.172 24.124 189.09 24.124C190.223 24.124 191.268 24.373 192.225 24.8711C193.182 25.3691 193.963 26.1162 194.569 27.1123C195.174 28.1084 195.477 29.2656 195.477 30.584C195.477 32.6445 194.769 34.29 193.353 35.5205C191.947 36.751 190.116 37.3662 187.86 37.3662C184.647 37.3662 182.166 36.3359 180.418 34.2754ZM178.616 54V44.6621H182.717C183.661 44.6621 184.406 44.9447 184.953 45.5098C185.499 46.0703 185.773 46.763 185.773 47.5879C185.773 48.4128 185.497 49.1077 184.946 49.6729C184.399 50.2334 183.656 50.5137 182.717 50.5137H180.256V54H178.616ZM180.256 49.0713H182.499C182.963 49.0713 183.344 48.9346 183.64 48.6611C183.941 48.3877 184.091 48.0299 184.091 47.5879C184.091 47.1458 183.941 46.7881 183.64 46.5146C183.344 46.2412 182.963 46.1045 182.499 46.1045H180.256V49.0713ZM187.133 54V44.6621H189.444L191.98 50.8076L194.53 44.6621H196.84V54H195.2V47.0684L192.329 54H191.631L188.774 47.0684V54H187.133Z" fill="white"/>
<defs>
<linearGradient id="paint0_linear" x1="-1.397e-06" y1="37" x2="375" y2="37" gradientUnits="userSpaceOnUse">
<stop stop-color="#6448A0"/>
<stop offset="1" stop-color="#A168D0"/>
</linearGradient>
<linearGradient id="paint1_linear" x1="186.944" y1="66" x2="186.944" y2="3.0001" gradientUnits="userSpaceOnUse">
<stop stop-color="#6448A0"/>
<stop offset="1" stop-color="#A168D0"/>
</linearGradient>
<linearGradient id="paint2_linear" x1="186.944" y1="65.9999" x2="186.944" y2="2.99998" gradientUnits="userSpaceOnUse">
<stop stop-color="#6448A0"/>
<stop offset="1" stop-color="#A168D0"/>
</linearGradient>
</defs>
</svg>
