<svg width="78" height="214" viewBox="0 0 78 214" fill="none" xmlns="http://www.w3.org/2000/svg">
<g clip-path="url(#clip0)">
<path d="M65.5 1.14441e-05L78 0V214H7.5L65.5 1.14441e-05Z" fill="#ECDDFE"/>
<path d="M0.5 0H66.5L7 214H0.5V0Z" fill="#FFFCEC"/>
<path d="M6 214L64 1.35976e-05L67.9999 0L10 214H6Z" fill="url(#paint0_linear)"/>
<path d="M10.6289 90.5076L2.47179 104.479C1.56241 106.037 1.56241 107.964 2.47179 109.521L10.6289 123.493L18.4176 137.598C19.3082 139.21 21.0136 140.203 22.8558 140.18L38.728 139.986L54.6002 140.18C56.4424 140.203 58.1478 139.21 59.0384 137.598L66.8271 123.493L74.9842 109.521C75.8936 107.964 75.8936 106.037 74.9842 104.479L66.8271 90.5076L59.0384 76.403C58.1478 74.7902 56.4424 73.7978 54.6002 73.8204L38.728 74.0148L22.8558 73.8204C21.0136 73.7978 19.3082 74.7902 18.4176 76.403L10.6289 90.5076Z" fill="url(#paint1_linear)"/>
<mask id="mask0" mask-type="alpha" maskUnits="userSpaceOnUse" x="1" y="73" width="75" height="68">
<path d="M10.6289 90.5076L2.47179 104.479C1.56241 106.037 1.56241 107.964 2.47179 109.521L10.6289 123.493L18.4176 137.598C19.3082 139.21 21.0136 140.203 22.8558 140.18L38.728 139.986L54.6002 140.18C56.4424 140.203 58.1478 139.21 59.0384 137.598L66.8271 123.493L74.9842 109.521C75.8936 107.964 75.8936 106.037 74.9842 104.479L66.8271 90.5076L59.0384 76.403C58.1478 74.7902 56.4424 73.7978 54.6002 73.8204L38.728 74.0148L22.8558 73.8204C21.0136 73.7978 19.3082 74.7902 18.4176 76.403L10.6289 90.5076Z" fill="url(#paint2_linear)"/>
</mask>
<g mask="url(#mask0)">
<path d="M18.0312 125.277C10.2031 104.84 6.17188 94.293 5.9375 93.6367C5.70312 92.957 5.45703 92.3359 5.19922 91.7734C4.61328 90.4609 4.08594 89.8047 3.61719 89.8047C3.3125 89.8047 2.97266 89.8398 2.59766 89.9102C2.22266 89.9805 1.91797 89.8516 1.68359 89.5234C1.44922 89.1953 1.33203 88.7852 1.33203 88.293C1.33203 87.8008 1.55469 87.2969 2 86.7812C2.46875 86.2656 3.04297 85.8203 3.72266 85.4453C5.19922 84.5781 6.37109 84.1445 7.23828 84.1445C8.10547 84.1445 8.79688 84.168 9.3125 84.2148C9.82812 84.2617 10.3086 84.4375 10.7539 84.7422C11.6914 85.3516 12.4766 86.6641 13.1094 88.6797L23.4102 119.406C25.0508 116.102 26.2695 113.57 27.0664 111.812L29.2461 106.68C31.8711 100.211 33.1836 95.6641 33.1836 93.0391V92.582C33.1836 91.4102 32.9141 90.4844 32.375 89.8047C31.8594 89.125 30.9336 88.7148 29.5977 88.5742C29.3633 88.1992 29.2461 87.8125 29.2461 87.4141C29.2461 86.9922 29.4688 86.582 29.9141 86.1836C30.3828 85.7617 30.9688 85.3984 31.6719 85.0938C33.125 84.4609 34.707 84.1445 36.418 84.1445C38.1523 84.1445 39.4883 84.4141 40.4258 84.9531C41.3867 85.4688 41.8672 86.5 41.8672 88.0469C41.8672 91.3281 39.6406 97.8555 35.1875 107.629L31.9883 114.344C29.7852 118.797 28.1211 121.82 26.9961 123.414C24.9805 126.25 23.2109 127.668 21.6875 127.668C20.5859 127.668 19.6016 127.234 18.7344 126.367C18.4297 126.062 18.1953 125.699 18.0312 125.277ZM72.4883 96.625C72.4883 93.0156 70.9883 90.625 67.9883 89.4531C67.0273 89.0781 65.9844 88.8906 64.8594 88.8906C63.7578 88.8906 62.7266 88.9844 61.7656 89.1719C60.8281 89.3594 59.9961 89.6523 59.2695 90.0508C57.6289 90.9414 56.8086 92.2188 56.8086 93.8828C56.8086 95.4766 57.4883 96.8594 58.8477 98.0312C60.3477 99.2734 63.1367 100.809 67.2148 102.637C71.293 104.441 74.4336 106.422 76.6367 108.578C78.8633 110.711 79.9766 113.172 79.9766 115.961C79.9766 119.102 78.6875 121.75 76.1094 123.906C73.0859 126.414 68.9023 127.668 63.5586 127.668C57.0195 127.668 52.4961 126.273 49.9883 123.484C49.1211 122.5 48.6875 121.246 48.6875 119.723C48.6875 116.043 49.5898 113.898 51.3945 113.289C51.8398 113.148 52.2617 113.078 52.6602 113.078C53.7617 113.078 54.3594 113.418 54.4531 114.098C54.9688 119.957 58.25 122.887 64.2969 122.887C67.9297 122.887 70.3555 121.867 71.5742 119.828C71.9727 119.172 72.1719 118.375 72.1719 117.438C72.1719 116.5 71.8672 115.645 71.2578 114.871C70.6719 114.098 69.8516 113.383 68.7969 112.727C67.7422 112.047 66.4883 111.391 65.0352 110.758L60.3594 108.648C53.1875 105.367 49.6016 101.008 49.6016 95.5703C49.6016 92.0547 51.1602 89.2422 54.2773 87.1328C57.2305 85.1406 61.0391 84.1445 65.7031 84.1445C72.0312 84.1445 75.9688 85.5156 77.5156 88.2578C77.9141 88.9609 78.1133 89.7344 78.1133 90.5781C78.1133 91.4219 78.0664 92.1836 77.9727 92.8633C77.8789 93.5195 77.7617 94.1172 77.6211 94.6562C77.3867 95.6875 77.1172 96.4141 76.8125 96.8359C76.2031 97.2812 75.3242 97.5039 74.1758 97.5039C73.0508 97.5039 72.4883 97.2109 72.4883 96.625Z" fill="black" fill-opacity="0.08"/>
</g>
<path d="M31.5503 89.3804V86.2896H45.979V88.7212L38.2153 106.299H34.3774L41.936 89.3804H31.5503ZM29.6157 123.299V113.961H33.7173C34.6606 113.961 35.4057 114.244 35.9526 114.809C36.4995 115.37 36.7729 116.062 36.7729 116.887C36.7729 117.712 36.4972 118.407 35.9458 118.972C35.3989 119.533 34.6561 119.813 33.7173 119.813H31.2563V123.299H29.6157ZM31.2563 118.371H33.4985C33.9634 118.371 34.3439 118.234 34.6401 117.96C34.9409 117.687 35.0913 117.329 35.0913 116.887C35.0913 116.445 34.9409 116.087 34.6401 115.814C34.3439 115.541 33.9634 115.404 33.4985 115.404H31.2563V118.371ZM38.1333 123.299V113.961H40.4438L42.98 120.107L45.5298 113.961H47.8403V123.299H46.1997V116.368L43.3286 123.299H42.6313L39.7739 116.368V123.299H38.1333Z" fill="white"/>
</g>
<defs>
<linearGradient id="paint0_linear" x1="6" y1="107" x2="67.9999" y2="107" gradientUnits="userSpaceOnUse">
<stop stop-color="#6448A0"/>
<stop offset="1" stop-color="#A168D0"/>
</linearGradient>
<linearGradient id="paint1_linear" x1="38.728" y1="140.217" x2="38.728" y2="73.7837" gradientUnits="userSpaceOnUse">
<stop stop-color="#6448A0"/>
<stop offset="1" stop-color="#A168D0"/>
</linearGradient>
<linearGradient id="paint2_linear" x1="38.728" y1="140.217" x2="38.728" y2="73.7837" gradientUnits="userSpaceOnUse">
<stop stop-color="#6448A0"/>
<stop offset="1" stop-color="#A168D0"/>
</linearGradient>
<clipPath id="clip0">
<rect width="78" height="214" fill="white"/>
</clipPath>
</defs>
</svg>
