<svg width="512" height="512" viewBox="0 0 512 512" fill="none" xmlns="http://www.w3.org/2000/svg">
<path d="M225.474 0C101.151 0 0 101.151 0 225.474C0 349.804 101.151 450.948 225.474 450.948C349.804 450.948 450.948 349.804 450.948 225.474C450.948 101.151 349.804 0 225.474 0ZM225.474 409.323C124.101 409.323 41.626 326.848 41.626 225.475C41.626 124.102 124.101 41.626 225.474 41.626C326.847 41.626 409.322 124.101 409.322 225.474C409.322 326.847 326.847 409.323 225.474 409.323Z" fill="#FFFCFC"/>
<path d="M505.903 476.473L386.575 357.145C378.444 349.014 365.276 349.014 357.145 357.145C349.014 365.269 349.014 378.451 357.145 386.575L476.473 505.903C480.538 509.968 485.86 512.001 491.188 512.001C496.509 512.001 501.837 509.968 505.903 505.903C514.034 497.779 514.034 484.597 505.903 476.473Z" fill="white"/>
</svg>
