<?xml version="1.0" encoding="utf-8"?>
<!-- Generator: Adobe Illustrator 19.0.0, SVG Export Plug-In . SVG Version: 6.00 Build 0)  -->
<svg version="1.1" id="Layer_1" xmlns="http://www.w3.org/2000/svg" xmlns:xlink="http://www.w3.org/1999/xlink" x="0px" y="0px"
	 viewBox="0 0 500 300" style="enable-background:new 0 0 500 300;" xml:space="preserve">
<style type="text/css">
	.st0{fill:url(#XMLID_77_);}
	.st1{fill:url(#XMLID_78_);}
	.st2{fill:url(#XMLID_79_);}
	.st3{fill:#242058;}
	.st4{fill:#2A2866;}
	.st5{fill:url(#XMLID_83_);}
	.st6{fill:url(#XMLID_84_);}
	.st7{fill:url(#XMLID_85_);}
	.st8{fill:#F1F6FC;}
	.st9{fill:#FCD2C7;}
	.st10{fill:url(#XMLID_86_);}
	.st11{fill:url(#XMLID_87_);}
	.st12{fill:#48439B;}
	.st13{fill:#AA8583;}
	.st14{fill:#C4CBD4;}
	.st15{fill:#E2B1A6;}
	.st16{fill:#936F6E;}
	.st17{fill:url(#XMLID_89_);}
	.st18{fill:url(#XMLID_90_);}
	.st19{fill:url(#XMLID_91_);}
	.st20{fill:#4C4B9F;}
	.st21{fill:url(#XMLID_92_);}
	.st22{fill:url(#XMLID_93_);}
	.st23{fill:#73251A;}
	.st24{fill:url(#XMLID_95_);}
</style>
<radialGradient id="XMLID_77_" cx="319.9145" cy="20.9123" r="187.7981" gradientTransform="matrix(0.9733 -3.550000e-002 -3.570000e-002 -0.9782 22.5188 314.807)" gradientUnits="userSpaceOnUse">
	<stop  offset="0" style="stop-color:#6FCACE"/>
	<stop  offset="1" style="stop-color:#242058"/>
</radialGradient>
<path id="XMLID_73_" class="st0" d="M88.7,154.8c1.8-24.8,25-36.6,36.4-41.9c27.9-13.1,84-20.1,169.5,15.7
	c62.5,26.2,78.1,61.1,79.5,87.1c1.1,20.4,0.1,42.7-31.4,63.4c-28.5,18.8-82.9,22.5-122.6-24.5C169.4,194.4,84.9,207.3,88.7,154.8z"
	/>
<radialGradient id="XMLID_78_" cx="278.1776" cy="187.8158" r="166.874" gradientTransform="matrix(1 0 0 -1 0 302)" gradientUnits="userSpaceOnUse">
	<stop  offset="0" style="stop-color:#2F307A"/>
	<stop  offset="1" style="stop-color:#242058"/>
</radialGradient>
<path id="XMLID_72_" class="st1" d="M102.6,142.6c1.5-10.5,13.8-19.8,24.9-24.5c27.1-11.5,92.5-30.4,173,6.7
	c58.9,27.1,72.6,60.9,73,85.7c0.4,19.4-10.7,37.4-28.2,45.9c-29.4,14.4-88.2,32-124.6-14.1C174.4,183.3,94.6,199.9,102.6,142.6z"/>
<linearGradient id="XMLID_79_" gradientUnits="userSpaceOnUse" x1="117.1992" y1="114.829" x2="362.0907" y2="114.829" gradientTransform="matrix(1 0 0 -1 0 302)">
	<stop  offset="0" style="stop-color:#242058"/>
	<stop  offset="8.551023e-002" style="stop-color:#25255C"/>
	<stop  offset="0.233" style="stop-color:#2A3566"/>
	<stop  offset="0.4245" style="stop-color:#374F77"/>
	<stop  offset="0.6529" style="stop-color:#477492"/>
	<stop  offset="0.9096" style="stop-color:#63ADBA"/>
	<stop  offset="1" style="stop-color:#6FCACE"/>
</linearGradient>
<path id="XMLID_157_" class="st2" d="M283,263.7c-19.3,0-39.3-6.7-55.3-27c-19.1-24.2-46.3-35.9-68.1-45.3
	c-26.1-11.2-46.8-20.1-41.7-44.4l0.4,0.1L118,147c1.9-9,14.1-18.7,24.6-23.1c27.1-11.4,83-25.7,153.7,6.8
	c53.7,24.7,65.4,55.7,65.8,77.3c0.3,17.5-9.7,33.9-25.6,41.7C322.9,256.3,303.3,263.7,283,263.7z M209.6,111.6
	c-29.2,0-52.1,7-66.7,13.2c-10.4,4.4-22.3,14-24,22.4c-4.9,23.4,15.4,32.2,41.2,43.3c21.9,9.4,49.2,21.2,68.4,45.6
	c32.4,41.1,81.3,25.6,107.6,12.7c15.6-7.6,25.4-23.6,25.1-40.8c-0.4-21.4-12-52-65.3-76.4C263.5,116.7,234.3,111.6,209.6,111.6z"/>
<g id="XMLID_127_">
	<g id="XMLID_128_">
		<path id="XMLID_69_" class="st3" d="M273.2,145.8c0,0-0.7,0.7-1.4,1.6c-0.7,0.9-2.7,2-3.6,2.5c-0.8,0.5-4.7,3.4-5.5,6.4
			c-0.8,2.9,2,3.2,4.8,2.8c2.9-0.5,5.5-3.1,6.2-4.1s3.4-3.1,6.9-4.9c3.5-1.8,1.4-4.2,1.4-4.2L273.2,145.8z"/>
		<path id="XMLID_68_" class="st3" d="M299,154.4c0,0,0.6,1.3,0.8,3c0.2,1.7,0.4,5.3,0.5,6.4c0.1,1.1,0.1,3.6-1.7,6.2
			c-1.8,2.5-2.8,3.4-5.3,2.5c-2.5-1-2.4-5.1-2-7.2c0.4-2.2,0.8-6.9,0.8-7.4c-0.1-0.5,0.1-0.8,0.1-0.8L299,154.4z"/>
		<path id="XMLID_67_" class="st4" d="M264.7,96.7c0,0,0.5,19.1,5,29.2c0,0,3.2,8.9,3.6,19.5c0,0-0.8,1.8,0.3,3.3
			c1,1.5,7.6,2.9,8.6-2c1.1-4.9,0.6-14-0.5-17.8c-1.2-3.8,0.4-14.3,0.4-14.3s1.8,1.1,4.1,8.7c2.4,7.6,4.1,10.4,4.9,12.5
			c0.8,2.1,1.5,14.9,1,21.1c0,0,5.3,0.8,6.8-1.8c1.5-2.5,2-15.6,1.7-19.8c-0.4-4.2-2.2-17.5-1.9-21.7c0.3-4.1,1.1-7.5,0.1-11.6
			c-1-4.1-28.8-13.3-28.8-13.3L264.7,96.7z"/>
		
			<linearGradient id="XMLID_83_" gradientUnits="userSpaceOnUse" x1="249.0204" y1="187.1859" x2="300.7164" y2="174.2179" gradientTransform="matrix(1 0 0 -1 0 302)">
			<stop  offset="0" style="stop-color:#6FCACE"/>
			<stop  offset="1.970726e-002" style="stop-color:#6EC1CA"/>
			<stop  offset="0.1321" style="stop-color:#5D9DBC"/>
			<stop  offset="0.2482" style="stop-color:#5380B0"/>
			<stop  offset="0.3656" style="stop-color:#4B6AA5"/>
			<stop  offset="0.4847" style="stop-color:#44579D"/>
			<stop  offset="0.6058" style="stop-color:#3E4A97"/>
			<stop  offset="0.7298" style="stop-color:#3D3E93"/>
			<stop  offset="0.8587" style="stop-color:#3B3890"/>
			<stop  offset="1" style="stop-color:#3A358F"/>
		</linearGradient>
		<path id="XMLID_66_" class="st5" d="M264.7,96.7c0,0,0.5,19.1,5,29.2c0,0,3.2,8.9,3.6,19.5c0,0-0.8,1.8,0.3,3.3
			c1,1.5,7.6,2.9,8.6-2c1.1-4.9,0.6-14-0.5-17.8c-1.2-3.8,0.4-14.3,0.4-14.3s1.8,1.1,4.1,8.7c2.4,7.6,4.1,10.4,4.9,12.5
			c0.8,2.1,1.5,14.9,1,21.1c0,0,5.3,0.8,6.8-1.8c1.5-2.5,2-15.6,1.7-19.8c-0.4-4.2-2.2-17.5-1.9-21.7c0.3-4.1,1.1-7.5,0.1-11.6
			c-1-4.1-28.8-13.3-28.8-13.3L264.7,96.7z"/>
		<path id="XMLID_65_" class="st3" d="M298.7,113.7c0.3-4.1,1.1-7.5,0.1-11.6c-0.4-1.5-4.5-3.8-9.6-6c-8.5-0.8-19.4-1.7-20.1-1.6
			c-0.7,0.1-2.4,0.8-3.9,1.3l-0.6,0.9c0,0,0.1,1.1,0.1,3.1c2,0.6,5.8,0,5.8,0c0.5,1.3,3.9,6.1,8,8.1c4.1,2,16.3,1.3,16.9,2.2
			c0.7,0.8,0.8,11.2,0.8,12.5c-0.1,1.3,1.1,9.7,2.3,17.1c1.1,7.2-0.6,16.1-0.6,16.4c0.4-0.3,0.8-0.6,1-1c1.5-2.5,2-15.6,1.7-19.8
			C300.2,131.2,298.4,117.8,298.7,113.7z"/>
		
			<linearGradient id="XMLID_84_" gradientUnits="userSpaceOnUse" x1="-834.8121" y1="225.6488" x2="-881.1453" y2="233.1982" gradientTransform="matrix(-1 0 0 -1 -587.2617 302)">
			<stop  offset="0" style="stop-color:#6FCACE"/>
			<stop  offset="1.970726e-002" style="stop-color:#6EC1CA"/>
			<stop  offset="0.1321" style="stop-color:#5D9DBC"/>
			<stop  offset="0.2482" style="stop-color:#5380B0"/>
			<stop  offset="0.3656" style="stop-color:#4B6AA5"/>
			<stop  offset="0.4847" style="stop-color:#44579D"/>
			<stop  offset="0.6058" style="stop-color:#3E4A97"/>
			<stop  offset="0.7298" style="stop-color:#3D3E93"/>
			<stop  offset="0.8587" style="stop-color:#3B3890"/>
			<stop  offset="1" style="stop-color:#3A358F"/>
		</linearGradient>
		<path id="XMLID_64_" class="st6" d="M274,34.3c0,0-6.2,1.4-8.3,1.9c-0.3,0.1-0.6,0.3-0.8,0.6c-0.6,1.5-2.1,6.2-1,13.2
			c1.4,8.5,1,14.2,1,14.2l-2.9,14.9c0,0-3.6,14.2-3.3,14.6c0.3,0.4,8.3,6.5,10.8,5.6c2.5-0.8,1.7-2.3,1.7-2.3s2,10.3,10.9,10.2
			c9-0.1,16.2-0.1,17.7-3.7s-0.4-18.8-2-24.8c-1.6-6-5.3-18-5.3-18l13.1-14.5l-11.2-8.5c0,0-2.7-5-3.7-5.6c-1.1-0.6-1.7-0.1-1.7-0.1
			L274,34.3z"/>
		<g id="XMLID_149_">
			
				<linearGradient id="XMLID_85_" gradientUnits="userSpaceOnUse" x1="1131.0256" y1="222.9276" x2="1142.9247" y2="222.9276" gradientTransform="matrix(0.9983 5.790000e-002 5.790000e-002 -0.9983 -883.1046 253.4571)">
				<stop  offset="0" style="stop-color:#5A65AE"/>
				<stop  offset="0.1833" style="stop-color:#6080B7"/>
				<stop  offset="0.3665" style="stop-color:#6599BF"/>
				<stop  offset="0.5432" style="stop-color:#68ADC5"/>
				<stop  offset="0.7114" style="stop-color:#6EBDCA"/>
				<stop  offset="0.8676" style="stop-color:#70C5CC"/>
				<stop  offset="1" style="stop-color:#6FCACE"/>
			</linearGradient>
			<path id="XMLID_63_" class="st7" d="M269.7,96c0,0.5-0.3,1.3-1.9,1.8c-1.7,0.6-6-2-8.8-3.9c1.4,1.1,8.3,6.2,10.5,5.4
				c0.5-0.2,0.8-0.4,1.1-0.6C270.2,97.6,269.9,96.6,269.7,96z"/>
		</g>
		<path id="XMLID_62_" class="st8" d="M290.5,32c0,0,2.3,2.8-1,6.5c-2,2.3-5.5,7.2-8.5,12.4c-1.8,3.2-3.6,5-4.5,7.7
			c0,0-0.1-3.3-0.3-8.3c-0.1-4.8-0.2-9.7,0-11C276.7,36.7,288,30.8,290.5,32z"/>
		<path id="XMLID_61_" class="st9" d="M282,40.3c0,0-1.1,0.7-1.6,0.6c-0.4-0.1-1.7-1.3-1.7-1.3s-3.2-0.1-3.6-1.5s-0.6-2.8-0.9-3.5
			s-1.7-4.2-1.7-5.6c0-1.4,0.1-3.9-0.6-5.3c-0.6-1.3-1.4-14.6,11.4-14.3c12.8,0.4,8.8,13.7,8.8,13.7s1,0.4,0.4,2.1
			c-0.6,1.7-0.7,1.9-1,2.7s-0.4,1.4-1.3,2.1l-0.2,1.6c0,0,0.6,2.4-1,4.8C287.5,39,282,40.3,282,40.3z"/>
		<path id="XMLID_60_" class="st4" d="M265.4,36.4c0,0-1.4,0.2-5.8,11.4c-2.5,6.2-6.3,12.7-7.1,17.3c-0.8,4.6-0.4,9.6,0.6,10
			c0.9,0.3,16.8,6.3,21.9,8.2c0.3,0.1,0.6-0.1,0.6-0.4l1.4-7.7l-9.9-3.8c0,0-1.9-2.3-3.7-3.2c0,0,2-3.7,1.8-4.6
			c-0.1-1,0.2-11.4-1-15.6C263,43.8,265.4,36.4,265.4,36.4z"/>
		
			<linearGradient id="XMLID_86_" gradientUnits="userSpaceOnUse" x1="-832.1987" y1="229.7987" x2="-854.5485" y2="240.6576" gradientTransform="matrix(-1 0 0 -1 -587.2617 302)">
			<stop  offset="0" style="stop-color:#6FCACE"/>
			<stop  offset="1.970726e-002" style="stop-color:#6EC1CA"/>
			<stop  offset="0.1321" style="stop-color:#5D9DBC"/>
			<stop  offset="0.2482" style="stop-color:#5380B0"/>
			<stop  offset="0.3656" style="stop-color:#4B6AA5"/>
			<stop  offset="0.4847" style="stop-color:#44579D"/>
			<stop  offset="0.6058" style="stop-color:#3E4A97"/>
			<stop  offset="0.7298" style="stop-color:#3D3E93"/>
			<stop  offset="0.8587" style="stop-color:#3B3890"/>
			<stop  offset="1" style="stop-color:#3A358F"/>
		</linearGradient>
		<path id="XMLID_59_" class="st10" d="M265.4,36.4c0,0-1.4,0.2-5.8,11.4c-2.5,6.2-6.3,12.7-7.1,17.3c-0.8,4.6-0.4,9.6,0.6,10
			c0.9,0.3,16.8,6.3,21.9,8.2c0.3,0.1,0.6-0.1,0.6-0.4l1.4-7.7l-9.9-3.8c0,0-1.9-2.3-3.7-3.2c0,0,2-3.7,1.8-4.6
			c-0.1-1,0.2-11.4-1-15.6C263,43.8,265.4,36.4,265.4,36.4z"/>
		<path id="XMLID_58_" class="st9" d="M271.2,66c0,0-1.3-0.9-1.7-1c-0.3-0.1-2.2-0.8-2.5-0.9c-0.3-0.1-1.3,0-1.8,0
			c-0.2,0-0.4,0.1-0.4,0.3c-0.4,0.8-1.6,3.1-1.5,3.9c0,0,3.3,2.1,3.7,3l0.5,0.1C267.3,71.4,269.6,66.7,271.2,66z"/>
		<path id="XMLID_57_" class="st4" d="M298,78.8c-0.4-1.5-0.9-3.2-1.5-5.1l-20.1,8.6c0,0,6,7.4,16.5,6.9c2.9-0.1,5-1.1,6.5-2
			C299,83.8,298.5,80.7,298,78.8z"/>
		<path id="XMLID_56_" class="st4" d="M305.7,46.3c0,0-5.3,0.7-9.6,7.5c-4.3,6.8-7.4,14.6-7.4,14.6l-0.1,0.9c-0.4,2.3-2.9,3.6-5,2.7
			c-4.5-2-11.2-5.1-12.5-6c0,0-4,2.2-5.1,7.4c-0.9,4.2-0.6,4.2-0.6,4.2s17.9,8.3,24.7,8.3s15.6-22.7,16.6-27.4
			C307.7,53.8,308.8,47.6,305.7,46.3z"/>
		
			<linearGradient id="XMLID_87_" gradientUnits="userSpaceOnUse" x1="-845.001" y1="219.9399" x2="-884.347" y2="235.5247" gradientTransform="matrix(-1 0 0 -1 -587.2617 302)">
			<stop  offset="0" style="stop-color:#6FCACE"/>
			<stop  offset="1.970726e-002" style="stop-color:#6EC1CA"/>
			<stop  offset="0.1321" style="stop-color:#5D9DBC"/>
			<stop  offset="0.2482" style="stop-color:#5380B0"/>
			<stop  offset="0.3656" style="stop-color:#4B6AA5"/>
			<stop  offset="0.4847" style="stop-color:#44579D"/>
			<stop  offset="0.6058" style="stop-color:#3E4A97"/>
			<stop  offset="0.7298" style="stop-color:#3D3E93"/>
			<stop  offset="0.8587" style="stop-color:#3B3890"/>
			<stop  offset="1" style="stop-color:#3A358F"/>
		</linearGradient>
		<path id="XMLID_55_" class="st11" d="M305.7,46.3c0,0-5.3,0.7-9.6,7.5c-4.3,6.8-7.4,14.6-7.4,14.6l-0.1,0.9
			c-0.4,2.3-2.9,3.6-5,2.7c-4.5-2-11.2-5.1-12.5-6c0,0-4,2.2-5.1,7.4c-0.9,4.2-0.6,4.2-0.6,4.2s17.9,8.3,24.7,8.3
			s15.6-22.7,16.6-27.4C307.7,53.8,308.8,47.6,305.7,46.3z"/>
		<path id="XMLID_54_" class="st12" d="M286.2,73c0,0,2.2,2.1,3.2,1c1-1.1,0.7-1.3,0.7-1.3s2,0,2.3-1.3c0.3-1.3,1.3-0.6,1.3-2
			c0.1-1.4-1.7-1.1-1.7-1.1L286.2,73z"/>
		<path id="XMLID_53_" class="st9" d="M283.5,71.9c0,0,0.6-0.6,1.4-1.3c0.8-0.7,2.1-3.5,2.3-3.7c0.2-0.3,2.9-2.3,4.2-2.4
			c1.3-0.1,0.3,1.4,0.1,1.7c-0.3,0.2-1.6,0.8-1.6,0.8s-1.3,1.1-1.5,1.3s3.6-0.3,4.2,0.1c0.6,0.4,0.4,1.3,0.1,1.6
			c-0.4,0.3-0.8,0.3-0.8,0.3s0.4,1.1-0.7,1.7c-1.1,0.5-1.4,0.3-1.4,0.3s-0.1,2-2,1.6L283.5,71.9z"/>
		<path id="XMLID_52_" class="st13" d="M271.6,17.1c0,0-1.7,5.3,2.7,3.8c4.4-1.5,8.4-4.1,9.8-3.1c1.1,0.8,1,3,1,4
			c0,0.4,0.1,0.7,0.3,1l1.3,1.9c0.1,0.2,0.3,0.4,0.3,0.7l0.1,1.3c0,0.3,0.3,0.6,0.6,0.6h0.3c0.3,0,0.6-0.2,0.7-0.6l0.3-2
			c0,0,1-2.6,3.2-1.6c0,0,1.5-2,1-6.2c-0.5-4.2-2.4-8.6-10.7-9.3C274.2,7.1,271.6,17.1,271.6,17.1z"/>
		<path id="XMLID_51_" class="st14" d="M284.2,45l-1.3-1c0,0-1.1,1-1.6,2c-0.4,1,0,4.2,0,4.2l-0.4,0.6l-0.4-0.8l-0.4-3.8
			c0,0,0.4-2.8,0.4-2.9c0.1-0.1,2.4,0.3,2.4,0.3S283.9,44.3,284.2,45z"/>
		<path id="XMLID_50_" class="st14" d="M278.3,41.3c0,0-1.3,0.1-1.9,0.6c0,0,1.4,0.1,1.6,0.1C278.2,42,278.3,41.3,278.3,41.3z"/>
		<path id="XMLID_49_" class="st4" d="M280.8,41.5l2.2,2.1c0,0-2,0.9-2.5,2.7c0,0-2.4,0.4-2.7-0.4c-0.2-0.9,0-3.1-0.3-4.1
			C277.3,40.8,280.8,41.5,280.8,41.5z"/>
		<path id="XMLID_48_" class="st4" d="M278,45.8c0,0-0.4,1.8-0.9,2.5c-0.4,0.8-0.9,1.6-0.9,1.6l0.1,10.7c0,0,3.9-8.1,4.8-9.7
			c0,0-0.1-3.9-0.5-4.6C280.2,45.5,278,45.8,278,45.8z"/>
		<path id="XMLID_47_" class="st15" d="M288.5,30c-2.6,7.4-9.8,9.7-9.8,9.7s1.3,1.3,1.7,1.3c0.4,0.1,1.6-0.6,1.6-0.6
			s5.5-1.3,7.1-3.7c1.6-2.4,1-4.8,1-4.8l0.2-1.6C289.1,30.7,288.5,30,288.5,30z"/>
		<path id="XMLID_46_" class="st4" d="M294.4,38.7c0,0-1,3.5-1.1,3.6c-0.1,0.1-2.5-0.1-2.5-0.1l1.2,2.2c0,0-12.2,13.1-14.7,20.1
			c0,0,5.8-8.9,15.9-19.6l-1.5-2.2l2.5,0.5L294.4,38.7z"/>
		<path id="XMLID_45_" class="st4" d="M274.4,35.6l-0.6,0.8l0.8,0.7l-2.3,2c0,0-0.7,14.3,2.1,23.8c0,0-3.7-8.7-2.9-24.2l2.4-1.7
			l-0.8-0.8L274.4,35.6z"/>
		<path id="XMLID_44_" class="st3" d="M282.1,114.7C282.1,114.7,282.1,114.7,282.1,114.7l-3.1-3.3c1.5,2-0.2,11.5-0.4,13.7
			c-0.2,2.2,1.7,6.6,2.4,11.8c0.7,5.2-0.7,12.6-0.8,12.6c0.9-0.5,1.7-1.4,1.9-2.7c1.1-4.9,0.6-14-0.5-17.8
			C280.5,125.1,282.1,114.7,282.1,114.7z"/>
		<path id="XMLID_43_" class="st16" d="M287.9,27.4c0.3,0,0.6-0.2,0.7-0.6l0.3-2c0,0,1-2.6,3.2-1.6c0,0,1.4-1.9,1-5.8
			c-2.4,3.7-7.9,5.3-7.9,5.3l1.3,1.9c0.1,0.2,0.3,0.4,0.3,0.7l0.1,1.3c0,0.3,0.3,0.6,0.6,0.6L287.9,27.4z"/>
	</g>
</g>
<g id="XMLID_75_">
	<g id="XMLID_76_">
		<g id="XMLID_105_">
			<path id="XMLID_42_" class="st3" d="M208.6,182c0,0,2.9,0.7,5.6,0.8c2.7,0.1,10.2,1.6,10,4.4c-0.2,2.8-4.1,6.8-9,7.4
				c-4.9,0.6-11.2-0.8-14.4-0.7c-3.2,0.1-5.4-3.2-4.1-6.3C198,184.6,208.6,182,208.6,182z"/>
			<path id="XMLID_41_" class="st3" d="M192.1,174.6c0,0-1,1.7-0.5,2.7c0.5,1,1.9,3.6,6.4,1.1c4.4-2.5,13-6,13-6s4.9-2.6,4.6-5.7
				c-0.3-3.1-4.8-2.6-4.8-2.6L192.1,174.6z"/>
			<path id="XMLID_40_" class="st4" d="M221.1,130.8c0,0-1.9,20.1-5.9,27.6c-4.1,7.8-5.2,21.9-6.1,24.6c-0.9,2.7-3.5,6.6-7.7,7.4
				c-4.2,0.8-4.9-2-4.6-3.7c0.2-1.7,1.3-4.4,1.4-6.3c0-1.8-0.4-2.7-0.5-3.6c0,0-4.8,1.4-5.5-2.3c0,0,0.4-1.1,0.4-1.7
				c0.1-0.6-0.4-14-0.5-15.6c-0.1-1.7,0.8-10.4,2.1-14.7c1.3-4.3,0.9-13.4,0.9-13.4l13.7-1.9L221.1,130.8z"/>
			
				<linearGradient id="XMLID_89_" gradientUnits="userSpaceOnUse" x1="235.8045" y1="157.4034" x2="192.3199" y2="139.7106" gradientTransform="matrix(1 0 0 -1 0 302)">
				<stop  offset="0" style="stop-color:#6FCACE"/>
				<stop  offset="1.970726e-002" style="stop-color:#6EC1CA"/>
				<stop  offset="0.1321" style="stop-color:#5D9DBC"/>
				<stop  offset="0.2482" style="stop-color:#5380B0"/>
				<stop  offset="0.3656" style="stop-color:#4B6AA5"/>
				<stop  offset="0.4847" style="stop-color:#44579D"/>
				<stop  offset="0.6058" style="stop-color:#3E4A97"/>
				<stop  offset="0.7298" style="stop-color:#3D3E93"/>
				<stop  offset="0.8587" style="stop-color:#3B3890"/>
				<stop  offset="1" style="stop-color:#3A358F"/>
			</linearGradient>
			<path id="XMLID_39_" class="st17" d="M221.1,130.8c0,0-1.9,20.1-5.9,27.6c-4.1,7.8-5.2,21.9-6.1,24.6c-0.9,2.7-3.5,6.6-7.7,7.4
				c-4.2,0.8-4.9-2-4.6-3.7c0.2-1.7,1.3-4.4,1.4-6.3c0-1.8-0.4-2.7-0.5-3.6c0,0-4.8,1.4-5.5-2.3c0,0,0.4-1.1,0.4-1.7
				c0.1-0.6-0.4-14-0.5-15.6c-0.1-1.7,0.8-10.4,2.1-14.7c1.3-4.3,0.9-13.4,0.9-13.4l13.7-1.9L221.1,130.8z"/>
			<path id="XMLID_38_" class="st3" d="M199,130.7c0,0,0.1,3.1,1.3,5.8c0,0,0,10.7,1.1,16.1c0,0-1.8,10.9-2.9,14.2
				c-1.1,3.4-1,10.2-1,10.2s-0.6,0.2-1.3,0.3c-0.8,0-0.8-13.2,0.4-15.6s2.1-12.6,1.7-15.8c-0.4-3.1-0.3-12.1-0.9-13.7
				s0.8-2.4,0.8-2.4L199,130.7z"/>
			<path id="XMLID_37_" class="st3" d="M210.5,58.4c0,0,3.9,2.9,3.7,7.8l-2.9-0.6C211.3,65.5,212.2,60,210.5,58.4z"/>
			<path id="XMLID_36_" class="st3" d="M208.9,135c-9,0.3-13.9-3.7-13.9-3.7c0-1.3-0.1-2.1-0.1-2.1l13.7-1.9l12.5,3.5
				c0,0-0.4,3.9-1.1,9c-2.2,0.3-4.4-5.2-4.4-5.2l-6.2,0.4C209.3,135,218,134.7,208.9,135z"/>
			<path id="XMLID_35_" class="st12" d="M219.3,131.1c0,0-19.6,8-29.2-7.2c-0.3-0.4-0.4-1-0.4-1.5l0.1-3.6c0-0.4-0.1-0.9-0.2-1.3
				l0,0c-0.3-0.9-0.4-1.9-0.2-2.9c0.8-3.9,2.7-14.7,3.2-17.7c0.6-3.6-1.3-18.2-4.6-24.5c-3.2-6.2,5-20.2,5-20.2s2-3.2,6-2.2
				c0,0-3.7,2.7-1.7,5.5c2.1,2.8,8.3,5.1,8.3,5.1s11.5,6,15.4,13.2c0,0,1.3,3.7,1.5,8.5c0.1,4.8-0.4,16.4-0.2,18s0.8,12.6,0.8,13.2
				C223.1,114,219.3,131.1,219.3,131.1z"/>
			
				<linearGradient id="XMLID_90_" gradientUnits="userSpaceOnUse" x1="232.4937" y1="216.5304" x2="185.9888" y2="206.7521" gradientTransform="matrix(1 0 0 -1 0 302)">
				<stop  offset="0" style="stop-color:#6FCACE"/>
				<stop  offset="1.970726e-002" style="stop-color:#6EC1CA"/>
				<stop  offset="0.1321" style="stop-color:#5D9DBC"/>
				<stop  offset="0.2482" style="stop-color:#5380B0"/>
				<stop  offset="0.3656" style="stop-color:#4B6AA5"/>
				<stop  offset="0.4847" style="stop-color:#44579D"/>
				<stop  offset="0.6058" style="stop-color:#3E4A97"/>
				<stop  offset="0.7298" style="stop-color:#3D3E93"/>
				<stop  offset="0.8587" style="stop-color:#3B3890"/>
				<stop  offset="1" style="stop-color:#3A358F"/>
			</linearGradient>
			<path id="XMLID_34_" class="st18" d="M219.3,131.1c0,0-19.6,8-29.2-7.2c-0.3-0.4-0.4-1-0.4-1.5l0.1-3.6c0-0.4-0.1-0.9-0.2-1.3
				l0,0c-0.3-0.9-0.4-1.9-0.2-2.9c0.8-3.9,2.7-14.7,3.2-17.7c0.6-3.6-1.3-18.2-4.6-24.5c-3.2-6.2,5-20.2,5-20.2s2-3.2,6-2.2
				c0,0-3.7,2.7-1.7,5.5c2.1,2.8,8.3,5.1,8.3,5.1s11.5,6,15.4,13.2c0,0,1.3,3.7,1.5,8.5c0.1,4.8-0.4,16.4-0.2,18s0.8,12.6,0.8,13.2
				C223.1,114,219.3,131.1,219.3,131.1z"/>
			<g id="XMLID_115_">
				
					<linearGradient id="XMLID_91_" gradientUnits="userSpaceOnUse" x1="-1336.0691" y1="341.6636" x2="-1334.1119" y2="341.6636" gradientTransform="matrix(-0.9962 -8.730000e-002 8.730000e-002 -0.9962 -1161.7827 274.8171)">
					<stop  offset="0" style="stop-color:#5A65AE"/>
					<stop  offset="0.1833" style="stop-color:#6080B7"/>
					<stop  offset="0.3665" style="stop-color:#6599BF"/>
					<stop  offset="0.5432" style="stop-color:#68ADC5"/>
					<stop  offset="0.7114" style="stop-color:#6EBDCA"/>
					<stop  offset="0.8676" style="stop-color:#70C5CC"/>
					<stop  offset="1" style="stop-color:#6FCACE"/>
				</linearGradient>
				<path id="XMLID_33_" class="st19" d="M197.3,52.1c-0.3-0.8-0.2-1.5,0.1-2.2c0.6,0,1.1,0,1.8,0.2C199.1,50,198,50.9,197.3,52.1z"
					/>
				<path id="XMLID_32_" class="st4" d="M213.4,132.7c0,0-11.6-31.3-11-42.6c0.5-11.1,16.9,22.4,16.9,22.4l0.1,18.6
					C219.3,131.1,215.6,132.5,213.4,132.7z"/>
			</g>
			<path id="XMLID_31_" class="st20" d="M219.6,95.8c-0.4-2.5-0.6-5.1-0.7-7.7c-0.1-4.4-1.3-11.8-9.3-10.5
				c-11.4,1.8-6.5,17.7-5.3,20.5c1.3,2.8,6.2,15.4,6.5,16.1c0.3,0.7,8.1,16.4,10.9,20.2c0.3,0.3,0.7,0.4,1,0.1c1.1-1,3.7-3.3,4-4.8
				c0.4-1.9-1.2-8.7-1.2-8.7s-4.4-17-4.8-17.8C220.5,102.7,220.3,99.9,219.6,95.8z"/>
			<path id="XMLID_30_" class="st9" d="M210.3,58.7c0,0,0.9-2,3-2.3c2.1-0.2,3.2-0.8,3.5-1.6c0.2-0.8,0.2-1.7,0.7-2.9
				c0.5-1.1,1-3.9,1-4c0-0.1,1.6-0.6,1.7-1.3c0.1-0.7-0.8-3.2-0.6-3.4c0.1-0.2,1-1.7,0.8-2.9c-0.1-1.2-0.3-2.9-0.9-4.3
				c-0.6-1.5-5-10.2-16.5-5.7c-11.6,4.6-2.8,14.4-3.9,20.7c0,0-1,1.3,0.9,3.6C201.6,56.9,207.2,57.4,210.3,58.7z"/>
			<path id="XMLID_29_" class="st15" d="M199.7,54.6c-1.9-2.3-0.9-3.6-0.9-3.6c0.2-0.9,0.1-1.8,0-2.8l4.6,0.9c0,0,6.7-6,6.2-2.8
				c-0.5,3.2,1.1,3.7,1.1,3.7l-1.4,1.8c-0.4,0.4-0.1,1,0.1,1.5c1.9,3.3,6.5,2.3,6.6,2.3c-0.6,0.4-1.5,0.6-2.9,0.8
				c-2.1,0.2-3,2.3-3,2.3C207.2,57.4,201.6,56.9,199.7,54.6z"/>
			<g id="XMLID_109_">
				<path id="XMLID_28_" class="st13" d="M219.8,32.8c0,0,0.8,2.4-0.5,3.4c-1.3,1-2.5,1.9-2.5,1.9v3c0,0.4-0.1,0.8-0.4,1.2l-1.7,2.5
					c-0.3,0.5-0.5,1.1-0.5,1.7v1.2c0,0.4-0.3,0.6-0.6,0.7l-0.4,0.1c-0.4,0.1-0.7-0.3-0.8-0.6l-0.2-1.7c0,0-0.9-1.3-2.7,0.3l-1.7,0.7
					c-0.4,0.2-0.8,0.6-1,1.1c-0.4,1.3-1.5,3.9-2.2,4.3c-1,0.6-5-1.5-5.5-2.4c-0.5-0.9-1.8-7-2.7-9.8c-0.8-2.9-0.3-10,8.2-11.8
					C213.2,26.6,218.7,30.2,219.8,32.8z"/>
				<path id="XMLID_27_" class="st16" d="M199.1,50c-0.5-0.9-1.8-7-2.7-9.8c0,0,3.3,2.2,7.6,2.9c4.3,0.6,12.8-4.2,12.8-4.2v2.2
					c0,0.4-0.1,0.8-0.4,1.2l-1.7,2.5c-0.3,0.5-0.5,1.1-0.5,1.7v1.2c0,0.4-0.3,0.6-0.6,0.7l-0.4,0.1c-0.4,0.1-0.7-0.3-0.8-0.6
					l-0.2-1.7c0,0-0.9-1.3-2.7,0.3l-2.5,1c0,0-1.5,4.5-2.5,5.1C203.6,53,199.7,50.9,199.1,50z"/>
			</g>
			<path id="XMLID_26_" class="st8" d="M199,50.3c0,0-3.3,2-1.7,5c1.7,2.9,13.7,8.1,14.4,8.9c0,0,0.4-4.4-1.1-5.8
				c0,0-9.2-1.8-10.7-4.1C198.4,51.8,199,50.3,199,50.3z"/>
			<path id="XMLID_25_" class="st14" d="M199,50.3c0,0-0.6,1.5,0.9,3.9c1.1,1.8,6.6,3.2,9.3,3.9l0,0c0,0-1,0.6-2.6,3.4
				c-3.7-1.9-8.2-4.4-9.2-6.1C195.6,52.4,199,50.3,199,50.3z"/>
			<path id="XMLID_24_" class="st4" d="M196.7,59.6c0,0,5.4,3.1,8,4.4c2.6,1.4,5.5,3.2,5.5,3.2l1-1l1.2,2.7c0,0,4.1,2.5,6,4.6
				c2,2.1,3.4,4.8,3.6,5.4c0,0-5.1-6.7-9.2-8.8l-1.1-0.6l-0.6-2.1l-1,1.1C210.2,68.6,198.3,61.5,196.7,59.6z"/>
		</g>
		<g id="XMLID_80_">
			<path id="XMLID_23_" class="st12" d="M210.6,150.8L210.6,150.8L210.6,150.8c0.2-0.5,0.4-0.9,0.7-1.1l22.1-18.6
				c0.6-0.5,1.1-0.1,1.3,0.8l2.6,21.6c0.1,1-0.3,2.2-0.9,2.7l-18.6,16.1l0.6,6.2L213,176l0,0c-0.3-0.1-0.4-0.5-0.5-1.1l-2-22.6
				C210.3,151.9,210.4,151.3,210.6,150.8z"/>
			<path id="XMLID_22_" class="st12" d="M239.4,133.2l-5.2-2.3l-0.2-0.1c-0.2-0.1-0.4,0-0.6,0.2l-22.1,18.6
				c-0.3,0.3-0.6,0.7-0.7,1.1l0.8,0.4l0,0l4.5,2.2l19.4-16.6l0,0L239.4,133.2z"/>
			<path id="XMLID_21_" class="st4" d="M241.9,158.7l-22.6,19.7c-0.6,0.6-1.2,0.1-1.3-0.9l-2.2-22.7c-0.1-1,0.3-2.2,0.9-2.7l22-18.7
				c0.6-0.5,1.1-0.1,1.3,0.8l2.7,21.7C242.8,157,242.4,158.2,241.9,158.7z"/>
			
				<linearGradient id="XMLID_92_" gradientUnits="userSpaceOnUse" x1="265.5558" y1="162.3885" x2="221.136" y2="142.6237" gradientTransform="matrix(1 0 0 -1 0 302)">
				<stop  offset="0" style="stop-color:#6FCACE"/>
				<stop  offset="8.100387e-002" style="stop-color:#63AEC3"/>
				<stop  offset="0.21" style="stop-color:#568AB6"/>
				<stop  offset="0.3348" style="stop-color:#4C6FAA"/>
				<stop  offset="0.4523" style="stop-color:#455BA0"/>
				<stop  offset="0.5606" style="stop-color:#3F4C9A"/>
				<stop  offset="0.6567" style="stop-color:#3D4397"/>
				<stop  offset="0.7304" style="stop-color:#3C4096"/>
				<stop  offset="0.7407" style="stop-color:#3C3F95"/>
				<stop  offset="0.8643" style="stop-color:#3A3890"/>
				<stop  offset="1" style="stop-color:#3A358F"/>
			</linearGradient>
			<path id="XMLID_20_" class="st21" d="M241.9,158.7l-22.6,19.7c-0.6,0.6-1.2,0.1-1.3-0.9l-2.2-22.7c-0.1-1,0.3-2.2,0.9-2.7
				l22-18.7c0.6-0.5,1.1-0.1,1.3,0.8l2.7,21.7C242.8,157,242.4,158.2,241.9,158.7z"/>
			<path id="XMLID_19_" class="st3" d="M215.1,176.2l-2.2-22.6c-0.1-1,0.3-2.2,1-2.7l22.1-18.6c0.2-0.1,0.4-0.2,0.5-0.2
				c-0.2-0.1-0.4-0.1-0.7,0.2l-22.1,18.6c-0.6,0.5-1,1.7-1,2.7l2.1,22.6c0.1,0.7,0.3,1.1,0.7,1.2
				C215.4,177.2,215.2,176.7,215.1,176.2z"/>
			<g id="XMLID_81_">
				<g id="XMLID_94_">
					<path id="XMLID_18_" class="st3" d="M223.2,142.8l-1.1-0.6c-0.3-0.1-0.5-0.2-0.7-0.1h-0.1c-0.1,0-0.2,0.1-0.1,0.3v0.2l3.2,1.7
						v-0.2c0-0.2-0.1-0.4-0.3-0.5l-0.1-0.1C223.8,143.2,223.4,142.9,223.2,142.8z"/>
					<polygon id="XMLID_17_" class="st3" points="222.8,145.6 224.3,144.3 221.1,142.2 219.6,143.5 					"/>
					
						<linearGradient id="XMLID_93_" gradientUnits="userSpaceOnUse" x1="-1367.9835" y1="250.5515" x2="-1364.546" y2="250.5515" gradientTransform="matrix(-0.9962 -8.730000e-002 8.730000e-002 -0.9962 -1161.7827 274.8171)">
						<stop  offset="0" style="stop-color:#5A65AE"/>
						<stop  offset="0.1833" style="stop-color:#6080B7"/>
						<stop  offset="0.3665" style="stop-color:#6599BF"/>
						<stop  offset="0.5432" style="stop-color:#68ADC5"/>
						<stop  offset="0.7114" style="stop-color:#6EBDCA"/>
						<stop  offset="0.8676" style="stop-color:#70C5CC"/>
						<stop  offset="1" style="stop-color:#6FCACE"/>
					</linearGradient>
					<path id="XMLID_16_" class="st22" d="M221.7,144.1l-1.1-0.6c-0.3-0.1-0.5-0.2-0.7-0.1h-0.1c-0.1,0-0.2,0.1-0.1,0.3v0.2l3.2,1.7
						v-0.2c0-0.2-0.1-0.4-0.3-0.5l-0.1-0.1C222.2,144.5,221.9,144.3,221.7,144.1z"/>
					<polygon id="XMLID_15_" class="st23" points="221,144.7 220.8,143.8 221,143.8 221,144.8 					"/>
					<polygon id="XMLID_14_" class="st23" points="220.8,143.8 222.5,142.4 222.5,142.5 221,143.8 					"/>
				</g>
				<g id="XMLID_88_">
					<path id="XMLID_13_" class="st3" d="M230.2,136.9l-1.1-0.6c-0.3-0.1-0.5-0.2-0.7-0.1h-0.1c-0.1,0-0.2,0.1-0.1,0.3v0.2l3.2,1.6
						v-0.2c0-0.2-0.1-0.4-0.3-0.5l-0.1-0.1C230.7,137.3,230.5,137,230.2,136.9z"/>
					<polygon id="XMLID_12_" class="st3" points="229.9,139.7 231.4,138.4 228.1,136.3 226.6,137.6 					"/>
					
						<linearGradient id="XMLID_95_" gradientUnits="userSpaceOnUse" x1="-1374.4856" y1="257.0856" x2="-1371.0562" y2="257.0856" gradientTransform="matrix(-0.9962 -8.730000e-002 8.730000e-002 -0.9962 -1161.7827 274.8171)">
						<stop  offset="0" style="stop-color:#5A65AE"/>
						<stop  offset="0.1833" style="stop-color:#6080B7"/>
						<stop  offset="0.3665" style="stop-color:#6599BF"/>
						<stop  offset="0.5432" style="stop-color:#68ADC5"/>
						<stop  offset="0.7114" style="stop-color:#6EBDCA"/>
						<stop  offset="0.8676" style="stop-color:#70C5CC"/>
						<stop  offset="1" style="stop-color:#6FCACE"/>
					</linearGradient>
					<path id="XMLID_11_" class="st24" d="M228.7,138.2l-1.1-0.6c-0.3-0.1-0.5-0.2-0.7-0.1h-0.1c-0.1,0-0.2,0.1-0.1,0.3v0.2l3.2,1.6
						v-0.2c0-0.2-0.1-0.4-0.3-0.5l-0.1-0.1C229.2,138.6,229,138.4,228.7,138.2z"/>
					<polygon id="XMLID_10_" class="st23" points="228,138.8 227.9,137.9 228,137.9 228.1,138.8 					"/>
					<polygon id="XMLID_9_" class="st23" points="227.9,137.9 229.5,136.6 229.5,136.6 228,137.9 					"/>
				</g>
				<g id="XMLID_82_">
					<path id="XMLID_8_" class="st12" d="M220.2,139.3l0.4,4l1-0.9l-0.4-3.9c-0.1-0.6,0.2-1.3,0.6-1.7l4.5-3.7
						c0.4-0.3,0.8-0.1,0.8,0.4l0.4,3.9l1-0.9l-0.4-4c-0.1-1.3-1-1.7-1.8-0.9l-4.8,4C220.7,136.3,220.1,138,220.2,139.3z"/>
					<path id="XMLID_7_" class="st12" d="M228,132.8l-1.8-0.2l-5.3,5l-0.3,3.1l0.1,2.6l1.2,0.6l0.1-3.2l0.1-2.2l1.1-1.6l2-1.7
						C225.1,135.1,228,132.8,228,132.8z"/>
					<polygon id="XMLID_6_" class="st12" points="228.9,137.9 227.7,137.3 227.4,134.5 228.5,134.6 228.8,134.6 					"/>
					<path id="XMLID_5_" class="st12" d="M228.8,131.9l-1.3-0.6l0.3,0.7l0.4,0.1C228.3,132.1,228.8,131.9,228.8,131.9z"/>
					<path id="XMLID_4_" class="st3" d="M221.4,139.8l0.4,4.1l1-0.9l-0.4-3.9c-0.1-0.6,0.2-1.3,0.6-1.7l4.5-3.7
						c0.4-0.3,0.8-0.1,0.8,0.4l0.4,3.9l1-0.9l-0.4-4c-0.1-1.3-1-1.7-1.8-0.9l-4.8,4C221.9,136.9,221.3,138.6,221.4,139.8z"/>
				</g>
			</g>
		</g>
		<path id="XMLID_3_" class="st9" d="M226.4,129.7c0,0,0.8,3.9,0.6,5c-0.2,1-2.1,2.9-3.2,3.2c-1.1,0.4-0.7-1-1-1.8
			c-0.3-0.8-0.2-2.7-0.2-2.7L226.4,129.7z"/>
		<path id="XMLID_2_" class="st15" d="M222.6,133.3l3.8-3.6c0,0,0.1,0.8,0.3,1.8c0,0-1.4,2.9-4,4.1
			C222.6,134.6,222.6,133.3,222.6,133.3z"/>
		<path id="XMLID_1_" class="st20" d="M226.7,130c0,0-1.3,4.3-4.8,4.6l1.1-4.6c0,0,2.9-0.8,3-0.8C226.2,129.2,226.7,130,226.7,130z"
			/>
	</g>
</g>
</svg>
