<?xml version="1.0" encoding="utf-8"?>
<!-- Generator: Adobe Illustrator 19.0.0, SVG Export Plug-In . SVG Version: 6.00 Build 0)  -->
<svg version="1.1" id="Layer_1" xmlns="http://www.w3.org/2000/svg" xmlns:xlink="http://www.w3.org/1999/xlink" x="0px" y="0px"
	 viewBox="0 0 500 200" style="enable-background:new 0 0 500 200;" xml:space="preserve">
<style type="text/css">
	.st0{fill:#244384;}
</style>
<g id="XMLID_2_">
	<path id="XMLID_11_" class="st0" d="M106.6,58.4h-9.9c0.5,0.8,1,1.5,1.5,2.3c-12.3-2.1-25.9-3.9-35.4-3.9V36.7
		c9.9,0.9,19,5.6,26.5,12.8h11.4C90.1,36,75.3,27.6,59,27.6S27.9,36,17.3,49.5h11.4c7.6-7.4,17-12.1,27.3-12.9l0,20.3
		c-20.9,1-34.3,6.4-40.6,12.4c1.7-3.9,3.6-7.5,5.9-10.9h-9.9C4.8,70,1,84.1,1,99.3C1,138.9,27,171,59,171s58-32.1,58-71.7
		C117,84.1,113.1,70,106.6,58.4z M62.7,59.9c19.3,0.5,31.5,7.1,35.8,18.6l5,0.1c0.1-2.6,0.1-4.8,0-6.7c3.1,8.1,4.8,17.2,4.8,26.8
		c0,4.4-0.4,8.6-1,12.7c-1.2-6.8-14-16.4-36.9-20.4l-7.7-1.7V59.9z M62.7,101.4c14.8,2.7,22.9,6.8,22.9,14c0,5.8-7.4,13.3-22.9,14.1
		V101.4z M56,60.2l0,28.3l0-0.2c-14.8-2.7-22.9-6.8-22.9-14C33.1,68.5,40.7,61.1,56,60.2z M11.9,79.9c2.7,6.7,15.3,15.1,36.4,18.7
		l7.7,1.7l0,29.4c-19.3-0.5-34.7-7.1-39-18.6l-5-0.1c-0.2,2.8-0.1,5.1,0,7.1c-1.6-6.1-2.5-12.6-2.5-19.4
		C9.5,92.2,10.4,85.8,11.9,79.9z M59,161c-18.7,0-35-13.1-43.4-32.4c12.9,2.3,30.4,4.2,40.4,4.2v0l6.7,0h0h0v0
		c25.3,0,39.6-8.5,43.6-16.1C100.2,142.3,81.3,161,59,161z"/>
	<g id="XMLID_1_">
		<path id="XMLID_3_" class="st0" d="M171.7,127.3c12.1,0,19.6-7.4,19.6-20V63.8h12.5v43.5c0,19.4-12.2,31.3-32.2,31.3
			c-20,0-32.3-11.9-32.3-31.3V63.8h12.5v43.5C151.8,119.8,159.5,127.3,171.7,127.3z"/>
		<path id="XMLID_12_" class="st0" d="M245.2,75c-7.3,0-12.1,2.8-12.1,7.7c0,16.2,40.1,7.5,40,34.2c0,13.3-11.7,21.4-28,21.4
			c-11.7,0-22.7-4.8-30.3-11.8l5.4-10.8c7.6,7,17.2,10.8,25.1,10.8c8.7,0,13.9-3.3,13.9-9c0-16.5-40.1-7.3-40.1-33.7
			c0-12.7,10.9-20.7,27-20.7c9.6,0,19.1,3.1,26,7.6l-5.2,11C258.8,77,250.8,75,245.2,75z"/>
		<path id="XMLID_15_" class="st0" d="M300,63.8l39.8,53.3V63.8H352V138h-12.3l-39.5-53.2V138h-12.5V63.8H300z"/>
		<path id="XMLID_17_" class="st0" d="M424.6,63.8V75h-40.5v20h36.3v11.2h-36.3v20.5h41.8V138h-54.3V63.8H424.6z"/>
		<path id="XMLID_19_" class="st0" d="M491.8,63.8V75h-23.5v63h-12.5V75h-23.4V63.8H491.8z"/>
	</g>
</g>
</svg>
