<?xml version="1.0" encoding="utf-8"?>
<!-- Generator: Adobe Illustrator 19.0.0, SVG Export Plug-In . SVG Version: 6.00 Build 0)  -->
<svg version="1.1" id="Layer_1" xmlns="http://www.w3.org/2000/svg" xmlns:xlink="http://www.w3.org/1999/xlink" x="0px" y="0px"
	 viewBox="0 0 500 300" style="enable-background:new 0 0 500 300;" xml:space="preserve">
<style type="text/css">
	.st0{fill:#D3E1F4;}
	.st1{fill:#E4EDF8;}
	.st2{fill:#EFF4FB;}
	.st3{opacity:0.7;fill:#FFFFFF;enable-background:new    ;}
	.st4{fill:#F1F6FC;}
	.st5{fill:#335BAA;}
	.st6{opacity:0.2;}
	.st7{fill:#13274C;}
	.st8{fill:#1C54A5;}
	.st9{fill:#639FD5;}
	.st10{fill:#166BB5;}
	.st11{fill:#3B78BD;}
	.st12{opacity:0.6;fill:#166BB5;enable-background:new    ;}
	.st13{fill:#4B92CE;}
	.st14{opacity:0.2;fill:#FFFFFF;enable-background:new    ;}
	.st15{fill:#75B5E3;}
	.st16{fill:#F58B7D;}
	.st17{fill:#14375B;}
	.st18{fill:#EA7063;}
	.st19{fill:#A5C3E7;}
	.st20{fill:#82B0DE;}
	.st21{fill:#5274B9;}
	.st22{fill:#1350A3;}
	.st23{fill:#5486C5;}
</style>
<g id="Background_2">
	<g>
		<g>
			<g>
				<g>
					<rect id="XMLID_379_" x="48.7" y="264.4" class="st0" width="400.7" height="0.2"/>
					<rect id="XMLID_378_" x="121.2" y="273.5" class="st0" width="38.9" height="0.2"/>
					<rect id="XMLID_377_" x="102.3" y="273.6" class="st0" width="10.3" height="0.2"/>
					<rect id="XMLID_376_" x="204.7" y="272.2" class="st0" width="12" height="0.2"/>
					<rect id="XMLID_375_" x="221.3" y="272.2" class="st0" width="49" height="0.2"/>
					<rect id="XMLID_374_" x="340.3" y="273.7" class="st0" width="45.5" height="0.2"/>
					<rect id="XMLID_373_" x="323.8" y="273.7" class="st0" width="12" height="0.2"/>
					<rect id="XMLID_372_" x="397.8" y="270.1" class="st0" width="10.3" height="0.2"/>
					<path class="st0" d="M238.6,228.6H83.8c-2.5,0-4.6-2.1-4.6-4.6V6.6c0-2.5,2.1-4.6,4.6-4.6h154.7c2.5,0,4.6,2.1,4.6,4.6v217.5
						C243.2,226.5,241.1,228.6,238.6,228.6z M83.8,2.2c-2.4,0-4.4,1.9-4.4,4.4v217.5c0,2.4,1.9,4.4,4.4,4.4h154.7
						c2.4,0,4.4-1.9,4.4-4.4V6.6c0-2.4-1.9-4.4-4.4-4.4H83.8z"/>
					<path class="st0" d="M411.9,228.6H257.2c-2.5,0-4.6-2.1-4.6-4.6V6.6c0-2.5,2.1-4.6,4.6-4.6h154.7c2.5,0,4.6,2.1,4.6,4.6v217.5
						C416.5,226.5,414.5,228.6,411.9,228.6z M257.2,2.2c-2.4,0-4.4,1.9-4.4,4.4v217.5c0,2.4,1.9,4.4,4.4,4.4h154.7
						c2.4,0,4.4-1.9,4.4-4.4V6.6c0-2.4-1.9-4.4-4.4-4.4H257.2z"/>
				</g>
			</g>
		</g>
		<g>
			<g>
				<path id="XMLID_367_" class="st0" d="M449.3,252.5h-55.2c-1.2,0-2.2-1-2.2-2.2V105.1c0-1-0.8-1.8-1.8-1.8h-5.8v-0.4h5.8
					c1.2,0,2.2,1,2.2,2.2v145.2c0,1,0.8,1.8,1.8,1.8h55.2V252.5z"/>
				<path id="XMLID_366_" class="st0" d="M449.3,249.5H396c-1.2,0-2.2-1-2.2-2.2V102.2c0-1-0.8-1.8-1.8-1.8h-7.7v-0.4h7.7
					c1.2,0,2.2,1,2.2,2.2v145.2c0,1,0.8,1.8,1.8,1.8h53.4V249.5z"/>
				<path id="XMLID_365_" class="st0" d="M449.3,246.6h-51.4c-1.2,0-2.2-1-2.2-2.2V99.2c0-1-0.8-1.8-1.8-1.8h-9.5V97h9.5
					c1.2,0,2.2,1,2.2,2.2v145.2c0,1,0.8,1.8,1.8,1.8h51.4V246.6z"/>
				<path id="XMLID_364_" class="st0" d="M449.3,243.7h-49.6c-1.2,0-2.2-1-2.2-2.2V96.2c0-1-0.8-1.8-1.8-1.8h-11.5V94h11.5
					c1.2,0,2.2,1,2.2,2.2v145.2c0,1,0.8,1.8,1.8,1.8h49.6V243.7z"/>
				<path id="XMLID_363_" class="st0" d="M449.3,240.8h-47.7c-1.2,0-2.2-1-2.2-2.2V93.4c0-1-0.8-1.8-1.8-1.8h-13.3v-0.4h13.3
					c1.2,0,2.2,1,2.2,2.2v145.2c0,1,0.8,1.8,1.8,1.8h47.7V240.8z"/>
				<path id="XMLID_362_" class="st0" d="M449.3,237.8h-45.8c-1.2,0-2.2-1-2.2-2.2V90.4c0-1-0.8-1.8-1.8-1.8h-15.2v-0.4h15.2
					c1.2,0,2.2,1,2.2,2.2v145.2c0,1,0.8,1.8,1.8,1.8h45.8V237.8z"/>
				<path id="XMLID_361_" class="st0" d="M449.3,234.9h-44c-1.2,0-2.2-1-2.2-2.2V87.5c0-1-0.8-1.8-1.8-1.8h-17.1v-0.4h17.1
					c1.2,0,2.2,1,2.2,2.2v145.2c0,1,0.8,1.8,1.8,1.8h44V234.9z"/>
				<rect id="XMLID_360_" x="222.6" y="117.4" class="st0" width="49.5" height="0.4"/>
				<rect id="XMLID_359_" x="222.6" y="114.5" class="st0" width="49.5" height="0.4"/>
				<rect id="XMLID_358_" x="222.6" y="111.5" class="st0" width="49.5" height="0.4"/>
				<rect id="XMLID_357_" x="222.6" y="108.6" class="st0" width="49.5" height="0.4"/>
				<rect id="XMLID_356_" x="222.6" y="105.7" class="st0" width="49.5" height="0.4"/>
				<rect id="XMLID_355_" x="222.6" y="102.7" class="st0" width="49.5" height="0.4"/>
				<rect id="XMLID_354_" x="222.6" y="99.8" class="st0" width="49.5" height="0.4"/>
				<rect id="XMLID_353_" x="222.6" y="216.8" class="st0" width="49.5" height="0.4"/>
				<rect id="XMLID_352_" x="222.6" y="213.8" class="st0" width="49.5" height="0.4"/>
				<rect id="XMLID_351_" x="222.6" y="210.9" class="st0" width="49.5" height="0.4"/>
				<rect id="XMLID_350_" x="222.6" y="207.9" class="st0" width="49.5" height="0.4"/>
				<rect id="XMLID_349_" x="222.6" y="205" class="st0" width="49.5" height="0.4"/>
				<rect id="XMLID_348_" x="222.6" y="202.1" class="st0" width="49.5" height="0.4"/>
				<rect id="XMLID_347_" x="222.6" y="199.1" class="st0" width="49.5" height="0.4"/>
			</g>
			<g>
				<path id="XMLID_346_" class="st0" d="M125.5,238.2h-19.2c-1.2,0-2.2-1-2.2-2.2V90.8c0-1-0.8-1.8-1.8-1.8H79.5v-0.4h22.8
					c1.2,0,2.2,1,2.2,2.2V236c0,1,0.8,1.8,1.8,1.8h19.2L125.5,238.2L125.5,238.2z"/>
				<path id="XMLID_345_" class="st0" d="M125.5,241.1h-21.1c-1.2,0-2.2-1-2.2-2.2V93.8c0-1-0.8-1.8-1.8-1.8H79.5v-0.4h20.8
					c1.2,0,2.2,1,2.2,2.2V239c0,1,0.8,1.8,1.8,1.8h21.1C125.5,240.8,125.5,241.1,125.5,241.1z"/>
				<path id="XMLID_344_" class="st0" d="M125.5,244.1h-22.9c-1.2,0-2.2-1-2.2-2.2V96.6c0-1-0.8-1.8-1.8-1.8h-19v-0.4h19
					c1.2,0,2.2,1,2.2,2.2v145.2c0,1,0.8,1.8,1.8,1.8h23L125.5,244.1L125.5,244.1z"/>
				<path id="XMLID_343_" class="st0" d="M125.5,247h-24.8c-1.2,0-2.2-1-2.2-2.2V99.6c0-1-0.8-1.8-1.8-1.8H79.5v-0.4h17.1
					c1.2,0,2.2,1,2.2,2.2v145.2c0,1,0.8,1.8,1.8,1.8h24.8V247z"/>
				<path id="XMLID_342_" class="st0" d="M125.5,249.9H98.8c-1.2,0-2.2-1-2.2-2.2V102.5c0-1-0.8-1.8-1.8-1.8H79.5v-0.4h15.2
					c1.2,0,2.2,1,2.2,2.2v145.2c0,1,0.8,1.8,1.8,1.8h26.8L125.5,249.9L125.5,249.9z"/>
				<path id="XMLID_341_" class="st0" d="M125.5,252.9H96.9c-1.2,0-2.2-1-2.2-2.2V105.5c0-1-0.8-1.8-1.8-1.8H79.5v-0.4h13.4
					c1.2,0,2.2,1,2.2,2.2v145.2c0,1,0.8,1.8,1.8,1.8h28.6L125.5,252.9L125.5,252.9z"/>
				<path id="XMLID_340_" class="st0" d="M125.5,255.8H95.1c-1.2,0-2.2-1-2.2-2.2V108.3c0-1-0.8-1.8-1.8-1.8H79.5v-0.4H91
					c1.2,0,2.2,1,2.2,2.2v145.2c0,1,0.8,1.8,1.8,1.8h30.5C125.5,255.4,125.5,255.8,125.5,255.8z"/>
			</g>
			<g>
				<g>
					<g>
						<rect id="XMLID_339_" x="125.5" y="252.3" class="st1" width="81.3" height="12.1"/>
						<rect id="XMLID_338_" x="206.8" y="252.3" class="st0" width="16.5" height="12.1"/>
						<rect id="XMLID_337_" x="120.1" y="39.2" class="st2" width="86.8" height="213.2"/>
						<rect id="XMLID_336_" x="127.4" y="37.3" class="st1" width="94.2" height="1.8"/>
						<rect id="XMLID_335_" x="206.8" y="39.2" class="st1" width="22" height="213.2"/>
					</g>
					<g>
						<rect id="XMLID_334_" x="122.6" y="41.7" class="st1" width="81.7" height="23.3"/>
						<rect id="XMLID_333_" x="122.6" y="226.3" class="st1" width="81.7" height="23.3"/>
						<rect id="XMLID_332_" x="122.6" y="199.9" class="st1" width="81.7" height="23.3"/>
						<rect id="XMLID_331_" x="122.6" y="173.6" class="st1" width="81.7" height="23.3"/>
						<rect id="XMLID_330_" x="122.6" y="147.2" class="st1" width="81.7" height="23.3"/>
						<rect id="XMLID_329_" x="122.6" y="120.8" class="st1" width="81.7" height="23.3"/>
						<rect id="XMLID_328_" x="122.6" y="94.5" class="st1" width="81.7" height="23.3"/>
						<rect id="XMLID_327_" x="122.6" y="68.1" class="st1" width="81.7" height="23.3"/>
					</g>
					<path id="XMLID_326_" class="st3" d="M197.6,61.7h-15.9c-1.8,0-3.4-1.5-3.4-3.4v-9.8c0-1.8,1.5-3.4,3.4-3.4h15.9
						c1.8,0,3.4,1.5,3.4,3.4v9.9C201.1,60.2,199.6,61.7,197.6,61.7z"/>
					<path id="XMLID_325_" class="st2" d="M194.2,54.5v-2.2c0-0.6,0.5-1,1-1h2.2c0.6,0,1,0.5,1,1v2.2c0,0.6-0.5,1-1,1h-2.2
						C194.6,55.5,194.2,55,194.2,54.5z"/>
					<path id="XMLID_324_" class="st3" d="M197.6,88.1h-15.9c-1.8,0-3.4-1.5-3.4-3.4v-9.9c0-1.8,1.5-3.4,3.4-3.4h15.9
						c1.8,0,3.4,1.5,3.4,3.4v9.9C201.1,86.5,199.6,88.1,197.6,88.1z"/>
					<path id="XMLID_323_" class="st2" d="M194.2,80.9v-2.2c0-0.6,0.5-1,1-1h2.2c0.6,0,1,0.5,1,1v2.2c0,0.6-0.5,1-1,1h-2.2
						C194.6,81.9,194.2,81.4,194.2,80.9z"/>
					<path id="XMLID_322_" class="st3" d="M197.6,114.4h-15.9c-1.8,0-3.4-1.5-3.4-3.4v-9.9c0-1.8,1.5-3.4,3.4-3.4h15.9
						c1.8,0,3.4,1.5,3.4,3.4v9.9C201.1,112.9,199.6,114.4,197.6,114.4z"/>
					<path id="XMLID_321_" class="st2" d="M194.2,107.2V105c0-0.6,0.5-1,1-1h2.2c0.6,0,1,0.5,1,1v2.2c0,0.6-0.5,1-1,1h-2.2
						C194.6,108.3,194.2,107.8,194.2,107.2z"/>
					<path id="XMLID_320_" class="st3" d="M197.6,140.8h-15.9c-1.8,0-3.4-1.5-3.4-3.4v-9.9c0-1.8,1.5-3.4,3.4-3.4h15.9
						c1.8,0,3.4,1.5,3.4,3.4v9.9C201.1,139.3,199.6,140.8,197.6,140.8z"/>
					<path id="XMLID_319_" class="st2" d="M194.2,133.6v-2.2c0-0.6,0.5-1,1-1h2.2c0.6,0,1,0.5,1,1v2.2c0,0.6-0.5,1-1,1h-2.2
						C194.6,134.6,194.2,134.1,194.2,133.6z"/>
					<path id="XMLID_318_" class="st3" d="M197.6,167.2h-15.9c-1.8,0-3.4-1.5-3.4-3.4v-9.9c0-1.8,1.5-3.4,3.4-3.4h15.9
						c1.8,0,3.4,1.5,3.4,3.4v9.9C201.1,165.6,199.6,167.2,197.6,167.2z"/>
					<path id="XMLID_317_" class="st2" d="M194.2,159.9v-2.2c0-0.6,0.5-1,1-1h2.2c0.6,0,1,0.5,1,1v2.2c0,0.6-0.5,1-1,1h-2.2
						C194.6,161,194.2,160.5,194.2,159.9z"/>
					<path id="XMLID_316_" class="st3" d="M197.6,193.5h-15.9c-1.8,0-3.4-1.5-3.4-3.4v-9.9c0-1.8,1.5-3.4,3.4-3.4h15.9
						c1.8,0,3.4,1.5,3.4,3.4v9.9C201.1,192,199.6,193.5,197.6,193.5z"/>
					<path id="XMLID_315_" class="st2" d="M194.2,186.3v-2.2c0-0.6,0.5-1,1-1h2.2c0.6,0,1,0.5,1,1v2.2c0,0.6-0.5,1-1,1h-2.2
						C194.6,187.4,194.2,186.9,194.2,186.3z"/>
					<path id="XMLID_314_" class="st3" d="M197.6,219.9h-15.9c-1.8,0-3.4-1.5-3.4-3.4v-9.9c0-1.8,1.5-3.4,3.4-3.4h15.9
						c1.8,0,3.4,1.5,3.4,3.4v9.9C201.1,218.4,199.6,219.9,197.6,219.9z"/>
					<path id="XMLID_313_" class="st2" d="M194.2,212.7v-2.2c0-0.6,0.5-1,1-1h2.2c0.6,0,1,0.5,1,1v2.2c0,0.6-0.5,1-1,1h-2.2
						C194.6,213.7,194.2,213.2,194.2,212.7z"/>
					<path id="XMLID_312_" class="st3" d="M197.6,246.2h-15.9c-1.8,0-3.4-1.5-3.4-3.4v-9.9c0-1.8,1.5-3.4,3.4-3.4h15.9
						c1.8,0,3.4,1.5,3.4,3.4v9.9C201.1,244.7,199.6,246.2,197.6,246.2z"/>
					<path id="XMLID_311_" class="st2" d="M194.2,239v-2.2c0-0.6,0.5-1,1-1h2.2c0.6,0,1,0.5,1,1v2.2c0,0.6-0.5,1-1,1h-2.2
						C194.6,240.1,194.2,239.6,194.2,239z"/>
					<path id="XMLID_310_" class="st2" d="M187.5,54.5v-2.2c0-0.6,0.5-1,1-1h2.2c0.6,0,1,0.5,1,1v2.2c0,0.6-0.5,1-1,1h-2.2
						C188,55.5,187.5,55,187.5,54.5z"/>
					<path id="XMLID_309_" class="st2" d="M187.5,80.9v-2.2c0-0.6,0.5-1,1-1h2.2c0.6,0,1,0.5,1,1v2.2c0,0.6-0.5,1-1,1h-2.2
						C188,81.9,187.5,81.4,187.5,80.9z"/>
					<path id="XMLID_308_" class="st2" d="M187.5,107.2V105c0-0.6,0.5-1,1-1h2.2c0.6,0,1,0.5,1,1v2.2c0,0.6-0.5,1-1,1h-2.2
						C188,108.3,187.5,107.8,187.5,107.2z"/>
					<path id="XMLID_307_" class="st2" d="M187.5,133.6v-2.2c0-0.6,0.5-1,1-1h2.2c0.6,0,1,0.5,1,1v2.2c0,0.6-0.5,1-1,1h-2.2
						C188,134.6,187.5,134.1,187.5,133.6z"/>
					<path id="XMLID_306_" class="st2" d="M187.5,159.9v-2.2c0-0.6,0.5-1,1-1h2.2c0.6,0,1,0.5,1,1v2.2c0,0.6-0.5,1-1,1h-2.2
						C188,161,187.5,160.5,187.5,159.9z"/>
					<path id="XMLID_305_" class="st2" d="M187.5,186.3v-2.2c0-0.6,0.5-1,1-1h2.2c0.6,0,1,0.5,1,1v2.2c0,0.6-0.5,1-1,1h-2.2
						C188,187.4,187.5,186.9,187.5,186.3z"/>
					<path id="XMLID_304_" class="st2" d="M187.5,212.7v-2.2c0-0.6,0.5-1,1-1h2.2c0.6,0,1,0.5,1,1v2.2c0,0.6-0.5,1-1,1h-2.2
						C188,213.7,187.5,213.2,187.5,212.7z"/>
					<path id="XMLID_303_" class="st2" d="M187.5,239v-2.2c0-0.6,0.5-1,1-1h2.2c0.6,0,1,0.5,1,1v2.2c0,0.6-0.5,1-1,1h-2.2
						C188,240.1,187.5,239.6,187.5,239z"/>
					<g>
						<circle id="XMLID_302_" class="st2" cx="170.1" cy="53.4" r="2.7"/>
						<circle id="XMLID_301_" class="st2" cx="162.5" cy="53.4" r="2.7"/>
						<circle id="XMLID_300_" class="st2" cx="154.8" cy="53.4" r="2.7"/>
						<circle id="XMLID_299_" class="st2" cx="147.1" cy="53.4" r="2.7"/>
					</g>
					<g>
						<circle id="XMLID_298_" class="st2" cx="170.1" cy="79.7" r="2.7"/>
						<circle id="XMLID_297_" class="st2" cx="162.5" cy="79.7" r="2.7"/>
						<circle id="XMLID_296_" class="st2" cx="154.8" cy="79.7" r="2.7"/>
						<circle id="XMLID_295_" class="st2" cx="147.1" cy="79.7" r="2.7"/>
					</g>
					<g>
						<circle id="XMLID_294_" class="st2" cx="170.1" cy="106.1" r="2.7"/>
						<circle id="XMLID_293_" class="st2" cx="162.5" cy="106.1" r="2.7"/>
						<circle id="XMLID_292_" class="st2" cx="154.8" cy="106.1" r="2.7"/>
						<circle id="XMLID_291_" class="st2" cx="147.1" cy="106.1" r="2.7"/>
					</g>
					<g>
						<circle id="XMLID_290_" class="st2" cx="170.1" cy="132.5" r="2.7"/>
						<circle id="XMLID_289_" class="st2" cx="162.5" cy="132.5" r="2.7"/>
						<circle id="XMLID_288_" class="st2" cx="154.8" cy="132.5" r="2.7"/>
						<circle id="XMLID_287_" class="st2" cx="147.1" cy="132.5" r="2.7"/>
					</g>
					<g>
						<circle id="XMLID_286_" class="st2" cx="170.1" cy="158.8" r="2.7"/>
						<circle id="XMLID_285_" class="st2" cx="162.5" cy="158.8" r="2.7"/>
						<circle id="XMLID_284_" class="st2" cx="154.8" cy="158.8" r="2.7"/>
						<circle id="XMLID_283_" class="st2" cx="147.1" cy="158.8" r="2.7"/>
					</g>
					<g>
						<circle id="XMLID_282_" class="st2" cx="170.1" cy="185.2" r="2.7"/>
						<circle id="XMLID_281_" class="st2" cx="162.5" cy="185.2" r="2.7"/>
						<circle id="XMLID_280_" class="st2" cx="154.8" cy="185.2" r="2.7"/>
						<circle id="XMLID_279_" class="st2" cx="147.1" cy="185.2" r="2.7"/>
					</g>
					<g>
						<circle id="XMLID_278_" class="st2" cx="170.1" cy="211.6" r="2.7"/>
						<circle id="XMLID_277_" class="st2" cx="162.5" cy="211.6" r="2.7"/>
						<circle id="XMLID_276_" class="st2" cx="154.8" cy="211.6" r="2.7"/>
						<circle id="XMLID_275_" class="st2" cx="147.1" cy="211.6" r="2.7"/>
					</g>
					<g>
						<circle id="XMLID_274_" class="st2" cx="170.1" cy="237.9" r="2.7"/>
						<circle id="XMLID_273_" class="st2" cx="162.5" cy="237.9" r="2.7"/>
						<circle id="XMLID_272_" class="st2" cx="154.8" cy="237.9" r="2.7"/>
						<circle id="XMLID_271_" class="st2" cx="147.1" cy="237.9" r="2.7"/>
					</g>
					<circle id="XMLID_270_" class="st0" cx="133.1" cy="53.4" r="5.8"/>
					<circle id="XMLID_269_" class="st0" cx="133.1" cy="79.7" r="5.8"/>
					<circle id="XMLID_268_" class="st0" cx="133.1" cy="106.1" r="5.8"/>
					<circle id="XMLID_267_" class="st0" cx="133.1" cy="132.5" r="5.8"/>
					<circle id="XMLID_266_" class="st0" cx="133.1" cy="158.8" r="5.8"/>
					<circle id="XMLID_265_" class="st0" cx="133.1" cy="185.2" r="5.8"/>
					<circle id="XMLID_264_" class="st0" cx="133.1" cy="211.6" r="5.8"/>
					<circle id="XMLID_263_" class="st0" cx="133.1" cy="237.9" r="5.8"/>
				</g>
			</g>
			<g>
				<g>
					<g>
						<rect id="XMLID_262_" x="269.4" y="253.3" class="st1" width="94" height="11.1"/>
						<rect id="XMLID_261_" x="363.4" y="253.3" class="st0" width="15.6" height="11.1"/>
						<rect id="XMLID_260_" x="264.1" y="57.8" class="st2" width="99.2" height="195.4"/>
						<rect id="XMLID_259_" x="271" y="56.2" class="st1" width="106.3" height="1.7"/>
						<rect id="XMLID_258_" x="363.4" y="57.8" class="st1" width="20.9" height="195.4"/>
					</g>
					<g>
						<rect id="XMLID_257_" x="266.5" y="60.2" class="st1" width="94.3" height="21.4"/>
						<rect id="XMLID_256_" x="266.5" y="229.4" class="st1" width="94.3" height="21.4"/>
						<rect id="XMLID_255_" x="266.5" y="205.2" class="st1" width="94.3" height="21.4"/>
						<rect id="XMLID_254_" x="266.5" y="181" class="st1" width="94.3" height="21.4"/>
						<rect id="XMLID_253_" x="266.5" y="156.9" class="st1" width="94.3" height="21.4"/>
						<rect id="XMLID_252_" x="266.5" y="132.7" class="st1" width="94.3" height="21.4"/>
						<rect id="XMLID_251_" x="266.5" y="108.5" class="st1" width="94.3" height="21.4"/>
						<rect id="XMLID_250_" x="266.5" y="84.3" class="st1" width="94.3" height="21.4"/>
					</g>
					<path id="XMLID_249_" class="st0" d="M272.8,78.5h45.4c1.8,0,3.2-1.4,3.2-3.2v-9c0-1.8-1.4-3.2-3.2-3.2h-45.4
						c-1.8,0-3.2,1.4-3.2,3.2v9C269.6,77.1,271,78.5,272.8,78.5z"/>
					<path id="XMLID_248_" class="st2" d="M276.2,71.9v-2c0-0.6-0.4-1-1-1H273c-0.6,0-1,0.4-1,1v2c0,0.6,0.4,1,1,1h2.2
						C275.8,72.8,276.2,72.4,276.2,71.9z"/>
					<path id="XMLID_247_" class="st0" d="M272.8,102.7h45.4c1.8,0,3.2-1.4,3.2-3.2v-9c0-1.8-1.4-3.2-3.2-3.2h-45.4
						c-1.8,0-3.2,1.4-3.2,3.2v9C269.6,101.3,271,102.7,272.8,102.7z"/>
					<path id="XMLID_246_" class="st2" d="M276.2,96.1v-2c0-0.6-0.4-1-1-1H273c-0.6,0-1,0.4-1,1v2c0,0.6,0.4,1,1,1h2.2
						C275.8,97,276.2,96.6,276.2,96.1z"/>
					<path id="XMLID_245_" class="st0" d="M272.8,126.8h45.4c1.8,0,3.2-1.4,3.2-3.2v-9c0-1.8-1.4-3.2-3.2-3.2h-45.4
						c-1.8,0-3.2,1.4-3.2,3.2v9C269.6,125.4,271,126.8,272.8,126.8z"/>
					<path id="XMLID_244_" class="st2" d="M276.2,120.2v-2c0-0.6-0.4-1-1-1H273c-0.6,0-1,0.4-1,1v2c0,0.6,0.4,1,1,1h2.2
						C275.8,121.2,276.2,120.8,276.2,120.2z"/>
					<path id="XMLID_243_" class="st0" d="M272.8,151h45.4c1.8,0,3.2-1.4,3.2-3.2v-9c0-1.8-1.4-3.2-3.2-3.2h-45.4
						c-1.8,0-3.2,1.4-3.2,3.2v9C269.6,149.6,271,151,272.8,151z"/>
					<path id="XMLID_242_" class="st2" d="M276.2,144.4v-2c0-0.6-0.4-1-1-1H273c-0.6,0-1,0.4-1,1v2c0,0.6,0.4,1,1,1h2.2
						C275.8,145.4,276.2,145,276.2,144.4z"/>
					<path id="XMLID_241_" class="st0" d="M272.8,175.3h45.4c1.8,0,3.2-1.4,3.2-3.2v-9c0-1.8-1.4-3.2-3.2-3.2h-45.4
						c-1.8,0-3.2,1.4-3.2,3.2v9C269.6,173.8,271,175.3,272.8,175.3z"/>
					<path id="XMLID_240_" class="st2" d="M276.2,168.6v-2c0-0.6-0.4-1-1-1H273c-0.6,0-1,0.4-1,1v2c0,0.6,0.4,1,1,1h2.2
						C275.8,169.6,276.2,169.1,276.2,168.6z"/>
					<path id="XMLID_239_" class="st0" d="M272.8,199.5h45.4c1.8,0,3.2-1.4,3.2-3.2v-9c0-1.8-1.4-3.2-3.2-3.2h-45.4
						c-1.8,0-3.2,1.4-3.2,3.2v9C269.6,198,271,199.5,272.8,199.5z"/>
					<path id="XMLID_238_" class="st2" d="M276.2,192.8v-2c0-0.6-0.4-1-1-1H273c-0.6,0-1,0.4-1,1v2c0,0.6,0.4,1,1,1h2.2
						C275.8,193.7,276.2,193.3,276.2,192.8z"/>
					<path id="XMLID_237_" class="st0" d="M272.8,223.6h45.4c1.8,0,3.2-1.4,3.2-3.2v-9c0-1.8-1.4-3.2-3.2-3.2h-45.4
						c-1.8,0-3.2,1.4-3.2,3.2v9C269.6,222.1,271,223.6,272.8,223.6z"/>
					<path id="XMLID_236_" class="st2" d="M276.2,216.9v-2c0-0.6-0.4-1-1-1H273c-0.6,0-1,0.4-1,1v2c0,0.6,0.4,1,1,1h2.2
						C275.8,217.9,276.2,217.5,276.2,216.9z"/>
					<path id="XMLID_235_" class="st0" d="M272.8,247.8h45.4c1.8,0,3.2-1.4,3.2-3.2v-9c0-1.8-1.4-3.2-3.2-3.2h-45.4
						c-1.8,0-3.2,1.4-3.2,3.2v9C269.6,246.3,271,247.8,272.8,247.8z"/>
					<path id="XMLID_234_" class="st2" d="M276.2,241.1v-2c0-0.6-0.4-1-1-1H273c-0.6,0-1,0.4-1,1v2c0,0.6,0.4,1,1,1h2.2
						C275.8,242.1,276.2,241.7,276.2,241.1z"/>
					<path id="XMLID_233_" class="st2" d="M282.4,71.9v-2c0-0.6-0.4-1-1-1h-2.2c-0.6,0-1,0.4-1,1v2c0,0.6,0.4,1,1,1h2.2
						C282,72.8,282.4,72.4,282.4,71.9z"/>
					<path id="XMLID_232_" class="st2" d="M282.4,96.1v-2c0-0.6-0.4-1-1-1h-2.2c-0.6,0-1,0.4-1,1v2c0,0.6,0.4,1,1,1h2.2
						C282,97,282.4,96.6,282.4,96.1z"/>
					<path id="XMLID_231_" class="st2" d="M282.4,120.2v-2c0-0.6-0.4-1-1-1h-2.2c-0.6,0-1,0.4-1,1v2c0,0.6,0.4,1,1,1h2.2
						C282,121.2,282.4,120.8,282.4,120.2z"/>
					<path id="XMLID_230_" class="st2" d="M282.4,144.4v-2c0-0.6-0.4-1-1-1h-2.2c-0.6,0-1,0.4-1,1v2c0,0.6,0.4,1,1,1h2.2
						C282,145.4,282.4,145,282.4,144.4z"/>
					<path id="XMLID_229_" class="st2" d="M282.4,168.6v-2c0-0.6-0.4-1-1-1h-2.2c-0.6,0-1,0.4-1,1v2c0,0.6,0.4,1,1,1h2.2
						C282,169.6,282.4,169.1,282.4,168.6z"/>
					<path id="XMLID_228_" class="st2" d="M282.4,192.8v-2c0-0.6-0.4-1-1-1h-2.2c-0.6,0-1,0.4-1,1v2c0,0.6,0.4,1,1,1h2.2
						C282,193.7,282.4,193.3,282.4,192.8z"/>
					<path id="XMLID_227_" class="st2" d="M282.4,216.9v-2c0-0.6-0.4-1-1-1h-2.2c-0.6,0-1,0.4-1,1v2c0,0.6,0.4,1,1,1h2.2
						C282,217.9,282.4,217.5,282.4,216.9z"/>
					<path id="XMLID_226_" class="st2" d="M282.4,241.1v-2c0-0.6-0.4-1-1-1h-2.2c-0.6,0-1,0.4-1,1v2c0,0.6,0.4,1,1,1h2.2
						C282,242.1,282.4,241.7,282.4,241.1z"/>
					<path id="XMLID_225_" class="st2" d="M288.7,71.9v-2c0-0.6-0.4-1-1-1h-2.2c-0.6,0-1,0.4-1,1v2c0,0.6,0.4,1,1,1h2.2
						C288.2,72.8,288.7,72.4,288.7,71.9z"/>
					<path id="XMLID_224_" class="st2" d="M288.7,96.1v-2c0-0.6-0.4-1-1-1h-2.2c-0.6,0-1,0.4-1,1v2c0,0.6,0.4,1,1,1h2.2
						C288.2,97,288.7,96.6,288.7,96.1z"/>
					<path id="XMLID_223_" class="st2" d="M288.7,120.2v-2c0-0.6-0.4-1-1-1h-2.2c-0.6,0-1,0.4-1,1v2c0,0.6,0.4,1,1,1h2.2
						C288.2,121.2,288.7,120.8,288.7,120.2z"/>
					<path id="XMLID_222_" class="st2" d="M288.7,144.4v-2c0-0.6-0.4-1-1-1h-2.2c-0.6,0-1,0.4-1,1v2c0,0.6,0.4,1,1,1h2.2
						C288.2,145.4,288.7,145,288.7,144.4z"/>
					<path id="XMLID_221_" class="st2" d="M288.7,168.6v-2c0-0.6-0.4-1-1-1h-2.2c-0.6,0-1,0.4-1,1v2c0,0.6,0.4,1,1,1h2.2
						C288.2,169.6,288.7,169.1,288.7,168.6z"/>
					<path id="XMLID_220_" class="st2" d="M288.7,192.8v-2c0-0.6-0.4-1-1-1h-2.2c-0.6,0-1,0.4-1,1v2c0,0.6,0.4,1,1,1h2.2
						C288.2,193.7,288.7,193.3,288.7,192.8z"/>
					<path id="XMLID_219_" class="st2" d="M288.7,216.9v-2c0-0.6-0.4-1-1-1h-2.2c-0.6,0-1,0.4-1,1v2c0,0.6,0.4,1,1,1h2.2
						C288.2,217.9,288.7,217.5,288.7,216.9z"/>
					<path id="XMLID_218_" class="st2" d="M288.7,241.1v-2c0-0.6-0.4-1-1-1h-2.2c-0.6,0-1,0.4-1,1v2c0,0.6,0.4,1,1,1h2.2
						C288.2,242.1,288.7,241.7,288.7,241.1z"/>
					<path id="XMLID_217_" class="st2" d="M294.9,71.9v-2c0-0.6-0.4-1-1-1h-2.2c-0.6,0-1,0.4-1,1v2c0,0.6,0.4,1,1,1h2.2
						C294.4,72.8,294.9,72.4,294.9,71.9z"/>
					<path id="XMLID_216_" class="st2" d="M294.9,96.1v-2c0-0.6-0.4-1-1-1h-2.2c-0.6,0-1,0.4-1,1v2c0,0.6,0.4,1,1,1h2.2
						C294.4,97,294.9,96.6,294.9,96.1z"/>
					<path id="XMLID_215_" class="st2" d="M294.9,120.2v-2c0-0.6-0.4-1-1-1h-2.2c-0.6,0-1,0.4-1,1v2c0,0.6,0.4,1,1,1h2.2
						C294.4,121.2,294.9,120.8,294.9,120.2z"/>
					<path id="XMLID_214_" class="st2" d="M294.9,144.4v-2c0-0.6-0.4-1-1-1h-2.2c-0.6,0-1,0.4-1,1v2c0,0.6,0.4,1,1,1h2.2
						C294.4,145.4,294.9,145,294.9,144.4z"/>
					<path id="XMLID_213_" class="st2" d="M294.9,168.6v-2c0-0.6-0.4-1-1-1h-2.2c-0.6,0-1,0.4-1,1v2c0,0.6,0.4,1,1,1h2.2
						C294.4,169.6,294.9,169.1,294.9,168.6z"/>
					<path id="XMLID_212_" class="st2" d="M294.9,192.8v-2c0-0.6-0.4-1-1-1h-2.2c-0.6,0-1,0.4-1,1v2c0,0.6,0.4,1,1,1h2.2
						C294.4,193.7,294.9,193.3,294.9,192.8z"/>
					<path id="XMLID_211_" class="st2" d="M294.9,216.9v-2c0-0.6-0.4-1-1-1h-2.2c-0.6,0-1,0.4-1,1v2c0,0.6,0.4,1,1,1h2.2
						C294.4,217.9,294.9,217.5,294.9,216.9z"/>
					<path id="XMLID_210_" class="st2" d="M294.9,241.1v-2c0-0.6-0.4-1-1-1h-2.2c-0.6,0-1,0.4-1,1v2c0,0.6,0.4,1,1,1h2.2
						C294.4,242.1,294.9,241.7,294.9,241.1z"/>
					<g>
						<ellipse id="XMLID_209_" class="st2" cx="329.1" cy="70.8" rx="2.6" ry="2.5"/>
						<ellipse id="XMLID_208_" class="st2" cx="336.4" cy="70.8" rx="2.6" ry="2.5"/>
						<ellipse id="XMLID_207_" class="st2" cx="343.7" cy="70.8" rx="2.6" ry="2.5"/>
						<ellipse id="XMLID_206_" class="st2" cx="351.1" cy="70.8" rx="2.6" ry="2.5"/>
					</g>
					<g>
						<ellipse id="XMLID_205_" class="st2" cx="329.1" cy="95" rx="2.6" ry="2.5"/>
						<ellipse id="XMLID_204_" class="st2" cx="336.4" cy="95" rx="2.6" ry="2.5"/>
						<ellipse id="XMLID_203_" class="st2" cx="343.7" cy="95" rx="2.6" ry="2.5"/>
						<ellipse id="XMLID_202_" class="st2" cx="351.1" cy="95" rx="2.6" ry="2.5"/>
					</g>
					<g>
						<ellipse id="XMLID_201_" class="st2" cx="329.1" cy="119.2" rx="2.6" ry="2.5"/>
						<ellipse id="XMLID_200_" class="st2" cx="336.4" cy="119.2" rx="2.6" ry="2.5"/>
						<ellipse id="XMLID_199_" class="st2" cx="343.7" cy="119.2" rx="2.6" ry="2.5"/>
						<ellipse id="XMLID_198_" class="st2" cx="351.1" cy="119.2" rx="2.6" ry="2.5"/>
					</g>
					<g>
						<ellipse id="XMLID_197_" class="st2" cx="329.1" cy="143.4" rx="2.6" ry="2.5"/>
						<ellipse id="XMLID_196_" class="st2" cx="336.4" cy="143.4" rx="2.6" ry="2.5"/>
						<ellipse id="XMLID_195_" class="st2" cx="343.7" cy="143.4" rx="2.6" ry="2.5"/>
						<ellipse id="XMLID_194_" class="st2" cx="351.1" cy="143.4" rx="2.6" ry="2.5"/>
					</g>
					<g>
						<ellipse id="XMLID_193_" class="st2" cx="329.1" cy="167.6" rx="2.6" ry="2.5"/>
						<ellipse id="XMLID_192_" class="st2" cx="336.4" cy="167.6" rx="2.6" ry="2.5"/>
						<ellipse id="XMLID_191_" class="st2" cx="343.7" cy="167.6" rx="2.6" ry="2.5"/>
						<ellipse id="XMLID_190_" class="st2" cx="351.1" cy="167.6" rx="2.6" ry="2.5"/>
					</g>
					<g>
						<ellipse id="XMLID_189_" class="st2" cx="329.1" cy="191.8" rx="2.6" ry="2.5"/>
						<ellipse id="XMLID_188_" class="st2" cx="336.4" cy="191.8" rx="2.6" ry="2.5"/>
						<ellipse id="XMLID_187_" class="st2" cx="343.7" cy="191.8" rx="2.6" ry="2.5"/>
						<ellipse id="XMLID_186_" class="st2" cx="351.1" cy="191.8" rx="2.6" ry="2.5"/>
					</g>
					<g>
						<ellipse id="XMLID_185_" class="st2" cx="329.1" cy="216" rx="2.6" ry="2.5"/>
						<ellipse id="XMLID_184_" class="st2" cx="336.4" cy="216" rx="2.6" ry="2.5"/>
						<ellipse id="XMLID_183_" class="st2" cx="343.7" cy="216" rx="2.6" ry="2.5"/>
						<ellipse id="XMLID_182_" class="st2" cx="351.1" cy="216" rx="2.6" ry="2.5"/>
					</g>
					<g>
						<ellipse id="XMLID_181_" class="st2" cx="329.1" cy="240.2" rx="2.6" ry="2.5"/>
						<ellipse id="XMLID_180_" class="st2" cx="336.4" cy="240.2" rx="2.6" ry="2.5"/>
						<ellipse id="XMLID_179_" class="st2" cx="343.7" cy="240.2" rx="2.6" ry="2.5"/>
						<ellipse id="XMLID_178_" class="st2" cx="351.1" cy="240.2" rx="2.6" ry="2.5"/>
					</g>
				</g>
			</g>
		</g>
	</g>
</g>
<g id="Objects">
	<g>
		<ellipse id="XMLID_177_" class="st4" cx="249" cy="291.4" rx="155.4" ry="9.1"/>
		<g>
			<g>
				<g>
					<g>
						<rect id="XMLID_176_" x="143.9" y="281.5" class="st5" width="93.7" height="10.7"/>
						<g class="st6">
							<rect id="XMLID_175_" x="146.3" y="283" class="st7" width="2.3" height="7.6"/>
							<rect id="XMLID_174_" x="150.5" y="283" class="st7" width="2.3" height="7.6"/>
							<rect id="XMLID_173_" x="154.6" y="283" class="st7" width="2.3" height="7.6"/>
							<rect id="XMLID_172_" x="158.7" y="283" class="st7" width="2.3" height="7.6"/>
							<rect id="XMLID_171_" x="162.9" y="283" class="st7" width="2.3" height="7.6"/>
							<rect id="XMLID_170_" x="166.9" y="283" class="st7" width="2.3" height="7.6"/>
							<rect id="XMLID_169_" x="171.1" y="283" class="st7" width="2.3" height="7.6"/>
							<rect id="XMLID_168_" x="175.2" y="283" class="st7" width="2.3" height="7.6"/>
							<rect id="XMLID_167_" x="179.4" y="283" class="st7" width="2.3" height="7.6"/>
							<rect id="XMLID_166_" x="183.5" y="283" class="st7" width="2.3" height="7.6"/>
							<rect id="XMLID_165_" x="187.5" y="283" class="st7" width="2.3" height="7.6"/>
							<rect id="XMLID_164_" x="191.7" y="283" class="st7" width="2.3" height="7.6"/>
							<rect id="XMLID_163_" x="195.8" y="283" class="st7" width="2.3" height="7.6"/>
							<rect id="XMLID_162_" x="200" y="283" class="st7" width="2.3" height="7.6"/>
							<rect id="XMLID_161_" x="204" y="283" class="st7" width="2.3" height="7.6"/>
							<rect id="XMLID_160_" x="208.2" y="283" class="st7" width="2.3" height="7.6"/>
							<rect id="XMLID_159_" x="212.3" y="283" class="st7" width="2.3" height="7.6"/>
							<rect id="XMLID_158_" x="216.4" y="283" class="st7" width="2.3" height="7.6"/>
							<rect id="XMLID_157_" x="220.6" y="283" class="st7" width="2.3" height="7.6"/>
							<rect id="XMLID_156_" x="224.6" y="283" class="st7" width="2.3" height="7.6"/>
							<rect id="XMLID_155_" x="228.8" y="283" class="st7" width="2.3" height="7.6"/>
							<rect id="XMLID_154_" x="232.9" y="283" class="st7" width="2.3" height="7.6"/>
						</g>
						<rect id="XMLID_153_" x="237.6" y="281.5" class="st8" width="14.6" height="10.7"/>
						<rect id="XMLID_152_" x="139.1" y="92.6" class="st9" width="98.6" height="189"/>
						<rect id="XMLID_151_" x="145.5" y="90.9" class="st10" width="105.1" height="1.6"/>
						<g>
							<rect id="XMLID_150_" x="135.1" y="180.6" class="st11" width="0.8" height="7.9"/>
							<rect id="XMLID_149_" x="135.1" y="191.3" class="st11" width="0.8" height="20.7"/>
						</g>
						<rect id="XMLID_148_" x="237.6" y="92.6" class="st11" width="19.5" height="189"/>
					</g>
					<g>
						<path id="XMLID_147_" class="st12" d="M232.7,161.3h-88.8c-1.4,0-2.6-1.2-2.6-2.6v-13.5c0-1.4,1.2-2.6,2.6-2.6h88.8
							c1.4,0,2.6,1.2,2.6,2.6v13.5C235.4,160.1,234.2,161.3,232.7,161.3z"/>
						<path id="XMLID_146_" class="st11" d="M227.4,149.4l-3.8-7.9v20.7h3.9h1h6.7v-10.3h-3.9C229.8,151.9,228.2,151,227.4,149.4z"
							/>
						<rect id="XMLID_145_" x="141.4" y="94.9" class="st13" width="94" height="20.7"/>
						<rect id="XMLID_144_" x="141.4" y="258.4" class="st13" width="94" height="20.7"/>
						<rect id="XMLID_143_" x="141.4" y="235" class="st13" width="94" height="20.7"/>
						<rect id="XMLID_142_" x="141.4" y="211.7" class="st13" width="94" height="20.7"/>
						<rect id="XMLID_141_" x="141.4" y="188.3" class="st13" width="94" height="20.7"/>
						<rect id="XMLID_140_" x="141.4" y="165" class="st13" width="94" height="20.7"/>
						<rect id="XMLID_139_" x="129.7" y="141.6" class="st13" width="94" height="20.7"/>
						<rect id="XMLID_138_" x="141.4" y="118.2" class="st13" width="94" height="20.7"/>
					</g>
					<path id="XMLID_137_" class="st11" d="M229.5,112.6h-35.7c-1.7,0-3-1.4-3-3v-8.7c0-1.7,1.4-3,3-3h35.7c1.7,0,3,1.4,3,3v8.7
						C232.5,111.2,231.1,112.6,229.5,112.6z"/>
					<path id="XMLID_136_" class="st14" d="M212.9,105.8v-1.2c0-0.7,0.6-1.3,1.3-1.3h11.6c0.7,0,1.3,0.6,1.3,1.3v1.2
						c0,0.7-0.6,1.3-1.3,1.3h-11.6C213.4,107.1,212.9,106.5,212.9,105.8z"/>
					<path id="XMLID_135_" class="st11" d="M229.5,136h-35.7c-1.7,0-3-1.4-3-3v-8.7c0-1.7,1.4-3,3-3h35.7c1.7,0,3,1.4,3,3v8.7
						C232.5,134.6,231.1,136,229.5,136z"/>
					<path id="XMLID_134_" class="st14" d="M212.9,129.2V128c0-0.7,0.6-1.3,1.3-1.3h11.6c0.7,0,1.3,0.6,1.3,1.3v1.2
						c0,0.7-0.6,1.3-1.3,1.3h-11.6C213.4,130.5,212.9,129.9,212.9,129.2z"/>
					<path id="XMLID_133_" class="st11" d="M217.8,159.3h-35.7c-1.7,0-3-1.4-3-3v-8.7c0-1.7,1.4-3,3-3h35.7c1.7,0,3,1.4,3,3v8.7
						C220.8,157.9,219.4,159.3,217.8,159.3z"/>
					<path id="XMLID_132_" class="st14" d="M201.2,152.6v-1.2c0-0.7,0.6-1.3,1.3-1.3h11.6c0.7,0,1.3,0.6,1.3,1.3v1.2
						c0,0.7-0.6,1.3-1.3,1.3h-11.6C201.7,153.9,201.2,153.3,201.2,152.6z"/>
					<path id="XMLID_131_" class="st11" d="M229.5,182.7h-35.7c-1.7,0-3-1.4-3-3v-8.7c0-1.7,1.4-3,3-3h35.7c1.7,0,3,1.4,3,3v8.7
						C232.5,181.3,231.1,182.7,229.5,182.7z"/>
					<path id="XMLID_130_" class="st14" d="M212.9,175.9v-1.2c0-0.7,0.6-1.3,1.3-1.3h11.6c0.7,0,1.3,0.6,1.3,1.3v1.2
						c0,0.7-0.6,1.3-1.3,1.3h-11.6C213.4,177.2,212.9,176.6,212.9,175.9z"/>
					<path id="XMLID_129_" class="st11" d="M229.5,206.1h-35.7c-1.7,0-3-1.4-3-3v-8.7c0-1.7,1.4-3,3-3h35.7c1.7,0,3,1.4,3,3v8.7
						C232.5,204.7,231.1,206.1,229.5,206.1z"/>
					<path id="XMLID_128_" class="st14" d="M212.9,199.3v-1.2c0-0.7,0.6-1.3,1.3-1.3h11.6c0.7,0,1.3,0.6,1.3,1.3v1.2
						c0,0.7-0.6,1.3-1.3,1.3h-11.6C213.4,200.6,212.9,200,212.9,199.3z"/>
					<path id="XMLID_127_" class="st11" d="M229.5,229.4h-35.7c-1.7,0-3-1.4-3-3v-8.7c0-1.7,1.4-3,3-3h35.7c1.7,0,3,1.4,3,3v8.7
						C232.5,228.1,231.1,229.4,229.5,229.4z"/>
					<path id="XMLID_126_" class="st14" d="M212.9,222.7v-1.2c0-0.7,0.6-1.3,1.3-1.3h11.6c0.7,0,1.3,0.6,1.3,1.3v1.2
						c0,0.7-0.6,1.3-1.3,1.3h-11.6C213.4,224,212.9,223.3,212.9,222.7z"/>
					<path id="XMLID_125_" class="st11" d="M229.5,252.8h-35.7c-1.7,0-3-1.4-3-3V241c0-1.7,1.4-3,3-3h35.7c1.7,0,3,1.4,3,3v8.7
						C232.5,251.5,231.1,252.8,229.5,252.8z"/>
					<path id="XMLID_124_" class="st14" d="M212.9,246v-1.2c0-0.7,0.6-1.3,1.3-1.3h11.6c0.7,0,1.3,0.6,1.3,1.3v1.2
						c0,0.7-0.6,1.3-1.3,1.3h-11.6C213.4,247.3,212.9,246.7,212.9,246z"/>
					<path id="XMLID_123_" class="st11" d="M229.5,276.1h-35.7c-1.7,0-3-1.4-3-3v-8.7c0-1.7,1.4-3,3-3h35.7c1.7,0,3,1.4,3,3v8.7
						C232.5,274.8,231.1,276.1,229.5,276.1z"/>
					<path id="XMLID_122_" class="st14" d="M212.9,269.4v-1.2c0-0.7,0.6-1.3,1.3-1.3h11.6c0.7,0,1.3,0.6,1.3,1.3v1.2
						c0,0.7-0.6,1.3-1.3,1.3h-11.6C213.4,270.7,212.9,270.1,212.9,269.4z"/>
					<g>
						<circle id="XMLID_121_" class="st11" cx="183.5" cy="105.2" r="2.4"/>
						<circle id="XMLID_120_" class="st11" cx="176.6" cy="105.2" r="2.4"/>
						<circle id="XMLID_119_" class="st15" cx="169.8" cy="105.2" r="2.4"/>
						<circle id="XMLID_118_" class="st11" cx="163" cy="105.2" r="2.4"/>
					</g>
					<g>
						<circle id="XMLID_117_" class="st11" cx="183.5" cy="128.6" r="2.4"/>
						<circle id="XMLID_116_" class="st11" cx="176.6" cy="128.6" r="2.4"/>
						<circle id="XMLID_115_" class="st11" cx="169.8" cy="128.6" r="2.4"/>
						<circle id="XMLID_114_" class="st15" cx="163" cy="128.6" r="2.4"/>
					</g>
					<g>
						<circle id="XMLID_113_" class="st15" cx="171.8" cy="151.9" r="2.4"/>
						<circle id="XMLID_112_" class="st11" cx="164.9" cy="151.9" r="2.4"/>
						<circle id="XMLID_111_" class="st15" cx="158.1" cy="151.9" r="2.4"/>
						<circle id="XMLID_110_" class="st11" cx="151.3" cy="151.9" r="2.4"/>
					</g>
					<g>
						<circle id="XMLID_109_" class="st15" cx="183.5" cy="175.3" r="2.4"/>
						<circle id="XMLID_108_" class="st15" cx="176.6" cy="175.3" r="2.4"/>
						<circle id="XMLID_107_" class="st11" cx="169.8" cy="175.3" r="2.4"/>
						<circle id="XMLID_106_" class="st11" cx="163" cy="175.3" r="2.4"/>
					</g>
					<g>
						<circle id="XMLID_105_" class="st11" cx="183.5" cy="198.6" r="2.4"/>
						<circle id="XMLID_104_" class="st15" cx="176.6" cy="198.6" r="2.4"/>
						<circle id="XMLID_103_" class="st11" cx="169.8" cy="198.6" r="2.4"/>
						<circle id="XMLID_102_" class="st11" cx="163" cy="198.6" r="2.4"/>
					</g>
					<g>
						<circle id="XMLID_101_" class="st11" cx="183.5" cy="222" r="2.4"/>
						<circle id="XMLID_100_" class="st11" cx="176.6" cy="222" r="2.4"/>
						<circle id="XMLID_99_" class="st15" cx="169.8" cy="222" r="2.4"/>
						<circle id="XMLID_98_" class="st15" cx="163" cy="222" r="2.4"/>
					</g>
					<g>
						<circle id="XMLID_97_" class="st15" cx="183.5" cy="245.4" r="2.4"/>
						<circle id="XMLID_96_" class="st11" cx="176.6" cy="245.4" r="2.4"/>
						<circle id="XMLID_95_" class="st11" cx="169.8" cy="245.4" r="2.4"/>
						<circle id="XMLID_94_" class="st11" cx="163" cy="245.4" r="2.4"/>
					</g>
					<g>
						<circle id="XMLID_93_" class="st11" cx="183.5" cy="268.8" r="2.4"/>
						<circle id="XMLID_92_" class="st11" cx="176.6" cy="268.8" r="2.4"/>
						<circle id="XMLID_91_" class="st15" cx="169.8" cy="268.8" r="2.4"/>
						<circle id="XMLID_90_" class="st11" cx="163" cy="268.8" r="2.4"/>
					</g>
					<circle id="XMLID_89_" class="st14" cx="150.7" cy="105.2" r="5.2"/>
					<circle id="XMLID_88_" class="st14" cx="150.7" cy="128.6" r="5.2"/>
					<circle id="XMLID_87_" class="st14" cx="139" cy="151.9" r="5.2"/>
					<circle id="XMLID_86_" class="st14" cx="150.7" cy="175.3" r="5.2"/>
					<circle id="XMLID_85_" class="st14" cx="150.7" cy="198.6" r="5.2"/>
					<circle id="XMLID_84_" class="st14" cx="150.7" cy="222" r="5.2"/>
					<circle id="XMLID_83_" class="st14" cx="150.7" cy="245.4" r="5.2"/>
					<circle id="XMLID_82_" class="st14" cx="150.7" cy="268.8" r="5.2"/>
				</g>
				<g>
					<path id="XMLID_81_" class="st11" d="M227,74.5c-0.7-4-3.2-7.4-6.6-9.3l0,0c0-0.1,0-0.2,0-0.3c0-7.4-6-13.4-13.4-13.4H202v1
						c-3.4,1.4-6.1,4.2-7.4,7.7c-0.4-0.1-0.9-0.1-1.4-0.1c-3.4,0-6.3,2.1-7.5,5c-1.7-0.4-3.5-0.4-5.5,0.4c-3.6,1.4-6.1,4.8-6.2,8.7
						c-0.1,5.4,4.2,9.8,9.5,9.8l0,0h18.9h17.3c3.9,0,7.3-3.1,7.4-7.1v-0.1C227.2,76,227.1,75.2,227,74.5z"/>
					<path id="XMLID_80_" class="st9" d="M221.9,74.5c-0.7-4-3.2-7.4-6.6-9.3l0,0c0-0.1,0-0.2,0-0.3c0-7.4-6-13.4-13.4-13.4
						c-5.8,0-10.7,3.6-12.5,8.7c-0.4-0.1-0.9-0.1-1.4-0.1c-3.4,0-6.3,2.1-7.5,5c-1.7-0.4-3.5-0.4-5.5,0.4c-3.6,1.4-6.1,4.8-6.2,8.7
						c-0.1,5.4,4.2,9.8,9.5,9.8l0,0h18.9h17.3c3.9,0,7.3-3.1,7.4-7.1v-0.1C222.1,76,222,75.2,221.9,74.5z"/>
				</g>
			</g>
			<g>
				<rect id="XMLID_79_" x="202.3" y="43.1" class="st5" width="0.6" height="2"/>
				<path class="st5" d="M331.9,88.8h-0.6v-4h0.6V88.8z M331.9,80.9h-0.6v-4h0.6V80.9z M331.9,72.8h-0.6v-4h0.6V72.8z M331.9,64.8
					h-0.6v-4h0.6V64.8z M331.9,56.8h-0.6v-4h0.6V56.8z M331.9,48.8h-0.6v-4h0.6V48.8z M331.9,40.8h-0.6v-4h0.6V40.8z M202.9,39.1
					h-0.6v-2.7c0-0.4,0-0.9,0.1-1.3l0.6,0.1c-0.1,0.4-0.1,0.8-0.1,1.2V39.1z M330.6,32.9c-0.4-1.2-1.1-2.3-1.9-3.3l0.5-0.4
					c0.9,1,1.6,2.2,2.1,3.5L330.6,32.9z M204.2,31.5l-0.6-0.3c0.6-1.2,1.5-2.2,2.6-3.1l0.4,0.5C205.6,29.3,204.8,30.4,204.2,31.5z
					 M325.6,27.3c-1.1-0.6-2.4-1-3.7-1l0.1-0.6c1.4,0.1,2.7,0.5,3.9,1.1L325.6,27.3z M210,26.7l-0.2-0.6c1-0.3,2.2-0.5,3.3-0.5h0.8
					v0.6H213C212.1,26.2,211,26.4,210,26.7z M317.9,26.2h-4v-0.6h4V26.2z M309.9,26.2h-4v-0.6h4V26.2z M301.9,26.2h-4v-0.6h4V26.2z
					 M293.9,26.2h-4v-0.6h4V26.2z M285.9,26.2h-4v-0.6h4V26.2z M277.8,26.2h-4v-0.6h4V26.2z M269.9,26.2h-4v-0.6h4V26.2z
					 M261.9,26.2h-4v-0.6h4V26.2z M253.9,26.2h-4v-0.6h4V26.2z M245.9,26.2h-4v-0.6h4V26.2z M237.9,26.2h-4v-0.6h4V26.2z
					 M229.8,26.2h-4v-0.6h4V26.2z M221.8,26.2h-4v-0.6h4V26.2z"/>
				<rect id="XMLID_53_" x="331.1" y="92.9" class="st5" width="0.6" height="2"/>
			</g>
			<g>
				<g>
					<polygon id="XMLID_52_" class="st16" points="278,286.2 283.9,286.2 284.5,272.5 278.6,272.5 					"/>
					<path id="XMLID_51_" class="st17" d="M284.1,285.5h-6.4c-0.2,0-0.5,0.2-0.5,0.4l-1,5.2c-0.1,0.6,0.3,1,0.9,1
						c2.3,0,5.7-0.2,8.6-0.2c3.4,0,3.9,0.2,7.9,0.2c2.4,0,3-2.4,2-2.6c-4.6-1-5.9-1.1-10-3.6C285.1,285.7,284.6,285.5,284.1,285.5z"
						/>
					<polygon id="XMLID_50_" class="st18" points="284.5,272.5 284.2,279.6 278.3,279.6 278.6,272.5 					"/>
					<path id="XMLID_49_" class="st16" d="M317.4,90.2c-0.1,1.8-0.2,3.8-0.3,5.8c-0.1,1.9-0.1,3.9-0.1,5.8c0,1.9,0.1,3.8,0.2,5.7
						c0.2,1.8,0.4,3.6,0.9,5.1c0.2,0.8,0.5,1.4,0.7,1.8c0,0.1,0.2,0.3,0.3,0.5l0.4,0.6c0.2,0.4,0.5,0.8,0.8,1.2
						c1,1.6,2.2,3.1,3.4,4.6c2.4,3.1,5,6.2,7.6,9.2l-3,3.6c-3.6-2.3-6.9-4.9-10-7.8c-1.6-1.4-3-3-4.5-4.6c-0.3-0.4-0.7-0.8-1-1.3
						l-0.5-0.6c-0.2-0.2-0.3-0.4-0.6-0.7c-0.9-1.3-1.4-2.6-1.8-3.7c-0.9-2.4-1.3-4.6-1.6-6.8c-0.3-2.2-0.5-4.4-0.6-6.5
						c-0.1-2.2-0.1-4.2,0-6.4c0.1-2.2,0.2-4.2,0.4-6.4L317.4,90.2z"/>
					<path id="XMLID_48_" class="st19" d="M319.5,102.3l-2.5,1l-4.2,1.7l-7.5,3c0,0-3.4-17.7-1.6-23.1c2-5.9,9.1-5.8,13,1
						C320.6,92.4,319.5,102.3,319.5,102.3z"/>
					<path id="XMLID_47_" class="st20" d="M316.7,103.4l-3.8,1.5c-0.6-2.8-1.2-7.5,0.6-10.9C316.1,96.2,316.5,100.6,316.7,103.4z"/>
					<path id="XMLID_46_" class="st19" d="M312.9,128.1h-32.2c-0.2-2.9,0.5-10.7,0-21.4c-0.1-2.5-0.3-5-0.6-7.8
						c-0.6-5.7-1.5-11.9-3-18.4c0,0,5.5-1.1,10.7-1.4c4.1-0.2,10.1-0.3,13.7,0c4.8,0.4,9.4,1.7,9.4,1.7S318.4,94.2,312.9,128.1z"/>
					<path id="XMLID_45_" class="st20" d="M280.7,106.7c-0.1-2.5-0.3-5-0.6-7.8c1-0.6,2.4-0.7,2.6,3.1
						C283.1,105.5,281.9,106.5,280.7,106.7z"/>
					<polygon id="XMLID_44_" class="st16" points="340.5,135.1 335.9,138 330.1,136.8 334.7,131.1 					"/>
					<path id="XMLID_43_" class="st16" d="M329.3,130.2l5.4,0.9l-4.6,5.7c0,0-2.9-0.3-3.6-4.2L329.3,130.2z"/>
					<path id="XMLID_42_" class="st16" d="M288.6,63.6c1,4.4,2.2,12.5-0.8,15.4c0,0,1.5,3,9.7,3c7.5,0,4-3,4-3c-5-1.2-5-4.8-4.2-8.3
						L288.6,63.6z"/>
					<path id="XMLID_41_" class="st18" d="M292.1,66.6l5.1,4.2c-0.2,0.8-0.3,1.6-0.3,2.4c-1.5,1.5-4.6-2.3-4.8-4.3
						C292,68,292,67.1,292.1,66.6z"/>
					<path id="XMLID_40_" class="st7" d="M306.1,52.5c2.1,2.6-0.3,10.6-4.6,10.3C297.2,62.6,302.2,47.6,306.1,52.5z"/>
					<path id="XMLID_39_" class="st16" d="M289.5,56.3c-0.5,5.9-1,9.4,1.5,12.9c3.8,5.3,11.5,3.9,13.8-1.7c2-5,2.4-13.9-3-17.3
						C296.4,47,289.9,50.4,289.5,56.3z"/>
					<path id="XMLID_38_" class="st7" d="M287.3,48.9l6.4,2.2c-2.8,3.8,1.3,12.7-3.7,11C287.8,61.3,280.3,53.1,287.3,48.9z"/>
					<path id="XMLID_37_" class="st7" d="M290.4,50.4c2.4,1.8,12.3,3.9,17.9,0.7c-1.4-0.3-3.4-1.3-3.4-1.3s4.2-0.2,6.1-3.3
						c-4,0.6-6.7-0.6-7.8-1c1.8-0.4,3.8-2.3,4.3-3.7c-7.8,0.1-24.5,1.7-21.6,7.1C289,54.6,290.4,50.4,290.4,50.4z"/>
					<path id="XMLID_36_" class="st7" d="M287.1,49.7c0,0-1.9-0.9-3.2-2.2C283.5,48.3,283.5,50.8,287.1,49.7z"/>
					<path id="XMLID_35_" class="st16" d="M285.9,62.3c0.6,1.5,1.9,2.6,3.1,3.1c1.8,0.7,3-0.8,2.6-2.7c-0.3-1.7-1.8-4.1-3.7-4.1
						C286,58.7,285.1,60.7,285.9,62.3z"/>
					<polygon id="XMLID_34_" class="st16" points="296,286.2 302,286.2 303.2,272.5 297.3,272.5 					"/>
					<path id="XMLID_33_" class="st17" d="M302.2,285.5h-6.4c-0.2,0-0.5,0.2-0.5,0.4l-1,5.2c-0.1,0.6,0.3,1,0.9,1
						c2.3,0,5.7-0.2,8.6-0.2c3.4,0,6.3,0.2,10.3,0.2c2.4,0,3-2.4,2-2.6c-4.6-1-8.4-1.1-12.5-3.6
						C303.3,285.7,302.8,285.5,302.2,285.5z"/>
					<polygon id="XMLID_32_" class="st18" points="303.2,272.5 302.5,279.6 296.7,279.6 297.3,272.5 					"/>
					<path class="st21" d="M304.7,286.4c0.5,0.1,0.9,0.1,1.2-0.2c0.2-0.2,0.4-0.4,0.4-0.7c0-0.2-0.1-0.4-0.2-0.4
						c-0.6-0.4-2.7,0.4-3,0.6c-0.1,0-0.1,0.1-0.1,0.2s0,0.1,0.1,0.2C303.6,286.2,304.1,286.3,304.7,286.4z M305.7,285.4
						c0.1,0,0.2,0,0.2,0.1c0,0,0.1,0.1,0.1,0.2c0,0.2-0.1,0.4-0.2,0.5c-0.3,0.2-1.1,0.2-2.2-0.2
						C304.3,285.5,305.3,285.3,305.7,285.4z"/>
					<path class="st21" d="M303.2,286C303.2,286,303.3,286,303.2,286c0.7-0.2,2.1-1.4,2-2c0-0.2-0.1-0.3-0.4-0.4
						c-0.2-0.1-0.4,0-0.6,0.1c-0.8,0.5-1.1,2.2-1.1,2.2C303.1,285.8,303.1,285.9,303.2,286C303.2,285.9,303.2,286,303.2,286z
						 M304.7,283.8L304.7,283.8c0.2,0.1,0.2,0.2,0.2,0.2c0,0.4-0.9,1.3-1.5,1.6c0.2-0.5,0.5-1.4,1-1.8
						C304.5,283.8,304.5,283.8,304.7,283.8z"/>
					<path id="XMLID_27_" class="st5" d="M294.4,277.9h9.6c0,0,14.7-56.3,14.5-75.5c-0.2-18.4-5.6-74.4-5.6-74.4h-21.2
						c0,0,1.7,12.4,3.5,27.8c1.7,13.5,3.5,29.4,4.6,40.9c0.3,3.4,0.6,6.5,0.7,9C301.6,224.6,294.4,277.9,294.4,277.9z"/>
					<path id="XMLID_26_" class="st22" d="M295.2,155.9c1.7,13.5,3.5,29.4,4.6,40.9c2.2-10.1,7.7-39.3-0.5-54.2
						C297.2,145.6,296,150.6,295.2,155.9z"/>
					<path id="XMLID_25_" class="st5" d="M301.4,128.1c0,0-0.8,54-3.9,71.2c-3.4,18.9-10.3,78.6-10.3,78.6h-11
						c0,0,1.6-58.2,3.3-76.8c1.8-20.3,1.1-72.9,1.1-72.9L301.4,128.1L301.4,128.1z"/>
					<polygon id="XMLID_24_" class="st7" points="275.8,278.1 287.7,278.1 288.6,273.7 275.4,273.3 					"/>
					<polygon id="XMLID_23_" class="st7" points="293.9,278.1 305.8,278.1 306.7,273.7 293.6,273.9 					"/>
					<path id="XMLID_22_" class="st19" d="M280.4,271.4L280.4,271.4C280.3,271.4,280.3,271.3,280.4,271.4c0-0.6,0.8-52.9,2.3-69.6
						c1.6-18.3,0.6-66.6,0.6-67c0-0.1,0.1-0.1,0.1-0.1c0.1,0,0.1,0.1,0.1,0.1c0,0.4,1,48.8-0.6,67
						C281.4,218.6,280.6,270.8,280.4,271.4C280.5,271.3,280.5,271.4,280.4,271.4z"/>
					<g>
						<path id="XMLID_21_" class="st23" d="M281.8,79.3l1.5-0.2c0.2,0,0.3,0.1,0.3,0.2c5,22.8,3.5,46.9,3.5,46.9h-1.7
							c0.5-25-3.4-44-3.9-46.6C281.5,79.5,281.6,79.3,281.8,79.3z"/>
						<path id="XMLID_20_" class="st7" d="M285.8,126.8h1.1c0.3,0,0.6-0.2,0.6-0.6l0,0c0-0.3-0.2-0.6-0.6-0.6h-1.1
							c-0.3,0-0.6,0.2-0.6,0.6l0,0C285.2,126.6,285.5,126.8,285.8,126.8z"/>
						<path id="XMLID_19_" class="st7" d="M287.1,128.3l-0.1-1.5c0-0.4-0.3-0.7-0.7-0.7l0,0c-0.4,0-0.7,0.3-0.7,0.7l0.1,1.5
							c0,0.4,0.3,0.7,0.7,0.7l0,0C286.8,129,287.1,128.7,287.1,128.3z"/>
					</g>
					<path id="XMLID_18_" class="st16" d="M280.7,90c-0.9,3.8-1.8,7.7-2.6,11.5c-0.4,1.9-0.8,3.8-1,5.7c-0.2,1.8-0.6,3.8-0.5,5.2
						c0.1,3,1.2,6.2,3.3,8.9c1,1.4,2.3,2.7,3.7,3.9c0.7,0.6,1.4,1.2,2.2,1.8c0.4,0.2,0.7,0.6,1.1,0.8c0.4,0.2,0.8,0.6,1.1,0.7
						l-1.8,4.4c-0.6-0.2-1.1-0.3-1.7-0.6c-0.5-0.2-1-0.4-1.5-0.6c-1-0.5-2-1-3-1.5c-1.9-1.1-3.8-2.5-5.4-4.2
						c-1.7-1.7-3.1-3.6-4.3-5.8c-1.1-2.2-1.9-4.6-2.2-7.2c-0.2-2.6-0.2-4.7,0-7c0.2-2.2,0.5-4.2,0.8-6.3c0.6-4.2,1.6-8.2,2.7-12.3
						L280.7,90z"/>
					<path id="XMLID_17_" class="st19" d="M277,80.5c-6.4,1.1-10,18.2-10,18.2l15.8,5.6c0,0,1.2-5.6,0-13
						C281.7,84.1,283.1,79.3,277,80.5z"/>
					<g>
						<path id="XMLID_16_" class="st23" d="M307.3,79.7l1.5,0.3c0.2,0,0.2,0.2,0.2,0.2c4,22.8,1.4,46.2,1.4,46.2h-1.7
							c1.6-24.8-1.3-43.4-1.8-46.3C306.9,79.8,307.1,79.7,307.3,79.7z"/>
						<path id="XMLID_15_" class="st7" d="M309,126.8h1.1c0.3,0,0.6-0.2,0.6-0.6l0,0c0-0.3-0.2-0.6-0.6-0.6H309
							c-0.3,0-0.6,0.2-0.6,0.6l0,0C308.5,126.6,308.7,126.8,309,126.8z"/>
						<path id="XMLID_14_" class="st7" d="M310.3,128.3v-1.5c0-0.4-0.3-0.7-0.7-0.7l0,0c-0.4,0-0.7,0.3-0.7,0.7v1.5
							c0,0.4,0.3,0.7,0.7,0.7l0,0C310,129,310.3,128.7,310.3,128.3z"/>
					</g>
					<path class="st21" d="M286.6,286.4c0.5,0.1,0.9,0.1,1.2-0.2c0.2-0.2,0.4-0.4,0.4-0.7c0-0.2-0.1-0.4-0.2-0.4
						c-0.6-0.4-2.7,0.4-3,0.6c-0.1,0-0.1,0.1-0.1,0.2s0,0.1,0.1,0.2C285.5,286.2,286,286.3,286.6,286.4z M287.6,285.4
						c0.1,0,0.2,0,0.2,0.1c0,0,0.1,0.1,0.1,0.2c0,0.2-0.1,0.4-0.2,0.5c-0.3,0.2-1.1,0.2-2.2-0.2
						C286.2,285.5,287.1,285.3,287.6,285.4z"/>
					<path class="st21" d="M285.1,286C285.1,286,285.1,286,285.1,286c0.7-0.2,2.1-1.4,2-2c0-0.2-0.1-0.3-0.4-0.4
						c-0.2-0.1-0.4,0-0.6,0.1c-0.8,0.5-1.1,2.2-1.1,2.2C284.9,285.8,285,285.9,285.1,286C285,285.9,285.1,286,285.1,286z
						 M286.6,283.8L286.6,283.8c0.2,0.1,0.2,0.2,0.2,0.2c0,0.4-0.9,1.3-1.5,1.6c0.2-0.5,0.5-1.4,1-1.8
						C286.3,283.8,286.4,283.8,286.6,283.8z"/>
					<path id="XMLID_9_" class="st16" d="M283,131.8l1.8-3.4l5,0.2l3.9,1.6l2.6,3.9l-6.9-0.4C289.6,133.7,285.5,134.9,283,131.8z"/>
					<polygon id="XMLID_8_" class="st20" points="297,82.1 295.8,81.2 293.3,83.6 					"/>
					<path id="XMLID_7_" class="st23" d="M295.8,81.2c0,0-2,2.9-2.3,5c-2.5-1-7.3-3.6-8-7.2c1-0.2,2.5-1.2,2.5-1.2
						S290.5,79.9,295.8,81.2z"/>
					<polygon id="XMLID_6_" class="st20" points="297,82.1 297.4,81 300.8,83.6 					"/>
					<path id="XMLID_5_" class="st23" d="M297.4,81c0,0,2.2,1.8,2.6,4.6c2.4-1,3.3-4.4,2.6-6.6c-1.4-0.6-3-1-3-1
						S299.9,80.3,297.4,81z"/>
				</g>
				<g>
					<polygon id="XMLID_4_" class="st23" points="355.1,104.9 304.7,103.1 297.4,132.6 347.8,134.4 					"/>
					<polygon id="XMLID_3_" class="st7" points="356.7,105 306.2,103.2 298.9,132.7 349.4,134.5 					"/>
					<polygon id="XMLID_2_" class="st7" points="349.4,134.5 349.2,136.1 298.8,134.3 298.9,132.7 					"/>
					<polygon id="XMLID_1_" class="st23" points="298.9,132.7 298.8,134.3 278.9,133.7 279.1,132 					"/>
				</g>
			</g>
		</g>
	</g>
</g>
</svg>
