<?xml version="1.0" encoding="utf-8"?>
<!-- Generator: Adobe Illustrator 19.0.0, SVG Export Plug-In . SVG Version: 6.00 Build 0)  -->
<svg version="1.1" xmlns="http://www.w3.org/2000/svg" xmlns:xlink="http://www.w3.org/1999/xlink" x="0px" y="0px"
	 viewBox="0 0 500 500" style="enable-background:new 0 0 500 500;" xml:space="preserve">
<style type="text/css">
	.st0{fill:#D1E3FF;}
	.st1{fill:#E3EEFF;}
	.st2{fill:#EEF5FF;}
	.st3{opacity:0.7;fill:#FFFFFF;}
	.st4{display:none;}
	.st5{display:inline;opacity:0.4;fill:#D4E8FF;}
	.st6{fill:#F0F6FF;}
	.st7{fill:#0053CC;}
	.st8{opacity:0.2;}
	.st9{fill:#0F264C;}
	.st10{fill:#0050AF;}
	.st11{fill:#4EA4F9;}
	.st12{fill:#0D6AB7;}
	.st13{fill:#197BDD;}
	.st14{opacity:0.6;fill:#0D6AB7;}
	.st15{fill:#2B97EF;}
	.st16{opacity:0.2;fill:#FFFFFF;}
	.st17{fill:#64B9FF;}
	.st18{fill:#FF8B7B;}
	.st19{fill:#14365B;}
	.st20{fill:#EA7063;}
	.st21{fill:#9FC6FF;}
	.st22{fill:#77B3FC;}
	.st23{fill:#407BFF;}
	.st24{fill:#004DAA;}
	.st25{fill:#318FFF;}
</style>
<g id="Background_2">
	<g>
		<g>
			<g>
				<g>
					<rect y="382.4" class="st0" width="500" height="0.3"/>
					<rect x="90.5" y="393.8" class="st0" width="48.6" height="0.3"/>
					<rect x="66.9" y="393.9" class="st0" width="12.8" height="0.3"/>
					<rect x="194.7" y="392.2" class="st0" width="15" height="0.3"/>
					<rect x="215.4" y="392.2" class="st0" width="61.2" height="0.3"/>
					<rect x="363.9" y="394.1" class="st0" width="56.8" height="0.3"/>
					<rect x="343.3" y="394.1" class="st0" width="15" height="0.3"/>
					<rect x="435.7" y="389.6" class="st0" width="12.9" height="0.3"/>
					<path class="st0" d="M237,337.8H43.9c-3.1,0-5.7-2.6-5.7-5.7V60.7c0-3.1,2.6-5.7,5.7-5.7H237c3.1,0,5.7,2.6,5.7,5.7v271.4
						C242.7,335.2,240.2,337.8,237,337.8z M43.9,55.2c-3,0-5.5,2.4-5.5,5.5v271.4c0,3,2.4,5.5,5.5,5.5H237c3,0,5.5-2.4,5.5-5.5V60.7
						c0-3-2.4-5.5-5.5-5.5H43.9z"/>
					<path class="st0" d="M453.3,337.8H260.2c-3.1,0-5.7-2.6-5.7-5.7V60.7c0-3.1,2.6-5.7,5.7-5.7h193.1c3.1,0,5.7,2.6,5.7,5.7v271.4
						C459,335.2,456.5,337.8,453.3,337.8z M260.2,55.2c-3,0-5.5,2.4-5.5,5.5v271.4c0,3,2.4,5.5,5.5,5.5h193.1c3,0,5.5-2.4,5.5-5.5
						V60.7c0-3-2.4-5.5-5.5-5.5H260.2z"/>
				</g>
			</g>
		</g>
		<g>
			<g>
				<path class="st0" d="M500,367.6h-68.9c-1.5,0-2.8-1.3-2.8-2.8V183.6c0-1.3-1-2.3-2.3-2.3h-7.3v-0.5h7.3c1.5,0,2.8,1.3,2.8,2.8
					v181.2c0,1.3,1,2.3,2.3,2.3H500V367.6z"/>
				<path class="st0" d="M500,363.9h-66.6c-1.5,0-2.8-1.3-2.8-2.8V180c0-1.3-1-2.3-2.3-2.3h-9.6v-0.5h9.6c1.5,0,2.8,1.3,2.8,2.8
					v181.2c0,1.3,1,2.3,2.3,2.3H500V363.9z"/>
				<path class="st0" d="M500,360.3h-64.2c-1.5,0-2.8-1.3-2.8-2.8V176.3c0-1.3-1-2.3-2.3-2.3h-11.9v-0.5h11.9c1.5,0,2.8,1.3,2.8,2.8
					v181.2c0,1.3,1,2.3,2.3,2.3H500V360.3z"/>
				<path class="st0" d="M500,356.6h-61.9c-1.5,0-2.8-1.3-2.8-2.8V172.6c0-1.3-1-2.3-2.3-2.3h-14.3v-0.5H433c1.5,0,2.8,1.3,2.8,2.8
					v181.2c0,1.3,1,2.3,2.3,2.3H500V356.6z"/>
				<path class="st0" d="M500,353h-59.5c-1.5,0-2.8-1.3-2.8-2.8V169c0-1.3-1-2.3-2.3-2.3h-16.6v-0.5h16.6c1.5,0,2.8,1.3,2.8,2.8
					v181.2c0,1.3,1,2.3,2.3,2.3H500V353z"/>
				<path class="st0" d="M500,349.3h-57.2c-1.5,0-2.8-1.3-2.8-2.8V165.3c0-1.3-1-2.3-2.3-2.3h-19v-0.5h19c1.5,0,2.8,1.3,2.8,2.8
					v181.2c0,1.3,1,2.3,2.3,2.3H500V349.3z"/>
				<path class="st0" d="M500,345.6h-54.9c-1.5,0-2.8-1.3-2.8-2.8V161.7c0-1.3-1-2.3-2.3-2.3h-21.3v-0.5H440c1.5,0,2.8,1.3,2.8,2.8
					v181.2c0,1.3,1,2.3,2.3,2.3H500V345.6z"/>
				<rect x="217" y="199" class="st0" width="61.8" height="0.5"/>
				<rect x="217" y="195.4" class="st0" width="61.8" height="0.5"/>
				<rect x="217" y="191.7" class="st0" width="61.8" height="0.5"/>
				<rect x="217" y="188" class="st0" width="61.8" height="0.5"/>
				<rect x="217" y="184.4" class="st0" width="61.8" height="0.5"/>
				<rect x="217" y="180.7" class="st0" width="61.8" height="0.5"/>
				<rect x="217" y="177.1" class="st0" width="61.8" height="0.5"/>
				<rect x="217" y="323" class="st0" width="61.8" height="0.5"/>
				<rect x="217" y="319.3" class="st0" width="61.8" height="0.5"/>
				<rect x="217" y="315.7" class="st0" width="61.8" height="0.5"/>
				<rect x="217" y="312" class="st0" width="61.8" height="0.5"/>
				<rect x="217" y="308.3" class="st0" width="61.8" height="0.5"/>
				<rect x="217" y="304.7" class="st0" width="61.8" height="0.5"/>
				<rect x="217" y="301" class="st0" width="61.8" height="0.5"/>
			</g>
			<g>
				<path class="st0" d="M95.9,349.8h-24c-1.5,0-2.8-1.3-2.8-2.8V165.8c0-1.3-1-2.3-2.3-2.3H38.5V163h28.4c1.5,0,2.8,1.3,2.8,2.8
					V347c0,1.3,1,2.3,2.3,2.3h24V349.8z"/>
				<path class="st0" d="M95.9,353.4H69.6c-1.5,0-2.8-1.3-2.8-2.8V169.5c0-1.3-1-2.3-2.3-2.3h-26v-0.5h26c1.5,0,2.8,1.3,2.8,2.8
					v181.2c0,1.3,1,2.3,2.3,2.3h26.3V353.4z"/>
				<path class="st0" d="M95.9,357.1H67.3c-1.5,0-2.8-1.3-2.8-2.8V173.1c0-1.3-1-2.3-2.3-2.3H38.5v-0.5h23.7c1.5,0,2.8,1.3,2.8,2.8
					v181.2c0,1.3,1,2.3,2.3,2.3h28.7V357.1z"/>
				<path class="st0" d="M95.9,360.7h-31c-1.5,0-2.8-1.3-2.8-2.8V176.8c0-1.3-1-2.3-2.3-2.3H38.5V174h21.3c1.5,0,2.8,1.3,2.8,2.8
					v181.2c0,1.3,1,2.3,2.3,2.3h31V360.7z"/>
				<path class="st0" d="M95.9,364.4H62.6c-1.5,0-2.8-1.3-2.8-2.8V180.4c0-1.3-1-2.3-2.3-2.3h-19v-0.5h19c1.5,0,2.8,1.3,2.8,2.8
					v181.2c0,1.3,1,2.3,2.3,2.3h33.4V364.4z"/>
				<path class="st0" d="M95.9,368.1H60.2c-1.5,0-2.8-1.3-2.8-2.8V184.1c0-1.3-1-2.3-2.3-2.3H38.5v-0.5h16.7c1.5,0,2.8,1.3,2.8,2.8
					v181.2c0,1.3,1,2.3,2.3,2.3h35.7V368.1z"/>
				<path class="st0" d="M95.9,371.7h-38c-1.5,0-2.8-1.3-2.8-2.8V187.7c0-1.3-1-2.3-2.3-2.3H38.5v-0.5h14.3c1.5,0,2.8,1.3,2.8,2.8
					v181.2c0,1.3,1,2.3,2.3,2.3h38V371.7z"/>
			</g>
			<g>
				<g>
					<g>
						<rect x="95.9" y="367.3" class="st1" width="101.5" height="15.1"/>
						<rect x="197.4" y="367.3" class="st0" width="20.6" height="15.1"/>
						<rect x="89.1" y="101.4" class="st2" width="108.3" height="266"/>
						<rect x="98.2" y="99.1" class="st1" width="117.6" height="2.3"/>
						<rect x="197.4" y="101.4" class="st1" width="27.4" height="266"/>
					</g>
					<g>
						<rect x="92.3" y="104.6" class="st1" width="101.9" height="29.1"/>
						<rect x="92.3" y="334.9" class="st1" width="101.9" height="29.1"/>
						<rect x="92.3" y="302" class="st1" width="101.9" height="29.1"/>
						<rect x="92.3" y="269.1" class="st1" width="101.9" height="29.1"/>
						<rect x="92.3" y="236.2" class="st1" width="101.9" height="29.1"/>
						<rect x="92.3" y="203.3" class="st1" width="101.9" height="29.1"/>
						<rect x="92.3" y="170.4" class="st1" width="101.9" height="29.1"/>
						<rect x="92.3" y="137.5" class="st1" width="101.9" height="29.1"/>
					</g>
					<path class="st3" d="M185.9,129.5h-19.9c-2.3,0-4.3-1.9-4.3-4.3V113c0-2.3,1.9-4.3,4.3-4.3h19.9c2.3,0,4.3,1.9,4.3,4.3v12.3
						C190.2,127.6,188.3,129.5,185.9,129.5z"/>
					<path class="st2" d="M181.6,120.5v-2.8c0-0.7,0.6-1.3,1.3-1.3h2.8c0.7,0,1.3,0.6,1.3,1.3v2.8c0,0.7-0.6,1.3-1.3,1.3h-2.8
						C182.1,121.8,181.6,121.2,181.6,120.5z"/>
					<path class="st3" d="M185.9,162.4h-19.9c-2.3,0-4.3-1.9-4.3-4.3v-12.3c0-2.3,1.9-4.3,4.3-4.3h19.9c2.3,0,4.3,1.9,4.3,4.3v12.3
						C190.2,160.5,188.3,162.4,185.9,162.4z"/>
					<path class="st2" d="M181.6,153.4v-2.8c0-0.7,0.6-1.3,1.3-1.3h2.8c0.7,0,1.3,0.6,1.3,1.3v2.8c0,0.7-0.6,1.3-1.3,1.3h-2.8
						C182.1,154.7,181.6,154.1,181.6,153.4z"/>
					<path class="st3" d="M185.9,195.3h-19.9c-2.3,0-4.3-1.9-4.3-4.3v-12.3c0-2.3,1.9-4.3,4.3-4.3h19.9c2.3,0,4.3,1.9,4.3,4.3v12.3
						C190.2,193.4,188.3,195.3,185.9,195.3z"/>
					<path class="st2" d="M181.6,186.3v-2.8c0-0.7,0.6-1.3,1.3-1.3h2.8c0.7,0,1.3,0.6,1.3,1.3v2.8c0,0.7-0.6,1.3-1.3,1.3h-2.8
						C182.1,187.6,181.6,187,181.6,186.3z"/>
					<path class="st3" d="M185.9,228.2h-19.9c-2.3,0-4.3-1.9-4.3-4.3v-12.3c0-2.3,1.9-4.3,4.3-4.3h19.9c2.3,0,4.3,1.9,4.3,4.3V224
						C190.2,226.3,188.3,228.2,185.9,228.2z"/>
					<path class="st2" d="M181.6,219.2v-2.8c0-0.7,0.6-1.3,1.3-1.3h2.8c0.7,0,1.3,0.6,1.3,1.3v2.8c0,0.7-0.6,1.3-1.3,1.3h-2.8
						C182.1,220.5,181.6,219.9,181.6,219.2z"/>
					<path class="st3" d="M185.9,261.1h-19.9c-2.3,0-4.3-1.9-4.3-4.3v-12.3c0-2.3,1.9-4.3,4.3-4.3h19.9c2.3,0,4.3,1.9,4.3,4.3v12.3
						C190.2,259.2,188.3,261.1,185.9,261.1z"/>
					<path class="st2" d="M181.6,252.1v-2.8c0-0.7,0.6-1.3,1.3-1.3h2.8c0.7,0,1.3,0.6,1.3,1.3v2.8c0,0.7-0.6,1.3-1.3,1.3h-2.8
						C182.1,253.4,181.6,252.8,181.6,252.1z"/>
					<path class="st3" d="M185.9,294h-19.9c-2.3,0-4.3-1.9-4.3-4.3v-12.3c0-2.3,1.9-4.3,4.3-4.3h19.9c2.3,0,4.3,1.9,4.3,4.3v12.3
						C190.2,292.1,188.3,294,185.9,294z"/>
					<path class="st2" d="M181.6,285v-2.8c0-0.7,0.6-1.3,1.3-1.3h2.8c0.7,0,1.3,0.6,1.3,1.3v2.8c0,0.7-0.6,1.3-1.3,1.3h-2.8
						C182.1,286.3,181.6,285.7,181.6,285z"/>
					<path class="st3" d="M185.9,326.9h-19.9c-2.3,0-4.3-1.9-4.3-4.3v-12.3c0-2.3,1.9-4.3,4.3-4.3h19.9c2.3,0,4.3,1.9,4.3,4.3v12.3
						C190.2,325,188.3,326.9,185.9,326.9z"/>
					<path class="st2" d="M181.6,317.9v-2.8c0-0.7,0.6-1.3,1.3-1.3h2.8c0.7,0,1.3,0.6,1.3,1.3v2.8c0,0.7-0.6,1.3-1.3,1.3h-2.8
						C182.1,319.2,181.6,318.6,181.6,317.9z"/>
					<path class="st3" d="M185.9,359.8h-19.9c-2.3,0-4.3-1.9-4.3-4.3v-12.3c0-2.3,1.9-4.3,4.3-4.3h19.9c2.3,0,4.3,1.9,4.3,4.3v12.3
						C190.2,357.9,188.3,359.8,185.9,359.8z"/>
					<path class="st2" d="M181.6,350.8V348c0-0.7,0.6-1.3,1.3-1.3h2.8c0.7,0,1.3,0.6,1.3,1.3v2.8c0,0.7-0.6,1.3-1.3,1.3h-2.8
						C182.1,352.1,181.6,351.5,181.6,350.8z"/>
					<path class="st2" d="M173.3,120.5v-2.8c0-0.7,0.6-1.3,1.3-1.3h2.8c0.7,0,1.3,0.6,1.3,1.3v2.8c0,0.7-0.6,1.3-1.3,1.3h-2.8
						C173.9,121.8,173.3,121.2,173.3,120.5z"/>
					<path class="st2" d="M173.3,153.4v-2.8c0-0.7,0.6-1.3,1.3-1.3h2.8c0.7,0,1.3,0.6,1.3,1.3v2.8c0,0.7-0.6,1.3-1.3,1.3h-2.8
						C173.9,154.7,173.3,154.1,173.3,153.4z"/>
					<path class="st2" d="M173.3,186.3v-2.8c0-0.7,0.6-1.3,1.3-1.3h2.8c0.7,0,1.3,0.6,1.3,1.3v2.8c0,0.7-0.6,1.3-1.3,1.3h-2.8
						C173.9,187.6,173.3,187,173.3,186.3z"/>
					<path class="st2" d="M173.3,219.2v-2.8c0-0.7,0.6-1.3,1.3-1.3h2.8c0.7,0,1.3,0.6,1.3,1.3v2.8c0,0.7-0.6,1.3-1.3,1.3h-2.8
						C173.9,220.5,173.3,219.9,173.3,219.2z"/>
					<path class="st2" d="M173.3,252.1v-2.8c0-0.7,0.6-1.3,1.3-1.3h2.8c0.7,0,1.3,0.6,1.3,1.3v2.8c0,0.7-0.6,1.3-1.3,1.3h-2.8
						C173.9,253.4,173.3,252.8,173.3,252.1z"/>
					<path class="st2" d="M173.3,285v-2.8c0-0.7,0.6-1.3,1.3-1.3h2.8c0.7,0,1.3,0.6,1.3,1.3v2.8c0,0.7-0.6,1.3-1.3,1.3h-2.8
						C173.9,286.3,173.3,285.7,173.3,285z"/>
					<path class="st2" d="M173.3,317.9v-2.8c0-0.7,0.6-1.3,1.3-1.3h2.8c0.7,0,1.3,0.6,1.3,1.3v2.8c0,0.7-0.6,1.3-1.3,1.3h-2.8
						C173.9,319.2,173.3,318.6,173.3,317.9z"/>
					<path class="st2" d="M173.3,350.8V348c0-0.7,0.6-1.3,1.3-1.3h2.8c0.7,0,1.3,0.6,1.3,1.3v2.8c0,0.7-0.6,1.3-1.3,1.3h-2.8
						C173.9,352.1,173.3,351.5,173.3,350.8z"/>
					<g>
						<circle class="st2" cx="151.6" cy="119.1" r="3.4"/>
						<circle class="st2" cx="142" cy="119.1" r="3.4"/>
						<circle class="st2" cx="132.4" cy="119.1" r="3.4"/>
						<circle class="st2" cx="122.8" cy="119.1" r="3.4"/>
					</g>
					<g>
						<circle class="st2" cx="151.6" cy="152" r="3.4"/>
						<circle class="st2" cx="142" cy="152" r="3.4"/>
						<circle class="st2" cx="132.4" cy="152" r="3.4"/>
						<circle class="st2" cx="122.8" cy="152" r="3.4"/>
					</g>
					<g>
						<circle class="st2" cx="151.6" cy="184.9" r="3.4"/>
						<circle class="st2" cx="142" cy="184.9" r="3.4"/>
						<circle class="st2" cx="132.4" cy="184.9" r="3.4"/>
						<circle class="st2" cx="122.8" cy="184.9" r="3.4"/>
					</g>
					<g>
						<circle class="st2" cx="151.6" cy="217.8" r="3.4"/>
						<circle class="st2" cx="142" cy="217.8" r="3.4"/>
						<circle class="st2" cx="132.4" cy="217.8" r="3.4"/>
						<circle class="st2" cx="122.8" cy="217.8" r="3.4"/>
					</g>
					<g>
						<circle class="st2" cx="151.6" cy="250.7" r="3.4"/>
						<circle class="st2" cx="142" cy="250.7" r="3.4"/>
						<circle class="st2" cx="132.4" cy="250.7" r="3.4"/>
						<circle class="st2" cx="122.8" cy="250.7" r="3.4"/>
					</g>
					<g>
						<circle class="st2" cx="151.6" cy="283.6" r="3.4"/>
						<circle class="st2" cx="142" cy="283.6" r="3.4"/>
						<circle class="st2" cx="132.4" cy="283.6" r="3.4"/>
						<circle class="st2" cx="122.8" cy="283.6" r="3.4"/>
					</g>
					<g>
						<circle class="st2" cx="151.6" cy="316.5" r="3.4"/>
						<circle class="st2" cx="142" cy="316.5" r="3.4"/>
						<circle class="st2" cx="132.4" cy="316.5" r="3.4"/>
						<circle class="st2" cx="122.8" cy="316.5" r="3.4"/>
					</g>
					<g>
						<circle class="st2" cx="151.6" cy="349.4" r="3.4"/>
						<circle class="st2" cx="142" cy="349.4" r="3.4"/>
						<circle class="st2" cx="132.4" cy="349.4" r="3.4"/>
						<circle class="st2" cx="122.8" cy="349.4" r="3.4"/>
					</g>
					<circle class="st0" cx="105.4" cy="119.1" r="7.3"/>
					<circle class="st0" cx="105.4" cy="152" r="7.3"/>
					<circle class="st0" cx="105.4" cy="184.9" r="7.3"/>
					<circle class="st0" cx="105.4" cy="217.8" r="7.3"/>
					<circle class="st0" cx="105.4" cy="250.7" r="7.3"/>
					<circle class="st0" cx="105.4" cy="283.6" r="7.3"/>
					<circle class="st0" cx="105.4" cy="316.5" r="7.3"/>
					<circle class="st0" cx="105.4" cy="349.4" r="7.3"/>
				</g>
			</g>
			<g>
				<g>
					<g>
						<rect x="275.4" y="368.6" class="st1" width="117.3" height="13.8"/>
						<rect x="392.7" y="368.6" class="st0" width="19.5" height="13.8"/>
						<rect x="268.8" y="124.6" class="st2" width="123.8" height="243.9"/>
						<rect x="277.5" y="122.6" class="st1" width="132.6" height="2.1"/>
						<rect x="392.7" y="124.6" class="st1" width="26.1" height="243.9"/>
					</g>
					<g>
						<rect x="271.9" y="127.6" class="st1" width="117.7" height="26.7"/>
						<rect x="271.9" y="338.8" class="st1" width="117.7" height="26.7"/>
						<rect x="271.9" y="308.6" class="st1" width="117.7" height="26.7"/>
						<rect x="271.9" y="278.4" class="st1" width="117.7" height="26.7"/>
						<rect x="271.9" y="248.3" class="st1" width="117.7" height="26.7"/>
						<rect x="271.9" y="218.1" class="st1" width="117.7" height="26.7"/>
						<rect x="271.9" y="187.9" class="st1" width="117.7" height="26.7"/>
						<rect x="271.9" y="157.7" class="st1" width="117.7" height="26.7"/>
					</g>
					<path class="st0" d="M279.7,150.5h56.7c2.2,0,4-1.8,4-4v-11.2c0-2.2-1.8-4-4-4h-56.7c-2.2,0-4,1.8-4,4v11.2
						C275.7,148.7,277.5,150.5,279.7,150.5z"/>
					<path class="st2" d="M283.9,142.2v-2.5c0-0.7-0.5-1.2-1.2-1.2H280c-0.7,0-1.2,0.5-1.2,1.2v2.5c0,0.7,0.5,1.2,1.2,1.2h2.7
						C283.4,143.4,283.9,142.8,283.9,142.2z"/>
					<path class="st0" d="M279.7,180.7h56.7c2.2,0,4-1.8,4-4v-11.2c0-2.2-1.8-4-4-4h-56.7c-2.2,0-4,1.8-4,4v11.2
						C275.7,178.9,277.5,180.7,279.7,180.7z"/>
					<path class="st2" d="M283.9,172.4v-2.5c0-0.7-0.5-1.2-1.2-1.2H280c-0.7,0-1.2,0.5-1.2,1.2v2.5c0,0.7,0.5,1.2,1.2,1.2h2.7
						C283.4,173.5,283.9,173,283.9,172.4z"/>
					<path class="st0" d="M279.7,210.8h56.7c2.2,0,4-1.8,4-4v-11.2c0-2.2-1.8-4-4-4h-56.7c-2.2,0-4,1.8-4,4v11.2
						C275.7,209,277.5,210.8,279.7,210.8z"/>
					<path class="st2" d="M283.9,202.5V200c0-0.7-0.5-1.2-1.2-1.2H280c-0.7,0-1.2,0.5-1.2,1.2v2.5c0,0.7,0.5,1.2,1.2,1.2h2.7
						C283.4,203.7,283.9,203.2,283.9,202.5z"/>
					<path class="st0" d="M279.7,241h56.7c2.2,0,4-1.8,4-4v-11.2c0-2.2-1.8-4-4-4h-56.7c-2.2,0-4,1.8-4,4V237
						C275.7,239.2,277.5,241,279.7,241z"/>
					<path class="st2" d="M283.9,232.7v-2.5c0-0.7-0.5-1.2-1.2-1.2H280c-0.7,0-1.2,0.5-1.2,1.2v2.5c0,0.7,0.5,1.2,1.2,1.2h2.7
						C283.4,233.9,283.9,233.4,283.9,232.7z"/>
					<path class="st0" d="M279.7,271.2h56.7c2.2,0,4-1.8,4-4v-11.2c0-2.2-1.8-4-4-4h-56.7c-2.2,0-4,1.8-4,4v11.2
						C275.7,269.4,277.5,271.2,279.7,271.2z"/>
					<path class="st2" d="M283.9,262.9v-2.5c0-0.7-0.5-1.2-1.2-1.2H280c-0.7,0-1.2,0.5-1.2,1.2v2.5c0,0.7,0.5,1.2,1.2,1.2h2.7
						C283.4,264.1,283.9,263.5,283.9,262.9z"/>
					<path class="st0" d="M279.7,301.4h56.7c2.2,0,4-1.8,4-4v-11.2c0-2.2-1.8-4-4-4h-56.7c-2.2,0-4,1.8-4,4v11.2
						C275.7,299.6,277.5,301.4,279.7,301.4z"/>
					<path class="st2" d="M283.9,293.1v-2.5c0-0.7-0.5-1.2-1.2-1.2H280c-0.7,0-1.2,0.5-1.2,1.2v2.5c0,0.7,0.5,1.2,1.2,1.2h2.7
						C283.4,294.2,283.9,293.7,283.9,293.1z"/>
					<path class="st0" d="M279.7,331.5h56.7c2.2,0,4-1.8,4-4v-11.2c0-2.2-1.8-4-4-4h-56.7c-2.2,0-4,1.8-4,4v11.2
						C275.7,329.7,277.5,331.5,279.7,331.5z"/>
					<path class="st2" d="M283.9,323.2v-2.5c0-0.7-0.5-1.2-1.2-1.2H280c-0.7,0-1.2,0.5-1.2,1.2v2.5c0,0.7,0.5,1.2,1.2,1.2h2.7
						C283.4,324.4,283.9,323.9,283.9,323.2z"/>
					<path class="st0" d="M279.7,361.7h56.7c2.2,0,4-1.8,4-4v-11.2c0-2.2-1.8-4-4-4h-56.7c-2.2,0-4,1.8-4,4v11.2
						C275.7,359.9,277.5,361.7,279.7,361.7z"/>
					<path class="st2" d="M283.9,353.4v-2.5c0-0.7-0.5-1.2-1.2-1.2H280c-0.7,0-1.2,0.5-1.2,1.2v2.5c0,0.7,0.5,1.2,1.2,1.2h2.7
						C283.4,354.6,283.9,354.1,283.9,353.4z"/>
					<path class="st2" d="M291.7,142.2v-2.5c0-0.7-0.5-1.2-1.2-1.2h-2.7c-0.7,0-1.2,0.5-1.2,1.2v2.5c0,0.7,0.5,1.2,1.2,1.2h2.7
						C291.2,143.4,291.7,142.8,291.7,142.2z"/>
					<path class="st2" d="M291.7,172.4v-2.5c0-0.7-0.5-1.2-1.2-1.2h-2.7c-0.7,0-1.2,0.5-1.2,1.2v2.5c0,0.7,0.5,1.2,1.2,1.2h2.7
						C291.2,173.5,291.7,173,291.7,172.4z"/>
					<path class="st2" d="M291.7,202.5V200c0-0.7-0.5-1.2-1.2-1.2h-2.7c-0.7,0-1.2,0.5-1.2,1.2v2.5c0,0.7,0.5,1.2,1.2,1.2h2.7
						C291.2,203.7,291.7,203.2,291.7,202.5z"/>
					<path class="st2" d="M291.7,232.7v-2.5c0-0.7-0.5-1.2-1.2-1.2h-2.7c-0.7,0-1.2,0.5-1.2,1.2v2.5c0,0.7,0.5,1.2,1.2,1.2h2.7
						C291.2,233.9,291.7,233.4,291.7,232.7z"/>
					<path class="st2" d="M291.7,262.9v-2.5c0-0.7-0.5-1.2-1.2-1.2h-2.7c-0.7,0-1.2,0.5-1.2,1.2v2.5c0,0.7,0.5,1.2,1.2,1.2h2.7
						C291.2,264.1,291.7,263.5,291.7,262.9z"/>
					<path class="st2" d="M291.7,293.1v-2.5c0-0.7-0.5-1.2-1.2-1.2h-2.7c-0.7,0-1.2,0.5-1.2,1.2v2.5c0,0.7,0.5,1.2,1.2,1.2h2.7
						C291.2,294.2,291.7,293.7,291.7,293.1z"/>
					<path class="st2" d="M291.7,323.2v-2.5c0-0.7-0.5-1.2-1.2-1.2h-2.7c-0.7,0-1.2,0.5-1.2,1.2v2.5c0,0.7,0.5,1.2,1.2,1.2h2.7
						C291.2,324.4,291.7,323.9,291.7,323.2z"/>
					<path class="st2" d="M291.7,353.4v-2.5c0-0.7-0.5-1.2-1.2-1.2h-2.7c-0.7,0-1.2,0.5-1.2,1.2v2.5c0,0.7,0.5,1.2,1.2,1.2h2.7
						C291.2,354.6,291.7,354.1,291.7,353.4z"/>
					<path class="st2" d="M299.5,142.2v-2.5c0-0.7-0.5-1.2-1.2-1.2h-2.7c-0.7,0-1.2,0.5-1.2,1.2v2.5c0,0.7,0.5,1.2,1.2,1.2h2.7
						C298.9,143.4,299.5,142.8,299.5,142.2z"/>
					<path class="st2" d="M299.5,172.4v-2.5c0-0.7-0.5-1.2-1.2-1.2h-2.7c-0.7,0-1.2,0.5-1.2,1.2v2.5c0,0.7,0.5,1.2,1.2,1.2h2.7
						C298.9,173.5,299.5,173,299.5,172.4z"/>
					<path class="st2" d="M299.5,202.5V200c0-0.7-0.5-1.2-1.2-1.2h-2.7c-0.7,0-1.2,0.5-1.2,1.2v2.5c0,0.7,0.5,1.2,1.2,1.2h2.7
						C298.9,203.7,299.5,203.2,299.5,202.5z"/>
					<path class="st2" d="M299.5,232.7v-2.5c0-0.7-0.5-1.2-1.2-1.2h-2.7c-0.7,0-1.2,0.5-1.2,1.2v2.5c0,0.7,0.5,1.2,1.2,1.2h2.7
						C298.9,233.9,299.5,233.4,299.5,232.7z"/>
					<path class="st2" d="M299.5,262.9v-2.5c0-0.7-0.5-1.2-1.2-1.2h-2.7c-0.7,0-1.2,0.5-1.2,1.2v2.5c0,0.7,0.5,1.2,1.2,1.2h2.7
						C298.9,264.1,299.5,263.5,299.5,262.9z"/>
					<path class="st2" d="M299.5,293.1v-2.5c0-0.7-0.5-1.2-1.2-1.2h-2.7c-0.7,0-1.2,0.5-1.2,1.2v2.5c0,0.7,0.5,1.2,1.2,1.2h2.7
						C298.9,294.2,299.5,293.7,299.5,293.1z"/>
					<path class="st2" d="M299.5,323.2v-2.5c0-0.7-0.5-1.2-1.2-1.2h-2.7c-0.7,0-1.2,0.5-1.2,1.2v2.5c0,0.7,0.5,1.2,1.2,1.2h2.7
						C298.9,324.4,299.5,323.9,299.5,323.2z"/>
					<path class="st2" d="M299.5,353.4v-2.5c0-0.7-0.5-1.2-1.2-1.2h-2.7c-0.7,0-1.2,0.5-1.2,1.2v2.5c0,0.7,0.5,1.2,1.2,1.2h2.7
						C298.9,354.6,299.5,354.1,299.5,353.4z"/>
					<path class="st2" d="M307.3,142.2v-2.5c0-0.7-0.5-1.2-1.2-1.2h-2.7c-0.7,0-1.2,0.5-1.2,1.2v2.5c0,0.7,0.5,1.2,1.2,1.2h2.7
						C306.7,143.4,307.3,142.8,307.3,142.2z"/>
					<path class="st2" d="M307.3,172.4v-2.5c0-0.7-0.5-1.2-1.2-1.2h-2.7c-0.7,0-1.2,0.5-1.2,1.2v2.5c0,0.7,0.5,1.2,1.2,1.2h2.7
						C306.7,173.5,307.3,173,307.3,172.4z"/>
					<path class="st2" d="M307.3,202.5V200c0-0.7-0.5-1.2-1.2-1.2h-2.7c-0.7,0-1.2,0.5-1.2,1.2v2.5c0,0.7,0.5,1.2,1.2,1.2h2.7
						C306.7,203.7,307.3,203.2,307.3,202.5z"/>
					<path class="st2" d="M307.3,232.7v-2.5c0-0.7-0.5-1.2-1.2-1.2h-2.7c-0.7,0-1.2,0.5-1.2,1.2v2.5c0,0.7,0.5,1.2,1.2,1.2h2.7
						C306.7,233.9,307.3,233.4,307.3,232.7z"/>
					<path class="st2" d="M307.3,262.9v-2.5c0-0.7-0.5-1.2-1.2-1.2h-2.7c-0.7,0-1.2,0.5-1.2,1.2v2.5c0,0.7,0.5,1.2,1.2,1.2h2.7
						C306.7,264.1,307.3,263.5,307.3,262.9z"/>
					<path class="st2" d="M307.3,293.1v-2.5c0-0.7-0.5-1.2-1.2-1.2h-2.7c-0.7,0-1.2,0.5-1.2,1.2v2.5c0,0.7,0.5,1.2,1.2,1.2h2.7
						C306.7,294.2,307.3,293.7,307.3,293.1z"/>
					<path class="st2" d="M307.3,323.2v-2.5c0-0.7-0.5-1.2-1.2-1.2h-2.7c-0.7,0-1.2,0.5-1.2,1.2v2.5c0,0.7,0.5,1.2,1.2,1.2h2.7
						C306.7,324.4,307.3,323.9,307.3,323.2z"/>
					<path class="st2" d="M307.3,353.4v-2.5c0-0.7-0.5-1.2-1.2-1.2h-2.7c-0.7,0-1.2,0.5-1.2,1.2v2.5c0,0.7,0.5,1.2,1.2,1.2h2.7
						C306.7,354.6,307.3,354.1,307.3,353.4z"/>
					<g>
						<ellipse class="st2" cx="350" cy="140.9" rx="3.2" ry="3.1"/>
						<ellipse class="st2" cx="359.1" cy="140.9" rx="3.2" ry="3.1"/>
						<ellipse class="st2" cx="368.2" cy="140.9" rx="3.2" ry="3.1"/>
						<ellipse class="st2" cx="377.4" cy="140.9" rx="3.2" ry="3.1"/>
					</g>
					<g>
						<ellipse class="st2" cx="350" cy="171.1" rx="3.2" ry="3.1"/>
						<ellipse class="st2" cx="359.1" cy="171.1" rx="3.2" ry="3.1"/>
						<ellipse class="st2" cx="368.2" cy="171.1" rx="3.2" ry="3.1"/>
						<ellipse class="st2" cx="377.4" cy="171.1" rx="3.2" ry="3.1"/>
					</g>
					<g>
						<ellipse class="st2" cx="350" cy="201.3" rx="3.2" ry="3.1"/>
						<ellipse class="st2" cx="359.1" cy="201.3" rx="3.2" ry="3.1"/>
						<ellipse class="st2" cx="368.2" cy="201.3" rx="3.2" ry="3.1"/>
						<ellipse class="st2" cx="377.4" cy="201.3" rx="3.2" ry="3.1"/>
					</g>
					<g>
						<ellipse class="st2" cx="350" cy="231.5" rx="3.2" ry="3.1"/>
						<ellipse class="st2" cx="359.1" cy="231.5" rx="3.2" ry="3.1"/>
						<ellipse class="st2" cx="368.2" cy="231.5" rx="3.2" ry="3.1"/>
						<ellipse class="st2" cx="377.4" cy="231.5" rx="3.2" ry="3.1"/>
					</g>
					<g>
						<ellipse class="st2" cx="350" cy="261.6" rx="3.2" ry="3.1"/>
						<ellipse class="st2" cx="359.1" cy="261.6" rx="3.2" ry="3.1"/>
						<ellipse class="st2" cx="368.2" cy="261.6" rx="3.2" ry="3.1"/>
						<ellipse class="st2" cx="377.4" cy="261.6" rx="3.2" ry="3.1"/>
					</g>
					<g>
						<ellipse class="st2" cx="350" cy="291.8" rx="3.2" ry="3.1"/>
						<ellipse class="st2" cx="359.1" cy="291.8" rx="3.2" ry="3.1"/>
						<ellipse class="st2" cx="368.2" cy="291.8" rx="3.2" ry="3.1"/>
						<ellipse class="st2" cx="377.4" cy="291.8" rx="3.2" ry="3.1"/>
					</g>
					<g>
						<ellipse class="st2" cx="350" cy="322" rx="3.2" ry="3.1"/>
						<ellipse class="st2" cx="359.1" cy="322" rx="3.2" ry="3.1"/>
						<ellipse class="st2" cx="368.2" cy="322" rx="3.2" ry="3.1"/>
						<ellipse class="st2" cx="377.4" cy="322" rx="3.2" ry="3.1"/>
					</g>
					<g>
						<ellipse class="st2" cx="350" cy="352.2" rx="3.2" ry="3.1"/>
						<ellipse class="st2" cx="359.1" cy="352.2" rx="3.2" ry="3.1"/>
						<ellipse class="st2" cx="368.2" cy="352.2" rx="3.2" ry="3.1"/>
						<ellipse class="st2" cx="377.4" cy="352.2" rx="3.2" ry="3.1"/>
					</g>
				</g>
			</g>
		</g>
	</g>
</g>
<g id="Background_1" class="st4">
	<path class="st5" d="M328.9,269c50.9-20.7,103.2,14,120.1-57.6c10.1-42.8-9.5-83.6-46.7-113.4C359.1,63.2,321.1,54,272.7,84.1
		c-48.9,30.4-60.9,35.3-116.9,29.9C68,105.5-3.1,212.9,79.4,274.6c40.1,30,100.8,58.1,151,58.7c17.1,0.2,40.2-1.6,54.8-12
		C305.6,307,301.9,279.9,328.9,269z"/>
</g>
<g id="Objects">
	<g>
		<ellipse class="st6" cx="250" cy="416.2" rx="193.9" ry="11.3"/>
		<g>
			<g>
				<g>
					<g>
						<rect x="118.9" y="403.8" class="st7" width="116.9" height="13.3"/>
						<g class="st8">
							<rect x="121.9" y="405.7" class="st9" width="2.9" height="9.5"/>
							<rect x="127.1" y="405.7" class="st9" width="2.9" height="9.5"/>
							<rect x="132.2" y="405.7" class="st9" width="2.9" height="9.5"/>
							<rect x="137.3" y="405.7" class="st9" width="2.9" height="9.5"/>
							<rect x="142.5" y="405.7" class="st9" width="2.9" height="9.5"/>
							<rect x="147.6" y="405.7" class="st9" width="2.9" height="9.5"/>
							<rect x="152.8" y="405.7" class="st9" width="2.9" height="9.5"/>
							<rect x="157.9" y="405.7" class="st9" width="2.9" height="9.5"/>
							<rect x="163.1" y="405.7" class="st9" width="2.9" height="9.5"/>
							<rect x="168.2" y="405.7" class="st9" width="2.9" height="9.5"/>
							<rect x="173.3" y="405.7" class="st9" width="2.9" height="9.5"/>
							<rect x="178.5" y="405.7" class="st9" width="2.9" height="9.5"/>
							<rect x="183.6" y="405.7" class="st9" width="2.9" height="9.5"/>
							<rect x="188.8" y="405.7" class="st9" width="2.9" height="9.5"/>
							<rect x="193.9" y="405.7" class="st9" width="2.9" height="9.5"/>
							<rect x="199.1" y="405.7" class="st9" width="2.9" height="9.5"/>
							<rect x="204.2" y="405.7" class="st9" width="2.9" height="9.5"/>
							<rect x="209.3" y="405.7" class="st9" width="2.9" height="9.5"/>
							<rect x="214.5" y="405.7" class="st9" width="2.9" height="9.5"/>
							<rect x="219.6" y="405.7" class="st9" width="2.9" height="9.5"/>
							<rect x="224.8" y="405.7" class="st9" width="2.9" height="9.5"/>
							<rect x="229.9" y="405.7" class="st9" width="2.9" height="9.5"/>
						</g>
						<rect x="235.8" y="403.8" class="st10" width="18.2" height="13.3"/>
						<rect x="112.8" y="168" class="st11" width="123" height="235.8"/>
						<rect x="120.9" y="166" class="st12" width="131.2" height="2"/>
						<g>
							<rect x="107.9" y="277.9" class="st13" width="1" height="9.9"/>
							<rect x="107.9" y="291.2" class="st13" width="1" height="25.8"/>
						</g>
						<rect x="235.8" y="168" class="st13" width="24.3" height="235.8"/>
					</g>
					<g>
						<path class="st14" d="M229.7,253.8H118.9c-1.8,0-3.3-1.5-3.3-3.3v-16.9c0-1.8,1.5-3.3,3.3-3.3h110.8c1.8,0,3.3,1.5,3.3,3.3
							v16.9C233,252.3,231.5,253.8,229.7,253.8z"/>
						<path class="st13" d="M223.1,239l-4.7-9.8V255h4.9h1.3h8.4v-12.9h-4.9C226,242.1,224,240.9,223.1,239z"/>
						<rect x="115.7" y="170.9" class="st15" width="117.3" height="25.8"/>
						<rect x="115.7" y="375" class="st15" width="117.3" height="25.8"/>
						<rect x="115.7" y="345.8" class="st15" width="117.3" height="25.8"/>
						<rect x="115.7" y="316.7" class="st15" width="117.3" height="25.8"/>
						<rect x="115.7" y="287.5" class="st15" width="117.3" height="25.8"/>
						<rect x="115.7" y="258.4" class="st15" width="117.3" height="25.8"/>
						<rect x="101.1" y="229.2" class="st15" width="117.3" height="25.8"/>
						<rect x="115.7" y="200" class="st15" width="117.3" height="25.8"/>
					</g>
					<path class="st13" d="M225.7,193h-44.6c-2.1,0-3.8-1.7-3.8-3.8v-10.9c0-2.1,1.7-3.8,3.8-3.8h44.6c2.1,0,3.8,1.7,3.8,3.8v10.9
						C229.4,191.3,227.7,193,225.7,193z"/>
					<path class="st16" d="M204.9,184.5V183c0-0.9,0.7-1.6,1.6-1.6H221c0.9,0,1.6,0.7,1.6,1.6v1.5c0,0.9-0.7,1.6-1.6,1.6h-14.5
						C205.6,186.1,204.9,185.4,204.9,184.5z"/>
					<path class="st13" d="M225.7,222.2h-44.6c-2.1,0-3.8-1.7-3.8-3.8v-10.9c0-2.1,1.7-3.8,3.8-3.8h44.6c2.1,0,3.8,1.7,3.8,3.8v10.9
						C229.4,220.5,227.7,222.2,225.7,222.2z"/>
					<path class="st16" d="M204.9,213.7v-1.5c0-0.9,0.7-1.6,1.6-1.6H221c0.9,0,1.6,0.7,1.6,1.6v1.5c0,0.9-0.7,1.6-1.6,1.6h-14.5
						C205.6,215.3,204.9,214.6,204.9,213.7z"/>
					<path class="st13" d="M211.1,251.3h-44.6c-2.1,0-3.8-1.7-3.8-3.8v-10.9c0-2.1,1.7-3.8,3.8-3.8h44.6c2.1,0,3.8,1.7,3.8,3.8v10.9
						C214.8,249.6,213.1,251.3,211.1,251.3z"/>
					<path class="st16" d="M190.3,242.9v-1.5c0-0.9,0.7-1.6,1.6-1.6h14.5c0.9,0,1.6,0.7,1.6,1.6v1.5c0,0.9-0.7,1.6-1.6,1.6h-14.5
						C191,244.5,190.3,243.8,190.3,242.9z"/>
					<path class="st13" d="M225.7,280.5h-44.6c-2.1,0-3.8-1.7-3.8-3.8v-10.9c0-2.1,1.7-3.8,3.8-3.8h44.6c2.1,0,3.8,1.7,3.8,3.8v10.9
						C229.4,278.8,227.7,280.5,225.7,280.5z"/>
					<path class="st16" d="M204.9,272v-1.5c0-0.9,0.7-1.6,1.6-1.6H221c0.9,0,1.6,0.7,1.6,1.6v1.5c0,0.9-0.7,1.6-1.6,1.6h-14.5
						C205.6,273.6,204.9,272.9,204.9,272z"/>
					<path class="st13" d="M225.7,309.7h-44.6c-2.1,0-3.8-1.7-3.8-3.8V295c0-2.1,1.7-3.8,3.8-3.8h44.6c2.1,0,3.8,1.7,3.8,3.8v10.9
						C229.4,308,227.7,309.7,225.7,309.7z"/>
					<path class="st16" d="M204.9,301.2v-1.5c0-0.9,0.7-1.6,1.6-1.6H221c0.9,0,1.6,0.7,1.6,1.6v1.5c0,0.9-0.7,1.6-1.6,1.6h-14.5
						C205.6,302.8,204.9,302.1,204.9,301.2z"/>
					<path class="st13" d="M225.7,338.8h-44.6c-2.1,0-3.8-1.7-3.8-3.8v-10.9c0-2.1,1.7-3.8,3.8-3.8h44.6c2.1,0,3.8,1.7,3.8,3.8v10.9
						C229.4,337.1,227.7,338.8,225.7,338.8z"/>
					<path class="st16" d="M204.9,330.4v-1.5c0-0.9,0.7-1.6,1.6-1.6H221c0.9,0,1.6,0.7,1.6,1.6v1.5c0,0.9-0.7,1.6-1.6,1.6h-14.5
						C205.6,332,204.9,331.2,204.9,330.4z"/>
					<path class="st13" d="M225.7,368h-44.6c-2.1,0-3.8-1.7-3.8-3.8v-10.9c0-2.1,1.7-3.8,3.8-3.8h44.6c2.1,0,3.8,1.7,3.8,3.8v10.9
						C229.4,366.3,227.7,368,225.7,368z"/>
					<path class="st16" d="M204.9,359.5V358c0-0.9,0.7-1.6,1.6-1.6H221c0.9,0,1.6,0.7,1.6,1.6v1.5c0,0.9-0.7,1.6-1.6,1.6h-14.5
						C205.6,361.1,204.9,360.4,204.9,359.5z"/>
					<path class="st13" d="M225.7,397.1h-44.6c-2.1,0-3.8-1.7-3.8-3.8v-10.9c0-2.1,1.7-3.8,3.8-3.8h44.6c2.1,0,3.8,1.7,3.8,3.8v10.9
						C229.4,395.4,227.7,397.1,225.7,397.1z"/>
					<path class="st16" d="M204.9,388.7v-1.5c0-0.9,0.7-1.6,1.6-1.6H221c0.9,0,1.6,0.7,1.6,1.6v1.5c0,0.9-0.7,1.6-1.6,1.6h-14.5
						C205.6,390.3,204.9,389.6,204.9,388.7z"/>
					<g>
						<circle class="st13" cx="168.2" cy="183.8" r="3"/>
						<circle class="st13" cx="159.7" cy="183.8" r="3"/>
						<circle class="st17" cx="151.2" cy="183.8" r="3"/>
						<circle class="st13" cx="142.7" cy="183.8" r="3"/>
					</g>
					<g>
						<circle class="st13" cx="168.2" cy="213" r="3"/>
						<circle class="st13" cx="159.7" cy="213" r="3"/>
						<circle class="st13" cx="151.2" cy="213" r="3"/>
						<circle class="st17" cx="142.7" cy="213" r="3"/>
					</g>
					<g>
						<circle class="st17" cx="153.6" cy="242.1" r="3"/>
						<circle class="st13" cx="145.1" cy="242.1" r="3"/>
						<circle class="st17" cx="136.6" cy="242.1" r="3"/>
						<circle class="st13" cx="128.1" cy="242.1" r="3"/>
					</g>
					<g>
						<circle class="st17" cx="168.2" cy="271.3" r="3"/>
						<circle class="st17" cx="159.7" cy="271.3" r="3"/>
						<circle class="st13" cx="151.2" cy="271.3" r="3"/>
						<circle class="st13" cx="142.7" cy="271.3" r="3"/>
					</g>
					<g>
						<circle class="st13" cx="168.2" cy="300.4" r="3"/>
						<circle class="st17" cx="159.7" cy="300.4" r="3"/>
						<circle class="st13" cx="151.2" cy="300.4" r="3"/>
						<circle class="st13" cx="142.7" cy="300.4" r="3"/>
					</g>
					<g>
						<circle class="st13" cx="168.2" cy="329.6" r="3"/>
						<circle class="st13" cx="159.7" cy="329.6" r="3"/>
						<circle class="st17" cx="151.2" cy="329.6" r="3"/>
						<circle class="st17" cx="142.7" cy="329.6" r="3"/>
					</g>
					<g>
						<circle class="st17" cx="168.2" cy="358.8" r="3"/>
						<circle class="st13" cx="159.7" cy="358.8" r="3"/>
						<circle class="st13" cx="151.2" cy="358.8" r="3"/>
						<circle class="st13" cx="142.7" cy="358.8" r="3"/>
					</g>
					<g>
						<circle class="st13" cx="168.2" cy="387.9" r="3"/>
						<circle class="st13" cx="159.7" cy="387.9" r="3"/>
						<circle class="st17" cx="151.2" cy="387.9" r="3"/>
						<circle class="st13" cx="142.7" cy="387.9" r="3"/>
					</g>
					<circle class="st16" cx="127.3" cy="183.8" r="6.5"/>
					<circle class="st16" cx="127.3" cy="213" r="6.5"/>
					<circle class="st16" cx="112.7" cy="242.1" r="6.5"/>
					<circle class="st16" cx="127.3" cy="271.3" r="6.5"/>
					<circle class="st16" cx="127.3" cy="300.4" r="6.5"/>
					<circle class="st16" cx="127.3" cy="329.6" r="6.5"/>
					<circle class="st16" cx="127.3" cy="358.8" r="6.5"/>
					<circle class="st16" cx="127.3" cy="387.9" r="6.5"/>
				</g>
				<g>
					<path class="st13" d="M222.6,145.5c-0.9-5-4-9.2-8.2-11.6c0,0,0,0,0,0c0-0.1,0-0.3,0-0.4c0-9.2-7.5-16.7-16.7-16.7h-6.4v1.3
						c-4.3,1.8-7.6,5.3-9.2,9.6c-0.5-0.1-1.1-0.1-1.7-0.1c-4.2,0-7.8,2.6-9.3,6.3c-2.1-0.5-4.4-0.5-6.9,0.5c-4.5,1.8-7.6,6-7.7,10.9
						c-0.1,6.7,5.3,12.2,11.9,12.2c0,0,0,0,0,0H192h21.6c4.9,0,9.1-3.9,9.2-8.9c0,0,0-0.1,0-0.1
						C222.8,147.4,222.7,146.4,222.6,145.5z"/>
					<path class="st11" d="M216.2,145.5c-0.9-5-4-9.2-8.2-11.6c0,0,0,0,0,0c0-0.1,0-0.3,0-0.4c0-9.2-7.5-16.7-16.7-16.7
						c-7.2,0-13.3,4.5-15.6,10.9c-0.5-0.1-1.1-0.1-1.7-0.1c-4.2,0-7.8,2.6-9.3,6.3c-2.1-0.5-4.4-0.5-6.9,0.5
						c-4.5,1.8-7.6,6-7.7,10.9c-0.1,6.7,5.3,12.2,11.9,12.2c0,0,0,0,0,0h23.6h21.6c4.9,0,9.1-3.9,9.2-8.9c0,0,0-0.1,0-0.1
						C216.4,147.4,216.3,146.4,216.2,145.5z"/>
				</g>
			</g>
			<g>
				<rect x="191.7" y="106.3" class="st7" width="0.8" height="2.5"/>
				<path class="st7" d="M353.4,163.3h-0.8v-5h0.8V163.3z M353.4,153.4h-0.8v-5h0.8V153.4z M353.4,143.4h-0.8v-5h0.8V143.4z
					 M353.4,133.4h-0.8v-5h0.8V133.4z M353.4,123.4h-0.8v-5h0.8V123.4z M353.4,113.4h-0.8v-5h0.8V113.4z M353.4,103.4h-0.8v-5h0.8
					V103.4z M192.5,101.3h-0.8v-3.4c0-0.5,0-1.1,0.1-1.6l0.8,0.1c-0.1,0.5-0.1,1-0.1,1.5V101.3z M351.8,93.6
					c-0.5-1.5-1.4-2.9-2.4-4.1L350,89c1.1,1.3,2,2.8,2.6,4.4L351.8,93.6z M194.1,91.8l-0.7-0.4c0.8-1.5,1.9-2.8,3.3-3.9l0.5,0.6
					C195.9,89.1,194.8,90.4,194.1,91.8z M345.6,86.6c-1.4-0.7-3-1.2-4.6-1.3l0.1-0.8c1.7,0.1,3.4,0.6,4.9,1.4L345.6,86.6z
					 M201.3,85.8l-0.3-0.8c1.3-0.4,2.7-0.6,4.1-0.6h1v0.8h-1C203.9,85.2,202.6,85.4,201.3,85.8z M336,85.2h-5v-0.8h5V85.2z
					 M326,85.2h-5v-0.8h5V85.2z M316,85.2h-5v-0.8h5V85.2z M306,85.2h-5v-0.8h5V85.2z M296,85.2h-5v-0.8h5V85.2z M286,85.2h-5v-0.8
					h5V85.2z M276.1,85.2h-5v-0.8h5V85.2z M266.1,85.2h-5v-0.8h5V85.2z M256.1,85.2h-5v-0.8h5V85.2z M246.1,85.2h-5v-0.8h5V85.2z
					 M236.1,85.2h-5v-0.8h5V85.2z M226.1,85.2h-5v-0.8h5V85.2z M216.1,85.2h-5v-0.8h5V85.2z"/>
				<rect x="352.5" y="168.4" class="st7" width="0.8" height="2.5"/>
			</g>
			<g>
				<g>
					<polygon class="st18" points="286.2,409.6 293.5,409.6 294.3,392.6 287,392.6 					"/>
					<path class="st19" d="M293.8,408.8h-8c-0.3,0-0.6,0.2-0.6,0.5l-1.2,6.5c-0.1,0.7,0.4,1.3,1.1,1.3c2.9,0,7.1-0.2,10.7-0.2
						c4.3,0,4.9,0.2,9.8,0.2c3,0,3.7-3,2.5-3.3c-5.8-1.3-7.4-1.4-12.5-4.5C295,409,294.4,408.8,293.8,408.8z"/>
					<polygon class="st20" points="294.3,392.6 293.9,401.4 286.6,401.4 287,392.6 					"/>
					<path class="st18" d="M335.4,165.1c-0.1,2.3-0.3,4.8-0.4,7.3c-0.1,2.4-0.1,4.9-0.1,7.3c0,2.4,0.1,4.8,0.3,7.1
						c0.2,2.3,0.5,4.5,1.1,6.4c0.2,1,0.6,1.8,0.9,2.3c0,0.1,0.2,0.4,0.4,0.6l0.5,0.7c0.3,0.5,0.6,1,1,1.5c1.3,2,2.8,3.9,4.3,5.8
						c3,3.9,6.3,7.7,9.5,11.5l-3.8,4.5c-4.5-2.9-8.6-6.1-12.5-9.7c-2-1.8-3.8-3.7-5.6-5.8c-0.4-0.5-0.9-1-1.3-1.6l-0.6-0.8
						c-0.2-0.3-0.4-0.5-0.7-0.9c-1.1-1.6-1.7-3.2-2.3-4.6c-1.1-3-1.6-5.8-2-8.5c-0.4-2.8-0.6-5.5-0.7-8.1c-0.1-2.7-0.1-5.3,0-8
						c0.1-2.7,0.2-5.2,0.5-8L335.4,165.1z"/>
					<path class="st21" d="M338,180.2l-3.1,1.3l-5.3,2.1l-9.3,3.7c0,0-4.3-22.1-2-28.8c2.5-7.4,11.4-7.2,16.2,1.2
						C339.3,167.8,338,180.2,338,180.2z"/>
					<path class="st22" d="M334.5,181.6l-4.8,1.9c-0.8-3.5-1.5-9.3,0.8-13.6C333.7,172.6,334.2,178.1,334.5,181.6z"/>
					<path class="st21" d="M329.7,212.3h-40.2c-0.3-3.6,0.6-13.4,0-26.7c-0.1-3.1-0.4-6.3-0.7-9.7c-0.7-7.1-1.9-14.9-3.8-23
						c0,0,6.9-1.4,13.4-1.7c5.1-0.3,12.6-0.4,17.1,0c6,0.5,11.7,2.1,11.7,2.1S336.6,170.1,329.7,212.3z"/>
					<path class="st22" d="M289.5,185.6c-0.1-3.1-0.4-6.3-0.7-9.7c1.3-0.8,3-0.9,3.3,3.9C292.5,184.2,291,185.4,289.5,185.6z"/>
					<polygon class="st18" points="364.2,221.1 358.4,224.7 351.2,223.2 356.9,216.1 					"/>
					<path class="st18" d="M350.2,215l6.7,1.1l-5.7,7.1c0,0-3.6-0.4-4.5-5.2L350.2,215z"/>
					<path class="st18" d="M299.4,131.9c1.3,5.5,2.7,15.6-1,19.2c0,0,1.9,3.7,12.1,3.7c9.3,0,5-3.7,5-3.7c-6.2-1.5-6.2-6-5.3-10.3
						L299.4,131.9z"/>
					<path class="st20" d="M303.8,135.6l6.4,5.3c-0.2,1-0.4,2-0.4,3c-1.9,1.9-5.7-2.9-6-5.4C303.6,137.3,303.6,136.2,303.8,135.6z"
						/>
					<path class="st9" d="M321.2,118c2.6,3.2-0.4,13.2-5.7,12.9C310.2,130.6,316.4,111.9,321.2,118z"/>
					<path class="st18" d="M300.5,122.8c-0.6,7.4-1.3,11.7,1.9,16.1c4.8,6.6,14.4,4.9,17.2-2.1c2.5-6.3,3-17.4-3.8-21.6
						C309.1,111.1,301.1,115.4,300.5,122.8z"/>
					<path class="st9" d="M297.8,113.5l8,2.8c-3.5,4.7,1.6,15.8-4.6,13.7C298.4,129,289.1,118.8,297.8,113.5z"/>
					<path class="st9" d="M301.7,115.4c3,2.2,15.3,4.9,22.3,0.9c-1.8-0.4-4.2-1.6-4.2-1.6s5.3-0.3,7.6-4.1c-5,0.8-8.4-0.7-9.7-1.2
						c2.3-0.5,4.7-2.9,5.4-4.6c-9.7,0.1-30.6,2.1-27,8.9C299.9,120.6,301.7,115.4,301.7,115.4z"/>
					<path class="st9" d="M297.5,114.5c0,0-2.4-1.1-4-2.8C293.1,112.8,293.1,115.9,297.5,114.5z"/>
					<path class="st18" d="M296,130.3c0.8,1.9,2.4,3.2,3.9,3.9c2.3,0.9,3.7-1,3.2-3.4c-0.4-2.1-2.2-5.1-4.6-5.1
						C296.2,125.8,295.1,128.2,296,130.3z"/>
					<polygon class="st18" points="308.7,409.6 316.1,409.6 317.6,392.6 310.3,392.6 					"/>
					<path class="st19" d="M316.4,408.8h-8c-0.3,0-0.6,0.2-0.6,0.5l-1.2,6.5c-0.1,0.7,0.4,1.3,1.1,1.3c2.9,0,7.1-0.2,10.7-0.2
						c4.3,0,7.9,0.2,12.9,0.2c3,0,3.7-3,2.5-3.3c-5.8-1.3-10.5-1.4-15.6-4.5C317.7,409,317.1,408.8,316.4,408.8z"/>
					<polygon class="st20" points="317.6,392.6 316.8,401.4 309.5,401.4 310.3,392.6 					"/>
					<path class="st23" d="M319.5,409.9c0.6,0.1,1.1,0.1,1.5-0.2c0.3-0.2,0.5-0.5,0.5-0.9c0-0.3-0.1-0.5-0.2-0.5
						c-0.8-0.5-3.4,0.5-3.7,0.7c-0.1,0-0.1,0.1-0.1,0.2c0,0.1,0,0.1,0.1,0.2C318.1,409.6,318.8,409.8,319.5,409.9z M320.8,408.6
						c0.1,0,0.2,0,0.2,0.1c0,0,0.1,0.1,0.1,0.2c0,0.3-0.1,0.5-0.3,0.6c-0.4,0.3-1.4,0.2-2.7-0.3C319,408.8,320.2,408.5,320.8,408.6z
						"/>
					<path class="st23" d="M317.6,409.4C317.6,409.4,317.7,409.4,317.6,409.4c0.9-0.3,2.6-1.7,2.5-2.5c0-0.2-0.1-0.4-0.5-0.5
						c-0.3-0.1-0.5,0-0.8,0.1c-1,0.6-1.4,2.7-1.4,2.8C317.5,409.2,317.5,409.3,317.6,409.4C317.6,409.3,317.6,409.4,317.6,409.4z
						 M319.5,406.6C319.5,406.6,319.5,406.6,319.5,406.6c0.3,0.1,0.3,0.2,0.3,0.2c0,0.5-1.1,1.6-1.9,2c0.2-0.6,0.6-1.8,1.2-2.2
						C319.2,406.6,319.3,406.6,319.5,406.6z"/>
					<path class="st7" d="M306.7,399.3h12c0,0,18.4-70.3,18.1-94.2c-0.3-22.9-7-92.8-7-92.8h-26.4c0,0,2.1,15.5,4.4,34.7
						c2.1,16.9,4.4,36.7,5.7,51.1c0.4,4.3,0.7,8.1,0.9,11.2C315.6,332.8,306.7,399.3,306.7,399.3z"/>
					<path class="st24" d="M307.7,247c2.1,16.9,4.4,36.7,5.7,51.1c2.8-12.6,9.6-49.1-0.6-67.6C310.2,234.2,308.6,240.5,307.7,247z"
						/>
					<path class="st7" d="M315.4,212.3c0,0-1,67.4-4.9,88.9c-4.3,23.6-12.8,98.1-12.8,98.1H284c0,0,2-72.6,4.1-95.9
						c2.3-25.3,1.4-91,1.4-91H315.4z"/>
					<polygon class="st9" points="283.4,399.6 298.3,399.6 299.4,394 282.9,393.5 					"/>
					<polygon class="st9" points="306,399.6 320.9,399.6 322,394 305.6,394.3 					"/>
					<path class="st21" d="M289.2,391.2C289.2,391.2,289.2,391.2,289.2,391.2c-0.1,0-0.1-0.1-0.1-0.1c0.1-0.7,1.1-65.9,3-86.8
						c2-22.8,0.8-83.1,0.8-83.6c0-0.1,0.1-0.1,0.1-0.1c0.1,0,0.1,0.1,0.1,0.1c0,0.5,1.2,60.9-0.8,83.6c-1.9,21-2.9,86.1-3,86.8
						C289.3,391.1,289.3,391.2,289.2,391.2z"/>
					<g>
						<path class="st25" d="M290.9,151.5l1.9-0.2c0.2,0,0.4,0.1,0.4,0.3c6.3,28.4,4.4,58.5,4.4,58.5h-2.1
							c0.6-31.2-4.2-54.9-4.9-58.2C290.6,151.7,290.7,151.5,290.9,151.5z"/>
						<path class="st9" d="M295.9,210.8h1.4c0.4,0,0.7-0.3,0.7-0.7l0,0c0-0.4-0.3-0.7-0.7-0.7h-1.4c-0.4,0-0.7,0.3-0.7,0.7l0,0
							C295.2,210.5,295.6,210.8,295.9,210.8z"/>
						<path class="st9" d="M297.6,212.6l-0.1-1.9c0-0.5-0.4-0.9-0.9-0.9l0,0c-0.5,0-0.9,0.4-0.9,0.9l0.1,1.9c0,0.5,0.4,0.9,0.9,0.9
							l0,0C297.2,213.5,297.6,213.1,297.6,212.6z"/>
					</g>
					<path class="st18" d="M289.5,164.8c-1.1,4.7-2.3,9.6-3.3,14.4c-0.5,2.4-1,4.8-1.3,7.1c-0.3,2.3-0.7,4.7-0.6,6.5
						c0.1,3.8,1.5,7.7,4.1,11.1c1.3,1.7,2.9,3.4,4.6,4.9c0.9,0.8,1.8,1.5,2.7,2.2c0.5,0.3,0.9,0.7,1.4,1c0.5,0.3,1,0.7,1.4,0.9
						l-2.2,5.5c-0.8-0.2-1.4-0.4-2.1-0.7c-0.6-0.3-1.3-0.5-1.9-0.8c-1.3-0.6-2.5-1.2-3.7-1.9c-2.4-1.4-4.7-3.1-6.8-5.2
						c-2.1-2.1-3.9-4.5-5.4-7.2c-1.4-2.8-2.4-5.8-2.7-9c-0.3-3.2-0.2-5.9,0-8.7c0.2-2.7,0.6-5.3,1-7.9c0.8-5.2,2-10.2,3.4-15.3
						L289.5,164.8z"/>
					<path class="st21" d="M285,152.9c-8,1.4-12.5,22.7-12.5,22.7l19.7,7c0,0,1.5-7,0-16.2C290.8,157.4,292.5,151.5,285,152.9z"/>
					<g>
						<path class="st25" d="M322.8,151.9l1.9,0.4c0.2,0,0.3,0.2,0.3,0.3c5,28.4,1.7,57.6,1.7,57.6h-2.1c2-30.9-1.6-54.2-2.2-57.8
							C322.3,152.1,322.5,151.9,322.8,151.9z"/>
						<path class="st9" d="M324.9,210.8h1.4c0.4,0,0.7-0.3,0.7-0.7l0,0c0-0.4-0.3-0.7-0.7-0.7h-1.4c-0.4,0-0.7,0.3-0.7,0.7l0,0
							C324.2,210.5,324.5,210.8,324.9,210.8z"/>
						<path class="st9" d="M326.5,212.6l0-1.9c0-0.5-0.4-0.9-0.9-0.9l0,0c-0.5,0-0.9,0.4-0.9,0.9l0,1.9c0,0.5,0.4,0.9,0.9,0.9l0,0
							C326.1,213.5,326.5,213.1,326.5,212.6z"/>
					</g>
					<path class="st23" d="M296.9,409.9c0.6,0.1,1.1,0.1,1.5-0.2c0.3-0.2,0.5-0.5,0.5-0.9c0-0.3-0.1-0.5-0.2-0.5
						c-0.8-0.5-3.4,0.5-3.7,0.7c-0.1,0-0.1,0.1-0.1,0.2c0,0.1,0,0.1,0.1,0.2C295.5,409.6,296.2,409.8,296.9,409.9z M298.2,408.6
						c0.1,0,0.2,0,0.2,0.1c0,0,0.1,0.1,0.1,0.2c0,0.3-0.1,0.5-0.3,0.6c-0.4,0.3-1.4,0.2-2.7-0.3
						C296.4,408.8,297.6,408.5,298.2,408.6z"/>
					<path class="st23" d="M295,409.4C295,409.4,295.1,409.4,295,409.4c0.9-0.3,2.6-1.7,2.5-2.5c0-0.2-0.1-0.4-0.5-0.5
						c-0.3-0.1-0.5,0-0.8,0.1c-1,0.6-1.4,2.7-1.4,2.8C294.8,409.2,294.9,409.3,295,409.4C294.9,409.3,295,409.4,295,409.4z
						 M296.9,406.6C296.9,406.6,296.9,406.6,296.9,406.6c0.3,0.1,0.3,0.2,0.3,0.2c0,0.5-1.1,1.6-1.9,2c0.2-0.6,0.6-1.8,1.2-2.2
						C296.6,406.6,296.7,406.6,296.9,406.6z"/>
					<path class="st18" d="M292.4,217l2.3-4.2l6.3,0.2l4.9,2l3.3,4.9l-8.6-0.5C300.7,219.4,295.5,220.9,292.4,217z"/>
					<polygon class="st22" points="309.9,154.9 308.4,153.8 305.3,156.8 					"/>
					<path class="st25" d="M308.4,153.8c0,0-2.5,3.6-2.9,6.2c-3.1-1.3-9.1-4.5-10-9c1.2-0.2,3.1-1.5,3.1-1.5
						S301.8,152.2,308.4,153.8z"/>
					<polygon class="st22" points="309.9,154.9 310.4,153.6 314.6,156.8 					"/>
					<path class="st25" d="M310.4,153.6c0,0,2.7,2.3,3.2,5.8c3-1.3,4.1-5.5,3.2-8.2c-1.7-0.8-3.7-1.2-3.7-1.2
						S313.5,152.7,310.4,153.6z"/>
				</g>
				<g>
					<polygon class="st25" points="382.4,183.4 319.5,181.2 310.4,218 373.3,220.2 					"/>
					<polygon class="st9" points="384.4,183.5 321.4,181.3 312.3,218.1 375.3,220.3 					"/>
					<polygon class="st9" points="375.3,220.3 375,222.4 312.1,220.1 312.3,218.1 					"/>
					<polygon class="st25" points="312.3,218.1 312.1,220.1 287.3,219.3 287.6,217.2 					"/>
				</g>
			</g>
		</g>
	</g>
</g>
<g id="Designed_by_Freepik">
</g>
</svg>
