<?xml version="1.0" encoding="utf-8"?>
<!-- Generator: Adobe Illustrator 19.0.0, SVG Export Plug-In . SVG Version: 6.00 Build 0)  -->
<svg version="1.1" id="Layer_1" xmlns="http://www.w3.org/2000/svg" xmlns:xlink="http://www.w3.org/1999/xlink" x="0px" y="0px"
	 viewBox="0 0 612 792" style="enable-background:new 0 0 612 792;" xml:space="preserve">
<style type="text/css">
	.st0{display:none;}
	.st1{display:inline;fill:none;}
	.st2{fill:#244384;}
</style>
<image style="display:none;overflow:visible;" width="1920" height="1080" id="XMLID_2_" xlink:href="B2BA7CAE.jpg"  transform="matrix(1 0 0 1 -578 -240)">
</image>
<g id="XMLID_4_" class="st0">
	<path id="XMLID_7_" class="st1" d="M313.8,336.3V221.8c-0.3,0-0.6,0-0.8,0.1v114.3C313.3,336.2,313.6,336.3,313.8,336.3z"/>
	<path id="XMLID_13_" class="st1" d="M353.7,407.5v132.8c55.8-2.2,133.3-26.9,133.3-63.8C487,450.6,435.9,423.8,353.7,407.5z"/>
</g>
<path id="XMLID_17_" class="st2" d="M515.2,201.4h-45.5c2.4,3.5,4.6,7,6.8,10.7c-56.4-9.7-118.2-17.8-161.9-17.9v-92.3
	c45.4,4.3,87.1,25.5,121,58.6H488c-48.2-61.6-115.7-99.9-190.4-99.9s-142.3,38.3-190.4,99.9h52.3c34.9-34,77.8-55.4,124.6-58.9
	l0,92.6c-95.4,4.5-156.9,29.4-185.5,56.8c7.6-17.7,16.6-34.4,26.9-49.6H79.9c-29.8,53-47.3,117.5-47.3,187
	c0,181,118.6,327.7,265,327.7s265-146.7,265-327.7C562.6,318.8,545.1,254.4,515.2,201.4z M314.7,208.3
	c88.4,2.4,143.9,32.3,163.8,84.8l23,0.5c0.7-11.8,0.7-21.8,0-30.7c14.1,37.1,22,78.7,22,122.6c0,19.9-1.6,39.3-4.7,58
	c-5.3-31.3-63.8-75.1-168.8-93.3l-35.3-7.5V208.3z M314.7,397.6c67.8,12.2,104.6,31.2,104.6,63.8c0,26.6-33.9,60.7-104.6,64.6V397.6
	z M284,209.3l0,129.5l0-1c-67.9-12.2-104.6-31.2-104.6-63.8C179.4,247.6,214,213.5,284,209.3z M82.2,299.4
	c12.6,30.4,69.8,68.9,166.6,85.7l35.3,7.6l0,134.4c-88.4-2.4-158.4-32.3-178.3-84.8l-23-0.5c-0.7,12.7-0.7,23.2,0.1,32.5
	c-7.3-27.9-11.2-57.7-11.2-88.7C71.7,355.5,75.4,326.6,82.2,299.4z M297.6,670c-85.5,0-160-59.9-198.3-148.1
	c59.2,10.3,138.9,19.3,184.8,19.4v0l30.6,0.1c0,0,0,0,0,0h0v0c115.8,0,181.1-38.7,199.2-73.6C485.9,584.8,399.7,670,297.6,670z"/>
</svg>
