<svg width="157" height="55" viewBox="0 0 157 55" fill="none" xmlns="http://www.w3.org/2000/svg">
<path d="M56.7507 43.2031H54.2936V37.8161C54.2936 37.045 54.16 36.4899 53.8927 36.1301C53.6254 35.7805 53.2553 35.5955 52.7721 35.5955C52.5254 35.5955 52.2786 35.6469 52.0216 35.7394C51.7646 35.8422 51.5281 35.9758 51.302 36.1506C51.0758 36.3254 50.8702 36.5413 50.6851 36.7777C50.5001 37.0245 50.3664 37.2918 50.2842 37.5796V43.1825H47.8271V33.5908H50.0375V35.3693C50.387 34.7627 50.901 34.2796 51.5795 33.9403C52.2478 33.601 53.0085 33.4263 53.8515 33.4263C54.4478 33.4263 54.9413 33.5394 55.3114 33.7552C55.6918 33.9711 55.9796 34.259 56.1852 34.6188C56.3908 34.9684 56.5348 35.3796 56.617 35.8319C56.6993 36.2843 56.7404 36.7366 56.7404 37.2095V43.2031H56.7507Z" fill="#FDB515"/>
<path d="M63.3407 43.388C62.5697 43.388 61.8809 43.2544 61.2538 42.9974C60.6267 42.7301 60.1024 42.3805 59.6603 41.9282C59.2182 41.4759 58.879 40.9515 58.6425 40.3553C58.4061 39.759 58.2827 39.1319 58.2827 38.4739C58.2827 37.7954 58.3958 37.1477 58.6322 36.5412C58.8687 35.9346 59.1977 35.4103 59.6397 34.9477C60.0818 34.4851 60.6164 34.1253 61.2435 33.858C61.8706 33.5907 62.58 33.457 63.3613 33.457C64.1426 33.457 64.8417 33.5907 65.4585 33.858C66.0754 34.1253 66.5997 34.4851 67.0315 34.9374C67.4632 35.3898 67.7922 35.9141 68.0184 36.5104C68.2446 37.1066 68.3577 37.7337 68.3577 38.3814C68.3577 38.5356 68.3576 38.6898 68.3474 38.844C68.3371 38.988 68.3268 39.1113 68.3062 39.2141H60.894C60.9351 39.5945 61.0173 39.9235 61.1715 40.2216C61.3155 40.5095 61.5108 40.7665 61.737 40.9721C61.9734 41.1777 62.2304 41.3422 62.5286 41.445C62.8267 41.5581 63.1248 41.6095 63.4435 41.6095C63.9267 41.6095 64.3894 41.4861 64.8211 41.2497C65.2529 41.0132 65.5511 40.6945 65.7053 40.3039L67.8128 40.8899C67.4632 41.6198 66.8978 42.2263 66.1165 42.689C65.3352 43.1516 64.4099 43.388 63.3407 43.388ZM65.8286 37.6001C65.767 36.8805 65.4997 36.3047 65.037 35.873C64.5641 35.4412 63.9987 35.2253 63.3305 35.2253C63.0015 35.2253 62.6931 35.287 62.4052 35.4001C62.1174 35.5131 61.8603 35.6776 61.6444 35.8832C61.4286 36.0888 61.2435 36.3459 61.0996 36.6337C60.9557 36.9216 60.8734 37.2506 60.8529 37.6001H65.8286Z" fill="#FDB515"/>
<path d="M75.5334 42.7096C75.2044 42.8535 74.8035 43.0077 74.3203 43.1517C73.8474 43.2956 73.3436 43.3676 72.8193 43.3676C72.4801 43.3676 72.1614 43.3264 71.8632 43.2442C71.5651 43.1619 71.2978 43.018 71.0716 42.833C70.8455 42.6479 70.6707 42.4012 70.5268 42.103C70.3931 41.8049 70.3211 41.4451 70.3211 41.0133V35.5029H69.0566V33.6216H70.3211V30.5066H72.7885V33.6216H74.8035V35.5029H72.7885V40.1909C72.7885 40.5301 72.881 40.7769 73.0558 40.9105C73.2305 41.0544 73.4464 41.1161 73.7034 41.1161C73.9605 41.1161 74.2072 41.075 74.4539 40.9928C74.7007 40.9105 74.896 40.8385 75.0399 40.7769L75.5334 42.7096Z" fill="#FDB515"/>
<path d="M88.7128 33.6113H91.0362L87.0268 43.2031H85.0118L83.3669 38.9881L81.7426 43.2031H79.7276L75.7388 33.6113H78.0416L80.8996 40.9002L82.0716 37.7852L80.3856 33.6319H82.3594L83.3669 36.5824L84.395 33.6319H86.3689L84.7034 37.7852L85.8548 40.9002L88.7128 33.6113Z" fill="#FDB515"/>
<path d="M96.2591 43.388C95.4778 43.388 94.7787 43.2544 94.1516 42.9871C93.5245 42.7198 93.0002 42.36 92.5684 41.8974C92.1367 41.4347 91.7974 40.9104 91.5712 40.3142C91.3348 39.7179 91.2217 39.0908 91.2217 38.4328C91.2217 37.7646 91.3348 37.1272 91.5712 36.5309C91.8077 35.9346 92.1367 35.4001 92.5684 34.9477C93.0002 34.4851 93.5245 34.1253 94.1516 33.858C94.7787 33.5907 95.4778 33.457 96.2591 33.457C97.0405 33.457 97.7395 33.5907 98.3564 33.858C98.9732 34.1253 99.4975 34.4851 99.9293 34.9477C100.361 35.4103 100.69 35.9346 100.927 36.5309C101.163 37.1272 101.276 37.7646 101.276 38.4328C101.276 39.0908 101.163 39.7179 100.927 40.3142C100.69 40.9104 100.361 41.445 99.9396 41.8974C99.5078 42.36 98.9835 42.7198 98.3667 42.9871C97.7395 43.2441 97.0405 43.388 96.2591 43.388ZM93.7507 38.4225C93.7507 38.8543 93.8124 39.2347 93.946 39.5842C94.0797 39.9338 94.2544 40.2319 94.4806 40.4889C94.7068 40.7459 94.9741 40.9413 95.2722 41.0852C95.5806 41.2291 95.9096 41.2908 96.2591 41.2908C96.6087 41.2908 96.9377 41.2188 97.2461 41.0852C97.5545 40.9413 97.8115 40.7459 98.0377 40.4889C98.2639 40.2319 98.4386 39.9235 98.5723 39.574C98.6956 39.2244 98.7676 38.8338 98.7676 38.402C98.7676 37.9908 98.7059 37.6001 98.5723 37.2506C98.4489 36.901 98.2639 36.5926 98.0377 36.3356C97.8115 36.0786 97.5442 35.8832 97.2461 35.7393C96.9377 35.5954 96.6087 35.5337 96.2591 35.5337C95.9096 35.5337 95.5806 35.6057 95.2722 35.7496C94.9638 35.8935 94.6965 36.0991 94.4806 36.3561C94.2544 36.6132 94.0797 36.9216 93.946 37.2711C93.8124 37.6207 93.7507 38.0113 93.7507 38.4225Z" fill="#FDB515"/>
<path d="M108.626 35.7292C107.886 35.7395 107.218 35.8835 106.632 36.161C106.046 36.4386 105.624 36.8498 105.367 37.3947V43.1929H102.91V33.6012H105.162V35.647C105.336 35.318 105.532 35.0199 105.768 34.7629C106.005 34.4956 106.251 34.2694 106.519 34.0741C106.786 33.8788 107.063 33.7245 107.331 33.6217C107.608 33.5189 107.865 33.4675 108.122 33.4675C108.256 33.4675 108.359 33.4675 108.421 33.4675C108.492 33.4675 108.554 33.4778 108.616 33.4881V35.7292H108.626Z" fill="#FDB515"/>
<path d="M116.553 43.2031L113.767 39.0498L112.451 40.3451V43.2031H110.004V29.8384H112.461V37.9497L116.306 33.6319H118.927L115.36 37.6927L119.184 43.2031H116.553Z" fill="#FDB515"/>
<path d="M123.841 43.3881C123.039 43.3881 122.248 43.2648 121.477 43.0077C120.706 42.7507 120.048 42.3806 119.503 41.9077L120.418 40.3656C121.004 40.7769 121.569 41.0956 122.124 41.3115C122.68 41.5273 123.235 41.6301 123.78 41.6301C124.263 41.6301 124.653 41.5376 124.931 41.3526C125.209 41.1675 125.353 40.9105 125.353 40.561C125.353 40.2217 125.188 39.9647 124.859 39.8105C124.53 39.6563 123.996 39.4712 123.245 39.2656C122.618 39.0909 122.094 38.9264 121.652 38.7722C121.21 38.6179 120.86 38.4329 120.593 38.2273C120.325 38.0217 120.13 37.7955 120.007 37.5282C119.883 37.2609 119.822 36.9525 119.822 36.5824C119.822 36.0992 119.914 35.6571 120.109 35.2665C120.295 34.8758 120.562 34.5469 120.901 34.2693C121.24 33.9917 121.641 33.7861 122.104 33.6422C122.567 33.4982 123.06 33.4263 123.595 33.4263C124.314 33.4263 124.993 33.5291 125.62 33.7347C126.247 33.9403 126.823 34.2796 127.347 34.7422L126.36 36.2226C125.877 35.8525 125.404 35.5852 124.941 35.4207C124.479 35.2459 124.026 35.1637 123.574 35.1637C123.163 35.1637 122.813 35.2459 122.525 35.4207C122.248 35.5955 122.104 35.8628 122.104 36.2431C122.104 36.4179 122.135 36.5516 122.207 36.6646C122.279 36.7777 122.381 36.8703 122.525 36.9525C122.669 37.0347 122.865 37.117 123.101 37.1992C123.338 37.2815 123.636 37.3637 123.985 37.446C124.643 37.6207 125.209 37.7852 125.682 37.96C126.154 38.1348 126.535 38.3301 126.833 38.546C127.131 38.7619 127.347 39.0189 127.491 39.3067C127.635 39.5946 127.697 39.9339 127.697 40.3451C127.697 41.2806 127.347 42.0311 126.648 42.5657C125.99 43.1105 125.044 43.3881 123.841 43.3881Z" fill="#FDB515"/>
<path d="M47.5153 48.9538H48.2236L48.0636 49.6963C48.2464 49.445 48.4863 49.2508 48.7719 49.1023C49.0575 48.9538 49.3545 48.8853 49.663 48.8853C49.8229 48.8853 49.9485 48.9081 50.0514 48.9538C50.1542 48.9995 50.2341 49.0566 50.3027 49.1366C50.3712 49.2165 50.4169 49.3079 50.4398 49.4107C50.474 49.5136 50.4855 49.6278 50.4855 49.7535C50.4855 49.8563 50.474 49.9591 50.4626 50.0619C50.4512 50.1761 50.4283 50.279 50.4055 50.3932L49.9257 52.6551H49.1489L49.5944 50.576C49.6173 50.4846 49.6287 50.4046 49.6401 50.3361C49.6515 50.2675 49.6515 50.1876 49.6515 50.1304C49.6515 49.7649 49.503 49.5821 49.1946 49.5821C49.0918 49.5821 48.9775 49.605 48.8633 49.6506C48.7491 49.6963 48.6348 49.7535 48.532 49.8334C48.4178 49.9134 48.315 50.0048 48.2236 50.1076C48.1322 50.2104 48.0522 50.3361 47.9837 50.4617L47.5039 52.6665H46.7271L47.5153 48.9538Z" fill="#193561"/>
<path d="M52.4162 52.7351C52.1763 52.7351 51.9707 52.6894 51.7879 52.6094C51.6052 52.5294 51.4566 52.4152 51.3196 52.2781C51.1939 52.141 51.0911 51.9697 51.034 51.7755C50.9654 51.5813 50.9312 51.3756 50.9312 51.1586C50.9312 50.8501 50.9883 50.5645 51.1025 50.2904C51.2167 50.0162 51.3767 49.7763 51.5823 49.5707C51.7879 49.3651 52.0278 49.1937 52.3134 49.068C52.599 48.9424 52.896 48.8853 53.2273 48.8853C53.6157 48.8853 53.9128 48.9766 54.1412 49.148C54.3697 49.3194 54.4839 49.5707 54.4839 49.9134C54.4839 50.6902 53.7871 51.0786 52.4048 51.0786C52.1992 51.0786 51.9707 51.0672 51.7194 51.0558V51.1814C51.7194 51.3185 51.7308 51.4442 51.7651 51.5698C51.7994 51.6841 51.8451 51.7869 51.9136 51.8783C51.9821 51.9697 52.0621 52.0382 52.1649 52.0839C52.2677 52.1296 52.3934 52.1639 52.5305 52.1639C52.7361 52.1639 52.9303 52.1182 53.1245 52.0154C53.3187 51.9125 53.4672 51.7755 53.57 51.6041L54.1869 51.7983C54.0955 51.9354 53.9813 52.0725 53.8556 52.1867C53.73 52.3009 53.5815 52.4038 53.4215 52.4837C53.2616 52.5637 53.1017 52.6322 52.9303 52.6779C52.7704 52.7122 52.599 52.7351 52.4162 52.7351ZM53.1359 49.4679C52.9646 49.4679 52.8046 49.5021 52.6676 49.5593C52.5305 49.6164 52.4048 49.6963 52.2906 49.7992C52.1763 49.902 52.0849 50.0162 52.0164 50.1419C51.9364 50.2675 51.8793 50.4046 51.8336 50.5531C52.0507 50.5645 52.2563 50.576 52.4391 50.576C52.6904 50.576 52.896 50.5645 53.0674 50.5303C53.2387 50.496 53.3758 50.4617 53.4786 50.4046C53.5815 50.3475 53.6614 50.2789 53.7071 50.2104C53.7528 50.1304 53.7757 50.0505 53.7757 49.9477C53.7757 49.7877 53.7185 49.6735 53.6043 49.5935C53.4901 49.5021 53.3301 49.4679 53.1359 49.4679Z" fill="#193561"/>
<path d="M55.9231 50.8157L55.0321 48.9536H55.8432L56.4144 50.2216L56.4486 50.3473L56.5286 50.2216L57.6367 48.9536H58.4478L56.7685 50.8157L57.671 52.6663H56.8599L56.2887 51.3983L56.243 51.2841L56.163 51.3983L55.0435 52.6663H54.2324L55.9231 50.8157Z" fill="#193561"/>
<path d="M59.2358 52.7236C59.0302 52.7236 58.8588 52.6779 58.7217 52.5751C58.5847 52.4837 58.5161 52.3238 58.5161 52.1067C58.5161 52.0268 58.5275 51.9468 58.539 51.8783L59.0302 49.5592H58.5504L58.6875 48.9538H59.1444L59.4072 47.7314H60.184L59.9212 48.9538H60.6866L60.561 49.5592H59.807L59.3615 51.6269C59.35 51.6726 59.35 51.7069 59.35 51.7298C59.35 51.8211 59.3729 51.8897 59.43 51.9354C59.4871 51.9811 59.5557 52.0039 59.6356 52.0039C59.7499 52.0039 59.8527 51.9811 59.9441 51.9468C60.0469 51.9125 60.1154 51.8783 60.1726 51.8554L60.1954 52.4723C60.0812 52.5408 59.9441 52.598 59.7613 52.6436C59.6128 52.7008 59.43 52.7236 59.2358 52.7236Z" fill="#193561"/>
<path d="M63.5772 54.2544C63.1888 54.2544 62.8689 54.1859 62.6404 54.0488C62.412 53.9117 62.2292 53.7175 62.1035 53.4662L62.629 53.0549C62.7204 53.2491 62.8689 53.4091 63.0517 53.5119C63.2345 53.6147 63.4515 53.6718 63.6914 53.6718C63.8399 53.6718 63.9884 53.649 64.1369 53.6033C64.2855 53.5576 64.4111 53.489 64.5368 53.4091C64.6624 53.3177 64.7652 53.2034 64.8566 53.0663C64.948 52.9293 65.0051 52.7693 65.0394 52.5751L65.1537 52.0039C64.9823 52.2324 64.7767 52.4038 64.5368 52.5294C64.2855 52.6551 64.0456 52.7122 63.8057 52.7122C63.6115 52.7122 63.4287 52.6665 63.2687 52.5865C63.1088 52.5066 62.9831 52.3923 62.8803 52.2553C62.7775 52.1182 62.6976 51.9582 62.6404 51.7755C62.5833 51.5927 62.5605 51.3985 62.5605 51.2043C62.5605 50.8958 62.6176 50.6102 62.7318 50.3361C62.8461 50.0619 62.9946 49.8106 63.1888 49.5935C63.383 49.3765 63.6 49.2051 63.8514 49.0795C64.1027 48.9538 64.3768 48.8853 64.6624 48.8853C64.948 48.8853 65.1765 48.9538 65.3593 49.1023C65.5421 49.2394 65.6677 49.4336 65.7705 49.6506L65.919 48.9424H66.6045L65.8391 52.5523C65.782 52.8264 65.6791 53.0663 65.5421 53.272C65.405 53.4776 65.2336 53.6604 65.028 53.7975C64.8338 53.946 64.6053 54.0488 64.3654 54.1287C64.1255 54.2087 63.8513 54.2544 63.5772 54.2544ZM64.2055 52.0725C64.3197 52.0725 64.4225 52.0496 64.5368 52.0154C64.651 51.9697 64.7538 51.924 64.8452 51.8554C64.948 51.7869 65.0394 51.7069 65.1194 51.6155C65.1993 51.5241 65.2679 51.4327 65.3136 51.3299L65.5306 50.3589C65.4964 50.119 65.3936 49.9248 65.245 49.7763C65.0851 49.6278 64.9138 49.5478 64.7081 49.5478C64.5254 49.5478 64.354 49.5935 64.1941 49.6849C64.0341 49.7763 63.897 49.8905 63.7714 50.0391C63.6457 50.1876 63.5543 50.3475 63.4858 50.5303C63.4172 50.7131 63.383 50.8958 63.383 51.0672C63.383 51.2043 63.4058 51.3299 63.4401 51.4556C63.4858 51.5813 63.5315 51.6841 63.6114 51.7755C63.68 51.8668 63.7714 51.9354 63.8742 51.9925C63.977 52.0496 64.0798 52.0725 64.2055 52.0725Z" fill="#193561"/>
<path d="M68.3406 52.7351C68.1007 52.7351 67.895 52.6894 67.7122 52.6094C67.5295 52.5294 67.381 52.4152 67.2439 52.2781C67.1182 52.141 67.0154 51.9697 66.9583 51.7755C66.8897 51.5813 66.8555 51.3756 66.8555 51.1586C66.8555 50.8501 66.9126 50.5645 67.0268 50.2904C67.1411 50.0162 67.301 49.7763 67.5066 49.5707C67.7123 49.3651 67.9521 49.1937 68.2377 49.068C68.5233 48.9424 68.8203 48.8853 69.1516 48.8853C69.54 48.8853 69.8371 48.9766 70.0655 49.148C70.294 49.3194 70.4082 49.5707 70.4082 49.9134C70.4082 50.6902 69.7114 51.0786 68.3291 51.0786C68.1235 51.0786 67.895 51.0672 67.6437 51.0558V51.1814C67.6437 51.3185 67.6551 51.4442 67.6894 51.5698C67.7237 51.6841 67.7694 51.7869 67.8379 51.8783C67.9064 51.9697 67.9864 52.0382 68.0892 52.0839C68.192 52.1296 68.3177 52.1639 68.4548 52.1639C68.6604 52.1639 68.8546 52.1182 69.0488 52.0154C69.243 51.9125 69.3915 51.7755 69.4943 51.6041L70.1112 51.7983C70.0198 51.9354 69.9056 52.0725 69.7799 52.1867C69.6543 52.3009 69.5058 52.4038 69.3458 52.4837C69.1859 52.5637 69.026 52.6322 68.8546 52.6779C68.7061 52.7122 68.5233 52.7351 68.3406 52.7351ZM69.0602 49.4679C68.8889 49.4679 68.729 49.5021 68.5919 49.5593C68.4548 49.6164 68.3291 49.6963 68.2149 49.7992C68.1007 49.902 68.0093 50.0162 67.9407 50.1419C67.8608 50.2675 67.8036 50.4046 67.7579 50.5531C67.975 50.5645 68.1806 50.576 68.3634 50.576C68.6147 50.576 68.8204 50.5645 68.9917 50.5303C69.1631 50.496 69.3001 50.4617 69.403 50.4046C69.5058 50.3475 69.5857 50.2789 69.6314 50.2104C69.6771 50.1304 69.7 50.0505 69.7 49.9477C69.7 49.7877 69.6429 49.6735 69.5286 49.5935C69.4144 49.5021 69.2545 49.4679 69.0602 49.4679Z" fill="#193561"/>
<path d="M71.3795 48.9538H72.0878L71.9279 49.6963C72.1107 49.445 72.3506 49.2508 72.6362 49.1023C72.9217 48.9538 73.2188 48.8853 73.5272 48.8853C73.6871 48.8853 73.8128 48.9081 73.9156 48.9538C74.0184 48.9995 74.0984 49.0566 74.1669 49.1366C74.2355 49.2165 74.2812 49.3079 74.304 49.4107C74.3383 49.5136 74.3497 49.6278 74.3497 49.7535C74.3497 49.8563 74.3383 49.9591 74.3269 50.0619C74.3154 50.1761 74.2926 50.279 74.2697 50.3932L73.79 52.6551H73.0131L73.4587 50.576C73.4815 50.4846 73.4929 50.4046 73.5044 50.3361C73.5158 50.2675 73.5158 50.1876 73.5158 50.1304C73.5158 49.7649 73.3673 49.5821 73.0588 49.5821C72.956 49.5821 72.8418 49.605 72.7275 49.6506C72.6133 49.6963 72.4991 49.7535 72.3963 49.8334C72.282 49.9134 72.1792 50.0048 72.0878 50.1076C71.9964 50.2104 71.9165 50.3361 71.8479 50.4617L71.3681 52.6665H70.5913L71.3795 48.9538Z" fill="#193561"/>
<path d="M76.2917 52.7351C76.0518 52.7351 75.8462 52.6894 75.6634 52.6094C75.4806 52.5294 75.3321 52.4152 75.1951 52.2781C75.0694 52.141 74.9666 51.9697 74.9095 51.7755C74.8409 51.5813 74.8066 51.3756 74.8066 51.1586C74.8066 50.8501 74.8638 50.5645 74.978 50.2904C75.0922 50.0162 75.2522 49.7763 75.4578 49.5707C75.6634 49.3651 75.9033 49.1937 76.1889 49.068C76.4745 48.9424 76.7715 48.8853 77.1028 48.8853C77.4912 48.8853 77.7882 48.9766 78.0167 49.148C78.2452 49.3194 78.3594 49.5707 78.3594 49.9134C78.3594 50.6902 77.6626 51.0786 76.2803 51.0786C76.0747 51.0786 75.8462 51.0672 75.5949 51.0558V51.1814C75.5949 51.3185 75.6063 51.4442 75.6406 51.5698C75.6748 51.6841 75.7205 51.7869 75.7891 51.8783C75.8576 51.9697 75.9376 52.0382 76.0404 52.0839C76.1432 52.1296 76.2689 52.1639 76.406 52.1639C76.6116 52.1639 76.8058 52.1182 77 52.0154C77.1942 51.9125 77.3427 51.7755 77.4455 51.6041L78.0624 51.7983C77.971 51.9354 77.8568 52.0725 77.7311 52.1867C77.6055 52.3009 77.4569 52.4038 77.297 52.4837C77.1371 52.5637 76.9771 52.6322 76.8058 52.6779C76.6459 52.7122 76.4631 52.7351 76.2917 52.7351ZM77 49.4679C76.8286 49.4679 76.6687 49.5021 76.5316 49.5593C76.3945 49.6164 76.2689 49.6963 76.1546 49.7992C76.0404 49.902 75.949 50.0162 75.8805 50.1419C75.8005 50.2675 75.7434 50.4046 75.6977 50.5531C75.9147 50.5645 76.1204 50.576 76.3032 50.576C76.5545 50.576 76.7601 50.5645 76.9315 50.5303C77.1028 50.496 77.2399 50.4617 77.3427 50.4046C77.4455 50.3475 77.5255 50.2789 77.5712 50.2104C77.6169 50.1304 77.6397 50.0505 77.6397 49.9477C77.6397 49.7877 77.5826 49.6735 77.4684 49.5935C77.3541 49.5021 77.2056 49.4679 77 49.4679Z" fill="#193561"/>
<path d="M79.319 48.9538H80.0387L79.8559 49.7877C80.0387 49.5364 80.2443 49.3307 80.4614 49.1708C80.6898 49.0109 80.9183 48.9309 81.1354 48.9309C81.1811 48.9309 81.2153 48.9309 81.2496 48.9309C81.2725 48.9309 81.2953 48.9423 81.3296 48.9423L81.1811 49.6278C80.8955 49.6392 80.6327 49.7077 80.3814 49.8334C80.1301 49.959 79.9359 50.1532 79.7874 50.3931L79.3076 52.6665H78.5308L79.319 48.9538Z" fill="#193561"/>
<path d="M82.4145 52.7348C82.2089 52.7348 82.0261 52.6891 81.8547 52.6091C81.6948 52.5291 81.5577 52.4149 81.4435 52.2778C81.3293 52.1407 81.2379 51.9808 81.1807 51.7866C81.1236 51.6038 81.0894 51.3982 81.0894 51.1926C81.0894 50.8841 81.1465 50.5985 81.2607 50.3244C81.3749 50.0502 81.5235 49.7989 81.7062 49.5818C81.9004 49.3648 82.1175 49.1934 82.3574 49.0677C82.6087 48.9421 82.86 48.8735 83.1342 48.8735C83.4084 48.8735 83.6254 48.9421 83.8082 49.0906C83.991 49.2391 84.1166 49.4219 84.1966 49.6389L84.3451 48.9421H85.1334L84.5393 51.7295C84.5393 51.7523 84.5279 51.7752 84.5279 51.7866C84.5279 51.798 84.5279 51.8209 84.5279 51.8323C84.5279 51.9237 84.585 51.9808 84.6878 51.9808L84.5507 52.6434C84.4822 52.6548 84.4251 52.6662 84.368 52.6662C84.3108 52.6776 84.2652 52.6776 84.2309 52.6776C83.9224 52.6776 83.7739 52.552 83.7739 52.3121C83.7739 52.2321 83.7854 52.1179 83.8196 51.9694C83.6369 52.2093 83.4198 52.392 83.1685 52.5177C82.9057 52.6776 82.6544 52.7348 82.4145 52.7348ZM82.7572 52.0722C82.8486 52.0722 82.9514 52.0493 83.0542 52.0151C83.1571 51.9808 83.2599 51.9237 83.3627 51.8551C83.4655 51.7866 83.5569 51.7066 83.6483 51.6152C83.7282 51.5238 83.7968 51.4325 83.8539 51.3296L84.0481 50.3586C84.0367 50.2444 84.0024 50.1416 83.9567 50.0388C83.911 49.9474 83.8425 49.856 83.7739 49.7874C83.694 49.7189 83.614 49.6618 83.5226 49.6161C83.4312 49.5704 83.3398 49.559 83.237 49.559C83.0542 49.559 82.8829 49.6047 82.7344 49.696C82.5744 49.7874 82.4374 49.9017 82.3117 50.0388C82.186 50.1758 82.0946 50.3472 82.0261 50.53C81.9576 50.7128 81.9233 50.8955 81.9233 51.0783C81.9233 51.2154 81.9461 51.3525 81.9804 51.4667C82.0147 51.5924 82.0718 51.6952 82.1518 51.7752C82.2203 51.8666 82.3117 51.9351 82.4145 51.9808C82.5059 52.0493 82.6201 52.0722 82.7572 52.0722Z" fill="#193561"/>
<path d="M86.3676 52.7236C86.162 52.7236 85.9907 52.6779 85.8536 52.5751C85.7165 52.4837 85.6479 52.3238 85.6479 52.1067C85.6479 52.0268 85.6594 51.9468 85.6708 51.8783L86.162 49.5592H85.6822L85.8193 48.9538H86.2763L86.539 47.7314H87.3158L87.0531 48.9538H87.8185L87.6928 49.5592H86.9388L86.4933 51.6269C86.4819 51.6726 86.4819 51.7069 86.4819 51.7298C86.4819 51.8211 86.5047 51.8897 86.5618 51.9354C86.619 51.9811 86.6875 52.0039 86.7675 52.0039C86.8817 52.0039 86.9845 51.9811 87.0759 51.9468C87.1787 51.9125 87.2473 51.8783 87.3044 51.8554L87.3272 52.4723C87.213 52.5408 87.0759 52.598 86.8931 52.6436C86.756 52.7008 86.5618 52.7236 86.3676 52.7236Z" fill="#193561"/>
<path d="M88.6405 48.9537H89.4173L88.6176 52.6664H87.8408L88.6405 48.9537ZM88.9375 47.4915H89.7143L89.5315 48.3482H88.7547L88.9375 47.4915Z" fill="#193561"/>
<path d="M91.1312 52.7351C90.8913 52.7351 90.6857 52.6894 90.5029 52.6094C90.3201 52.5295 90.1716 52.4152 90.0459 52.2782C89.9203 52.1411 89.8289 51.9697 89.7603 51.7869C89.6918 51.6042 89.6689 51.3985 89.6689 51.1929C89.6689 50.8959 89.7261 50.6103 89.8517 50.3361C89.966 50.0619 90.1259 49.8106 90.3315 49.605C90.5371 49.388 90.777 49.2166 91.0512 49.0909C91.3254 48.9653 91.6224 48.8967 91.9423 48.8967C92.1822 48.8967 92.3878 48.9424 92.5706 49.0224C92.7533 49.1024 92.9019 49.2166 93.0275 49.3537C93.1532 49.4908 93.2446 49.6621 93.3131 49.8449C93.3817 50.0391 93.4045 50.2333 93.4045 50.4504C93.4045 50.7474 93.3474 51.033 93.2217 51.3071C93.1075 51.5813 92.9361 51.8212 92.7305 52.0383C92.5249 52.2553 92.285 52.4267 92.0108 52.5523C91.7481 52.678 91.451 52.7351 91.1312 52.7351ZM91.2797 52.0725C91.4396 52.0725 91.611 52.0268 91.7709 51.9469C91.9308 51.8669 92.0679 51.7527 92.1936 51.6156C92.3192 51.4785 92.4106 51.3186 92.4906 51.1244C92.5706 50.9416 92.6048 50.7474 92.6048 50.5303C92.6048 50.2447 92.5363 50.0163 92.3878 49.8221C92.2393 49.6393 92.0451 49.5365 91.8052 49.5365C91.6452 49.5365 91.4739 49.5822 91.3254 49.6621C91.1655 49.7421 91.0284 49.8563 90.9027 49.9934C90.777 50.1305 90.6742 50.2904 90.6057 50.4846C90.5257 50.6674 90.4914 50.8616 90.4914 51.0787C90.4914 51.3643 90.56 51.5927 90.7085 51.7869C90.8456 51.9811 91.0398 52.0725 91.2797 52.0725Z" fill="#193561"/>
<path d="M94.4665 48.9538H95.1747L95.0148 49.6963C95.1976 49.445 95.4375 49.2508 95.7231 49.1023C96.0087 48.9538 96.3057 48.8853 96.6141 48.8853C96.7741 48.8853 96.8997 48.9081 97.0025 48.9538C97.1053 48.9995 97.1853 49.0566 97.2538 49.1366C97.3224 49.2165 97.3681 49.3079 97.3909 49.4107C97.4252 49.5136 97.4366 49.6278 97.4366 49.7535C97.4366 49.8563 97.4252 49.9591 97.4138 50.0619C97.4024 50.1761 97.3795 50.279 97.3567 50.3932L96.8769 52.6551H96.1001L96.5456 50.576C96.5684 50.4846 96.5799 50.4046 96.5913 50.3361C96.6027 50.2675 96.6027 50.1876 96.6027 50.1304C96.6027 49.7649 96.4542 49.5821 96.1457 49.5821C96.0429 49.5821 95.9287 49.605 95.8145 49.6506C95.7002 49.6963 95.586 49.7535 95.4832 49.8334C95.3689 49.9134 95.2661 50.0048 95.1747 50.1076C95.0833 50.2104 95.0034 50.3361 94.9348 50.4617L94.455 52.6665H93.6782L94.4665 48.9538Z" fill="#193561"/>
<path d="M99.5845 48.9536H100.361L100.875 51.9694C100.932 51.8895 100.99 51.8095 101.058 51.7181C101.127 51.6267 101.184 51.5239 101.252 51.4325C101.321 51.3297 101.378 51.2383 101.435 51.1469C101.492 51.0555 101.549 50.9641 101.595 50.8956L101.138 48.965H101.881L102.109 50.1416C102.143 50.0617 102.189 49.9817 102.235 49.8675C102.28 49.7646 102.326 49.6618 102.372 49.5476C102.418 49.4334 102.463 49.3305 102.498 49.2277C102.532 49.1249 102.566 49.0335 102.589 48.9536H103.274C103.069 49.6047 102.772 50.2444 102.383 50.8613L102.623 51.8895C102.817 51.6267 102.989 51.3754 103.137 51.1355C103.297 50.8956 103.434 50.6557 103.56 50.4158C103.686 50.1759 103.8 49.936 103.903 49.6961C104.005 49.4562 104.097 49.2049 104.177 48.9421H104.897C104.702 49.559 104.428 50.1759 104.074 50.7928C103.72 51.4097 103.286 52.0265 102.783 52.6434H102.086L101.846 51.5239C101.801 51.5924 101.744 51.6724 101.675 51.7752C101.606 51.878 101.538 51.9809 101.469 52.0837C101.401 52.1865 101.321 52.2893 101.252 52.3921C101.184 52.4949 101.115 52.5749 101.07 52.6434H100.304L99.5845 48.9536Z" fill="#193561"/>
<path d="M105.582 48.9537H106.359L105.559 52.6664H104.782L105.582 48.9537ZM105.879 47.4915H106.656L106.473 48.3482H105.696L105.879 47.4915Z" fill="#193561"/>
<path d="M107.273 48.9538H107.993L107.81 49.7877C107.993 49.5364 108.198 49.3307 108.415 49.1708C108.644 49.0109 108.872 48.9309 109.089 48.9309C109.135 48.9309 109.169 48.9309 109.204 48.9309C109.227 48.9309 109.249 48.9423 109.284 48.9423L109.135 49.6278C108.85 49.6392 108.587 49.7077 108.336 49.8334C108.084 49.959 107.89 50.1532 107.741 50.3931L107.262 52.6665H106.485L107.273 48.9538Z" fill="#193561"/>
<path d="M110.517 52.7351C110.277 52.7351 110.071 52.6894 109.889 52.6094C109.706 52.5294 109.557 52.4152 109.42 52.2781C109.294 52.141 109.192 51.9697 109.135 51.7755C109.066 51.5813 109.032 51.3756 109.032 51.1586C109.032 50.8501 109.089 50.5645 109.203 50.2904C109.317 50.0162 109.477 49.7763 109.683 49.5707C109.889 49.3651 110.128 49.1937 110.414 49.068C110.7 48.9424 110.997 48.8853 111.328 48.8853C111.716 48.8853 112.013 48.9766 112.242 49.148C112.47 49.3194 112.585 49.5707 112.585 49.9134C112.585 50.6902 111.888 51.0786 110.505 51.0786C110.3 51.0786 110.071 51.0672 109.82 51.0558V51.1814C109.82 51.3185 109.831 51.4442 109.866 51.5698C109.9 51.6841 109.946 51.7869 110.014 51.8783C110.083 51.9697 110.163 52.0382 110.265 52.0839C110.368 52.1296 110.494 52.1639 110.631 52.1639C110.837 52.1639 111.031 52.1182 111.225 52.0154C111.419 51.9125 111.568 51.7755 111.671 51.6041L112.288 51.7983C112.196 51.9354 112.082 52.0725 111.956 52.1867C111.831 52.3009 111.682 52.4038 111.522 52.4837C111.362 52.5637 111.202 52.6322 111.031 52.6779C110.871 52.7122 110.7 52.7351 110.517 52.7351ZM111.237 49.4679C111.065 49.4679 110.905 49.5021 110.768 49.5593C110.631 49.6164 110.505 49.6963 110.391 49.7992C110.277 49.902 110.186 50.0162 110.117 50.1419C110.037 50.2675 109.98 50.4046 109.934 50.5531C110.151 50.5645 110.357 50.576 110.54 50.576C110.791 50.576 110.997 50.5645 111.168 50.5303C111.339 50.496 111.476 50.4617 111.579 50.4046C111.682 50.3475 111.762 50.2789 111.808 50.2104C111.853 50.1304 111.876 50.0505 111.876 49.9477C111.876 49.7877 111.819 49.6735 111.705 49.5935C111.591 49.5021 111.431 49.4679 111.237 49.4679Z" fill="#193561"/>
<path d="M113.59 52.7235C113.373 52.7235 113.202 52.6664 113.087 52.5635C112.973 52.4607 112.916 52.3122 112.916 52.118C112.916 52.0837 112.916 52.038 112.927 52.0038C112.927 51.9581 112.939 51.9238 112.95 51.8781L113.876 47.48H114.652L113.784 51.5925C113.773 51.6496 113.761 51.6953 113.761 51.7296C113.761 51.821 113.784 51.901 113.841 51.9467C113.898 52.0038 113.967 52.0266 114.07 52.0266C114.127 52.0266 114.184 52.0152 114.253 51.9924C114.321 51.9695 114.39 51.9467 114.458 51.9238L114.435 52.5293C114.31 52.5864 114.173 52.6207 114.013 52.6549C113.853 52.712 113.704 52.7235 113.59 52.7235Z" fill="#193561"/>
<path d="M116.435 52.7351C116.195 52.7351 115.989 52.6894 115.806 52.6094C115.624 52.5294 115.475 52.4152 115.338 52.2781C115.212 52.141 115.11 51.9697 115.053 51.7755C114.984 51.5813 114.95 51.3756 114.95 51.1586C114.95 50.8501 115.007 50.5645 115.121 50.2904C115.235 50.0162 115.395 49.7763 115.601 49.5707C115.806 49.3651 116.046 49.1937 116.332 49.068C116.618 48.9424 116.915 48.8853 117.246 48.8853C117.634 48.8853 117.931 48.9766 118.16 49.148C118.388 49.3194 118.502 49.5707 118.502 49.9134C118.502 50.6902 117.806 51.0786 116.423 51.0786C116.218 51.0786 115.989 51.0672 115.738 51.0558V51.1814C115.738 51.3185 115.749 51.4442 115.784 51.5698C115.818 51.6841 115.864 51.7869 115.932 51.8783C116.001 51.9697 116.081 52.0382 116.183 52.0839C116.286 52.1296 116.412 52.1639 116.549 52.1639C116.755 52.1639 116.949 52.1182 117.143 52.0154C117.337 51.9125 117.486 51.7755 117.589 51.6041L118.205 51.7983C118.114 51.9354 118 52.0725 117.874 52.1867C117.749 52.3009 117.6 52.4038 117.44 52.4837C117.28 52.5637 117.12 52.6322 116.949 52.6779C116.8 52.7122 116.618 52.7351 116.435 52.7351ZM117.154 49.4679C116.983 49.4679 116.823 49.5021 116.686 49.5593C116.549 49.6164 116.423 49.6963 116.309 49.7992C116.195 49.902 116.104 50.0162 116.035 50.1419C115.955 50.2675 115.898 50.4046 115.852 50.5531C116.069 50.5645 116.275 50.576 116.458 50.576C116.709 50.576 116.915 50.5645 117.086 50.5303C117.257 50.496 117.394 50.4617 117.497 50.4046C117.6 50.3475 117.68 50.2789 117.726 50.2104C117.771 50.1304 117.794 50.0505 117.794 49.9477C117.794 49.7877 117.737 49.6735 117.623 49.5935C117.509 49.5021 117.36 49.4679 117.154 49.4679Z" fill="#193561"/>
<path d="M119.964 52.7349C119.679 52.7349 119.404 52.6892 119.142 52.5864C118.879 52.495 118.673 52.3465 118.502 52.1751L118.925 51.6839C119.279 52.0152 119.656 52.1751 120.067 52.1751C120.307 52.1751 120.501 52.118 120.65 52.0152C120.798 51.901 120.867 51.7639 120.867 51.5811C120.867 51.4555 120.81 51.3526 120.684 51.2955C120.558 51.2384 120.375 51.1584 120.124 51.0899C119.941 51.0328 119.793 50.9871 119.656 50.9414C119.519 50.8957 119.416 50.8386 119.324 50.77C119.244 50.7015 119.176 50.6329 119.13 50.553C119.085 50.473 119.062 50.3816 119.062 50.2674C119.062 50.0618 119.107 49.8676 119.199 49.7076C119.29 49.5363 119.404 49.3992 119.564 49.2735C119.713 49.1593 119.896 49.0679 120.09 48.9993C120.284 48.9308 120.501 48.908 120.718 48.908C120.981 48.908 121.221 48.9537 121.426 49.0336C121.632 49.1136 121.815 49.2392 121.963 49.3992L121.529 49.8676C121.392 49.7305 121.244 49.6277 121.084 49.5591C120.924 49.4906 120.752 49.4563 120.581 49.4563C120.375 49.4563 120.193 49.502 120.044 49.6048C119.896 49.7076 119.827 49.8561 119.827 50.0618C119.827 50.176 119.873 50.2674 119.976 50.3245C120.078 50.3816 120.238 50.4387 120.467 50.5073C120.661 50.5644 120.844 50.6101 120.981 50.6672C121.129 50.7243 121.255 50.7815 121.346 50.85C121.438 50.9185 121.518 50.9985 121.564 51.0899C121.609 51.1813 121.632 51.2841 121.632 51.3983C121.632 51.5925 121.586 51.7753 121.506 51.9467C121.426 52.1066 121.312 52.2551 121.164 52.3693C121.015 52.4836 120.832 52.575 120.627 52.6435C120.444 52.7006 120.216 52.7349 119.964 52.7349Z" fill="#193561"/>
<path d="M123.357 52.7349C123.072 52.7349 122.797 52.6892 122.535 52.5864C122.272 52.495 122.066 52.3465 121.895 52.1751L122.318 51.6839C122.672 52.0152 123.049 52.1751 123.46 52.1751C123.7 52.1751 123.894 52.118 124.043 52.0152C124.191 51.901 124.26 51.7639 124.26 51.5811C124.26 51.4555 124.203 51.3526 124.077 51.2955C123.951 51.227 123.769 51.1584 123.517 51.0899C123.334 51.0328 123.186 50.9871 123.049 50.9414C122.912 50.8957 122.809 50.8386 122.718 50.77C122.638 50.7015 122.569 50.6329 122.523 50.553C122.478 50.473 122.455 50.3816 122.455 50.2674C122.455 50.0618 122.5 49.8676 122.592 49.7076C122.683 49.5363 122.797 49.3992 122.957 49.2735C123.106 49.1593 123.289 49.0679 123.483 48.9993C123.677 48.9308 123.894 48.908 124.111 48.908C124.374 48.908 124.614 48.9537 124.819 49.0336C125.025 49.1136 125.208 49.2392 125.356 49.3992L124.922 49.8676C124.785 49.7305 124.637 49.6277 124.477 49.5591C124.317 49.4906 124.145 49.4563 123.974 49.4563C123.769 49.4563 123.586 49.502 123.437 49.6048C123.289 49.7076 123.22 49.8561 123.22 50.0618C123.22 50.176 123.266 50.2674 123.369 50.3245C123.471 50.3816 123.631 50.4387 123.86 50.5073C124.054 50.5644 124.237 50.6101 124.374 50.6672C124.522 50.7243 124.648 50.7815 124.74 50.85C124.831 50.9185 124.911 50.9985 124.957 51.0899C125.002 51.1813 125.025 51.2841 125.025 51.3983C125.025 51.5925 124.979 51.7753 124.899 51.9467C124.82 52.1066 124.705 52.2551 124.557 52.3693C124.408 52.4836 124.225 52.575 124.02 52.6435C123.826 52.7006 123.597 52.7349 123.357 52.7349Z" fill="#193561"/>
<path d="M127.961 48.9538H128.669L128.509 49.6963C128.692 49.445 128.932 49.2508 129.218 49.1023C129.503 48.9538 129.8 48.8853 130.109 48.8853C130.269 48.8853 130.394 48.9081 130.497 48.9538C130.6 48.9995 130.68 49.0566 130.748 49.1366C130.817 49.2165 130.863 49.3079 130.886 49.4107C130.92 49.5136 130.931 49.6278 130.931 49.7535C130.931 49.8563 130.92 49.9591 130.908 50.0619C130.897 50.1761 130.874 50.279 130.851 50.3932L130.371 52.6551H129.595L130.04 50.576C130.063 50.4846 130.074 50.4046 130.086 50.3361C130.097 50.2675 130.097 50.1876 130.097 50.1304C130.097 49.7649 129.949 49.5821 129.64 49.5821C129.538 49.5821 129.423 49.605 129.309 49.6506C129.195 49.6963 129.081 49.7535 128.978 49.8334C128.864 49.9134 128.761 50.0048 128.669 50.1076C128.578 50.2104 128.498 50.3361 128.429 50.4617L127.95 52.6665H127.173L127.961 48.9538Z" fill="#193561"/>
<path d="M132.874 52.7351C132.634 52.7351 132.428 52.6894 132.245 52.6094C132.063 52.5294 131.914 52.4152 131.777 52.2781C131.651 52.141 131.549 51.9697 131.491 51.7755C131.423 51.5813 131.389 51.3756 131.389 51.1586C131.389 50.8501 131.446 50.5645 131.56 50.2904C131.674 50.0162 131.834 49.7763 132.04 49.5707C132.245 49.3651 132.485 49.1937 132.771 49.068C133.057 48.9424 133.354 48.8853 133.685 48.8853C134.073 48.8853 134.37 48.9766 134.599 49.148C134.827 49.3194 134.941 49.5707 134.941 49.9134C134.941 50.6902 134.245 51.0786 132.862 51.0786C132.657 51.0786 132.428 51.0672 132.177 51.0558V51.1814C132.177 51.3185 132.188 51.4442 132.223 51.5698C132.257 51.6841 132.303 51.7869 132.371 51.8783C132.44 51.9697 132.52 52.0382 132.622 52.0839C132.725 52.1296 132.851 52.1639 132.988 52.1639C133.194 52.1639 133.388 52.1182 133.582 52.0154C133.776 51.9125 133.925 51.7755 134.028 51.6041L134.644 51.7983C134.553 51.9354 134.439 52.0725 134.313 52.1867C134.187 52.3009 134.039 52.4038 133.879 52.4837C133.719 52.5637 133.559 52.6322 133.388 52.6779C133.228 52.7122 133.045 52.7351 132.874 52.7351ZM133.593 49.4679C133.422 49.4679 133.262 49.5021 133.125 49.5593C132.988 49.6164 132.862 49.6963 132.748 49.7992C132.634 49.902 132.542 50.0162 132.474 50.1419C132.394 50.2675 132.337 50.4046 132.291 50.5531C132.508 50.5645 132.714 50.576 132.897 50.576C133.148 50.576 133.354 50.5645 133.525 50.5303C133.696 50.496 133.833 50.4617 133.936 50.4046C134.039 50.3475 134.119 50.2789 134.165 50.2104C134.21 50.1304 134.233 50.0505 134.233 49.9477C134.233 49.7877 134.176 49.6735 134.062 49.5935C133.948 49.5021 133.788 49.4679 133.593 49.4679Z" fill="#193561"/>
<path d="M136.129 52.7236C135.924 52.7236 135.752 52.6779 135.615 52.5751C135.478 52.4837 135.41 52.3238 135.41 52.1067C135.41 52.0268 135.421 51.9468 135.433 51.8783L135.924 49.5592H135.444L135.581 48.9538H136.038L136.301 47.7314H137.078L136.815 48.9538H137.58L137.455 49.5592H136.701L136.255 51.6269C136.244 51.6726 136.244 51.7069 136.244 51.7298C136.244 51.8211 136.266 51.8897 136.324 51.9354C136.381 51.9811 136.449 52.0039 136.529 52.0039C136.643 52.0039 136.746 51.9811 136.838 51.9468C136.94 51.9125 137.009 51.8783 137.066 51.8554L137.089 52.4723C136.975 52.5408 136.838 52.598 136.655 52.6436C136.506 52.7008 136.324 52.7236 136.129 52.7236Z" fill="#193561"/>
<path d="M137.923 48.9536H138.7L139.214 51.9694C139.271 51.8895 139.328 51.8095 139.397 51.7181C139.465 51.6267 139.522 51.5239 139.591 51.4325C139.659 51.3297 139.716 51.2383 139.773 51.1469C139.831 51.0555 139.888 50.9641 139.933 50.8956L139.476 48.965H140.219L140.447 50.1416C140.482 50.0617 140.527 49.9817 140.573 49.8675C140.619 49.7646 140.665 49.6618 140.71 49.5476C140.756 49.4334 140.802 49.3305 140.836 49.2277C140.87 49.1249 140.904 49.0335 140.927 48.9536H141.613C141.407 49.6047 141.11 50.2444 140.722 50.8613L140.962 51.8895C141.156 51.6267 141.327 51.3754 141.476 51.1355C141.636 50.8956 141.773 50.6557 141.898 50.4158C142.024 50.1759 142.138 49.936 142.241 49.6961C142.344 49.4562 142.435 49.2049 142.515 48.9421H143.235C143.041 49.559 142.767 50.1759 142.412 50.7928C142.058 51.4097 141.624 52.0265 141.121 52.6434H140.425L140.185 51.5239C140.139 51.5924 140.082 51.6724 140.013 51.7752C139.945 51.878 139.876 51.9809 139.808 52.0837C139.739 52.1865 139.659 52.2893 139.591 52.3921C139.522 52.4949 139.454 52.5749 139.408 52.6434H138.643L137.923 48.9536Z" fill="#193561"/>
<path d="M144.663 52.7351C144.423 52.7351 144.217 52.6894 144.035 52.6094C143.852 52.5295 143.703 52.4152 143.578 52.2782C143.452 52.1411 143.361 51.9697 143.292 51.7869C143.224 51.6042 143.201 51.3985 143.201 51.1929C143.201 50.8959 143.258 50.6103 143.383 50.3361C143.498 50.0619 143.658 49.8106 143.863 49.605C144.069 49.388 144.309 49.2166 144.583 49.0909C144.857 48.9653 145.154 48.8967 145.474 48.8967C145.714 48.8967 145.92 48.9424 146.102 49.0224C146.285 49.1024 146.434 49.2166 146.559 49.3537C146.685 49.4908 146.776 49.6621 146.845 49.8449C146.913 50.0391 146.936 50.2333 146.936 50.4504C146.936 50.7474 146.879 51.033 146.753 51.3071C146.639 51.5813 146.468 51.8212 146.262 52.0383C146.057 52.2553 145.817 52.4267 145.543 52.5523C145.291 52.678 144.994 52.7351 144.663 52.7351ZM144.811 52.0725C144.971 52.0725 145.143 52.0268 145.303 51.9469C145.463 51.8669 145.6 51.7527 145.725 51.6156C145.851 51.4785 145.942 51.3186 146.022 51.1244C146.102 50.9416 146.137 50.7474 146.137 50.5303C146.137 50.2447 146.068 50.0163 145.92 49.8221C145.771 49.6393 145.577 49.5365 145.337 49.5365C145.177 49.5365 145.006 49.5822 144.857 49.6621C144.697 49.7421 144.56 49.8563 144.434 49.9934C144.309 50.1305 144.206 50.2904 144.137 50.4846C144.057 50.6674 144.023 50.8616 144.023 51.0787C144.023 51.3643 144.092 51.5927 144.24 51.7869C144.377 51.9811 144.572 52.0725 144.811 52.0725Z" fill="#193561"/>
<path d="M147.999 48.9538H148.718L148.536 49.7877C148.718 49.5364 148.924 49.3307 149.141 49.1708C149.37 49.0109 149.598 48.9309 149.815 48.9309C149.861 48.9309 149.895 48.9309 149.929 48.9309C149.952 48.9309 149.975 48.9423 150.009 48.9423L149.861 49.6278C149.575 49.6392 149.312 49.7077 149.061 49.8334C148.81 49.959 148.616 50.1532 148.467 50.3931L147.987 52.6665H147.21L147.999 48.9538Z" fill="#193561"/>
<path d="M150.911 47.4915H151.688L151.174 49.9247C151.277 49.7762 151.391 49.6391 151.517 49.5249C151.642 49.3992 151.768 49.2964 151.894 49.205C152.031 49.1136 152.168 49.0451 152.316 48.988C152.465 48.9308 152.613 48.908 152.773 48.908C153.025 48.908 153.219 48.9765 153.344 49.1136C153.47 49.2507 153.527 49.4449 153.527 49.6734C153.527 49.9818 153.436 50.2674 153.242 50.5187C153.047 50.7815 152.762 50.9871 152.396 51.1585L153.15 52.6664H152.316L151.517 50.9186C151.939 50.8272 152.271 50.6787 152.488 50.4845C152.705 50.2903 152.819 50.0846 152.819 49.8676C152.819 49.7534 152.785 49.6734 152.728 49.6277C152.67 49.582 152.59 49.5477 152.488 49.5477C152.351 49.5477 152.202 49.582 152.054 49.662C151.905 49.7419 151.756 49.8447 151.619 49.9818C151.482 50.1189 151.345 50.2674 151.231 50.4502C151.117 50.633 151.014 50.8158 150.945 51.01L150.591 52.6664H149.814L150.911 47.4915Z" fill="#193561"/>
<path d="M155.001 52.7349C154.716 52.7349 154.442 52.6892 154.179 52.5864C153.916 52.495 153.71 52.3465 153.539 52.1751L153.962 51.6839C154.316 52.0152 154.693 52.1751 155.104 52.1751C155.344 52.1751 155.538 52.118 155.687 52.0152C155.835 51.901 155.904 51.7639 155.904 51.5811C155.904 51.4555 155.847 51.3526 155.721 51.2955C155.595 51.2384 155.413 51.1584 155.161 51.0899C154.978 51.0328 154.83 50.9871 154.693 50.9414C154.556 50.8957 154.453 50.8386 154.362 50.77C154.282 50.7015 154.213 50.6329 154.167 50.553C154.122 50.473 154.099 50.3816 154.099 50.2674C154.099 50.0618 154.145 49.8676 154.236 49.7076C154.327 49.5363 154.442 49.3992 154.601 49.2735C154.75 49.1593 154.933 49.0679 155.127 48.9993C155.321 48.9308 155.538 48.908 155.755 48.908C156.018 48.908 156.258 48.9537 156.464 49.0336C156.669 49.1136 156.852 49.2392 157 49.3992L156.566 49.8676C156.429 49.7305 156.281 49.6277 156.121 49.5591C155.961 49.4906 155.79 49.4563 155.618 49.4563C155.413 49.4563 155.23 49.502 155.081 49.6048C154.933 49.7076 154.864 49.8561 154.864 50.0618C154.864 50.176 154.91 50.2674 155.013 50.3245C155.116 50.3816 155.275 50.4387 155.504 50.5073C155.698 50.5644 155.881 50.6101 156.018 50.6672C156.167 50.7243 156.292 50.7815 156.384 50.85C156.475 50.9185 156.555 50.9985 156.601 51.0899C156.646 51.1813 156.669 51.2841 156.669 51.3983C156.669 51.5925 156.623 51.7753 156.544 51.9467C156.464 52.1066 156.349 52.2551 156.201 52.3693C156.052 52.4836 155.87 52.575 155.664 52.6435C155.47 52.7006 155.253 52.7349 155.001 52.7349Z" fill="#193561"/>
<path d="M56.2981 27.3506C54.6326 27.3506 53.0083 27.0833 51.4148 26.5384C49.8213 25.9935 48.4746 25.2019 47.3643 24.1739L49.7185 20.0514C50.9008 20.843 52.0419 21.4598 53.1316 21.8916C54.2317 22.3234 55.2392 22.5393 56.1541 22.5393C57.1205 22.5393 57.6037 22.2411 57.6037 21.6346C57.6037 21.2953 57.4186 21.0075 57.0485 20.771C56.6784 20.5346 55.9485 20.257 54.8588 19.9383C53.512 19.5579 52.3812 19.1775 51.4765 18.7972C50.5718 18.4271 49.8419 18.0158 49.2662 17.5841C48.7007 17.1523 48.2998 16.6691 48.0531 16.1345C47.8166 15.5999 47.6932 14.9728 47.6932 14.2532C47.6932 13.2868 47.8886 12.3924 48.2689 11.5802C48.6493 10.7578 49.1942 10.0484 49.883 9.44186C50.5718 8.83531 51.3942 8.37268 52.34 8.05399C53.2961 7.72501 54.3345 7.5708 55.4653 7.5708C56.8635 7.5708 58.2 7.75585 59.4645 8.11567C60.729 8.47549 62.0038 9.21569 63.2785 10.326L60.6776 14.4485C59.4953 13.6774 58.5084 13.1326 57.7168 12.8036C56.9252 12.4746 56.1747 12.3204 55.4756 12.3204C55.0644 12.3204 54.7251 12.4027 54.4681 12.5569C54.2008 12.7111 54.0672 12.9578 54.0672 13.2971C54.0672 13.6569 54.2625 13.955 54.6429 14.1812C55.0233 14.4074 55.784 14.6644 56.9252 14.9625C58.3028 15.3223 59.4542 15.7027 60.4 16.1037C61.3355 16.5046 62.0963 16.9364 62.6617 17.4093C63.2271 17.8822 63.6281 18.4065 63.8748 19.0028C64.1113 19.5888 64.2346 20.2776 64.2346 21.0486C64.2346 22.0355 64.0496 22.9197 63.6898 23.6907C63.3299 24.4617 62.8056 25.13 62.1168 25.6748C61.428 26.23 60.5953 26.6515 59.6187 26.9394C58.6317 27.2066 57.5317 27.3506 56.2981 27.3506Z" fill="#193561"/>
<path d="M75.9342 27.3505C74.2174 27.3505 72.7267 27.0832 71.4313 26.5383C70.1463 25.9934 69.0565 25.2738 68.1724 24.3691C67.2883 23.4644 66.6303 22.4158 66.1883 21.2233C65.7462 20.0307 65.52 18.7868 65.52 17.4811C65.52 16.1755 65.7462 14.9316 66.1883 13.739C66.6303 12.5465 67.2986 11.4979 68.1724 10.5932C69.0565 9.68849 70.136 8.96885 71.4313 8.42398C72.7164 7.87911 74.2174 7.61182 75.9342 7.61182C77.6202 7.61182 79.1109 7.87911 80.4165 8.42398C81.7222 8.96885 82.8119 9.68849 83.6857 10.5932C84.5699 11.4979 85.2278 12.5465 85.6699 13.739C86.112 14.9316 86.3381 16.1755 86.3381 17.4811C86.3381 18.7868 86.112 20.0307 85.6699 21.2233C85.2278 22.4158 84.5596 23.4644 83.6857 24.3691C82.8016 25.2738 81.7119 25.9934 80.4165 26.5383C79.1109 27.0729 77.6202 27.3505 75.9342 27.3505ZM72.5725 17.4709C72.5725 18.7456 72.8809 19.7531 73.508 20.4728C74.1351 21.1924 74.937 21.5522 75.9342 21.5522C76.9211 21.5522 77.7333 21.1924 78.3604 20.4728C78.9875 19.7531 79.296 18.7456 79.296 17.4709C79.296 16.1961 78.9875 15.1886 78.3604 14.4689C77.7333 13.7493 76.9211 13.3792 75.9342 13.3792C74.9473 13.3792 74.1351 13.739 73.508 14.4689C72.8809 15.1989 72.5725 16.1961 72.5725 17.4709Z" fill="#193561"/>
<path d="M100.885 27.3506C98.0166 27.3506 95.9708 26.2403 94.7371 24.0197V26.9805H88.7744V0.590332H95.6418V10.7886C96.197 9.7503 96.9783 8.9587 97.9961 8.42411C99.0036 7.87924 100.206 7.61195 101.574 7.61195C102.735 7.61195 103.805 7.86896 104.812 8.37271C105.809 8.87645 106.673 9.57553 107.392 10.4494C108.112 11.3335 108.678 12.3821 109.089 13.5952C109.5 14.8083 109.706 16.1345 109.706 17.5532C109.706 18.972 109.479 20.2879 109.037 21.4804C108.595 22.6729 107.978 23.701 107.197 24.5749C106.416 25.4384 105.48 26.1272 104.391 26.6207C103.301 27.1039 102.129 27.3506 100.885 27.3506ZM98.8905 21.5626C100.021 21.5626 100.936 21.2028 101.625 20.4832C102.314 19.7636 102.653 18.7972 102.653 17.5944C102.653 17.0186 102.561 16.4738 102.386 15.97C102.201 15.4663 101.964 15.0139 101.666 14.6336C101.368 14.2532 100.998 13.9448 100.576 13.7289C100.155 13.513 99.6924 13.3999 99.1886 13.3999C98.469 13.3999 97.7802 13.6569 97.1325 14.1812C96.4848 14.6952 95.9914 15.384 95.6521 16.227V19.6093C96.5259 20.915 97.6157 21.5626 98.8905 21.5626Z" fill="#193561"/>
<path d="M121.528 27.3505C119.863 27.3505 118.382 27.0935 117.076 26.5692C115.771 26.0551 114.681 25.3458 113.807 24.4514C112.923 23.557 112.255 22.5392 111.803 21.3775C111.34 20.2158 111.114 19.0027 111.114 17.7279C111.114 16.3503 111.34 15.055 111.782 13.8213C112.224 12.5876 112.892 11.5185 113.766 10.6035C114.65 9.68851 115.73 8.95859 117.025 8.41373C118.31 7.86886 119.811 7.60156 121.528 7.60156C123.214 7.60156 124.715 7.86886 126.01 8.41373C127.316 8.95859 128.406 9.67823 129.279 10.5829C130.164 11.4876 130.822 12.5362 131.264 13.7288C131.706 14.9213 131.932 16.1653 131.932 17.4709C131.932 17.8307 131.911 18.2008 131.88 18.5709C131.839 18.941 131.798 19.2803 131.757 19.5681H118.413C118.485 20.5756 118.855 21.3055 119.534 21.7579C120.212 22.1999 120.942 22.4261 121.744 22.4261C122.494 22.4261 123.193 22.2616 123.862 21.9224C124.52 21.5831 124.962 21.1102 125.178 20.5139L130.996 22.1794C130.225 23.7009 129.033 24.9448 127.439 25.9009C125.836 26.8673 123.862 27.3505 121.528 27.3505ZM124.561 15.4559C124.437 14.5409 124.098 13.8213 123.553 13.2867C122.998 12.7521 122.289 12.4951 121.415 12.4951C120.551 12.4951 119.832 12.7624 119.287 13.2867C118.732 13.8213 118.392 14.5409 118.279 15.4559H124.561Z" fill="#193561"/>
<path d="M133.351 28.9029C134.461 29.3141 135.396 29.5197 136.167 29.5197C137.637 29.5197 138.45 28.6767 138.594 26.9907L131.685 7.97168H138.738L142.356 21.1719L145.286 7.97168H151.691L145.255 29.273C144.968 30.2085 144.556 31.0618 144.022 31.8225C143.487 32.5833 142.86 33.231 142.12 33.7759C141.38 34.3207 140.567 34.7319 139.683 35.0198C138.789 35.3077 137.864 35.4516 136.897 35.4516C135.664 35.4516 134.492 35.2254 133.351 34.7628V28.9029Z" fill="#193561"/>
<path d="M21.406 53.052C21.3752 53.052 21.3443 53.052 21.3135 53.0623C21.3957 53.0623 21.478 53.052 21.5499 53.0417C21.5396 53.0417 21.5294 53.0417 21.5191 53.0417C21.4882 53.0417 21.4471 53.0417 21.406 53.052Z" fill="#FDB515"/>
<path d="M19.9361 53.6174C19.9258 53.6174 19.9156 53.6174 19.9053 53.6174C20.0081 53.638 20.1109 53.6483 20.2137 53.6586C20.1931 53.6586 20.1623 53.6483 20.1417 53.6483C20.0698 53.638 20.0081 53.6277 19.9361 53.6174Z" fill="#FDB515"/>
<path d="M21.8277 53.0108C21.8174 53.0108 21.8072 53.0108 21.7969 53.0211C21.8997 53.0108 22.0128 52.9903 22.1156 52.9697C22.095 52.9697 22.0847 52.98 22.0642 52.98C21.9819 52.98 21.91 53.0006 21.8277 53.0108Z" fill="#FDB515"/>
<path d="M22.2696 52.9288H22.2593C22.3004 52.9185 22.3312 52.9082 22.3724 52.8979C22.3518 52.8979 22.3415 52.9082 22.321 52.9082C22.3004 52.9288 22.2798 52.9288 22.2696 52.9288Z" fill="#FDB515"/>
<path d="M21.0359 53.0623C21.0462 53.0623 21.0667 53.0623 21.077 53.0623C20.9742 53.0623 20.8611 53.0623 20.7583 53.052C20.8508 53.0623 20.9434 53.0623 21.0359 53.0623Z" fill="#FDB515"/>
<path d="M39.7465 3.26318H1.8113C0.814091 3.26318 0.0019276 4.07535 0.0019276 5.07256V29.602C-0.00835294 29.5403 0.0224887 29.4683 0.0944525 29.4272L2.53094 28.286V6.15202C2.53094 5.95669 2.69543 5.7922 2.89076 5.7922H38.6671C38.8624 5.7922 39.0269 5.95669 39.0269 6.15202V32.9431C39.0269 33.0871 40.6409 34.9273 41.3194 35.7394C41.4737 34.8245 41.5456 33.8889 41.5456 32.9431V5.07256C41.5559 4.07535 40.7437 3.26318 39.7465 3.26318Z" fill="#FDB515"/>
<path d="M23.2051 52.6513C23.2462 52.6307 23.2976 52.6204 23.3387 52.5999C23.2873 52.6204 23.2462 52.6307 23.2051 52.6513Z" fill="#FDB515"/>
<path d="M23.8628 52.3531L32.4882 47.7268L23.8628 52.3531Z" fill="#FDB515"/>
<path d="M20.5017 53.6688C20.4092 53.6688 20.3167 53.6585 20.2139 53.6482C20.3064 53.6585 20.3989 53.6688 20.5017 53.6688Z" fill="#FDB515"/>
<path d="M21.797 53.011C21.7148 53.0213 21.6428 53.0315 21.5605 53.0315C21.6325 53.0315 21.7148 53.0213 21.797 53.011Z" fill="#FDB515"/>
<path d="M21.3136 53.052C21.2314 53.052 21.1491 53.0623 21.0669 53.0623C21.1594 53.0623 21.2314 53.0623 21.3136 53.052Z" fill="#FDB515"/>
<path d="M19.8127 53.6072C19.8436 53.6072 19.8744 53.6175 19.9053 53.6175C19.8436 53.6072 19.7819 53.597 19.7202 53.5867C19.7511 53.5867 19.7819 53.597 19.8127 53.6072Z" fill="#FDB515"/>
<path d="M23.8632 52.353C23.6884 52.4456 23.5136 52.5278 23.3389 52.5998C23.5136 52.5278 23.6987 52.4456 23.8632 52.353Z" fill="#FDB515"/>
<path d="M22.2391 52.939C22.2494 52.939 22.2596 52.939 22.2596 52.9287C22.2082 52.939 22.1671 52.9493 22.1157 52.9493C22.1568 52.9493 22.198 52.9493 22.2391 52.939Z" fill="#FDB515"/>
<path d="M22.6604 52.8359C22.5679 52.8668 22.4651 52.8873 22.3726 52.9079C22.4651 52.8873 22.5576 52.8668 22.6604 52.8359Z" fill="#FDB515"/>
<path d="M23.205 52.6511C23.0302 52.7231 22.8555 52.7848 22.6704 52.8259C22.8452 52.7848 23.0302 52.7231 23.205 52.6511Z" fill="#FDB515"/>
<path d="M22.064 52.9698C22.0845 52.9698 22.1051 52.9595 22.1154 52.9595C22.1668 52.9492 22.2079 52.939 22.2593 52.939H22.2696C22.1976 52.9492 22.1256 52.9595 22.064 52.9698Z" fill="#FDB515"/>
<path d="M21.5298 53.0418C21.5401 53.0418 21.5503 53.0418 21.5606 53.0418C21.6429 53.0315 21.7148 53.0315 21.7971 53.0213C21.8074 53.0213 21.8176 53.0213 21.8279 53.011C21.7251 53.0213 21.6223 53.0315 21.5298 53.0418Z" fill="#FDB515"/>
<path d="M20.1416 53.6379C20.1622 53.6379 20.193 53.6482 20.2136 53.6482C20.3061 53.6585 20.3986 53.6688 20.5014 53.6688C20.6042 53.6688 20.7173 53.6791 20.8201 53.6791C20.9024 53.6791 20.9846 53.6791 21.0669 53.6688C21.0977 53.6688 21.1285 53.6688 21.1594 53.6585C20.8201 53.6893 20.4809 53.6791 20.1416 53.6379Z" fill="#FDB515"/>
<path d="M19.6997 53.5764H19.71C19.7717 53.5867 19.8334 53.597 19.895 53.6073C19.9053 53.6073 19.9156 53.6073 19.9259 53.6073C19.8642 53.6073 19.782 53.597 19.6997 53.5764Z" fill="#FDB515"/>
<path d="M22.3105 52.9182C22.3311 52.9182 22.3414 52.9079 22.3619 52.9079C22.4545 52.8873 22.5573 52.8668 22.6498 52.8359C22.547 52.8668 22.4339 52.8976 22.3105 52.9182Z" fill="#FDB515"/>
<path d="M23.3389 52.5998C23.5136 52.5278 23.6987 52.4456 23.8632 52.353C23.6987 52.4456 23.5136 52.5278 23.3389 52.5998Z" fill="#FDB515"/>
<path d="M22.6704 52.8361C22.8452 52.7847 23.0302 52.7231 23.205 52.6614C23.0302 52.7231 22.8452 52.7847 22.6704 52.8361Z" fill="#FDB515"/>
<path d="M41.0727 35.4414C40.4868 34.7321 39.911 34.0433 39.3765 33.3853C31.666 23.9786 28.4894 19.0953 26.0734 18.2421C23.4827 17.3271 19.792 17.3682 18.4658 18.1598C18.4658 18.1598 17.8695 10.8503 10.9199 9.51387C3.97024 8.1774 4.36091 12.0429 4.36091 12.0429C4.36091 12.0429 4.22726 15.3841 7.52731 15.014C9.20304 14.7672 15.1555 13.6364 14.8162 19.3421C14.8162 19.3421 10.6218 21.0898 7.60956 25.3665L2.18143 28.2862L0.00195312 29.6021C0.0122337 29.6843 0.073917 29.7666 0.176722 29.7666C0.803836 29.7666 1.62628 29.7768 2.16087 29.7871C4.41231 29.8282 7.34226 29.9927 8.13387 30.4965C8.13387 30.4965 11.6293 31.4628 13.2433 37.4667C13.9424 40.0779 12.6779 42.864 11.1255 46.8734C10.8788 47.5211 10.6218 48.1996 10.3545 48.9192L17.9004 52.9595C18.034 53.0314 18.1677 53.0931 18.3116 53.1548C18.3527 53.1754 18.3836 53.1856 18.4247 53.2062C18.5481 53.2576 18.6611 53.2987 18.7845 53.3398C18.8051 53.3501 18.8256 53.3604 18.8565 53.3604C19.0004 53.4015 19.1341 53.4426 19.278 53.4838C19.3294 53.4941 19.3911 53.5146 19.4425 53.5249C19.5247 53.5455 19.6172 53.566 19.6995 53.5763C19.7817 53.5866 19.8537 53.6071 19.9359 53.6174C19.9976 53.6277 20.0696 53.638 20.1313 53.638C20.4705 53.6688 20.8098 53.6791 21.149 53.6585C21.1902 53.6585 21.2313 53.6483 21.2724 53.6483C21.3752 53.638 21.478 53.6277 21.5808 53.6174C21.6631 53.6071 21.735 53.5969 21.8173 53.5763C21.8892 53.566 21.9612 53.5557 22.0332 53.5352C22.0537 53.5352 22.064 53.5249 22.0846 53.5249C22.1977 53.4941 22.321 53.4735 22.4341 53.4426H22.4444C22.6294 53.3912 22.8042 53.3296 22.979 53.2576C23.0201 53.237 23.0715 53.2165 23.1126 53.2062C23.2977 53.1342 23.4724 53.052 23.6472 52.9595L32.3754 48.2715C32.6427 48.1276 32.8997 47.9734 33.167 47.8192C33.2081 47.7883 33.2492 47.7678 33.2904 47.7472C33.3006 47.7472 33.3007 47.7369 33.3109 47.7369C33.5577 47.5827 33.8044 47.4183 34.0511 47.2538C34.0923 47.2229 34.1437 47.1921 34.1848 47.1612C34.4315 46.9865 34.668 46.8117 34.9044 46.6266C34.925 46.6061 34.9455 46.5958 34.9661 46.5752C35.1923 46.3902 35.4184 46.2051 35.6343 46.0098C35.6549 45.9893 35.6857 45.9687 35.7063 45.9481C35.9325 45.7528 36.1484 45.5472 36.354 45.3416C36.3848 45.3107 36.4259 45.2799 36.4568 45.2388C36.6624 45.0229 36.868 44.8173 37.0736 44.5911C37.0942 44.5705 37.1147 44.55 37.1353 44.5191C37.3101 44.3238 37.4746 44.1182 37.639 43.9229C37.711 43.8303 37.783 43.7378 37.8549 43.6453C37.9989 43.4602 38.1531 43.2649 38.2867 43.0696C38.3176 43.0387 38.3381 43.0079 38.3484 42.9873C38.5232 42.7406 38.6979 42.4836 38.8624 42.2266C39.2017 41.692 39.5101 41.1266 39.7877 40.5611C39.798 40.5406 39.8082 40.52 39.8185 40.4892L39.8288 40.4686C39.9624 40.1807 40.0961 39.8929 40.2195 39.5948C40.2297 39.5742 40.2297 39.5639 40.24 39.5434C40.4765 38.9574 40.6821 38.3611 40.8569 37.7545C40.9494 37.4153 41.0419 37.0863 41.1139 36.747C41.1139 36.7368 41.1139 36.7265 41.1241 36.7162C41.1961 36.4078 41.2578 36.0891 41.3092 35.7704C41.3092 35.7601 41.3092 35.7601 41.3092 35.7498C41.2372 35.647 41.155 35.5442 41.0727 35.4414ZM13.2741 27.5768C12.5339 27.5768 11.9377 26.9805 11.9377 26.2403C11.9377 25.5001 12.5339 24.9039 13.2741 24.9039C14.0143 24.9039 14.6106 25.5001 14.6106 26.2403C14.6106 26.9805 14.0143 27.5768 13.2741 27.5768Z" fill="#193561"/>
</svg>
