<svg width="111" height="67" viewBox="0 0 111 67" fill="none" xmlns="http://www.w3.org/2000/svg">
<path fill-rule="evenodd" clip-rule="evenodd" d="M43.0495 5.80053C48.176 2.64925 58.1452 -0.441409 67.8485 5.93406C68.7285 6.51224 69.2279 7.5087 69.2231 8.5571C69.2033 12.9419 68.8701 19.8412 67.6097 21.8192C67.4397 22.086 67.262 22.389 67.0685 22.7191C65.2195 25.8732 61.9189 31.5035 49.9517 31.6734C49.4795 31.7985 48.8185 32.2553 49.9517 33.0811C51.0848 33.907 53.5714 35.4899 54.6731 36.1782C55.0822 36.3971 56.0895 36.7037 56.8449 36.1782C56.9825 36.0825 57.2282 35.921 57.5542 35.707C59.4657 34.4514 64.1352 31.3844 65.91 29.1395C67.9874 26.5117 70.566 22.1007 70.9146 17.596C71.0435 15.9313 71.4104 11.3502 71.7108 7.78687C71.8027 6.69688 71.3786 5.61877 70.4866 4.97818C64.6236 0.767965 52.4736 -3.72368 40.5564 4.99095C39.678 5.63334 39.2223 6.69145 39.2822 7.77375L39.7535 16.2821C40.2256 19.7545 41.7553 24.8787 47.4965 26.9809C54.6731 29.6087 64.0214 25.1039 64.9657 17.596C65.91 10.088 60.1499 6.24018 55.8062 6.24018C52.4068 6.24018 46.4578 7.64792 45.7968 14.9682C45.8002 15.0627 45.8033 15.1588 45.8063 15.2564C45.8603 16.9681 45.9293 19.1556 48.252 21.8192C48.7556 22.1946 49.4606 23.0017 49.0074 23.6023C48.4408 24.3531 47.7798 24.3531 46.4578 23.3208C46.3247 23.2168 46.1743 23.1091 46.0112 22.9921C44.5541 21.9478 42.0761 20.1719 41.7364 13.842C41.6653 12.517 41.6438 11.3755 41.6247 10.3627C41.6144 9.81498 41.6048 9.30489 41.5884 8.82377C41.5477 7.62581 42.0238 6.43103 43.0495 5.80053ZM55.4285 22.1946C59.0269 22.1946 61.944 19.2954 61.944 15.719C61.944 12.1426 59.0269 9.24336 55.4285 9.24336C51.8301 9.24336 48.913 12.1426 48.913 15.719C48.913 19.2954 51.8301 22.1946 55.4285 22.1946Z" fill="white"/>
<path fill-rule="evenodd" clip-rule="evenodd" d="M52.5028 15.6238C52.5017 15.6554 52.5012 15.6871 52.5012 15.719C52.5012 17.3258 53.8118 18.6283 55.4285 18.6283C57.0452 18.6283 58.3557 17.3258 58.3557 15.719C58.3557 14.1431 57.0951 12.8598 55.5214 12.8111C55.4708 14.3738 54.1803 15.6252 52.5956 15.6252C52.5646 15.6252 52.5336 15.6247 52.5028 15.6238Z" fill="white"/>
<path d="M10.583 44.3116V46.6117H4.61978V50.2551H9.18956V52.5144H4.61978V58.519H1.75085V44.3116H10.583Z" fill="white"/>
<path d="M17.6585 58.7022C16.5656 58.7022 15.5819 58.4647 14.7076 57.9898C13.8333 57.5013 13.1433 56.816 12.6379 55.934C12.1461 55.052 11.9001 54.0342 11.9001 52.8808C11.9001 51.7274 12.1529 50.7097 12.6584 49.8277C13.1775 48.9456 13.8811 48.2672 14.7691 47.7922C15.6571 47.3037 16.6475 47.0595 17.7405 47.0595C18.8334 47.0595 19.8238 47.3037 20.7118 47.7922C21.5998 48.2672 22.2966 48.9456 22.8021 49.8277C23.3212 50.7097 23.5808 51.7274 23.5808 52.8808C23.5808 54.0342 23.3144 55.052 22.7816 55.934C22.2624 56.816 21.552 57.5013 20.6504 57.9898C19.7624 58.4647 18.7651 58.7022 17.6585 58.7022ZM17.6585 56.2189C18.1776 56.2189 18.6626 56.0968 19.1134 55.8526C19.5779 55.5947 19.9468 55.2148 20.22 54.7127C20.4933 54.2106 20.6299 53.6 20.6299 52.8808C20.6299 51.8088 20.343 50.9879 19.7692 50.4179C19.2091 49.8344 18.5192 49.5427 17.6995 49.5427C16.8798 49.5427 16.1899 49.8344 15.6297 50.4179C15.0833 50.9879 14.8101 51.8088 14.8101 52.8808C14.8101 53.9528 15.0765 54.7806 15.6093 55.3641C16.1557 55.934 16.8388 56.2189 17.6585 56.2189Z" fill="white"/>
<path d="M36.4027 47.2426V58.519H33.5133V57.0942C33.1444 57.5827 32.6594 57.9694 32.0583 58.2544C31.4709 58.5258 30.8288 58.6615 30.1321 58.6615C29.2441 58.6615 28.4585 58.4783 27.7754 58.1119C27.0924 57.732 26.5527 57.1824 26.1566 56.4632C25.774 55.7304 25.5828 54.862 25.5828 53.8578V47.2426H28.4517V53.4507C28.4517 54.3463 28.6771 55.0384 29.1279 55.5269C29.5788 56.0018 30.1935 56.2393 30.9722 56.2393C31.7646 56.2393 32.3862 56.0018 32.837 55.5269C33.2879 55.0384 33.5133 54.3463 33.5133 53.4507V47.2426H36.4027Z" fill="white"/>
<path d="M42.1023 43.4567V58.519H39.2334V43.4567H42.1023Z" fill="white"/>
<path d="M49.2812 58.7022C48.3522 58.7022 47.5188 58.5394 46.7811 58.2137C46.0434 57.8744 45.4559 57.4199 45.0188 56.8499C44.5953 56.28 44.363 55.649 44.322 54.957H47.2114C47.2661 55.3912 47.4778 55.7508 47.8467 56.0358C48.2292 56.3207 48.7005 56.4632 49.2607 56.4632C49.8071 56.4632 50.2306 56.3546 50.5312 56.1375C50.8454 55.9204 51.0025 55.6422 51.0025 55.303C51.0025 54.9366 50.8112 54.6652 50.4287 54.4888C50.0599 54.2988 49.4656 54.0953 48.6459 53.8782C47.7989 53.6746 47.1021 53.4643 46.5557 53.2472C46.0229 53.0301 45.5584 52.6976 45.1622 52.2498C44.7797 51.802 44.5884 51.1982 44.5884 50.4383C44.5884 49.8141 44.766 49.2442 45.1212 48.7285C45.4901 48.2129 46.0092 47.8058 46.6786 47.5073C47.3617 47.2087 48.1609 47.0595 49.0762 47.0595C50.4287 47.0595 51.508 47.3987 52.314 48.0772C53.12 48.7421 53.564 49.6445 53.646 50.7843H50.9C50.8591 50.3365 50.6678 49.9837 50.3263 49.7259C49.9984 49.4545 49.5544 49.3188 48.9943 49.3188C48.4751 49.3188 48.0721 49.4138 47.7852 49.6038C47.512 49.7937 47.3754 50.0583 47.3754 50.3976C47.3754 50.7775 47.5666 51.0693 47.9492 51.2728C48.3317 51.4628 48.926 51.6596 49.732 51.8631C50.5517 52.0666 51.2279 52.277 51.7607 52.4941C52.2935 52.7112 52.7512 53.0504 53.1337 53.5118C53.5299 53.9596 53.7348 54.5567 53.7485 55.303C53.7485 55.9543 53.564 56.5378 53.1952 57.0535C52.84 57.5691 52.3208 57.9762 51.6378 58.2747C50.9684 58.5597 50.1828 58.7022 49.2812 58.7022Z" fill="white"/>
<path d="M60.2897 51.3949C60.2897 49.9973 60.6039 48.7489 61.2323 47.6497C61.8744 46.537 62.7419 45.6754 63.8349 45.0647C64.9414 44.4405 66.1778 44.1284 67.544 44.1284C69.1424 44.1284 70.5427 44.5355 71.7449 45.3497C72.9471 46.1639 73.7873 47.2901 74.2654 48.7285H70.9662C70.6383 48.05 70.1738 47.5412 69.5727 47.2019C68.9853 46.8627 68.3022 46.6931 67.5235 46.6931C66.6901 46.6931 65.9456 46.8898 65.2898 47.2834C64.6477 47.6633 64.1422 48.2061 63.7734 48.9117C63.4182 49.6173 63.2406 50.4451 63.2406 51.3949C63.2406 52.3313 63.4182 53.159 63.7734 53.8782C64.1422 54.5838 64.6477 55.1334 65.2898 55.5269C65.9456 55.9068 66.6901 56.0968 67.5235 56.0968C68.3022 56.0968 68.9853 55.9272 69.5727 55.588C70.1738 55.2352 70.6383 54.7195 70.9662 54.041H74.2654C73.7873 55.493 72.9471 56.626 71.7449 57.4402C70.5563 58.2408 69.156 58.6411 67.544 58.6411C66.1778 58.6411 64.9414 58.3358 63.8349 57.7252C62.7419 57.101 61.8744 56.2393 61.2323 55.1402C60.6039 54.041 60.2897 52.7926 60.2897 51.3949Z" fill="white"/>
<path d="M75.9781 52.8401C75.9781 51.7003 76.2036 50.6893 76.6544 49.8073C77.1189 48.9253 77.7405 48.2468 78.5192 47.7719C79.3116 47.2969 80.1927 47.0595 81.1627 47.0595C82.0097 47.0595 82.7474 47.2291 83.3759 47.5683C84.018 47.9076 84.5303 48.335 84.9128 48.8506V47.2426H87.8022V58.519H84.9128V56.8703C84.5439 57.3995 84.0316 57.8405 83.3759 58.1933C82.7338 58.5326 81.9892 58.7022 81.1422 58.7022C80.1859 58.7022 79.3116 58.4579 78.5192 57.9694C77.7405 57.4809 77.1189 56.7957 76.6544 55.9136C76.2036 55.018 75.9781 53.9935 75.9781 52.8401ZM84.9128 52.8808C84.9128 52.1888 84.7762 51.5985 84.5029 51.11C84.2297 50.6079 83.8609 50.228 83.3964 49.9701C82.9319 49.6987 82.4332 49.5631 81.9004 49.5631C81.3676 49.5631 80.8758 49.692 80.425 49.9498C79.9741 50.2076 79.6053 50.5876 79.3184 51.0896C79.0452 51.5781 78.9085 52.1616 78.9085 52.8401C78.9085 53.5186 79.0452 54.1157 79.3184 54.6313C79.6053 55.1334 79.9741 55.5201 80.425 55.7915C80.8895 56.0629 81.3813 56.1986 81.9004 56.1986C82.4332 56.1986 82.9319 56.0697 83.3964 55.8119C83.8609 55.5405 84.2297 55.1605 84.5029 54.672C84.7762 54.1699 84.9128 53.5729 84.9128 52.8808Z" fill="white"/>
<path d="M104.703 47.0798C106.096 47.0798 107.217 47.5073 108.064 48.3621C108.924 49.2035 109.355 50.384 109.355 51.9038V58.519H106.486V52.2905C106.486 51.4085 106.26 50.7368 105.81 50.2755C105.359 49.8005 104.744 49.5631 103.965 49.5631C103.186 49.5631 102.565 49.8005 102.1 50.2755C101.65 50.7368 101.424 51.4085 101.424 52.2905V58.519H98.5552V52.2905C98.5552 51.4085 98.3298 50.7368 97.879 50.2755C97.4282 49.8005 96.8134 49.5631 96.0347 49.5631C95.2423 49.5631 94.6139 49.8005 94.1494 50.2755C93.6985 50.7368 93.4731 51.4085 93.4731 52.2905V58.519H90.6042V47.2426H93.4731V48.6064C93.842 48.1315 94.3133 47.7583 94.8871 47.4869C95.4745 47.2155 96.1166 47.0798 96.8134 47.0798C97.7014 47.0798 98.4937 47.2698 99.1905 47.6497C99.8872 48.0161 100.427 48.5453 100.809 49.2374C101.178 48.586 101.711 48.0636 102.408 47.6701C103.118 47.2766 103.883 47.0798 104.703 47.0798Z" fill="white"/>
</svg>
