<?xml version="1.0" encoding="utf-8"?>
<!-- Generator: Adobe Illustrator 19.0.0, SVG Export Plug-In . SVG Version: 6.00 Build 0)  -->
<svg version="1.1" id="Layer_1" xmlns="http://www.w3.org/2000/svg" xmlns:xlink="http://www.w3.org/1999/xlink" x="0px" y="0px"
	 viewBox="-49 141 512 512" style="enable-background:new -49 141 512 512;" xml:space="preserve">
<style type="text/css">
	.st0{fill:url(#XMLID_2_);}
</style>
<g id="Layer_1_1_">
</g>
<linearGradient id="XMLID_2_" gradientUnits="userSpaceOnUse" x1="8.191" y1="398.8763" x2="405.9999" y2="398.8763" gradientTransform="matrix(1 0 0 -1 0 796)">
	<stop  offset="0" style="stop-color:#059B9A"/>
	<stop  offset="0.1104" style="stop-color:#21A692"/>
	<stop  offset="0.3147" style="stop-color:#4DB884"/>
	<stop  offset="0.5111" style="stop-color:#71C679"/>
	<stop  offset="0.695" style="stop-color:#8AD171"/>
	<stop  offset="0.8615" style="stop-color:#9AD76D"/>
	<stop  offset="0.995" style="stop-color:#9FD96B"/>
</linearGradient>
<path id="XMLID_16_" class="st0" d="M364.9,365.7c18.6-8,24.9-25.7,24.9-50.6v-20.4c0-43.9-20.9-74.1-87.4-74.1h-48.2
	c-8.4,0-15.1,6.8-15.1,15.1v49.6c0,8.4,6.8,15.1,15.1,15.1h18c15.5,0,19.5,8.9,19.5,20.9v15.1c0,12-4,20.9-19.5,20.9l-160.5,0
	c-7.7,0-13.9-6.2-13.9-13.9l0.1-29.1c0-7.7,6.2-13.8,13.9-13.8l76,0c8.4,0,15.1-6.8,15.1-15.1v-49.7c0-8.4-6.8-15.1-15.1-15.1h-105
	c-57.7,0-74.2,27.5-74.2,78.1v46.6c0,40.4,0,76,29,86.8c7.7,2.9,15.9,4.4,24.2,5.1l40.5,0.1c6.4,1.2,11.3,6.9,11.3,13.7l-0.1,29.1
	c0,7.7-6.2,13.8-13.9,13.8l-76.4,0c-8.4,0-15.1,6.8-15.1,15.1v49.7c0,8.4,6.8,15.1,15.1,15.1h105.3c57.7,0,74.2-27.5,74.2-78.1
	c0,0,0-54.4,0-58.1l98.2,0.1c12.4,0,16.9,5.8,16.9,19.1v98.2c0,8.8,7.2,16,16,16H390c8.8,0,16-7.2,16-16V430
	C406,392.7,397.3,369.2,364.9,365.7z"/>
</svg>
