<svg width="137" height="24" viewBox="0 0 137 24" fill="none" xmlns="http://www.w3.org/2000/svg">
<path fill-rule="evenodd" clip-rule="evenodd" d="M2.44168 3.75428C5.75974 1.71468 12.2121 -0.285693 18.4924 3.84071C19.0619 4.21492 19.3851 4.85986 19.3821 5.53842C19.3692 8.37636 19.1536 12.8418 18.3378 14.122C18.2278 14.2947 18.1128 14.4908 17.9875 14.7045C16.7908 16.7459 14.6546 20.39 6.90898 20.5C6.6034 20.581 6.17558 20.8766 6.90898 21.4111C7.64238 21.9456 9.25178 22.9702 9.96481 23.4156C10.2297 23.5573 10.8816 23.7558 11.3705 23.4156C11.4595 23.3537 11.6186 23.2492 11.8296 23.1106C13.0668 22.298 16.089 20.313 17.2377 18.8599C18.5822 17.1592 20.2512 14.3043 20.4769 11.3886C20.5603 10.3112 20.7977 7.34618 20.9922 5.0399C21.0517 4.33442 20.7772 3.63664 20.1998 3.22203C16.4051 0.49705 8.54125 -2.41008 0.828091 3.2303C0.259526 3.64607 -0.0354025 4.33091 0.00339467 5.03141L0.308392 10.5383C0.613975 12.7857 1.60406 16.1022 5.31995 17.4629C9.96481 19.1637 16.0154 16.248 16.6265 11.3886C17.2377 6.52926 13.5096 4.03883 10.6982 4.03883C8.49801 4.03883 4.64767 4.94997 4.21985 9.68786C4.22205 9.74905 4.22401 9.81124 4.22601 9.87443C4.26095 10.9822 4.3056 12.3981 5.80888 14.122C6.13484 14.365 6.59118 14.8874 6.29782 15.2761C5.93112 15.7621 5.5033 15.7621 4.64767 15.0939C4.5615 15.0266 4.46418 14.9569 4.35857 14.8812C3.41548 14.2053 1.81169 13.0558 1.59184 8.95896C1.54582 8.10141 1.5319 7.36259 1.51954 6.70707C1.51286 6.35256 1.50664 6.02241 1.49605 5.71101C1.46968 4.93565 1.77781 4.16236 2.44168 3.75428ZM10.4537 14.365C12.7828 14.365 14.6708 12.4885 14.6708 10.1738C14.6708 7.85906 12.7828 5.98259 10.4537 5.98259C8.12474 5.98259 6.2367 7.85906 6.2367 10.1738C6.2367 12.4885 8.12474 14.365 10.4537 14.365Z" fill="white"/>
<path fill-rule="evenodd" clip-rule="evenodd" d="M8.56012 10.1122C8.55946 10.1326 8.55913 10.1532 8.55913 10.1738C8.55913 11.2138 9.40738 12.0568 10.4537 12.0568C11.5001 12.0568 12.3484 11.2138 12.3484 10.1738C12.3484 9.15383 11.5324 8.32327 10.5139 8.29172C10.4811 9.30316 9.64586 10.1131 8.62024 10.1131C8.60012 10.1131 8.58009 10.1128 8.56012 10.1122Z" fill="white"/>
<path d="M37.8322 5.31161V7.61166H31.8689V11.2551H36.4387V13.5144H31.8689V19.519H29V5.31161H37.8322Z" fill="white"/>
<path d="M44.9076 19.7022C43.8147 19.7022 42.8311 19.4647 41.9567 18.9898C41.0824 18.5013 40.3925 17.816 39.887 16.934C39.3952 16.052 39.1493 15.0342 39.1493 13.8808C39.1493 12.7274 39.402 11.7097 39.9075 10.8277C40.4266 9.94563 41.1302 9.26715 42.0182 8.79222C42.9062 8.30371 43.8967 8.05946 44.9896 8.05946C46.0825 8.05946 47.073 8.30371 47.961 8.79222C48.849 9.26715 49.5457 9.94563 50.0512 10.8277C50.5703 11.7097 50.8299 12.7274 50.8299 13.8808C50.8299 15.0342 50.5635 16.052 50.0307 16.934C49.5116 17.816 48.8012 18.5013 47.8995 18.9898C47.0115 19.4647 46.0142 19.7022 44.9076 19.7022ZM44.9076 17.2189C45.4268 17.2189 45.9118 17.0968 46.3626 16.8526C46.8271 16.5947 47.1959 16.2148 47.4692 15.7127C47.7424 15.2106 47.879 14.6 47.879 13.8808C47.879 12.8088 47.5921 11.9879 47.0183 11.4179C46.4582 10.8344 45.7683 10.5427 44.9486 10.5427C44.1289 10.5427 43.439 10.8344 42.8789 11.4179C42.3324 11.9879 42.0592 12.8088 42.0592 13.8808C42.0592 14.9528 42.3256 15.7806 42.8584 16.3641C43.4049 16.934 44.0879 17.2189 44.9076 17.2189Z" fill="white"/>
<path d="M63.6519 8.24265V19.519H60.7624V18.0942C60.3936 18.5827 59.9086 18.9694 59.3075 19.2544C58.72 19.5258 58.0779 19.6615 57.3812 19.6615C56.4932 19.6615 55.7077 19.4783 55.0246 19.1119C54.3415 18.732 53.8019 18.1824 53.4057 17.4632C53.0232 16.7304 52.8319 15.862 52.8319 14.8578V8.24265H55.7008V14.4507C55.7008 15.3463 55.9263 16.0384 56.3771 16.5269C56.8279 17.0018 57.4427 17.2393 58.2214 17.2393C59.0138 17.2393 59.6354 17.0018 60.0862 16.5269C60.537 16.0384 60.7624 15.3463 60.7624 14.4507V8.24265H63.6519Z" fill="white"/>
<path d="M69.3514 4.45673V19.519H66.4825V4.45673H69.3514Z" fill="white"/>
<path d="M76.5303 19.7022C75.6013 19.7022 74.768 19.5394 74.0302 19.2137C73.2925 18.8744 72.7051 18.4199 72.2679 17.8499C71.8444 17.28 71.6121 16.649 71.5712 15.957H74.4606C74.5152 16.3912 74.727 16.7508 75.0958 17.0358C75.4784 17.3207 75.9497 17.4632 76.5098 17.4632C77.0563 17.4632 77.4798 17.3546 77.7803 17.1375C78.0945 16.9204 78.2517 16.6422 78.2517 16.303C78.2517 15.9366 78.0604 15.6652 77.6779 15.4888C77.309 15.2988 76.7147 15.0953 75.895 14.8782C75.048 14.6746 74.3513 14.4643 73.8048 14.2472C73.272 14.0301 72.8075 13.6976 72.4113 13.2498C72.0288 12.802 71.8376 12.1982 71.8376 11.4383C71.8376 10.8141 72.0152 10.2442 72.3704 9.72852C72.7392 9.21288 73.2584 8.80579 73.9278 8.50726C74.6109 8.20872 75.4101 8.05946 76.3254 8.05946C77.6779 8.05946 78.7571 8.3987 79.5632 9.07718C80.3692 9.74209 80.8132 10.6445 80.8952 11.7843H78.1492C78.1082 11.3365 77.9169 10.9837 77.5754 10.7259C77.2475 10.4545 76.8035 10.3188 76.2434 10.3188C75.7243 10.3188 75.3213 10.4138 75.0344 10.6038C74.7611 10.7937 74.6245 11.0583 74.6245 11.3976C74.6245 11.7775 74.8158 12.0693 75.1983 12.2728C75.5808 12.4628 76.1751 12.6596 76.9811 12.8631C77.8008 13.0666 78.4771 13.277 79.0099 13.4941C79.5427 13.7112 80.0003 14.0504 80.3829 14.5118C80.779 14.9596 80.984 15.5567 80.9976 16.303C80.9976 16.9543 80.8132 17.5378 80.4443 18.0535C80.0891 18.5691 79.57 18.9762 78.8869 19.2747C78.2175 19.5597 77.432 19.7022 76.5303 19.7022Z" fill="white"/>
<path d="M87.5388 12.3949C87.5388 10.9973 87.8531 9.74888 88.4815 8.64974C89.1236 7.53703 89.9911 6.67536 91.084 6.06473C92.1906 5.44052 93.427 5.12842 94.7931 5.12842C96.3915 5.12842 97.7918 5.53551 98.994 6.34969C100.196 7.16386 101.036 8.29014 101.515 9.72852H98.2153C97.8874 9.05004 97.423 8.54118 96.8218 8.20194C96.2344 7.8627 95.5513 7.69308 94.7726 7.69308C93.9393 7.69308 93.1947 7.88984 92.539 8.28336C91.8969 8.66331 91.3914 9.20609 91.0225 9.91171C90.6673 10.6173 90.4897 11.4451 90.4897 12.3949C90.4897 13.3313 90.6673 14.159 91.0225 14.8782C91.3914 15.5838 91.8969 16.1334 92.539 16.5269C93.1947 16.9068 93.9393 17.0968 94.7726 17.0968C95.5513 17.0968 96.2344 16.9272 96.8218 16.588C97.423 16.2352 97.8874 15.7195 98.2153 15.041H101.515C101.036 16.493 100.196 17.626 98.994 18.4402C97.8055 19.2408 96.4052 19.6411 94.7931 19.6411C93.427 19.6411 92.1906 19.3358 91.084 18.7252C89.9911 18.101 89.1236 17.2393 88.4815 16.1402C87.8531 15.041 87.5388 13.7926 87.5388 12.3949Z" fill="white"/>
<path d="M103.227 13.8401C103.227 12.7003 103.453 11.6893 103.904 10.8073C104.368 9.92528 104.99 9.2468 105.768 8.77186C106.561 8.29693 107.442 8.05946 108.412 8.05946C109.259 8.05946 109.997 8.22908 110.625 8.56832C111.267 8.90756 111.779 9.335 112.162 9.85065V8.24265H115.051V19.519H112.162V17.8703C111.793 18.3995 111.281 18.8405 110.625 19.1933C109.983 19.5326 109.238 19.7022 108.391 19.7022C107.435 19.7022 106.561 19.4579 105.768 18.9694C104.99 18.4809 104.368 17.7957 103.904 16.9136C103.453 16.018 103.227 14.9935 103.227 13.8401ZM112.162 13.8808C112.162 13.1888 112.025 12.5985 111.752 12.11C111.479 11.6079 111.11 11.228 110.646 10.9701C110.181 10.6987 109.682 10.5631 109.15 10.5631C108.617 10.5631 108.125 10.692 107.674 10.9498C107.223 11.2076 106.854 11.5876 106.568 12.0896C106.294 12.5781 106.158 13.1616 106.158 13.8401C106.158 14.5186 106.294 15.1157 106.568 15.6313C106.854 16.1334 107.223 16.5201 107.674 16.7915C108.139 17.0629 108.63 17.1986 109.15 17.1986C109.682 17.1986 110.181 17.0697 110.646 16.8119C111.11 16.5405 111.479 16.1605 111.752 15.672C112.025 15.1699 112.162 14.5729 112.162 13.8808Z" fill="white"/>
<path d="M131.952 8.07981C133.346 8.07981 134.466 8.50726 135.313 9.36214C136.173 10.2035 136.604 11.384 136.604 12.9038V19.519H133.735V13.2905C133.735 12.4085 133.509 11.7368 133.059 11.2755C132.608 10.8005 131.993 10.5631 131.214 10.5631C130.436 10.5631 129.814 10.8005 129.35 11.2755C128.899 11.7368 128.673 12.4085 128.673 13.2905V19.519H125.804V13.2905C125.804 12.4085 125.579 11.7368 125.128 11.2755C124.677 10.8005 124.063 10.5631 123.284 10.5631C122.491 10.5631 121.863 10.8005 121.399 11.2755C120.948 11.7368 120.722 12.4085 120.722 13.2905V19.519H117.853V8.24265H120.722V9.60639C121.091 9.13146 121.562 8.75829 122.136 8.4869C122.724 8.21551 123.366 8.07981 124.063 8.07981C124.951 8.07981 125.743 8.26979 126.44 8.64974C127.136 9.01612 127.676 9.54533 128.059 10.2374C128.427 9.58604 128.96 9.06361 129.657 8.67009C130.367 8.27657 131.132 8.07981 131.952 8.07981Z" fill="white"/>
</svg>
